<?xml version="1.0" encoding="utf-8"?>
<!-- Generator: Adobe Illustrator 19.0.0, SVG Export Plug-In . SVG Version: 6.00 Build 0)  -->
<svg version="1.1" xmlns="http://www.w3.org/2000/svg" xmlns:xlink="http://www.w3.org/1999/xlink" x="0px" y="0px"
	 viewBox="0 0 10800 2332" style="enable-background:new 0 0 10800 2332;" xml:space="preserve">
<style type="text/css">
	.st0{fill:#FFFFFF;}
</style>
<g id="viens">
	
		<path d="M4512,543c26.2-12.9,31.7-26.3,32.7-55.7c1.7-49.1-2.5-96.6-16.4-143.7c-7.7-26.4-16.6-52.6-36.3-72.4
			c-26.7-26.8-70.1-38.8-105.6-47.9c-76.2-19.4-151.6-40.5-226.5-64.4c-81.3-25.9-163.1-52.9-247.9-64.9
			c-40.1-5.7-83.4-15.4-123.8-10.2c-43.3,5.6-78.1,29.1-108.6,58.8c-27.7,26.9-53.5,55.7-81.2,82.5c-29.4,28.4-64.5,49.9-95.5,76.6
			c-86.8,75.2-184,142.7-255.3,233.4c-27.2,34.6-56,66.7-79.7,103.9c-22.2,34.9-44.1,58.2-79.4,79.8
			c-81,49.7-152.7,110.3-238.6,152.6c-73.3,36.1-153.2,51.8-227.6,85.3c-34.3,15.4-69.2,28.6-102.3,46.8
			c-66.1,36.3-139.2,52-206.9,84.6c-57.4,27.6-115.6,63.5-160.3,109.1c-29.5,30.1-58.5,63.4-97.3,82
			c-69.7,33.4-152.6,37.9-227.7,48.1c-124.5,17-252.2,29-378,28.7c-89.6-0.2-199.5-18-274.4-71.9c-33.6-24.2-67.4-46.5-102.4-68.6
			c-32.5-20.5-59.5-49.8-95-65.2c-102.1-44.1-207-81.8-307.7-129.2c-16.4-7.7-31.6-17.5-48.3-24.4c-9.3-3.9-28.1-15.2-38.2-14.8
			c-47.2,1.9,15.6,52.3,23.9,58.7c64.9,50.4,107.4,123.4,154.2,190c15.4,21.9,27.6,44.3,47.7,62.4c15.7,14,30.8,25.4,43.2,42.5
			c42.7,59.2,107.5,85.3,171.3,117.3c31.9,16,63.3,33.4,95.6,48.4c29.4,13.7,61.4,18.8,91.5,30.3c82.4,31.4,161,72.2,244.5,101.5
			c84.4,29.6,169.6,53.7,251.7,89.6c43.9,19.2,87.7,36.2,132.8,52.3c65.5,23.3,134.1,35.6,200.5,56.1
			c93.5,28.8,181.1,43.9,278.7,32.3c105-12.4,196.6-74.9,289.1-122.7c57-29.4,108.6-65.2,168.1-90.1c25.2-10.6,39.5-18.4,59.4-36.3
			c26.6-24,60.8-39.2,92.6-55.8c31.6-16.4,55.2-38.9,83.9-59.6c50.4-36.3,102-72.8,149.1-113.8c28.4-24.7,61.4-43.2,89.9-67.3
			c11.2-9.4,19.3-20.1,29.4-30.6c25.6-26.7,58.8-39.6,85.3-65.1c40.9-39.5,72-87.9,113.9-126.6c17.8-16.4,37.2-27.9,56.9-41.2
			c24.5-16.6,41.2-34.6,62.2-55.2c35.5-34.9,77.9-57.3,120.4-82.2c62.6-36.6,126.8-74.5,192.7-104.8c45-20.7,90.3-37.5,133.8-61.4
			c39.1-21.5,82-40,123.6-56c95.4-36.7,203.2-29,290.9-84.2c22.4-14.1,33.8-31.3,35.7-58.1c0.5-6.7-2.7-17.1,0.3-24
			c4.8-10.8,18.2-13.8,25.8-21.6c15-15.5,37.2-65.9,13.4-84"/>
	
</g>
<g id="noclick">
	
		
			<path class="st0" d="M1826,1571c0-8.5,11.1-15.3,17.1-19.7c9.7-7.1,17.6-15.1,25.7-24c7.5-8.2,15.6-16.2,23.5-24
				c7.3-7.1,16.4-16,27.1-16.8c-1.4-0.6-2.8-1.2-4.2-1.8c10.1,12.5,4.5,32,1.1,46c-2.1,8.5-4,17-5.1,25.7
				c-0.6,5.2-1.1,10.6-1.3,15.8c-0.1,3.9,1.1,7.6-2.2,10.4c-6,4.9,2.6,13.4,8.5,8.5c7.8-6.5,5.5-17.4,6.2-26.4
				c0.8-9.8,2.6-19.2,4.9-28.8c4-16.5,9-35.5,1.5-51.8c-1.5-3.3-4.1-8.4-7.8-9.5c-3.9-1.1-9.3,0.9-13,2.4c-8,3.3-14.8,8.8-21.1,14.6
				c-6.2,5.8-11.9,12.2-18,18.2c-7.7,7.5-14.4,15.9-22.2,23.2c-11.5,10.7-33,19.5-32.9,37.9C1814,1578.7,1826,1578.7,1826,1571
				L1826,1571z"/>
		
	
	
		
			<path class="st0" d="M1857.6,1548.8c11.5-3.1,23.2-5.8,34.9-8.1c8.7-1.7,17.4-2.7,23.8-9.4c5.3-5.6-3.1-14.1-8.5-8.5
				c-5.3,5.6-14.9,5.5-22,7.1c-10.5,2.2-21,4.6-31.3,7.4C1847,1539.2,1850.1,1550.8,1857.6,1548.8L1857.6,1548.8z"/>
		
	
	
		
			<path class="st0" d="M1997.8,1588.6c1.2-8.2-0.1-15.7-2.5-23.5c-2.2-7.2-5.1-14.3-5.6-21.9c-1.1-17.8-0.9-35.9-0.3-53.7
				c0.2-6.4-0.2-12.6,3.3-18.1c2.8-4.4,7-7.8,11.4-10.5c9.4-5.7,20.9-9.2,31.9-7.9c7.7,0.9,7.6-11.1,0-12
				c-22.1-2.7-55.3,12.1-58,36.7c-2.1,18.7-1.1,38.3-0.6,57.1c0.3,8.9,1.1,17.1,3.8,25.7c2.5,7.9,6.2,16.4,5,24.9
				c-0.5,3.2,0.8,6.4,4.2,7.4C1993.2,1593.6,1997.3,1591.8,1997.8,1588.6L1997.8,1588.6z"/>
		
	
	
		
			<path class="st0" d="M1980,1541c10.9,1.3,18.9-3.9,28.8-7.2c8.2-2.7,17.3-3.9,23.4-10.5c5.2-5.7-3.2-14.2-8.5-8.5
				c-4.8,5.2-13,5.6-19.3,7.9c-8.4,3-15.2,7.5-24.5,6.4C1972.3,1528.1,1972.4,1540.1,1980,1541L1980,1541z"/>
		
	
	
		
			<path class="st0" d="M2140.2,1534.8c-9.9-10.8-12.9-27.5-15.3-41.4c-3.4-19.4-3-38.7-2.9-58.3c0-7.7-12-7.7-12,0
				c-0.1,21.2-0.2,41.9,3.6,62.8c2.9,15.9,6.9,33.2,18.2,45.4C2137,1548.9,2145.5,1540.4,2140.2,1534.8L2140.2,1534.8z"/>
		
	
	
		
			<path class="st0" d="M2064.2,1463.2c6-6.9,12.6-11.1,21.2-14c4.7-1.6,9.4-3.1,13.6-5.8c4.2-2.6,8-5.8,12.2-8.3
				c3.5-2,7.2-3.8,10.5-6.2c3.9-2.9,7.5-6,11.9-8.2c9.1-4.5,18.6-6.9,26.5-13.6c5.9-5-2.6-13.4-8.5-8.5c-7.5,6.4-17.7,8.1-26.2,12.8
				c-4.1,2.3-7.4,5.5-11.3,8.1c-3.7,2.5-7.9,4.3-11.7,6.8c-3.9,2.5-7.5,5.6-11.5,7.8c-4.2,2.3-9,3.3-13.4,5
				c-8.6,3.4-15.8,8.4-21.9,15.4C2050.7,1460.6,2059.2,1469.1,2064.2,1463.2L2064.2,1463.2z"/>
		
	
	
		
			<path class="st0" d="M2178,1391c2.3,21.6,4.1,43,4,64.8c0,9.7,0.5,19.5-0.3,29.2c-0.6,7.4-1.5,15.3,2.4,22
				c11.9,20.6,39.1-1.3,50.4-11c7.6-6.5,14.7-13.6,21.7-20.8c5.4-5.5-3.1-14-8.5-8.5c-11.7,12-23.9,24.8-38.7,33
				c-2.9,1.6-7,3.4-9.6,3.6c-1.6,0.1-2.4,0-2.9-0.2c-0.8-0.3-1.3-0.8-2-1.9c-3.1-5-1.2-12.3-0.8-17.8c0.7-8.9,0.2-17.9,0.2-26.8
				c0-22.1-1.7-43.8-4-65.7C2189.2,1383.4,2177.2,1383.3,2178,1391L2178,1391z"/>
		
	
	
		
			<path class="st0" d="M2172.2,1451.2c-1.6,1.4,0.8-0.4,1.4-0.7c1-0.6,2.1-1,3.2-1.5c2.9-1.3,5.9-2.5,8.9-3.7
				c7.8-3.2,15.7-6.3,23.2-10.1c9.3-4.6,29-17,15.2-28.4c-5.9-4.9-14.4,3.5-8.5,8.5c0.5,0.4,0.9,0.8,1.3,1.2
				c-0.3-0.3-0.4,0.1-0.3-0.6c-0.1,0.4,0.1-0.5,0.1-0.5c0,0-0.7,1-0.8,1.1c-0.7,0.7-1.8,1.7-2.3,2.1c-5.3,4-11.7,6.8-17.7,9.5
				c-6.2,2.8-12.6,5.2-18.9,7.9c-4.5,1.9-9.5,3.5-13.2,6.8C2157.9,1447.8,2166.4,1456.3,2172.2,1451.2L2172.2,1451.2z"/>
		
	
	
		
			<path class="st0" d="M2185.8,1392.6c3.2-10,12.9-14.8,21.9-18.6c9.9-4.3,20-7.9,28.6-14.7c6-4.8-2.5-13.3-8.5-8.5
				c-8.8,7.1-20.5,10-30.5,14.8c-10.5,5.1-19.4,12.4-23,23.8C2171.9,1396.8,2183.4,1399.9,2185.8,1392.6L2185.8,1392.6z"/>
		
	
	
		
			<path class="st0" d="M2282.2,1328.6c5.2,20.9,4.1,42.5,3.8,63.9c-0.3,22.2,0,44.3,0,66.5c0,7.7,12,7.7,12,0
				c0-22.8-0.2-45.6,0.1-68.4c0.3-21.9,1-43.8-4.3-65.2C2291.9,1317.9,2280.4,1321.1,2282.2,1328.6L2282.2,1328.6z"/>
		
	
	
		
			<path class="st0" d="M2289.8,1356.6c3.1-12.2,17.4-26.2,30.3-27.1c12.4-0.9,21.7,12.2,27.3,21.5c6.1,10.1,14.2,24.6,12.2,36.8
				c-1.4,8.1-8.8,12.7-15.2,16.8c-7.7,5-16,9.2-25,11.3c-5.3,1.3-10.9,1.9-16.3,2.2c-3.3,0.2-12.1,0.7-13.3-1.8c0,2,0,4,0,6.1
				c6.9-10.2,18.9-16.4,31-18.3c6.1-0.9,12.5-0.7,18.4,1.1c6.5,2,12.1,6.3,18,9.3c7,3.5,14.3,6.8,20.6,11.3
				c4.1,2.9,6.5,7.1,9.3,11.2c6.3,9.5,14,18.2,26.5,15.6c7.6-1.6,4.4-13.2-3.2-11.6c-4.8,1-8.2-3.3-10.8-6.8
				c-3.2-4.4-5.9-9.3-9.5-13.4c-4.6-5.2-11.3-8.6-17.3-11.8c-7.3-3.8-14.5-7.6-21.6-11.6c-23.8-13.2-56.8-3.1-71.7,18.9
				c-1.2,1.8-0.9,4.2,0,6.1c5.8,11.8,26.8,7.8,37,6.3c9.9-1.5,19.3-5.1,28-10.1c8.9-5,19.6-11.3,24.4-20.7c8-15.9-1-35-8.8-49.2
				c-7.5-13.7-19.1-29.3-35.9-31.1c-10-1.1-19.4,3.8-27.1,9.7c-8.5,6.6-16.1,15.4-18.8,26
				C2276.3,1360.9,2287.9,1364.1,2289.8,1356.6L2289.8,1356.6z"/>
		
	
	
		
			<path class="st0" d="M1770.4,1509.2c-32.8,10.4-68,3.7-100.7-3.7c-37.2-8.4-74.4-16.7-111.1-27.3c-18.4-5.3-36.5-11.7-54.8-17.5
				c-18.4-5.9-37-11.4-55.2-17.9c-17.7-6.2-35-12.3-53.3-16.5c-17.9-4.2-36-7.7-53.7-12.9c-17.9-5.2-35.6-11-53.7-15.5
				c-18.5-4.6-37.4-7.2-56-11.3c-9.4-2.1-18.8-4.1-28.3-5.3c-9.3-1.2-18.8-1.9-28-3.9c-17.1-3.9-33.3-11.6-49.1-18.9
				c-16.6-7.7-34.3-14.2-49.9-23.7c-14.6-8.8-27.2-20.3-41.9-29c-15.9-9.4-32.5-17-49.4-24.4c-15.2-6.6-28.5-16.2-41.7-26.1
				c-29.5-22.2-59.8-43.1-87.5-67.7c-6.7-6-13-12.6-20-18.3c-6.7-5.5-14.3-9.7-21.6-14.4c-7-4.5-13-10.2-20-14.7
				c-6.5-4.3-12.3-8.6-18.2-13.7c-5.5-4.7-11.1-8.9-18-11.3c-4.2-1.4-8.8,3.2-7.4,7.4c3.9,11.7,12.6,20.5,20.7,29.4
				c7.8,8.6,15.2,17.8,13.7,30.1c1-1.7,2-3.5,3-5.2c0.2-0.1,1.1-0.2,1.2,0.1c-0.1-0.3-1.3-1.1-1.6-1.5c-1.5-1.8-2.6-4-3.7-6.1
				c-2.1-4.2-3.6-8.5-5.3-12.9c-3.4-8.7-9.5-15.8-13.3-24.3c-0.8-1.8-1.7-3.8-1.9-5.8c-0.1-1.4-0.2-1.5,0.4-2c1.4-1.2,5.3-1,7-1.1
				c3.6-0.1,7.1,0.1,10.7,0.5c15.2,1.4,29.4,6.8,44.4,8.9c7.6,1.1,10.8-10.5,3.2-11.6c-20.3-2.9-39.8-11.4-60.6-9.7
				c-7.3,0.6-15,2.9-16.7,10.9c-1.6,7.5,2.8,15.5,6.3,21.8c1.8,3.2,3.8,6.3,5.7,9.4c0.7,1.1,1.4,2.2,2,3.4c1.1,1.9,0.3,0.4,1,2.1
				c2.5,6.4,4.8,13.1,8.2,19.1c3.3,5.7,8.7,12.1,16.1,10.3c9.5-2.4,6.5-16.3,3.9-23c-3.6-9.2-10.2-16.7-16.8-23.9
				c-6.1-6.7-13.1-13.5-16-22.3c-2.5,2.5-4.9,4.9-7.4,7.4c7,2.4,12.3,7.9,17.8,12.7c6,5.2,12.7,8.8,19,13.5
				c6.7,5,13.1,10.2,20.2,14.6c7.7,4.7,14.9,9.4,21.5,15.7c27,25.7,56.6,48.5,87,70c13.6,9.6,26.5,20.4,40.7,29.2
				c15.4,9.5,32.7,15.4,48.7,23.6c15.9,8.1,30.8,17.5,44.9,28.3c6.9,5.3,13.9,10.4,21.7,14.3c8.4,4.3,17.1,8.1,25.7,12
				c16.2,7.3,32.2,15.2,48.8,21.6c8.4,3.2,16.9,6.1,25.8,7.7c8.9,1.6,17.9,2.2,26.8,3.5c19.3,2.8,38.2,8,57.5,11.3
				c18.3,3.1,36.3,8.2,54.1,13.5c17.8,5.4,35.6,10.6,53.8,14.7c18.3,4.1,36.7,7.9,54.4,13.8c18.5,6.2,36.7,13.1,55.4,19
				c18.4,5.8,36.7,12,55,17.8c36.6,11.7,74.1,20.6,111.6,29.1c33.7,7.6,68.4,16.8,103.3,13.3c8.3-0.9,16.6-2.4,24.6-4.9
				C1780.9,1518.5,1777.8,1506.9,1770.4,1509.2L1770.4,1509.2z"/>
		
	
</g>
<g id="noclick">
	
		
			<path class="st0" d="M6904,391c-255,0-510,0-765,0c-253.6,0-507.2,0.5-760.7-2.8c-70.2-0.9-140.4-1-210.6,2.4
				c-34.2,1.6-68.4,4.6-102.6,6.8c-17.1,1.1-34.2,1.8-51.4,1.9c-15.3,0.1-30.8,1.9-46.1,0c8.5,1.1,17,2.3,25.5,3.4
				c-4.2-0.7-8.1-1.7-12.1-3.2c7.6,3.2,15.3,6.5,22.9,9.7c-4.9-2.2-9.2-4.9-13.5-8.2c6.5,5,13,10,19.4,15
				c-3.8-3.2-7.2-6.6-10.3-10.4c5,6.5,10,13,15,19.4c-4.5-5.9-8.1-12.2-11.1-18.9c3.2,7.6,6.5,15.3,9.7,22.9
				c-7.2-17-10.5-35.2-13.2-53.4c-2.8-18.9-6.6-37.6-9.2-56.6c1.1,8.5,2.3,17,3.4,25.5c-1.3-10.7-1.8-21.3-0.7-32.1
				c-1.1,8.5-2.3,17-3.4,25.5c1-7.6,2.9-14.8,5.6-22c-3.2,7.6-6.5,15.3-9.7,22.9c3.8-8.9,8.7-16.9,14.6-24.5c-5,6.5-10,13-15,19.4
				c16.2-19.8,35.8-36.1,55.6-52.1c19.3-15.6,36.4-33.7,55.8-49c-6.5,5-13,10-19.4,15c9.3-7,19.2-12.8,30-17.4
				c-7.6,3.2-15.3,6.5-22.9,9.7c12.4-4.9,25.1-8,38.3-10c-8.5,1.1-17,2.3-25.5,3.4c49-6.4,100.3-2.5,149.6-0.5
				c53.1,2.1,106.1,5.7,159.2,9.5c106.7,7.8,213.1,13.8,320.2,15.5c107.2,1.7,214.4,1.7,321.4,7.1c106.9,5.4,213.3,16.3,320.4,19.9
				c60,2,120,2.3,180.1,1.4c56.3-0.8,113.7-3.2,169.6,4.2c-8.5-1.1-17-2.3-25.5-3.4c28.9,4,57.1,11.3,84,22.6
				c-7.6-3.2-15.3-6.5-22.9-9.7c20.1,8.7,38.9,19.5,56.4,32.8c-6.5-5-13-10-19.4-15c16,12.5,30.3,26.8,42.8,42.9
				c-5-6.5-10-13-15-19.4c7.2,9.5,13.7,19.3,18.5,30.3c-3.2-7.6-6.5-15.3-9.7-22.9c3.4,8.4,5.6,17.1,7,26c-1.1-8.5-2.3-17-3.4-25.5
				c2,15.1,1.5,30.3,1.7,45.5c0.1,15.6,1.8,31.8-0.2,47.3c1.1-8.5,2.3-17,3.4-25.5c-0.6,3.6-1.5,7-2.9,10.3
				c3.2-7.6,6.5-15.3,9.7-22.9c-0.9,1.7-1.8,3.3-2.9,4.9c5-6.5,10-13,15-19.4c-1.5,2-3.2,3.7-5.1,5.3c6.5-5,13-10,19.4-15
				c-3.2,2.4-6.6,4.3-10.3,5.9c7.6-3.2,15.3-6.5,22.9-9.7c-13.4,5.4-28,8.2-42.2,10.3c8.5-1.1,17-2.3,25.5-3.4
				c-28.7,3.8-57.6,3.3-86.2-0.3c8.5,1.1,17,2.3,25.5,3.4c-17.5-2.5-34-7.8-50.3-14.6c7.6,3.2,15.3,6.5,22.9,9.7
				c-44.3-19.1-86.2-41.8-134-51.4c-27.4-5.5-55.5-10.2-83.5-8.7c-30.2,1.7-60.1,7.4-90.1,11.5c8.5-1.1,17-2.3,25.5-3.4
				c-47.2,6.2-95.3,8.4-142.8,11.1c-48.2,2.7-96.4,4.5-144.6,5.5c-96.6,2-193.2,0.7-289.7-3.8c-95.3-4.4-190.2-15-285.6-14.7
				c-49.4,0.1-98.7,1.5-148.1,0.8c-47.5-0.7-94.4-6.2-141.6-11.2c-26.7-2.9-53.5-5.3-80.4-5.6c-26.2-0.3-52.4,1-78.6,1.3
				c-25.5,0.3-50.6-1.2-75.9-3.9c-26.2-2.8-52.6-3.8-78.7-7.3c8.5,1.1,17,2.3,25.5,3.4c-15.1-2.2-30.6-4.7-44.8-10.5
				c7.6,3.2,15.3,6.5,22.9,9.7c-3.8-1.8-7.3-3.7-10.7-6.2c6.5,5,13,10,19.4,15c-2.2-1.8-4.1-3.7-5.9-5.9c5,6.5,10,13,15,19.4
				c-1.1-1.6-2-3.1-2.9-4.9c3.2,7.6,6.5,15.3,9.7,22.9c-1-2.3-1.6-4.5-2-6.9c1.1,8.5,2.3,17,3.4,25.5c-0.3-2.5-0.3-4.8,0-7.2
				c-1.1,8.5-2.3,17-3.4,25.5c0.5-3.2,1.4-6.2,2.6-9.2c-3.2,7.6-6.5,15.3-9.7,22.9c1.5-3.2,3.2-6.1,5.3-9c-5,6.5-10,13-15,19.4
				c3.4-4.3,7.1-8,11.4-11.5c-6.5,5-13,10-19.4,15c13.7-10.3,30.3-17.6,46.1-24.4c-7.6,3.2-15.3,6.5-22.9,9.7
				c15.5-6.4,31.4-11,48.1-13.3c-8.5,1.1-17,2.3-25.5,3.4c25.2-2.9,51.1-1.7,76.4-1.2c26.6,0.5,53.2,1.7,79.8,3.2
				c53.2,3.1,106.3,7.8,159.4,12.6c105.2,9.6,210.3,16.4,315.8,22.7c58.6,3.5,117.1,7.9,175.3,15.6c-8.5-1.1-17-2.3-25.5-3.4
				c70.2,9.5,140.4,18.8,211,25.3c62.1,5.7,124.3,9.4,186.5,12.2c125.4,5.7,250,23.1,375.6,25.6c34.3,0.7,68.6,0.3,102.9-1.8
				c23-1.4,45.7-4.1,68.5-7.7c15.7-2.4,30.4-8,45.8-11.2c-8.5,1.1-17,2.3-25.5,3.4c21.8-1.7,41.2-3.3,60.6-14.8
				c40.3-23.9,59.8-74.2,47.9-119.3c-5.5-20.9-18.7-41.9-35-56.2c-19.7-17.4-33.8-24.8-57.9-34.2c-21.9-8.6-46-10.7-69.1-13.3
				c-17.1-1.9-34.4-3-51.6-3.4c-45-1-89.9,1.2-134.9-1.1c-43-2.2-85.9-6.5-128.8-10.2c-44.7-3.8-89.5-6.3-134.2-10.4
				c-44.2-4.1-88.3-8.9-132.5-13.7c-89-9.6-178.1-18.3-267.3-24.6c-100.7-7.2-201.6-11.4-302.6-11.5c-24.6,0-50.5,10.7-67.9,28.1
				c-16.7,16.7-29.2,44-28.1,67.9c2.3,52,42.2,96,96,96c154.5,0.1,308.8,10.2,462.5,25c76,7.4,151.9,16.4,228,23.7
				c75.9,7.2,152,12.6,228,18.6c41.9,3.3,83.8,5.2,125.9,4.5c38.3-0.6,76.7-0.9,114.8,4c-8.5-1.1-17-2.3-25.5-3.4
				c12.4,1.7,24.7,4.2,36.3,9c-7.6-3.2-15.3-6.5-22.9-9.7c4.8,2.1,9.2,4.6,13.3,7.7c-6.5-5-13-10-19.4-15c3.1,2.6,6,5.2,8.6,8.2
				c-5-6.5-10-13-15-19.4c1.2,1.5,2.2,3.1,3,4.9c-3.2-7.6-6.5-15.3-9.7-22.9c0.3,0.9,0.6,1.7,0.8,2.6c-1.1-8.5-2.3-17-3.4-25.5
				c0.1,0.9,0.1,1.8,0.2,2.7c1.1-8.5,2.3-17,3.4-25.5c-0.2,0.9-0.3,1.8-0.5,2.7c3.2-7.6,6.5-15.3,9.7-22.9c-0.4,0.9-0.9,1.8-1.3,2.7
				c5-6.5,10-13,15-19.4c-0.7,0.9-1.5,1.8-2.2,2.8c6.5-5,13-10,19.4-15c-0.4,0.2-0.8,0.5-1.3,0.7c7.6-3.2,15.3-6.5,22.9-9.7
				c-0.6,0.1-1.2,0.3-1.9,0.4c8.5-1.1,17-2.3,25.5-3.4c-11.4,1.1-23.4,1.1-34.5,4c-5.5,1.5-10.8,3.5-16.3,5
				c-12,3.3-24.2,5.5-36.6,7.2c8.5-1.1,17-2.3,25.5-3.4c-53.6,6.9-108.7,6.2-162.6,4.3c-55.5-1.9-110.9-6.4-166.2-11.2
				c-55.3-4.7-110.5-9.8-165.9-12.8c-56.2-3.1-112.4-5.4-168.6-10c-62.8-5.1-125.5-11.9-187.9-20.3c8.5,1.1,17,2.3,25.5,3.4
				c-51.2-6.9-102.3-13.9-153.8-18.1c-44.3-3.7-88.8-6.2-133.2-8.6c-89.1-4.9-177.9-11.9-266.8-20c-89.5-8.2-179.2-15.9-269.2-16.1
				c-27.9-0.1-55.1,1.4-82.7,7c-24.3,4.9-47.6,15.5-69.9,26c-21.6,10.2-42,22-59.4,38.9c-22.3,21.7-36.2,49.5-40.3,80
				c-5.2,38.5,7,75.7,34.8,103.5c22.4,22.4,53.1,34.8,83.7,40.8c27.5,5.4,55.5,8.1,83.4,10.3c21.2,1.6,42.4,4.3,63.6,5.8
				c43.4,3.1,86.8-0.8,130.3,0c44.6,0.8,88.8,7,133.2,11.6c89.4,9.3,179.2,3.4,268.9,4.5c89.2,1.1,178.3,11.4,267.5,15.3
				c178.2,7.6,356.9,4.6,534.6-10.7c28.9-2.5,57.5-7.2,86.3-11.2c-8.5,1.1-17,2.3-25.5,3.4c21.4-2.9,42.8-4.7,64.2-2.2
				c-8.5-1.1-17-2.3-25.5-3.4c27.7,4.1,55.4,10.2,81.3,21c-7.6-3.2-15.3-6.5-22.9-9.7c39.8,17.3,78.5,41.2,121.8,48.4
				c52.7,8.8,104,9.3,156.6-1.3c53.4-10.8,101.8-42.3,115.8-98c6.2-24.5,4.5-49.3,4.3-74.3c-0.3-25.8-1.1-50.2-5.6-75.9
				c-7.9-45.4-38-87-69.9-118.8c-26.9-26.8-59.4-50.3-94.3-65.8c-36.1-16.1-71.8-28.5-111-34.1c-45.8-6.5-91.1-8.4-137.3-8.2
				c-83.4,0.2-166.5,1.9-249.9-1.2c-84.3-3.1-168.1-10.2-252.2-16.1c-167.8-11.8-336.1-7.2-504.1-13.7
				c-83.9-3.3-167.5-10.8-251.3-16.3c-41.8-2.7-83.5-5.1-125.4-6.4c-38.3-1.2-77.5-3.3-115.8,0.3c-24.9,2.3-50.3,5.3-73.7,14.5
				c-14.5,5.7-29.5,11.5-42.7,20c-13.8,8.8-26.8,19.2-39.1,30c-14.2,12.4-27.4,25.8-42.1,37.7c-14.6,11.8-29.3,23.6-42.7,36.8
				c-40,39.4-66.2,88.7-66.1,145.9c0.1,35.6,9.4,72.4,15,107.7c6.5,40.9,22,78.8,49.6,110.2c18.3,20.9,46.6,37.7,73.6,44.1
				c25,5.8,47.8,4.1,72.8,4c41.6-0.1,82.9-4.3,124.4-6.9c41.5-2.6,83.1-3.9,124.7-4.4c82.9-1,165.9,1.2,248.8,2.4
				c84.3,1.2,168.7,0.7,253,0.7c170,0,340,0,510,0c169.3,0,338.7,0,508,0c41.2,0,82.3,0,123.5,0c24.6,0,50.5-10.7,67.9-28.1
				c16.7-16.7,29.2-44,28.1-67.9C6997.7,435,6957.8,391,6904,391L6904,391z"/>
		
	
	
		
			<path class="st0" d="M6224,831c-14.9,0-29.7-0.6-44.6-0.8c-22.6-0.2-45,1.5-67.2,6.2c-13.3,2.8-26.1,7.4-39.2,11
				c-13.9,3.9-28.1,6.6-42.4,8.6c8.5-1.1,17-2.3,25.5-3.4c-30.7,4.1-61.8,4.2-92.5,0.1c8.5,1.1,17,2.3,25.5,3.4
				c-33.5-4.6-65.6-14.6-96.6-27.6c7.6,3.2,15.3,6.5,22.9,9.7c-5-2.2-9.8-4.7-14.1-7.9c6.5,5,13,10,19.4,15c-3.2-2.6-6-5.4-8.6-8.7
				c5,6.5,10,13,15,19.4c-8.2-10.9-14.2-23.2-22.3-34.2c-9.4-12.7-19.6-25.2-26-39.8c3.2,7.6,6.5,15.3,9.7,22.9
				c-1.6-3.9-3-7.9-3.6-12c1.1,8.5,2.3,17,3.4,25.5c-0.2-2.3-0.2-4.6,0-6.9c-1.1,8.5-2.3,17-3.4,25.5c0.4-2.8,1.2-5.5,2.3-8.1
				c-3.2,7.6-6.5,15.3-9.7,22.9c1.4-3.3,3.3-6.2,5.5-9.1c-5,6.5-10,13-15,19.4c3.8-4.9,8.4-9,13.2-12.8c-6.5,5-13,10-19.4,15
				c13.6-10.4,29.3-18,45.1-24.7c-7.6,3.2-15.3,6.5-22.9,9.7c15.6-6.5,31.5-12,47.6-17.3c21.6-7.1,43.1-13.3,65.8-16.5
				c-8.5,1.1-17,2.3-25.5,3.4c44.3-5.9,89.5-4.1,134.1-4.1c47.2,0,94.4,0.5,141.6,0c18.3-0.2,36.6-3.4,54.9-1
				c-8.5-1.1-17-2.3-25.5-3.4c5,0.7,9.9,1.9,14.7,3.8c-7.6-3.2-15.3-6.5-22.9-9.7c2.6,1.2,4.9,2.5,7.2,4.1c-6.5-5-13-10-19.4-15
				c3,2.4,5.6,5.1,7.9,8.2c-5-6.5-10-13-15-19.4c2,2.8,3.7,5.7,5.2,8.9c-3.2-7.6-6.5-15.3-9.7-22.9c1.6,4,2.8,8,3.4,12.3
				c-1.1-8.5-2.3-17-3.4-25.5c0.8,6.2,0.6,12.4-0.2,18.5c1.1-8.5,2.3-17,3.4-25.5c-1.5,9.6-4.4,18.8-8.1,27.7
				c3.2-7.6,6.5-15.3,9.7-22.9c-3.4,8-7.6,15.6-12.9,22.6c5-6.5,10-13,15-19.4c-4,5.1-8.6,9.7-13.7,13.7c6.5-5,13-10,19.4-15
				c-5.8,4.3-12,7.8-18.6,10.6c7.6-3.2,15.3-6.5,22.9-9.7c-8.1,3.3-16.6,5.4-25,7.6c-10.4,2.8-20.7,5.6-31.1,8.3
				c-20.7,5.3-41.6,10.1-62.9,13c8.5-1.1,17-2.3,25.5-3.4c-34.3,4.5-69.5,3.4-104,2.8c-32.6-0.5-65.4-0.2-98-2.4
				c-8.1-0.5-16.3-1-24.4-0.5c-11.7,0.6-23.6,2.4-35.1,4.4c-3.6,0.6-7.1,1.5-10.5,2.8c-16.3,4.6-30.4,12.8-42.4,24.7
				c-11.9,12-20.1,26.1-24.7,42.4c-4.6,17-4.6,34,0,51c4.6,16.3,12.8,30.4,24.7,42.4c17.2,14.1,31.9,25.8,54.3,30.9
				c20.3,4.6,41.7,5.5,61.7-1.3c11.8-4,23.6-8.7,33.6-16.2c10.1-7.7,19.8-15.6,29.8-23.4c-6.5,5-13,10-19.4,15
				c3.1-2.3,6.3-4.5,9.8-6.1c-7.6,3.2-15.3,6.5-22.9,9.7c2-0.8,3.9-1.4,6-1.7c-8.5,1.1-17,2.3-25.5,3.4c0.9-0.1,1.8-0.1,2.7-0.1
				c13.2,0.5,25.5-2.3,37-8.3c11.9-3.9,22.2-10.5,30.9-19.8c9.4-8.7,16-19,19.8-30.9c6-11.4,8.8-23.8,8.3-37
				c-1.1-8.5-2.3-17-3.4-25.5c-4.6-16.3-12.8-30.4-24.7-42.4c-6.5-5-13-10-19.4-15c-15-8.7-31.1-13.1-48.5-13.1
				c-0.8,0-1.5,0-2.2,0.1c-6.7,0.3-20.3,2.2-26.8,3.6c-1.3,0.3-2.6,0.6-3.9,1c-9.8,3.3-20.9,7.4-30,13.4
				c-11.9,7.9-22.6,17.5-33.8,26.3c6.5-5,13-10,19.4-15c-3.3,2.6-6.8,4.9-10.7,6.6c7.6-3.2,15.3-6.5,22.9-9.7
				c-1.7,0.7-3.4,1.1-5.2,1.4c8.5-1.1,17-2.3,25.5-3.4c-1.5,0.2-3,0.2-4.5,0c8.5,1.1,17,2.3,25.5,3.4c-1.6-0.2-3.2-0.6-4.8-1.2
				c7.6,3.2,15.3,6.5,22.9,9.7c-2.6-1.1-4.9-2.5-7.1-4.2c6.5,5,13,10,19.4,15c-0.4-0.3-0.7-0.6-1.1-0.9
				c-14.1,53.5-28.2,107-42.4,160.5c3.9-1.5,7.8-2.4,11.9-3.1c-8.5,1.1-17,2.3-25.5,3.4c12.6-1.7,25.4-0.7,38.1,0.2
				c13.4,0.9,26.8,0.9,40.3,1.1c31.9,0.4,63.7,1.4,95.6,1.2c38.2-0.3,76-3.5,113.5-11.2c14.7-3,29.2-6.6,43.6-10.5
				c13.4-3.5,27.1-6.6,40.3-10.9c16.9-5.5,34.8-12.4,49.3-23.1c9.1-6.7,20.2-14.4,28.4-23.1c9-9.5,17-20.1,24.1-31.1
				c2.6-4,4.9-8.3,6.9-12.7c5.8-12.6,11.6-25.5,15.8-38.8c1.6-5.1,2.8-10.3,3.6-15.6c2.1-13.3,5.2-28.7,3.8-42.7
				c-1.3-12.9-2.2-26.9-7-39.2c-3.1-7.9-7.5-20.7-13.1-29.3c-6.1-9.4-12.9-18.6-20.8-26.6c-17.4-17.7-42.2-31.9-66.8-35.9
				c-19.7-3.3-37.6-5.2-57.2-4c-11.2,0.7-22.3,1.4-33.5,1.4c-62.9,0-125.9-0.2-188.8,0c-37.3,0.1-73.6,2.7-110.5,8.6
				c-21.1,3.4-41.3,9.7-61.6,16.4c-23.8,7.8-46.7,17-69.7,26.9c-8.3,3.6-16.5,7.4-24.4,11.8c-14.2,7.9-27,17.9-39.5,28.2
				c-11.6,9.5-21.2,22.1-29.1,34.4c-12.5,19.4-17.5,41.8-18.6,64.5c-1.2,25,8.7,50.7,20.2,72.2c6.1,11.5,14.4,21.7,22.1,32.1
				c7,9.4,12.6,19.4,18.9,29.3c13.9,21.6,29.7,38.9,52,52.2c11.9,7.1,25.4,11.6,38.2,16.8c6.6,2.7,13.4,5.2,20.1,7.6
				c13.5,4.8,27.2,9,41.2,12.2c22.1,5,44.9,8,67.5,10.1c14.8,1.4,29.7,1.9,44.5,1.4c22.8-0.8,45.5-3.9,68-7.5
				c14.5-2.3,28.8-5.6,42.8-9.8c13.5-4,27-8.5,41-10.5c-8.5,1.1-17,2.3-25.5,3.4c25.2-3.2,51.3-0.4,76.7-0.3
				c13.2,0.5,25.5-2.3,37-8.3c11.9-3.9,22.2-10.5,30.9-19.8c9.4-8.7,16-19,19.8-30.9c6-11.4,8.8-23.8,8.3-37
				c-1.1-8.5-2.3-17-3.4-25.5c-4.6-16.3-12.8-30.4-24.7-42.4C6273.1,841.9,6250,831.1,6224,831L6224,831z"/>
		
	
	
		
			<path class="st0" d="M5964,1007c-18.4,0-31.9,11.9-45.1,23.1c-0.8,0.7-4.4,3.5-1,1c3.5-2.7-1.9,1.4-3,2.1
				c-3.2,2.3-6.5,4.6-9.7,6.9c-3.2,2.3-6.5,4.7-9.6,7.1c-2.5,1.9-5.6,3.8-7.8,6.1c3.4-3.6,2.6-1.9,1.1-1c-0.9,0.6-1.8,1.2-2.7,1.7
				c-7.3,4.5-14.6,8.5-21.3,13.9c-6.5,5.2-11.4,12.4-15.8,19.5c-1.5,2.4-4.8,5.8-5.6,8.5c0-0.1,3.1-3.7,1.4-1.8
				c-0.5,0.6-1,1.2-1.5,1.7c-0.7,0.8-1.4,1.5-2.2,2.2c-0.5,0.5-1.9,1.1-2.1,1.7c0.5-1.1,5.2-4,1.8-1.4c-2.1,1.6-4.2,3.1-6.2,4.7
				c-12.9,9.9-28.4,21.6-28.2,39.7c0.1,12.8,10.9,24.2,24,24c21.6-0.3,41.3-9,61.8-14.5c9.3-2.5,18.7-4.8,27.7-8.2
				c10.6-4,20.9-8.9,31.2-13.7c17.7-8.3,34-18.2,49.9-29.6c15.6-11.3,31.1-22,48.6-30.2c19.8-9.2,37.3-22.6,44.6-43.9
				c3.1-9.2-1.9-22.9-11-27.1c-12.7-5.9-23.3-3.9-35.5,1.5c-2.7,1.2-5.3,2.4-7.9,3.7c-3.7,1.9,7.1-2.6,0.4-0.3
				c-2.2,0.8-4.4,1.5-6.6,2.2c-9.2,3-18.3,6.1-27.1,10.2c-8.3,3.9-16,8.9-23.7,13.8c-7.7,4.9-15.7,9.2-23.3,14.1
				c-6.5,4.2-12.5,9.2-18.9,13.5c-6.9,4.6-14.5,7.8-21.9,11.5c-8.6,4.4-16.7,9.7-23.7,16.3c-9.2,8.6-9.4,25.4,0,33.9
				c9.8,9,24.2,9.2,33.9,0c0.7-0.7,1.5-1.4,2.3-2.1c2-1.6,1.6-1.3-1.1,0.8c0.1-0.7,3.6-2.4,4.1-2.7c3.3-2,6.7-3.9,10.2-5.6
				c6.4-3.2,13-6,19-9.9c6.3-4,12-8.9,18.2-13.1c6.7-4.5,13.9-8.2,20.7-12.5c6.8-4.3,13.4-8.7,20.4-12.6c2.1-1.2,4.2-2.4,6.4-3.4
				c1.5-0.7,5.5-3.6,0.6-0.4c3.1-2,8.1-2.9,11.5-4.1c7.7-2.5,15.3-4.9,22.7-8.4c1.3-0.6,2.6-1.2,3.8-1.8c0.6-0.3,1.2-0.6,1.7-0.8
				c2.3-1,1.6-0.7-2.2,0.9c1-0.2,2.5-0.8,3.5-1.2c2.5-0.6,1.4-0.4-3.2,0.3c4.3,0.1,1.4-0.8-8.6-2.6c-3.7-9-7.4-18.1-11-27.1
				c-1.3,3.8,0.7-1.8,0.9-2c-0.4,0.3-1.1,2.1-1.3,2.3c-0.3,0.5-0.9,1.1-1.1,1.7c-1,2.7,3.3-3.8,1.3-1.7c-1.1,1.2-2.1,2.3-3.2,3.4
				c-0.7,0.6-1.4,1.2-2,1.8c-3,2.8,3.5-2.4,1.1-0.8c-5.9,3.9-11.9,7.3-18.3,10.3c-16.1,7.5-30.7,17.2-45.1,27.6
				c-15.1,10.9-30.2,20.9-47,29.1c-4,2-8.1,3.9-12.2,5.8c-1.4,0.6-12.2,6.6-13,5.9c0,0,4.2-1.7,1.6-0.6c-1.1,0.4-2.2,0.9-3.4,1.3
				c-2,0.7-4,1.4-6,2.1c-4.6,1.5-9.2,2.7-13.9,4c-9.9,2.6-19.6,5.4-29.3,8.6c-5.1,1.7-10.2,3.3-15.5,4.5c-1.3,0.3-6.1,0.5-7,1.4
				c1.2-1.3,4.5-0.3,1.1-0.2c-1.8,0.1-3.6,0.2-5.4,0.2c8,8,16,16,24,24c0-2.3-0.2-0.8-0.6,4.5c0.7-2.2,0.2-0.9-1.6,3.7
				c0.3-0.5,0.6-1,0.9-1.4c1.3-1.9,0.7-1-2.1,2.6c2.1-2,4-4.2,6.2-6.1c1.2-1,2.4-2,3.7-3c4.9-3.9-3.4,2.6-0.2,0.1c2-1.5,4-3,6-4.5
				c7.9-6,13.4-11.4,19.1-19.7c2.1-3,3.9-6.2,5.9-9.2c0.6-0.9,1.1-1.7,1.7-2.6c1.5-2.1,1.2-1.7-1,1.2c0.3,0,3.7-4,4.1-4.4
				c1.9-1.6,1.5-1.3-1.3,0.9c0.9-0.6,1.7-1.2,2.6-1.8c1.8-1.2,3.7-2.3,5.6-3.4c3.3-1.9,6.6-3.7,9.7-5.9c3-2,5.9-4.2,8.6-6.5
				c2.1-1.7,1.9-1.6-0.5,0.3c1-0.7,2-1.5,2.9-2.2c3.9-2.9,7.9-5.7,11.9-8.5c7.5-5.3,14.6-11,21.6-16.9c0.8-0.6,1.5-1.3,2.3-1.9
				c2-1.6,1.5-1.3-1.3,1c0.8,0.1,4-2.8,4.9-3.3c0.8-0.5,1.6-0.9,2.5-1.4c2.3-1.1,1.7-0.8-2,0.8c0.8-0.3,1.7-0.5,2.5-0.7
				c-4.3,0.4-5.2,0.6-2.6,0.6c12.6,0,24.6-11.1,24-24C5987.4,1018,5977.5,1007,5964,1007L5964,1007z"/>
		
	
	
		
			<path class="st0" d="M6676,559c-0.1,1.7,0,3.7-0.5,5.3c1.8-6.1,0-0.6-0.2,0.8c-0.7,3.6-1.5,7.2-2.4,10.8
				c-1.8,7.2-4,14.4-6.1,21.5c-4,13.7-7.6,27.5-10.8,41.4c-3.2,14.3-5,28.9-7.5,43.4c-2.6,14.6-5.6,29-8.7,43.5
				c-6.2,28.9-12.8,57.7-17,87c-1.1,7.8-2.1,15.6-3,23.4c-0.4,3.4-0.8,6.9-1.2,10.3c-0.2,1.7-0.4,3.4-0.6,5.2
				c-0.1,0.7-1.1,7.7-0.5,3.7c0.6-4.1-0.2,1.6-0.3,2c-0.3,1.7-0.5,3.4-0.8,5.1c-0.6,3.4-1.2,6.8-1.9,10.2c-1.4,6.7-3,13.4-5.2,19.9
				c-0.4,1.1-0.7,2.2-1.1,3.2c-0.5,1.3-2.8,8.7-0.7,2.2c-1.2,3.6-3.3,7.1-5.1,10.4c-3.2,5.7-6.7,11.2-10,16.8
				c-8.4,14.2-15.3,29.1-16.4,45.7c-0.4,5.6,2.9,13.2,7,17c5,4.6,10.3,6.2,17,7c15.8,2,30.6-10.4,41.4-20.3
				c9.5-8.7,19.2-17.1,25.3-28.8c6.5-12.4,9.2-25.7,13.2-39c4.3-14.6,11-28.3,16.4-42.4c5.9-15.4,9.8-31.7,14.3-47.5
				c4.6-16.1,8.5-32.4,13.2-48.5c4.6-15.7,8.2-31.4,12.2-47.2c3.8-15.1,8.8-29.8,11.9-45.1c3.4-17.1,7.7-34.4,7.7-51.9
				c0-9.7-2-19.3-3.7-28.7c-0.1-0.6-0.6-3.6-0.1-0.3c0.6,3.5,0-0.5,0-1.3c-0.1-2.1-0.1-4.2,0-6.3c0.3-6.3,0.1-12.6-1.6-18.8
				c-2.7-9.8-12.7-18.1-23.1-17.6c-10.3,0.5-20.7,7.1-23.1,17.6c-1.1,4.9-2,9.9-2.7,15c-0.6,4.1-1.1,8.2-1.7,12.4
				c-0.2,1.4-0.4,2.9-0.6,4.3c-0.6,4.6,0.5-3.5,0.1-0.4c-0.8,5.1-1.6,10.1-2.8,15.2c-0.6,2.5-1.3,4.9-2.1,7.3
				c-0.2,0.7-1.2,2.5-1.1,3.1c1.3-2.9,1.5-3.5,0.8-1.8c-0.4,0.9-0.8,1.7-1.1,2.6c-9.9,22.8-17.8,46.3-27.1,69.3
				c-8.4,20.7-13.5,42.5-18.8,64.2c-2.7,11-5.4,21.9-8.8,32.7c-0.7,2.3-1.5,4.6-2.3,6.8c-1.9,5.4,1.7-3.3,0-0.1
				c-0.7,1.3-1.3,2.7-1.9,4c-2.3,4.7-4.9,9.4-7.1,14.2c-4.2,8.9-7.7,18.2-10.6,27.6c-3.3,10.7-6.3,24.8,0.7,34.8
				c6.1,8.8,16.3,14.1,27.1,11c25.6-7.2,38.7-28.8,47.8-52.1c8.4-21.6,17.1-43.4,21.3-66.2c2.6-14,3.9-28.2,4.9-42.4
				c0.5-6.6,1-13.2,1.6-19.8c0.1-1.2,0.2-2.4,0.4-3.6c0.2-1.4,0.2-7.2,0.1-0.7c0.1-3.4,1.2-7.3,1.8-10.6c1.2-5.8,2.8-11.6,4.8-17.2
				c0.4-1.1,2.1-6.9,0.3-1c0.4-1.4,1.2-2.7,1.8-4c1.5-3.1,3-6.2,4.6-9.2c5.6-10.4,12.2-20.1,19.3-29.5c1-1.3,2-2.7,3-4
				c-4.1,5-0.3,0.4,0.4-0.4c2.1-2.7,4.3-5.4,6.4-8.1c4.7-5.9,8.8-11.8,12.4-18.3c2.9-5.3,5.6-10.6,8.7-15.8c0.8-1.3,1.5-2.5,2.4-3.8
				c0.4-0.6,4.1-5.7,1.5-2.4c-2.6,3.3,0.5-0.5,0.9-0.9c1.3-1.4,2.7-2.8,4.1-4c-13.7-5.7-27.3-11.3-41-17c0.1,1.2-0.3,2.7,0.4-0.6
				c1.2-5.8-1.6,2.8,0.7-2.5c2.2-5.1-2.7,3.1,0.5-1.1c2.7-3.4-0.9,0.8-1.5,1.5c-1,1.1-2,2.2-3,3.3c-5.8,6.9-10.2,14.7-14.9,22.3
				c-8.1,13.1-17.9,25.2-25.1,38.9c-4.6,8.8-8.3,18.1-12.1,27.2c-0.5,1.2-1,2.3-1.5,3.5c-1.1,2.5,0.5-1.1,0.6-1.3
				c-0.7,1.8-1.5,3.5-2.3,5.2c-1.7,3.9-3.4,7.7-5.5,11.4c-6.9,12.2-16.7,22.3-23,34.9c-8,16.1-15.1,32.5-12.3,50.8
				c0.9,5.6,6.4,11.6,11,14.3c5.1,3,12.7,4.3,18.5,2.4c13.5-4.4,18.9-16.2,16.8-29.5c0.3,1.6,0.8,6.7,0.7,2.6
				c-0.1-3.8-0.2,3.4-0.4,3.1c-0.1-0.2,0.3-1.5,0.4-1.8c0.8-3,1.6-5.9,2.7-8.7c0.3-0.9,2.2-5.3,0.6-1.6c-1.7,3.9,0.6-1.2,0.9-2
				c1.1-2.3,2.2-4.6,3.3-6.8c6.5-12.8,16.8-23,23.4-35.7c4.4-8.5,7.8-17.5,11.5-26.3c0.3-0.7,1.6-4.5,0.6-1.5
				c-0.9,2.8,0.1-0.1,0.3-0.6c0.8-1.7,1.5-3.5,2.3-5.2c1.8-3.9,3.6-7.8,5.7-11.6c7.2-13.3,16.8-25.2,24.7-38.1
				c2.3-3.8,4.6-7.6,7-11.4c0.5-0.7,1-1.5,1.4-2.2c1.7-3.1-3.8,4.2-1,1.3c1-1.1,2-2.2,3-3.3c7.7-8.5,14.4-18.7,13.5-30.7
				c-0.8-9.8-5.4-18-14.8-21.9c-9.2-3.9-18.9-1.6-26.2,5c-9.1,8.1-15.5,18.8-21.2,29.4c-2.5,4.6-4.9,9.2-7.6,13.7
				c-1,1.7-6.1,7.9-1.2,2.2c-2.2,2.6-4.3,5.4-6.4,8.1c-16.6,21.1-31.4,42.4-41.1,67.6c-9.9,25.6-9.7,53.8-12.3,80.8
				c-0.3,2.9-0.2,6.2-1,9c0.2-0.6,0.8-5.5,0.1-1c-0.3,1.8-0.6,3.7-0.9,5.5c-1.2,6.6-2.7,13.2-4.5,19.6c-3.2,11.4-7.6,22.4-11.7,33.5
				c-1.8,4.8-3.4,9.6-5.3,14.3c-0.3,0.8-0.6,1.6-0.9,2.4c-1.5,3.9,2.6-5.7-0.1,0.2c-1.1,2.3-2.2,4.6-3.4,6.8c-1.2,2.1-3,4.1-4,6.2
				c0.1-0.3,4-4.7,1.5-2c-1.1,1.2-2.1,2.4-3.3,3.5c-0.5,0.5-1.3,1-1.8,1.6c3.9-4.6,2.9-2.1,0.4-0.7c-0.8,0.5-2,0.8-2.7,1.4
				c3.9-1.5,4.6-1.9,2.3-1c-0.8,0.3-1.6,0.5-2.5,0.7c9,3.7,18.1,7.4,27.1,11c-1.4-2.1,1.9,4.7,1.7,4.2c1.6,5,0.7,6.6,0.7,3.7
				c0-4.2-1.4,6.9-0.1,1c0.7-3.4,1.8-6.7,2.9-10c0.8-2.5,1.8-5,2.6-7.4c0.2-0.6,1.7-4.6,1.7-4.7c0.1,0.1-2.5,5.4-0.4,0.9
				c0.7-1.6,1.5-3.2,2.3-4.8c5.2-10.6,10.8-21,14.3-32.3c3.3-10.5,6-21.1,8.7-31.8c5.1-21,9.9-42.3,17.8-62.5
				c4.2-10.6,8.4-21.1,12.3-31.8c1.9-5,3.7-10.1,5.7-15.1c0.9-2.4,1.8-4.7,2.7-7.1c0.6-1.5,1.2-2.9,1.7-4.4c0.3-0.6,2.3-5.6,0.9-2.4
				c-1.5,3.5,0.9-2.2,1-2.3c0.9-2,1.8-4.1,2.6-6.1c1.4-3.3,2.7-6.5,3.7-10c1.6-5.4,2.7-11,3.6-16.6c1.1-7.2,2-14.5,2.9-21.8
				c0.5-3.7-1,6.1,0,0.4c0.2-1.4,0.4-2.8,0.7-4.2c0.5-3,1.1-6.1,1.8-9.1c-15.4,0-30.9,0-46.3,0c1.5,5.4,0.7-5,0.1,0.6
				c-0.2,1.8-0.1,3.6-0.2,5.4c-0.1,3.6,0,7.2,0.4,10.8c0.6,5.1,1.4,10.1,2.3,15.1c0.3,1.4,1.2,3.8,0.9,5.2c-0.4-3.3-0.5-3.8-0.2-1.4
				c0.1,1,0.2,2,0.2,3c0.2,3.2,0.1,6.4-0.1,9.5c-0.1,1.6-0.2,3.3-0.4,4.9c-0.1,0.6-0.1,1.1-0.2,1.7c-0.3,2.7-0.3,2.2,0.2-1.4
				c0.5,2.7-1.2,7.3-1.7,10c-0.7,3.5-1.4,7.1-2.1,10.6c-2.9,14-6.3,27.6-10.4,41.3c-4.4,14.9-7.1,30.1-11.4,45.1
				c-8.7,30.4-16.9,60.9-25.5,91.4c-3.9,14-9.6,27.1-15,40.5c-5.2,12.8-8.5,25.9-12.5,39.1c-0.8,2.5-1.6,5-2.5,7.4
				c-1.6,4.5,2.6-5.3,0.4-1.1c-0.8,1.5-1.5,3-2.4,4.5c-0.7,1.1-1.4,2.2-2.1,3.2c-1.4,2-1,1.4,1.4-1.7c-0.6,0.7-1.2,1.4-1.8,2.1
				c-2.2,2.5-4.7,4.6-7.2,6.8c-2,1.8-4,3.7-6,5.5c-2.1,2-5.4,3.9-7.1,6.3c3-4,2.9-2.1,0.5-0.5c-1.4,1-2.9,1.8-4.4,2.6
				c-4,2.3,5.6-2,1.4-0.7c-3.7,1.1,6.8,0.1,1.2-0.5c8,8,16,16,24,24c0.4-5-1.5,5.9-0.1,0.9c0.4-1.4,0.6-2.8,1.1-4.2
				c0.4-1.4,1-2.8,1.4-4.2c1.7-5.1-2.5,4.9,0,0c2.9-5.7,5.9-11.3,9.2-16.8c7.1-11.9,13.6-23.4,18.4-36.5
				c9.7-26.3,11.4-54.9,14.8-82.5c0.2-1.3,0.6-7.2,0-0.4c0.2-1.8,0.5-3.7,0.8-5.5c0.5-3.2,1-6.4,1.5-9.5c1.3-7.6,2.7-15.2,4.1-22.8
				c2.8-14.5,6-28.9,9.1-43.4c3.2-14.8,6.4-29.5,9.1-44.4c2.8-14.8,4.5-29.8,7.6-44.5c3.3-15.7,7.5-31.4,12-46.9
				c4.9-16.9,9.7-33.6,10.9-51.2c0.9-12.6-11.7-24.6-24-24C6686.2,535.6,6677,545.6,6676,559L6676,559z"/>
		
	
	
		
			<path d="M6828,1041c-18.2,1.5-32.3,17.2-25.4,35.7c5,13.5,21,20.8,33.8,25.2c6.1,2.1,13.5,4,19.9,2.2c6.6-1.8,10.9-8.5,14.2-14.1
				c7-12.1,13-28.1,0.7-39.1C6859.9,1040.8,6842.2,1040.9,6828,1041c-7.7,0.1-7.7,12.1,0,12c9.5-0.1,19.3-0.1,28.3,3
				c3.8,1.3,7.8,3.5,9.4,7.4c1.7,4,0.1,8.1-1.4,11.9c-2.1,5.2-4.8,10.7-8.5,14.9c-2.6,3-4.7,2.9-8.8,2.2c-10-1.8-21.1-7-28.9-13.6
				c-3.9-3.3-6.3-9-5.1-14.8c1.5-6.9,8.4-10.5,14.9-11C6835.6,1052.4,6835.7,1040.4,6828,1041L6828,1041z"/>
		
	
	
		
			<path d="M6898,1043c-0.2,12.6-3.5,26.5,1.4,38.6c4.3,10.5,15.2,19.3,26.1,22.3c21,5.7,28.1-17,30.5-33.2c1.3-9.2,1.9-18.4,2-27.6
				c0.1-7.7-11.9-7.7-12,0c-0.1,8.2-0.5,16.4-1.6,24.5c-1,7.4-2.3,17.8-7.9,23.4c-6.2,6.3-19.1-3.8-23.4-9.5
				c-7.8-10.2-3.2-26.5-3.1-38.4C6910.1,1035.3,6898.1,1035.3,6898,1043L6898,1043z"/>
		
	
	
		
			<path d="M6994,1047c-0.1,7.7,1.7,15.1,3.2,22.6c1.7,8.4,0.8,16.9,0.8,25.4c0,7.7,12,7.7,12,0c0-8.5,0.9-16.8-0.6-25.2
				c-1.3-7.7-3.5-14.9-3.4-22.8C7006.1,1039.3,6994.1,1039.3,6994,1047L6994,1047z"/>
		
	
	
		
			<path d="M7017.8,1025.4c-1.9-7.9-9.8-13.1-17.8-12.4c-3.2,0.3-6,2.6-6,6c0,3,2.8,6.3,6,6c1.9-0.2,2.9,0,4.3,0.8
				c0.9,0.5,1.5,1.2,1.9,2.8C7008.1,1036.1,7019.6,1032.9,7017.8,1025.4L7017.8,1025.4z"/>
		
	
	
		
			<path d="M6880,1129c-20.1-2.4-32,12.1-46.3,23.3c-8.7,6.8-18.7,12.3-28,18.3c-10.6,6.9-21.4,13.7-32.8,19.2
				c-6.9,3.4-0.9,13.7,6.1,10.4c10.6-5.2,20.6-11.3,30.5-17.7c9.4-6.1,19.3-11.9,28.4-18.4c13.3-9.5,23.8-25.2,42.1-23.1
				C6887.7,1141.9,6887.6,1129.9,6880,1129L6880,1129z"/>
		
	</g>

<g id="noclick">
	
		
			<path d="M5162,183c2.1,23.3-5.5,45.8-7.5,68.8c-1,11.7-0.7,23.8-0.6,35.6c0.2,12,3.1,23.6,4.1,35.5c0.7,7.6,12.7,7.7,12,0
				c-1-11.6-3.8-23-4.1-34.6c-0.3-12.1-0.5-24.5,0.5-36.5c2-23,9.6-45.5,7.5-68.8C5173.3,175.4,5161.3,175.3,5162,183L5162,183z"/>
		
	
	
		
			<path d="M5166,207c0.1-3.9-0.3-8,0.5-11.8c0.5-2.8,1.8-3.3,5.1-3.8c10-1.5,21.6,0,31.5,1.9c7,1.4,19.9,4.1,21.5,12.7
				c1.3,7.1-7.1,14.2-11.8,18c-7,5.7-15.4,10.8-24,13.9c-3.8,1.4-6.4,6.9-2.6,10c11.2,9.3,24.4,15.2,38,20.2
				c5.3,1.9,12.7,4.5,14.3,10.7c1.7,6.8-7.7,8.6-12.3,9.8c-15,3.9-29.9,8.4-45,12c-11.3,2.8-24.9,5.3-33.3,14.1
				c-5.3,5.6,3.1,14.1,8.5,8.5c4.4-4.6,11-6.5,16.9-8.2c6.1-1.8,12.4-3,18.5-4.7c9.2-2.6,18.3-5.2,27.5-7.6c8-2.1,17.4-3.2,24.1-8.4
				c12.9-10,6.4-27-6.2-33.7c-6.3-3.3-13.2-5-19.7-7.9c-8-3.6-16-7.7-22.8-13.3c-0.9,3.3-1.8,6.7-2.6,10
				c10.3-3.7,19.9-9.4,28.4-16.2c8.1-6.5,17-16,16.2-27.2c-0.9-13.3-14.1-20.3-25.6-23.3c-12.9-3.3-28.4-5.1-41.7-3
				c-5.7,0.9-10.8,3.6-13.2,9.1c-2.4,5.6-1.8,12.3-2,18.2C5153.8,214.7,5165.8,214.7,5166,207L5166,207z"/>
		
	
	
		
			<path d="M5296,189c-8.1-0.9-16.8,0-23,5.8c-5.8,5.4-7.5,13.7-7.5,21.3c-0.1,21.2,13,41.5,29.9,53.5c5.3,3.8,12.5,8.1,19.3,5.9
				c5.8-1.9,8.2-7.7,8.8-13.3c1.3-11.2-1.7-23.8-5.6-34.3c-7.4-19.8-18.9-40.8-38.8-50.1c-7-3.2-13.1,7.1-6.1,10.4
				c15.5,7.2,23.4,21.4,30.3,36.2c2.4,5.1,3.2,6.6,4.9,12.4c1.3,4.5,2.4,9.2,3.1,13.9c0.5,3.9,0.9,8.7,0.1,11.9
				c-0.3,1.1-0.3,0.8-0.5,1.4c-0.2,1-0.1-0.2,0.1,0.1c0.1,0.3-0.7-0.1,0,0c-0.6-0.1-0.9,0-2.2-0.5c-14.3-5.8-25.9-22-29.8-36.4
				c-1.7-6.5-2.9-15.4,0.7-21.6c3.3-5.7,10.6-5.3,16.3-4.6C5303.7,201.9,5303.6,189.9,5296,189L5296,189z"/>
		
	
	
		
			<path d="M5374,271c0-24.9-1.3-50-0.2-74.9c0.1-1.3,0.2-2.4,0.5-3.7c0.2-0.7,0.2-0.7,0.2-0.7c1.8-1.4,5.4-1.5,7.7-1.8
				c12.5-1.7,25.2-0.8,37.8-0.9c7.7,0,7.7-12,0-12c-13.8,0.1-27.5-0.6-41.3,1.4c-7.3,1-14.1,3.4-16.1,11.3c-1.2,4.8-0.8,10-0.8,14.9
				c0,7.2,0,14.3,0,21.5c0.1,15,0.2,30,0.2,45C5362,278.7,5374,278.7,5374,271L5374,271z"/>
		
	
	
		
			<path d="M5380,229c21.3,0,42.7,0,64,0c7.7,0,7.7-12,0-12c-21.3,0-42.7,0-64,0C5372.3,217,5372.3,229,5380,229L5380,229z"/>
		
	
	
		
			<path d="M5554,179c1.8,18.3-3.6,35.9-7.4,53.6c-2.1,9.9-4,20-5.6,30c-1.8,10.8-3.7,22.3-1.8,33.2c0.7,3.8,2.2,7.6,5.2,10.2
				c5.5,4.8,12.6,0.3,17-4c5.8-5.7,9.4-13,15.5-18.5c7.6-6.9,16.1-12.9,23.4-20.2c5.4-5.5-3-14-8.5-8.5
				c-8.3,8.4-18.2,14.9-26.6,23.3c-5.5,5.5-9.3,16-17.2,18.5c1.5,0.2,3.1,0.4,4.6,0.6c-0.4-0.2-0.5-0.1-0.9-0.9
				c-0.5-1.1-0.8-2.5-1-3.7c-0.6-4-0.3-8.3,0-12.4c0.6-8.7,2.3-17.3,3.9-25.8c1.9-9.9,3.8-19.9,6.1-29.7c3.4-14.9,6.8-30.2,5.3-45.5
				C5565.3,171.4,5553.2,171.3,5554,179L5554,179z"/>
		
	
	
		
			<path d="M5618,283c0-17.3-1.2-34.6-0.3-51.9c0.5-8.8,1.8-17.3,3.7-25.8c1.7-7.5,3.6-15,4.1-22.7c0.2-3.4-0.7-11.3,3.8-12.3
				c4.8-1,11.7,3.4,15.7,5.7c12.3,6.9,21.1,16.5,24.8,30.3c4.2,15.8,4.6,32.5,4.3,48.8c-0.2,7.7,11.8,7.7,12,0
				c0.3-16.8-0.3-34.1-4.3-50.5c-4.1-16.5-14.1-29.1-28.7-37.7c-10.4-6.2-28.4-14.8-36.5-0.7c-3.3,5.8-2.4,12.6-3.2,19
				c-1.1,10-4.4,19.6-5.9,29.6c-3.5,22.7-1.5,45.6-1.4,68.4C5606,290.7,5618,290.7,5618,283L5618,283z"/>
		
	
	
		
			<path d="M5596,237c24.6,0,49.2,0,73.6-4.2c7.6-1.3,4.4-12.9-3.2-11.6c-23.3,4-46.9,3.8-70.4,3.8C5588.3,225,5588.3,237,5596,237
				L5596,237z"/>
		
	
	
		
			<path d="M5804.2,303.2c11.3-12.9,15.1-30.9,18.5-47.3c4.6-22.2,4-45,8.2-67.3c-3.3,0.9-6.7,1.8-10,2.6
				c13.5,12.5,19.3,30.6,27.6,46.6c6.6,12.8,11.9,31.2,25.6,38.3c1.8,0.9,4.3,1.2,6.1,0c10.1-7,11.1-20.2,12.3-31.4
				c0.5-4.7,1.4-9.2,2.6-13.7c0.9-3.5,2.2-11.8,6.2-13.3c-2.3-0.9-4.5-1.8-6.8-2.8c8,18.6,12.9,38.4,18.2,57.9
				C5918,292,5925,311,5926,331c0.4,7.7,12.4,7.7,12,0c-1-21.1-8.1-41.1-13.7-61.3c-5.7-20.5-11-41.1-19.4-60.7
				c-1-2.3-4.5-3.6-6.8-2.8c-11.4,4.1-14.2,18.3-16.3,28.9c-1.1,5.4-1.3,11-2.2,16.4c-0.7,4.4-1.5,11.5-5.5,14.3c2,0,4,0,6.1,0
				c-6.5-3.4-9.9-10.8-12.9-17.1c-3.4-7-7-13.9-10.4-20.9c-7.8-15.8-14.3-32.8-27.5-45c-3.1-2.8-9.1-2-10,2.6
				c-4.1,21.5-3.4,43.5-7.8,64.9c-3,14.7-5.6,32.7-15.9,44.4C5790.7,300.5,5799.1,309.1,5804.2,303.2L5804.2,303.2z"/>
		
	
	
		
			<path d="M5946.8,206c8.3,14.8,18.3,28.8,29.9,41.2c5.6,6,11.6,11.4,18.2,16.4c5,3.7,10.3,7.7,16.7,8.3
				c21.7,2.1,25.4-28.7,36.7-40.7c5.3-5.6-3.2-14.1-8.5-8.5c-6.1,6.5-9.5,15-13.6,22.8c-2.6,4.9-7.1,15.2-13.8,14.4
				c-4.6-0.6-9.3-5-12.8-7.8c-6-4.8-11.5-10.2-16.7-15.9c-10-11-18.5-23.3-25.7-36.3C5953.4,193.2,5943,199.3,5946.8,206L5946.8,206
				z"/>
		
	
	
		
			<path d="M5951,248.2c14.5-6.9,25.9-17.8,37.2-28.9c5.5-5.4-3-13.9-8.5-8.5c-10.6,10.5-21.2,20.5-34.8,27.1
				C5938,241.2,5944.1,251.5,5951,248.2L5951,248.2z"/>
		
	
	
		
			<path d="M5937.2,214c13.4-20.1,38.1-25.5,60.4-29.2c7.6-1.3,4.4-12.8-3.2-11.6c-25.9,4.3-52.2,11.8-67.6,34.8
				C5922.5,214.4,5932.9,220.4,5937.2,214L5937.2,214z"/>
		
	
	
		
			<path d="M6034,171c0,40,0,80,0,120c0,7.7,12,7.7,12,0c0-40,0-80,0-120C6046,163.3,6034,163.3,6034,171L6034,171z"/>
		
	
	
		
			<path d="M6031,180.2c9.5-4.8,20.5-8.3,31.1-5.2c9.5,2.8,16,10.5,20.3,19c4.8,9.5,7.5,21,9.4,31.4c0.8,4,1.8,9.5-0.1,13.4
				c-2.1,4.2-8.5,3.3-12.4,3.2c-6.1-0.1-11.7,0.1-17.7,1.3c-4.5,0.9-13.3,3.5-17.2,0.1c-0.9,3.3-1.8,6.7-2.6,10
				c4-0.8,9.2,1.9,12.7,3.5c5.5,2.6,10.9,5.6,16.3,8.4c5.7,2.9,11.7,4.9,17.6,7.4c8.4,3.4,16.5,7.4,24.6,11.5
				c6.9,3.5,13-6.9,6.1-10.4c-8.7-4.4-17.6-8.6-26.6-12.3c-6.4-2.6-12.6-4.9-18.7-8.2c-10.3-5.5-22.9-14.1-35.1-11.5
				c-4.3,0.9-5.9,7.1-2.6,10c11.2,9.9,26.3,1.8,39.2,2.1c7.2,0.1,15.4,1,21.6-3.2c5.5-3.7,7.6-10.2,7.8-16.5
				c0.2-6.6-1.3-13.4-3-19.8c-1.7-6.6-3.3-13.3-5.8-19.6c-4.9-12.2-12.8-23.8-25.2-29.3c-15.1-6.8-31.5-2.9-45.7,4.4
				C6018.1,173.3,6024.2,183.7,6031,180.2L6031,180.2z"/>
		
	
	
		
			<path d="M6122,183c0.7,10.2,2.7,20.2,6.7,29.7c3.8,9.1,9.4,16.8,15,24.9c5.3,7.6,10.1,16,16.9,22.4c3.2,3,6,5,10.5,3.7
				c2.6-0.8,5-2.1,7.2-3.6c9.7-7,12.6-19.4,13.7-30.7c1.3-13.4-0.1-27-1.7-40.3c-1.5-12.5-4.2-25.3-4.2-37.9c0-7.7-12-7.7-12,0
				c-0.1,19,4.8,38,6,56.9c0.8,13.2,3,40-13.8,44.5c1.5,0.2,3.1,0.4,4.6,0.6c-5.1-3.8-8.7-9.5-12.3-14.7
				c-3.7-5.5-7.7-10.7-11.3-16.2c-7.8-11.8-12.4-25-13.3-39.1C6133.5,175.3,6121.5,175.3,6122,183L6122,183z"/>
		
	
	
		
			<path d="M6222,155c1.7,15.8,7.6,30.7,10.3,46.3c1.4,7.9,2,15.9,1.9,24c-0.1,6.2-1.9,13.7,1.2,19.4c8.7,15.7,31.6,0.4,41.1-6.2
				c6.8-4.7,13.3-9.8,19.7-15.1c5.9-4.9-2.6-13.4-8.5-8.5c-5.9,4.9-11.9,9.6-18.2,13.9c-6.6,4.5-14.9,10-22.4,10.6
				c-1.2,0.1-1-0.1-1.1-0.2c-0.4-0.4-0.3-2.8-0.2-5.1c0.4-9,0.4-17.9-0.7-26.8c-1.1-8.6-2.7-17.2-4.9-25.5
				c-2.4-8.8-5.3-17.5-6.3-26.6C6233.2,147.4,6221.2,147.3,6222,155L6222,155z"/>
		
	
	
		
			<path d="M6253.2,198c2.2-5,4.8-7.7,9.8-9.8c3-1.3,3.6-5.7,2.2-8.2c-1.8-3.1-5.2-3.4-8.2-2.2c-6.3,2.7-11.4,7.8-14.2,14.2
				c-1.3,3-0.9,6.4,2.2,8.2C6247.5,201.7,6251.9,201,6253.2,198L6253.2,198z"/>
		
	
	
		
			<path d="M6217.2,170c5.1-6.9,16.8-5.8,24.3-8c10.5-3.1,19.8-9,29.5-13.9c6.9-3.5,0.8-13.8-6.1-10.4
				c-10.7,5.4-20.9,11.9-32.9,14.1c-10.2,1.8-18.7,3.2-25.3,12.1C6202.2,170.2,6212.6,176.2,6217.2,170L6217.2,170z"/>
		
	
	
		
			<path d="M6296,153c21.8,1.5,43.5-1.9,65.2-4.5c8.7-1,17.5-1.7,26.2-2.9c6.5-0.9,12.9-1.8,19.5-2c6.2-0.2,13,0,18.5,3.2
				c6.5,3.9,8.6,12.2,8.5,19.3c-0.2,10.4-5.1,20.3-10.2,29.1c-4.9,8.5-10.2,16.7-16.3,24.4c-6.5,8.1-13.8,15.9-22.1,22.2
				c-6.8,5.2-13.9,11.3-13.3,20.7c0.1,2,1,4.3,3,5.2c21.9,9.8,45.9,5.3,69.1,5.2c7.7,0,7.7-12,0-12c-20.5,0.1-43.6,5.1-63-3.5
				c1,1.7,2,3.5,3,5.2c-0.5-7.2,9.5-11.6,14.2-15.7c7.9-7,14.9-15,21.3-23.4c12.2-16,26.1-36.5,26.5-57.4c0.3-17.3-9.7-31.3-27-33.9
				c-14.9-2.3-30,1.5-44.8,2.8c-26,2.4-51.8,7.7-78.1,5.9C6288.3,140.5,6288.3,152.5,6296,153L6296,153z"/>
		
	
	
		
			<path d="M6376,201c35.9-2.9,72-3.9,108-4c7.7,0,7.7-12,0-12c-36,0.1-72.1,1.1-108,4C6368.4,189.6,6368.3,201.6,6376,201L6376,201
				z"/>
		
	
	
		
			<path d="M5084,389c-9.2,0.9-17.5,4.2-25.8,8.2c-7.4,3.5-15.2,6.7-22.4,10.6c-11.3,6-18.7,16.3-23.4,28.1
				c-5.3,13.3-2.5,28.4,12.2,33.6c12.8,4.6,28,1.6,41-0.6c7.6-1.3,4.4-12.9-3.2-11.6c-10,1.7-21.2,3.8-31.2,1.6
				c-4.7-1-8.8-3.4-9.4-8.6c-0.6-5,1.6-10.2,3.9-14.5c4.7-9.1,10.4-14.9,19.6-19.3c5.8-2.8,11.7-5.3,17.5-8.1
				c6.7-3.3,13.8-6.6,21.3-7.3C5091.6,400.2,5091.7,388.2,5084,389L5084,389z"/>
		
	
	
		
			<path d="M5050,479c2.2,19.1-8.1,37-8,56c0,7.7,12,7.7,12,0c-0.1-19.1,10.2-36.8,8-56C5061.1,471.4,5049.1,471.3,5050,479
				L5050,479z"/>
		
	
	
		
			<path d="M5154,515c-0.8-9.6-5.7-17.8-8.5-26.8c-3.4-10.8-5.9-22-7.7-33.1c-1.8-11.5-1.7-22.6-0.7-34.1c0.5-5.7,1.1-11.4,0.9-17.1
				c-0.2-4.2-1.2-9.5,1.8-13c-2.4,0.3-4.8,0.6-7.3,0.9c5.9,2.6,10.1,8.3,13.8,13.3c3.8,5.2,7.5,10.6,10.8,16.1
				c9.7,16.6,9,35.2,8.9,53.8c0,7.7,12,7.7,12,0c0.1-20.8,0.3-41.3-10.6-59.9c-3.7-6.3-8-12.5-12.4-18.4
				c-4.4-5.8-9.6-12.4-16.5-15.4c-2.3-1-5.4-1.2-7.3,0.9c-7.3,8.6-4.8,18.6-5.4,29c-0.7,12.8-2.4,25.3-0.8,38.1
				c1.5,11.8,3.7,23.5,6.9,35c1.4,5.2,3.1,10.2,5.1,15.2c2,4.9,4.5,10,5,15.3C5142.7,522.6,5154.7,522.7,5154,515L5154,515z"/>
		
	
	
		
			<path d="M5139,476.2c13.4-8.3,26.1-17.7,37.2-28.9c5.4-5.5-3-14-8.5-8.5c-10.4,10.5-22.2,19.3-34.8,27.1
				C5126.4,469.9,5132.4,480.3,5139,476.2L5139,476.2z"/>
		
	
	
		
			<path d="M5286,403c0,15.5-8.1,29.8-11.7,44.6c-4.1,16.6-5.7,33.8-12.1,49.8c-2.8,7.2,8.8,10.3,11.6,3.2
				c6.5-16.5,7.9-34.2,12.4-51.3c4.1-15.4,11.7-30.1,11.8-46.3C5298,395.3,5286,395.3,5286,403L5286,403z"/>
		
	
	
		
			<path d="M5257.6,412.8c6.5-2.5,13.3-4.1,20.2-5.3c6.5-1.1,13.3-2.7,19.9-2.5c10.8,0.2,21.6,10.6,22.3,21.5
				c0.6,9.9-7.9,17.3-14.7,23.2c-2.6,2.3-14,12.3-17,9.1c-5.4-5.6-13.9,2.9-8.5,8.5c9.1,9.4,22.7,0,30.6-6.3
				c10.2-8.1,20.5-18.1,21.6-31.8c1.2-15.3-11.5-31.1-25.9-35.1c-8.1-2.2-16.3-0.5-24.4,0.7c-9.3,1.4-18.5,3.1-27.2,6.5
				C5247.3,404,5250.4,415.6,5257.6,412.8L5257.6,412.8z"/>
		
	
	
		
			<path d="M5354,431c0,21.3,0,42.7,0,64c0,7.7,12,7.7,12,0c0-21.3,0-42.7,0-64C5366,423.3,5354,423.3,5354,431L5354,431z"/>
		
	
	
		
			<path d="M5360,385c1.3,0,2.7,0,4,0c3.1,0,6.1-2.8,6-6c-0.1-3.3-2.6-6-6-6c-1.3,0-2.7,0-4,0c-3.1,0-6.1,2.8-6,6
				C5354.1,382.3,5356.6,385,5360,385L5360,385z"/>
		
	
	
		
			<path d="M5443.8,378.8c-11.6,9.4-23.1,18.9-33.8,29.2c-12.1,11.6-25.8,25.1-31.4,41.4c-2.2,6.3-2.4,13.5,1.3,19.3
				c4.4,6.8,12.6,10,20.3,11.5c12.5,2.4,25.1,1.3,35.9-5.9c10.7-7.1,18.1-17.9,22.8-29.8c7-17.7,10.4-61-20.4-55.3
				c-7.6,1.4-4.4,13,3.2,11.6c7.9-1.5,9.7,7.8,10.2,13.8c0.7,9.3-1.2,18.8-4.8,27.3c-4,9.5-10.5,18.5-19.7,23.6
				c-8.5,4.7-18.2,4.7-27.3,2.3c-2.8-0.7-5.5-1.7-7.9-3.4c-1.2-0.9-2.5-2.8-2.7-3.5c-0.5-1.3-0.4-3.5-0.2-4.6
				c0.5-2.9,1.4-5.1,2.7-7.5c6.6-13,17.6-23.8,28.1-33.7c10.4-9.8,21.4-18.9,32.4-27.9C5458.2,382.4,5449.7,373.9,5443.8,378.8
				L5443.8,378.8z"/>
		
	
	
		
			<path d="M5434,455c-1,8.3-2.2,16.6-3,25c-0.8,7.8-0.7,15.7-1.1,23.5c-0.6,12.4-0.6,25.3,11.1,32.7c6.5,4.1,12.6-6.2,6.1-10.4
				c-8.5-5.3-5.1-18.8-5-27.1c0.3-14.7,2.2-29.1,4-43.7C5446.9,447.4,5434.9,447.4,5434,455L5434,455z"/>
		
	
	
		
			<path d="M5486.8,454c7.5,13.3,23,43.3,42.6,31c10-6.3,11.4-20.4,12.8-31c2-15.7,3.9-31.1,3.8-47c-0.1-7.7-12.1-7.7-12,0
				c0.1,14.1-1.3,27.8-3.1,41.7c-1,7.5-0.9,19.1-6.4,25c-9.4,10-24-19.8-27.3-25.7C5493.4,441.2,5483,447.3,5486.8,454L5486.8,454z"
				/>
		
	
	
		
			<path d="M5564.2,475.2c7-8.3,9.2-18.3,10.1-28.9c0.9-10,0-21.4,4.5-30.8c4.7-9.8,15.5-10,25.1-10.6c13.4-0.9,26.5-3.9,40-3.9
				c7.7,0,7.7-12,0-12c-14.1,0-27.9,3.2-42,4.1c-10.8,0.7-22.6,2-29.9,10.9c-7.1,8.7-8.3,20.3-9,31.1c-0.7,10.4-0.3,23.1-7.4,31.6
				C5550.8,472.6,5559.3,481.2,5564.2,475.2L5564.2,475.2z"/>
		
	
	
		
			<path d="M5580,449c10.7,0,21.3,0,32,0c7.7,0,7.7-12,0-12c-10.7,0-21.3,0-32,0C5572.3,437,5572.3,449,5580,449L5580,449z"/>
		
	
	
		
			<path d="M5562.8,478c11.1,14.9,29,11.6,45.3,10.2c14.5-1.3,33-2.3,44.1-12.9c5.6-5.4-2.9-13.9-8.5-8.5c-3.9,3.8-9.7,5.3-14.8,6.5
				c-6.5,1.5-13,2.3-19.6,2.9c-5.9,0.5-11.8,1.2-17.8,1.5c-6.6,0.3-14,0.2-18.3-5.6C5568.6,465.8,5558.2,471.8,5562.8,478
				L5562.8,478z"/>
		
	
	
		
			<path d="M5766,387c-0.8,9.5-4,18.1-8.6,26.4c-2.3,4.2-5.1,8.2-7.2,12.6c-2.1,4.3-3.4,8.9-5.3,13.2c-2.8,6.5-7.5,10.2-14.6,11
				c-6.1,0.7-13.4-0.9-17.1-6.2c-4.3-6.3-14.8-0.3-10.4,6.1c10.4,15.1,36,16.8,48,2.4c3.5-4.2,5.4-9.5,7.3-14.6
				c2.3-6.1,5.6-11.4,8.8-17.1c6-10.7,10.1-21.5,11-33.8C5778.6,379.3,5766.6,379.3,5766,387L5766,387z"/>
		
	
	
		
			<path d="M5752,349c7.7,0,7.7-12,0-12C5744.3,337,5744.3,349,5752,349L5752,349z"/>
		
	
	
		
			<path d="M5788.2,387.2c9.6-10.9,13.5-25.9,24-36c5.6-5.4-2.9-13.8-8.5-8.5c-10.7,10.2-14.4,25.1-24,36
				C5774.7,384.5,5783.1,393,5788.2,387.2L5788.2,387.2z"/>
		
	
	
		
			<path d="M5858,451c-0.1-11.7,1.4-22.7,5.5-33.7c1.9-5.3,4.2-10.5,5.5-16.1c0.9-4.1-0.1-11,3-14.1c-1.4,0.6-2.8,1.2-4.2,1.8
				c-1.3-0.1-0.5-0.4,0.1,0.3c0.4,0.5,1.1,1,1.6,1.5c1.3,1.3,2.5,2.8,3.6,4.3c3,4,5.5,8.3,8,12.6c1.8,3,3.6,6.1,5.1,9.2
				c0.8,1.6,1.5,3.4,1.6,5.1c0,0.1,0.8-0.6,0.9-0.7c-0.6,0.5-2.5,0.1-3.1,0c-7.6-1.1-10.8,10.4-3.2,11.6c5,0.7,10.6,1.1,14.4-2.8
				c3.2-3.3,3.4-8.1,2.4-12.3c-1.8-7.4-6.8-14.7-10.8-21.2c-4.1-6.7-9.7-16.7-17.8-19.1c-5.9-1.8-10.2,3.3-11.7,8.6
				c-0.8,2.7-0.7,5.6-1,8.4c-0.3,3.5-1.4,6.9-2.5,10.2c-2.6,7.6-5.8,14.8-7.4,22.7c-1.6,7.8-2.1,15.8-2.1,23.8
				C5846.1,458.7,5858.1,458.7,5858,451L5858,451z"/>
		
	
	
		
			<path d="M5848,433c12.2-1.3,26.8-5.6,36.2-13.8c5.9-5-2.7-13.5-8.5-8.5c-3.7,3.2-8.9,4.9-13.4,6.5c-4.6,1.6-9.5,3.2-14.4,3.7
				C5840.4,421.8,5840.3,433.8,5848,433L5848,433z"/>
		
	
	
		
			<path d="M5930,391c0.1,11.1,1.3,22.1,1.3,33.2c-0.1,10.2-0.7,22.4-7.5,30.6c-4.9,5.9,3.5,14.4,8.5,8.5
				c16.5-19.8,9.9-48.7,9.8-72.2C5942,383.3,5930,383.3,5930,391L5930,391z"/>
		
	
	
		
			<path d="M5986,439c-0.1-10.4-1.5-20.8-1.7-31.2c-0.2-8.9-0.8-21.7,5.6-28.8c-1.4,0.6-2.8,1.2-4.2,1.8c4.6-0.3,6.4,5,8.1,9.4
				c2.5,6.5,4.5,13.4,9.1,18.8c2.1,2.5,4.8,4.5,7.9,5.6c5,1.8,8.3,0.1,11.6-3.9c6.6-7.8,7.1-19.3,14.8-26.2c-1.9,0.5-3.9,1-5.8,1.5
				c8.4,2.5,11.5,18.1,13.8,25.3c3.4,10.9,6.4,23.4,14.6,31.9c5.4,5.5,13.9-2.9,8.5-8.5c-5.6-5.7-7.8-14.7-10.1-22.1
				c-2.8-8.7-5.2-17.8-9.7-25.8c-3.3-5.9-12.3-16.8-19.8-10.9c-9.5,7.5-8.8,21.5-17.8,29.2c1.9-0.5,3.9-1,5.8-1.5
				c-7.9-1.2-10-13.6-12.5-19.8c-1.7-4.2-3.8-8.4-7.3-11.4c-3.5-3-9.9-5.4-14.2-2.9c-4.5,2.6-7,9.7-8.2,14.3
				c-1.6,6-2.1,12.4-2.2,18.6c-0.2,12.2,1.6,24.3,1.7,36.5C5974.1,446.7,5986.1,446.7,5986,439L5986,439z"/>
		
	
	
		
			<path d="M6062,379c1.3,14.8,7.4,28.1,12.2,42c3.6,10.3,6.4,21.7,14.4,29.6c3.1,3.1,6.6,6.1,11.2,6.4c5.5,0.3,10.9-3.2,15.4-6
				c11.8-7.5,22.1-17.5,30-29c4.4-6.4-6-12.4-10.4-6.1c-6.4,9.3-14.9,17.6-24.3,23.8c-2,1.3-7.5,5.7-9.8,5.3
				c-2.3-0.4-5.3-4.6-6.5-6.5c-4.8-7.4-6.8-16.6-9.8-24.8c-4.1-11.3-9.3-22.7-10.3-34.8C6073.3,371.4,6061.3,371.3,6062,379
				L6062,379z"/>
		
	
	
		
			<path d="M6068,401c13.5-1.7,26.5-6.3,40-8c7.6-0.9,7.7-12.9,0-12c-13.5,1.7-26.5,6.3-40,8C6060.4,389.9,6060.3,401.9,6068,401
				L6068,401z"/>
		
	
	
		
			<path d="M6053.6,372.8c11.2-4.6,23.3-4.4,35.2-3.6c9.8,0.6,19.8,1.5,27.5-5.9c5.6-5.4-2.9-13.9-8.5-8.5
				c-5.8,5.6-17.6,2.3-24.8,2.2c-11.2-0.2-22.1,0-32.6,4.3C6043.4,364.1,6046.4,375.7,6053.6,372.8L6053.6,372.8z"/>
		
	
	
		
			<path d="M6226.2,368.6c6.2,18.4,8,37.3,9.8,56.5c0.8,9,1.5,17.9,1.7,26.9c0.1,8.4,0.6,16.6,4.2,24.4c2.5,5.3,9.2,2.8,11-1.4
				c0.3-0.8,0.7-1.6,1-2.4c3-7.1-8.7-10.2-11.6-3.2c-0.3,0.8-0.7,1.6-1,2.4c3.7-0.5,7.3-1,11-1.4c-3.3-7-2.4-15.4-2.6-22.9
				c-0.2-9.4-1.3-18.8-2.2-28.2c-1.8-18.3-3.8-36.4-9.7-53.9C6235.3,358.1,6223.7,361.2,6226.2,368.6L6226.2,368.6z"/>
		
	
	
		
			<path d="M6221.6,376.8c9.1-1.3,17.9-4.7,26.9-6.7c7.1-1.5,16.8-3,21.8,3.7c4.2,5.5,7.9,19.2-0.4,22.9c-5.1,2.3-11.4,2-16.9,2.7
				c-6.6,0.9-12.1,3.1-17.3,7.3c-6,4.8,2.5,13.3,8.5,8.5c6-4.8,14.4-4.1,21.6-5.2c6.4-1,12.6-3.1,16.7-8.4
				c7.2-9.5,4.5-24.6-1.8-33.9c-14.5-21.3-42.9-5.4-62.3-2.5C6210.8,366.3,6214,377.9,6221.6,376.8L6221.6,376.8z"/>
		
	
	
		
			<path d="M6301.8,436.6c4.7-12.4,8.4-25.2,11.7-38c0.9-3.7,3.8-18.5,9.3-17.8c2.8,0.3,5.2,4.9,6.4,7c2.2,3.7,3.9,7.6,5.7,11.5
				c4.3,9.3,12.3,16.9,11.1,27.8c-0.9,7.7,11.1,7.6,12,0c1.6-13.7-7.8-23.2-13.2-34.8c-4-8.8-9.1-20.9-19.7-23.2
				c-12.5-2.7-18.7,11.2-21.7,20.9c-4.5,14.5-7.9,29.2-13.2,43.5C6287.5,440.6,6299.1,443.8,6301.8,436.6L6301.8,436.6z"/>
		
	
	
		
			<path d="M6295,420.2c5.9-4.4,13.6-4.6,20.6-5.6c8.8-1.2,17.2-4.3,26-5.8c7.6-1.3,4.4-12.9-3.2-11.6c-9.1,1.5-17.7,4.8-26.8,5.9
				c-7.8,1-16.1,1.8-22.6,6.7C6282.9,414.4,6288.9,424.8,6295,420.2L6295,420.2z"/>
		
	
	
		
			<path d="M6388,357c-10.8-0.2-25.1-4.6-35,1.6c-12.8,8-7.5,22.4,0.9,31.2c3.8,4,8.2,7.8,12.8,10.8c6.3,4.1,13.9,5.3,20.5,8.8
				c13.2,7.1,4.5,24.8,3,35.9c-0.4,3.2,0.8,6.4,4.2,7.4c2.8,0.8,6.9-1,7.4-4.2c1.6-12,7.5-24.8,2.9-36.9
				c-5.4-14.4-20.7-14.1-31.9-21.4c-4.4-2.9-19.5-13.8-14.8-20.2c2.6-3.6,9.9-2.5,13.6-2.3c5.5,0.3,10.9,1.1,16.4,1.2
				C6395.7,369.1,6395.7,357.1,6388,357L6388,357z"/>
		
	
	
		
			<path d="M6578,355c1.8,19.6-6.7,38.3-11.4,56.9c-4.9,19.3-8.7,39-16.4,57.5c-1.3,3,1.4,6.6,4.2,7.4c3.4,1,6.1-1.2,7.4-4.2
				c8-19,11.7-39.3,16.9-59.2c4.9-19.1,13.2-38.2,11.4-58.4C6589.3,347.4,6577.3,347.3,6578,355L6578,355z"/>
		
	
	
		
			<path d="M6508.2,399.2c18.1-15.5,44.7-20.3,67.8-22.2c7.6-0.6,7.7-12.7,0-12c-26.5,2.3-55.4,8-76.2,25.8
				C6493.9,395.8,6502.4,404.2,6508.2,399.2L6508.2,399.2z"/>
		
	
	
		
			<path d="M6606,375c0.2,8.9,0.1,17.7-0.6,26.6c-0.4,5.3-1,10.6-2.3,15.7c-0.5,2-1,3.7-1.8,5.2c-0.6,1.1-0.5,0.6-0.7,1.1
				c-0.6,1.2-0.1-0.5,0.4-0.1c0.2,0.2-0.4,0,0.6-0.1c1.9,1.5,3.9,2.9,5.8,4.4c-3-9.2,2.4-20.4,6-28.7c1.9-4.3,3.8-8.6,5.8-12.9
				c2-4.3,4.3-9.8,8.4-12.4c6.6-4.1,15.1,4,19.4,8.2c6,5.8,11.2,12.6,14.9,20.1c0-2,0-4,0-6.1c-4.3,7.2-16.3,5.4-23.3,5.1
				c-9.3-0.4-18.8-6.9-28.2-3.7c-2.6,0.9-4.3,3-4.4,5.8c-0.4,10,9.1,16,17,19.8c4.7,2.3,9.5,4.1,14.2,6.2c3.6,1.6,7.8,3.2,10.6,5.9
				c5.5,5.4,14-3.1,8.5-8.5c-6-5.9-14.7-8.4-22.2-11.7c-4.7-2-16.3-6.2-16.1-11.7c-1.5,1.9-2.9,3.9-4.4,5.8
				c6.1-2.1,14.2,3.1,20.4,3.8c6.5,0.8,13.3,0.9,19.8,0.1c6.8-0.9,13.6-3.4,17.6-9.3c3.9-5.8-1.2-11.9-4.6-16.7
				c-7.3-10.2-17.3-22.1-30-25.4c-15.9-4.2-24.2,10.4-29.7,22.7c-6.1,13.7-16.4,31.3-11.2,46.8c0.8,2.4,3.1,4.6,5.8,4.4
				c12.6-0.7,14.3-18.3,15.4-27.7c1.2-10.8,1.3-21.8,1.1-32.7C6617.9,367.3,6605.9,367.3,6606,375L6606,375z"/>
		
	
	
		
			<path d="M6713.6,385.2c-8.2-3.1-16.9-7.3-25.9-7c-9.2,0.3-15.5,6.6-17.3,15.4c-1.9,9-1.5,19.1-0.4,28.2
				c1.1,8.8,3.1,17.8,8.1,25.2c11.4,17,32.4,16.2,49.7,9.6c16.2-6.2,35.7-19.7,31.3-39.7c-2.5-11.7-12.8-21.1-22.1-27.8
				c-10.4-7.5-23.9-13.6-37.1-12c-7.6,0.9-7.7,12.9,0,12c16.8-2,36.5,10.8,45,24.8c8.4,13.9-5.9,24.6-17.4,29.9
				c-11,5-27.8,9.6-37.3-0.6c-9-9.7-9.4-26-9-38.4c0.2-5.7-0.3-14.5,7.2-14.6c7.4-0.1,15.1,4,21.8,6.6
				C6717.6,399.6,6720.7,388,6713.6,385.2L6713.6,385.2z"/>
		
	
	
		
			<path d="M6790,367c0,34.2,1.5,70.1-11.8,102.4c-2.9,7.1,8.7,10.2,11.6,3.2c13.7-33.2,12.2-70.4,12.2-105.6
				C6802,359.3,6790,359.3,6790,367L6790,367z"/>
		
	
	
		
			<path d="M6780,393c7.8-0.6,15.6-2.8,23.3-4c4.4-0.7,8.9-1.1,13.4-0.9c1.6,0.1,3.1,0.3,4.6,0.8c0.9,0.3,2.1,1.1,2.2,1.3
				c0.2,0.3,0.5,1.5,0.3,2.9c-0.2,1.9-1.1,3.7-1.8,5.3c-2.6,5.5-6.1,10.8-9.9,15.4c-3.6,4.4-7.6,8.3-13.7,8.2
				c-6.9-0.2-13.1-1.9-20.1-0.8c-7.6,1.1-4.4,12.7,3.2,11.6c5.9-0.9,11.6,1.2,17.5,1.2c6.5,0,12.2-2.6,17-6.8
				c7.8-6.9,14.7-17.5,18.3-27.3c2.9-7.7,1.8-16.7-5.9-21c-7.1-3.9-16.2-3.1-23.9-2.2c-5.1,0.6-10.1,1.6-15.2,2.5
				c-2,0.4-3.9,0.8-5.9,1.1c-2.2,0.4-1.9,0.4-3.6,0.5C6772.3,381.6,6772.3,393.6,6780,393L6780,393z"/>
		
	
	
		
			<path d="M6588.2,383.2c6-6.5,15.4-10.2,23.5-13.1c7.9-2.9,18-6.6,26.6-5.3c7.6,1.2,10.8-10.4,3.2-11.6c-11.1-1.7-22.7,1.6-33,5.3
				c-10,3.6-21.4,8.2-28.8,16.2C6574.5,380.4,6583,388.9,6588.2,383.2L6588.2,383.2z"/>
		
	
	
		
			<path d="M5885,669.8c-15.8,7.8-28.5,20.3-44.3,28.2c-7.7,3.8-16.1,6.9-22.9,12.3c-5.5,4.4-9.9,10.1-13.5,16.1
				c-3.8,6.4-6.8,13.3-9.4,20.2c-2.5,6.5-5.1,13.1-4.2,20.1c1.7,13.1,14.1,19.4,25,24.1c9.1,3.9,18,5.3,27.9,3.9
				c9.6-1.3,18.8-4.6,28.4-5.8c7.6-0.9,7.7-12.9,0-12c-13.9,1.7-28.7,8.6-42.7,5.8c-6.3-1.3-12.6-4.2-18.2-7.4
				c-3.7-2.1-7.6-5-8.5-9.4c-1-5.4,1.9-11.2,3.8-16.1c2.3-6,4.9-11.9,8.2-17.4c3.1-5.3,7-10.3,12-13.9c6-4.3,13.4-6.9,20-10.2
				c15.8-7.9,28.5-20.4,44.3-28.2C5898,676.8,5891.9,666.4,5885,669.8L5885,669.8z"/>
		
	
	
		
			<path d="M5952.2,731.2c6.9-7.2,10-16.4,15-24.9c4.6-7.7,10.3-13.9,10.8-23.4c0.4-7.7-11.6-7.7-12,0c-0.4,7.1-6.7,12.8-10,18.7
				c-4,7.1-6.6,15-12.3,21C5938.4,728.3,5946.9,736.8,5952.2,731.2L5952.2,731.2z"/>
		
	
	
		
			<path d="M5994,707c0,13.7-1.2,27.5,0.6,41.1c0.9,6.6,2.9,12.8,3.4,19.5c0.4,6.2-1.9,13,2,18.5c6.5,9.4,17,4.4,24.2-1.2
				c9.9-7.8,20-14.5,30.9-20.8c6.7-3.9,0.6-14.2-6.1-10.4c-9,5.2-17.9,10.5-26.1,16.9c-3.4,2.6-6.6,5.8-10.4,7.9
				c-3.9,2.2-3.1-0.5-2.8-4.4c0.8-11.2-3-21.4-3.8-32.4c-0.8-11.5,0-23.1,0.1-34.7C6006,699.3,5994,699.3,5994,707L5994,707z"/>
		
	
	
		
			<path d="M6016.2,747.2c3.2-3.1,6.7-5.3,10.8-7.1c3-1.3,3.6-5.7,2.2-8.2c-1.8-3.1-5.2-3.4-8.2-2.2c-4.9,2.1-9.4,5.2-13.2,8.9
				C6002.2,744.1,6010.7,752.6,6016.2,747.2L6016.2,747.2z"/>
		
	
	
		
			<path d="M6000.2,711.2c8.7-7.5,19.4-12.3,28-20c5.8-5.2-2.7-13.6-8.5-8.5c-8.6,7.7-19.3,12.5-28,20
				C5985.9,707.8,5994.4,716.3,6000.2,711.2L6000.2,711.2z"/>
		
	
	
		
			<path d="M6084,673c-11.8,0.9-28.3,6.8-28.1,21.1c0.1,13.7,12.4,23.2,23.5,28.6c5.6,2.7,11.8,4.3,17.1,7.6
				c4.7,2.9,8.2,7.4,10.4,12.4c4.9,11.3,2.6,24.2-7.2,32c-6,4.8,2.5,13.3,8.5,8.5c20-16.1,15.9-49-4.7-62.7
				c-9.9-6.6-22.5-7.8-31-16.8c-2.9-3.1-6.7-9-3.4-12.9c3.3-4,10-5.4,14.9-5.8C6091.7,684.4,6091.7,672.4,6084,673L6084,673z"/>
		
	
	
		
			<path d="M6130,695c2.4,22.2,8.7,43.6,12.2,65.6c1.2,7.6,12.8,4.4,11.6-3.2c-3.3-20.9-9.5-41.3-11.8-62.4
				C6141.2,687.4,6129.2,687.3,6130,695L6130,695z"/>
		
	
	
		
			<path d="M6105.6,700.8c11.9-3.7,24.7-8.6,37.4-7.9c8.9,0.4,19,2.4,25.3-5.6c4.7-6-3.7-14.5-8.5-8.5c-4.5,5.7-15.9,1.7-22.4,2.2
				c-12,1-23.5,4.7-35,8.2C6095,691.5,6098.2,703.1,6105.6,700.8L6105.6,700.8z"/>
		
	
	
		
			<path d="M6226.2,688.6c2,14.9-10.9,27.3-10.7,42.2c0.1,12.2,7.4,24.3,20.7,24.6c21,0.4,15.4-33.8,11.7-45.6
				c-3.1-9.8-8.2-20.5-18.3-24.6c-7.2-2.9-10.3,8.7-3.2,11.6c2,0.8,4.7,4.6,6.3,7.4c2.3,4.1,3.7,8.6,4.9,13.2
				c1.8,7.3,3.6,18.5,0.2,24.8c-0.7,1.2-0.3,0.5-0.8,1.1c0.5-0.6-1,0.1-0.1,0.1c-0.9,0.1,0.3,0.2-1.1,0c-1.1-0.1-2.2-0.4-3.2-0.9
				c-4.5-2.5-5.3-8.6-5.1-13.2c0.4-6.6,3.9-12.8,6.4-18.9c3.3-8.2,5.1-16.1,3.9-24.9c-0.4-3.2-4.5-4.9-7.4-4.2
				C6226.9,682.1,6225.8,685.4,6226.2,688.6L6226.2,688.6z"/>
		
	
	
		
			<path d="M6258,691c-0.1,13.3,0.7,26.6,2.6,39.7c2.1,14.7,5.3,30.9,14.5,42.9c9.2,12.1,24.1,14.8,37.4,7.4
				c14.3-8.1,19.7-25.1,21.3-40.5c1.8-17.4-0.4-37-8.6-52.6c-3.6-6.9-13.9-0.8-10.4,6.1c6,11.5,7.7,25.6,7.4,38.4
				c-0.2,12.4-2.6,28.1-13,36.3c-8.5,6.7-18.6,5.9-24.8-2.5c-7.6-10.3-10.2-24.4-12-36.7c-1.9-12.7-2.6-25.7-2.4-38.6
				C6270.1,683.3,6258.1,683.3,6258,691L6258,691z"/>
		
	
	
		
			<path d="M6268,665c7.8-0.1,14.9,2.2,22.4,3.8c7.5,1.6,10.8-10,3.2-11.6c-8.6-1.8-16.8-4.3-25.6-4.2
				C6260.3,653.1,6260.3,665.1,6268,665L6268,665z"/>
		
	
	
		
			<path d="M6322,719c-0.6,19.6,7.5,41.2,30,42c7.7,0.3,7.7-11.7,0-12c-15.4-0.6-18.4-17.6-18-30
				C6334.2,711.3,6322.2,711.3,6322,719L6322,719z"/>
		
	
	
		
			<path d="M5858,911c1.1,10.5-3.2,21.4-4.8,31.7c-1.6,9.8-3.2,22.2,4.3,30.2c7.8,8.3,20.8,6.3,30.6,3.6
				c11.4-3.1,22.1-8.8,33.5-11.7c7.5-1.9,4.3-13.5-3.2-11.6c-9.8,2.5-19,7.1-28.6,10.2c-5.9,1.9-19,7-24,0.8
				c-2.3-2.8-2.1-7.4-1.9-10.8c0.2-5,1.2-9.9,2.2-14.8c1.8-8.9,4.9-18.5,3.9-27.7C5869.2,903.4,5857.2,903.3,5858,911L5858,911z"/>
		
	
	
		
			<path d="M5942,891c-0.2-14.6,5.5-28.2,7.8-42.4c1.2-7.6-10.3-10.8-11.6-3.2c-2.5,15.3-8.4,29.9-8.2,45.6
				C5930.1,898.7,5942.1,898.7,5942,891L5942,891z"/>
		
	
	
		
			<path d="M6006,951c-0.1-15.8-0.8-31.3,1.3-47c0.7-5.5,1.6-11.3,3.6-16.5c0.3-0.9,0.9-1.7,1.2-2.6c0.3-0.9,0.3-0.3,0.3-0.5
				c0,0-0.1,0-0.4,0.1c1.3-0.1-0.4,0.2-0.4-0.2c0,0.2,0.8,0.5,1.7,1.6c-0.6-0.7,0.5,0.9,0.7,1.2c0.5,0.9,1,1.8,1.4,2.7
				c1.5,3.4,2.7,7.7,3.6,11.6c2.4,9.9,3.8,20,4.9,30.1c0.9,7.9,1.5,15.8,2,23.7c0.5,7.7,12.5,7.7,12,0c-1.4-19.9-2.9-40.3-8.1-59.6
				c-2.1-7.8-5.4-19.5-14-22.4c-12.2-4.1-17,10.7-18.8,19.7c-3.9,19.3-3.2,38.7-3.1,58.3C5994,958.7,6006,958.7,6006,951L6006,951z"
				/>
		
	
	
		
			<path d="M6011,940.2c7.9-5.6,17.8-6.4,25.2-12.9c5.8-5.1-2.7-13.6-8.5-8.5c-6.4,5.6-15.8,6.2-22.8,11.1
				C5998.7,934.2,6004.7,944.6,6011,940.2L6011,940.2z"/>
		
	
	
		
			<path d="M6058,947c0-10.6,0-21.2,0-31.9c0-8.5-0.9-16.8-0.9-25.3c0-6,1.7-10.7,7.9-12.3c6.1-1.6,12.8-0.6,19-0.6
				c7.7,0.1,7.7-11.9,0-12c-14.8-0.2-33.9-1.2-38.2,17c-2,8.6,0.1,17.7,0.2,26.4c0,12.9,0,25.8,0,38.6
				C6046,954.7,6058,954.7,6058,947L6058,947z"/>
		
	
	
		
			<path d="M6050.4,912.8c14,5.5,31.2,7.7,44.6-0.6c6.5-4.1,0.5-14.5-6.1-10.4c-10.7,6.7-24.3,3.7-35.4-0.6
				C6046.4,898.4,6043.3,910,6050.4,912.8L6050.4,912.8z"/>
		
	
	
		
			<path d="M6123.8,879.2c4.7,6,6.5,15.7,6.5,23.1c0.1,9.4-1.4,17.2,5.5,24.9c5.2,5.7,13.7-2.8,8.5-8.5c-3-3.4-2.4-7.7-2.1-11.9
				c0.3-4.4,0-8.6-0.7-13c-1.3-8.4-3.9-16.4-9.2-23.1C6127.5,864.7,6119.1,873.2,6123.8,879.2L6123.8,879.2z"/>
		
	
	
		
			<path d="M6105.6,888.8c8.1-2.9,15.8-6.7,23.3-10.9c6.8-3.7,15.1-10,23.1-8.9c7.6,1,7.6-11,0-12c-8.8-1.1-17.1,4.1-24.6,8.1
				c-8.2,4.4-16.2,9-25,12.1C6095.2,879.8,6098.3,891.4,6105.6,888.8L6105.6,888.8z"/>
		
	
	
		
			<path d="M6162.2,860.6c9,22.7-3.5,48.5,10.1,70.2c5.2,8.3,12.5,9.3,20.8,4.7c9-5,20-8.5,27.1-16.2c5.2-5.7-3.2-14.2-8.5-8.5
				c-5.7,6.2-14.5,8.6-21.7,12.6c-1.1,0.6-5.3,3.5-6,3.3c-2.4-0.8-4.5-8.2-5.1-10.3c-5.6-19.3,2.4-39.8-5.1-58.9
				C6171,850.3,6159.4,853.4,6162.2,860.6L6162.2,860.6z"/>
		
	
	
		
			<path d="M6172,897c12.7-0.2,26.9-5.1,36.2-13.8c5.7-5.3-2.8-13.7-8.5-8.5c-7,6.5-18.3,10.1-27.8,10.2
				C6164.3,885.1,6164.3,897.1,6172,897L6172,897z"/>
		
	
	
		
			<path d="M6157.6,868.8c15-2.6,29.7-6.6,44-12c7.2-2.7,4.1-14.3-3.2-11.6c-14.3,5.4-29,9.4-44,12
				C6146.8,858.5,6150,870.1,6157.6,868.8L6157.6,868.8z"/>
		
	
	
		
			<path d="M6218.2,828.6c7.4,18.4,3.3,38.5,3.9,57.7c0.2,7.8,11.3,7.6,12,0c0.6-6-0.9-11.7-4-16.8c-2.5-4.2-6-7.7-8.5-11.9
				c-1.7-3-3.7-7.9-0.4-10.5c2.9-2.3,7.8-2.6,11.3-2.8c8.5-0.4,23.3,0,22.2,12.2c-1.2,13.1-17.3,16.8-27.9,16.3
				c-6.7-0.3-8.2,10.4-1.6,11.8c10.6,2.3,22.8,4.1,29.7,13.4c4.5,6.1,15,0.2,10.4-6.1c-9.1-12.4-22.5-15.9-36.9-19
				c-0.5,3.9-1.1,7.9-1.6,11.8c12.4,0.6,25.8-3,33.8-13.1c8.4-10.6,8.3-25.7-3-34.2c-8.6-6.5-21.8-6.2-32-4.5
				c-10.3,1.7-19.2,8.6-17.9,19.9c0.8,6.4,4,11.6,7.8,16.6c4,5.3,7.3,9.8,6.7,16.7c4,0,8,0,12,0c-0.6-20.3,3.5-41.4-4.3-60.9
				C6227,818.3,6215.3,821.4,6218.2,828.6L6218.2,828.6z"/>
		
	
	
		
			<path d="M6294,863c0.3-11.4,13-16.7,22.8-17.8c12.3-1.5,25,6,25.5,19.5c0.5,13.3-14.8,25.6-25.9,29.8
				c-6.4,2.4-11.6,5.9-13.8,12.8c-2,6.4-0.8,13.2-0.6,19.8c0.2,7.7,12.2,7.7,12,0c-0.1-5.2-2.1-12.6,0.5-17.5c2.5-4.6,10.8-5.2,15-8
				c10.8-7.2,22-18.6,24.3-31.8c2.1-12.5-4.7-25.7-15.4-32.1c-10-6-22.7-5.7-33.5-1.9c-12.4,4.3-22.5,13.5-22.9,27.3
				C6281.8,870.7,6293.8,870.7,6294,863L6294,863z"/>
		
	
	
		
			<path d="M6304.2,979.2c1.3-1.3,2.7-2.7,4-4c2.2-2.2,2.4-6.3,0-8.5c-2.4-2.2-6.1-2.4-8.5,0c-1.3,1.3-2.7,2.7-4,4
				c-2.2,2.2-2.4,6.3,0,8.5C6298.2,981.4,6301.9,981.6,6304.2,979.2L6304.2,979.2z"/>
		
	
	
		
			<path d="M6222,883c0,6.7,0,13.3,0,20c0,7.7,12,7.7,12,0c0-6.7,0-13.3,0-20C6234,875.3,6222,875.3,6222,883L6222,883z"/>
		
	</g>

</svg>
