<?xml version="1.0" encoding="utf-8"?>
<!-- Generator: Adobe Illustrator 19.0.0, SVG Export Plug-In . SVG Version: 6.00 Build 0)  -->
<svg version="1.1" xmlns="http://www.w3.org/2000/svg" xmlns:xlink="http://www.w3.org/1999/xlink" x="0px" y="0px"
	 viewBox="0 0 10800 2332" style="enable-background:new 0 0 10800 2332;" xml:space="preserve">
<style type="text/css">
	.st0{fill:#FFFFFF;}
</style>
<g id="noclick">
	
		<path d="M-154.7,813.7c53.8-8.8,101.1-42.7,144.1-74.8c51-38.1,104-71,157.1-106.1c48.6-32.1,95.5-59.9,154.4-59.2
			c51.2,0.6,98.2,1,147.9,9.3c48,8,98.8-3.4,141.7,28.8c30.4,22.8,42.7,70,56.2,103.3c22.1,54.5,53.2,105,75.7,159.2
			c13.7,32.9,4.3,53.3,45.1,46.2c32.5-5.6,76.1-23.9,107.1-33.9c94.2-30.3,166.3-102.6,254.9-145.1c33.8-16.2,104.1-50.7,144.2-34.2
			c44.5,18.3,61.5,80.8,81.6,119.1c9.6,18.3,18.3,37.3,26.7,56.1c8.2,18.6,13,47.7,22.8,64.3c36,60.7,96.5-95.6,121.3-119.2
			c79.9-76.1,201.1-188.1,324.6-156.3c37.5,9.7,44.5,35.6,47.7,70.2c3,32.9,12,65,20.8,96.9c7,25.4,18.7,121.5,50.7,126
			c24.3-23.4,23.1-61.3,35.7-90.8c11-25.7,26.2-53.6,47.5-72.3c30-26.4,75.1-28.1,113.1-35.5c75.5-14.6,153.9-23.8,230.7-24.5
			c29.4-0.2,76.5-9.2,102.1,7.5c23.8,15.6,39,51.8,47.8,78.1c8.6,26,18.4,56.6,22.7,83.5c4.7,29.6-7.6,66,2.8,93.7
			c37.9-47.1,54.2-115.5,89.1-165.6c46.5-66.7,111.4-68.9,186-81.8c49.4-8.5,115-40,144.7,19.6c26.1,52.4,20.6,119.2,57.6,168.4
			c19.3,25.7,39,27.8,58,2c14.4-42.1,27.3-84.6,38.5-127.6c8.3-21.8,16.6-43.7,25-65.5c19.5-47.8,37.9-140.9,96.3-155.6
			c33.8-8.5,75.1-0.3,108.6,6.1c59.4,11.3,120.1,23.7,178,41.5c45,13.8,115.6,30.4,142.9,71.5c19,28.6,40.5,73.7,47.4,107.7
			c7.9,38.7,3.7,80.8,13.6,118.4c8.9,33.9,19.9,29.3,48,13.7c17.6-13.9,34-29.1,49.2-45.7c24.6-20.5,50.5-39.3,77.6-56.3
			c81.4-53.8,161.5-103.4,259.5-116.6c114.8-15.4,234.2-12.7,349.1,0.2c57.4,6.4,143.8,2.8,191.3,41.5
			c31.6,25.8,50.1,85.3,67.9,121.4c8.5,17.2,26,38.6,31.1,56.1c6.1,21-14.2,40.2-2.8,60c113,0.1,214.5-74.4,316.4-114.3
			c48-18.8,97.2-23.9,148.6-16.1c65.1,9.9,121.8,48.1,182.8,71.3c37,14.1,72.5,29.1,107.7,47.2c27.7,14.2,41.7,35.4,59.4,60.1
			c40.8,56.8,10.7,114.1,24.8,177.3c24.8-18.3,54.6-20.9,82.3-32.3c40-16.5,79.1-32,121.1-43.1c151.4-39.9,312.6-28.4,467.4-40.6
			c206.3-16.2,404.8-94.3,610.3-121.8c199.3-26.7,401.5-25.6,602.2-24.1c108.7,0.8,216.7,20.8,325.1,28.2
			c92.7,6.3,185.5,11.9,277.8,23.7c79.6,10.2,154.8,20.5,225.9,57.3c42.5,22,92.1,22.7,134.8,0.4c35-18.3,64.6-25.3,103.5-33.6
			c26.5-5.7,48.4-21.2,74.4-26.1c49.6-9.4,103.6,8.4,153.1-0.1c54.4-9.3,75.5-103.2,98.5-145.5c26.4-48.7,56.4-107.1,91.1-149.9
			c38-47,71.9-64.1,125.9-84.9c56.6-21.8,109.4-26.9,168.1-38c42.5-8.1,96.5-7.7,136.2,8.4c48.4,19.7,95.3,39.2,145,54.9
			c14.3,4.5,29.8,11.8,44.5,15.1c10.2,2.3,25.8,0.5,36,4.1c23.3,8.1,39.8,30.3,57.9,45.8c26.2,22.5,61.1,32.3,84.3,56.8
			c20.7,21.9,39.4,62.7,53.9,89.4c28.5,52.5,35.4,114,62.9,167.5c11.4,22.1,12.9,40.3,39.1,47c34.7,8.8,83.2,0.5,118.5,0.5
			c76.4,0,152.8,0,229.3,0l-0.2,1c12.3,0.5,19.5-4.3,30.6-8.9c13.7-5.7,27.7-12,40.8-18.7c14.4-7.4,26-17,35.8-29.8
			c10.2-13.1,24.2-30.3,24-48.1c-0.1-15.3-11.5-35.7-20.8-47.7c-11-14.1-25.3-26.4-40.8-35.1c-25.1-14.2-53.8-24.3-81.2-33.3
			c-19.9-6.5-44-10.3-64.9-8.2c-25.4,2.6-63.8,10.7-78.1,34.9c-6.7,11.3-18.6,26.6-16.3,40.6c2.4,14,13.4,30.7,27.9,34.1
			c7.6,1.8,18.1,3,25.9,3.3c7.2,0.3,19.5-2.4,26.3,0.4c-2.9,6.4-17.7,7.8-24,8.6c-12.2,1.7-24.1-2.3-35.4-6.1
			c-26.4-8.9-49.1-22-65.3-45c-8.9-12.6-12-28.3-9.3-43.6c3.9-22,19.5-31.7,35.9-44.4c12.5-9.7,25.4-18.1,38.4-27
			c14.1-9.6,21.8-15.5,39.6-17.9c25.9-3.5,52.2-5.3,78.3-7.6c27.6-2.5,54.7,4.6,81.4,11.3c24.5,6.1,47.4,17.6,68.7,31
			c8.5,5.4,17.8,10.8,25.3,17.5c11.1,9.8,19.2,23.3,27,35.9c8.8,14.1,20.4,29,25.5,45c9.1,28.5,10.6,60.2,11.6,89.9
			c1.1,32.8-0.3,65.7,0.3,98.6c0.1,6.2,1.1,14.2-0.1,20.6c-2.7,14.3-15.4,30.8-26.9,39.4c-10.8,8.1-24.6,11.5-37.2,15.4
			c-17.4,5.4-34.8,10.7-52.3,15.9c-43.5,13.1-90,17.4-135,23.4c-42,5.6-82.2,3.6-124.2-1c-29-3.1-56.9-11.2-83.2-24
			c-15.5-7.5-29-22-38.7-35.9c-12.1-17.5-22.2-34.5-37.3-49.8c-14.9-15.1-32.3-27.4-47.2-42.3c-5.1-5.1-9.8-10.3-14.7-15.7
			c-13.3-14.7-29.8-25.5-42.7-40.5c-33.7-39.2-58.6-85.8-89.8-127c-20.8-27.4-36.7-56.8-61.4-81.3c-10.9-10.8-22-21.2-33.9-30.8
			c-16.9-13.7-33.9-23-53.5-32.1c-19.8-9.2-40.3-17.3-61.4-23c-31.9-8.7-63.1-18-94.6-28c-26-8.2-52.2-13-79.3-15.6
			c-14.9-1.4-30-4-45-4.7c-19.4-1-39.1,2.2-58.5,2.8c-17.6,0.5-34.9,2.7-52.3,5.6c-30.2,4.9-61.2,9.8-90.7,18.1
			c-12.9,3.6-25.8,7.6-38.3,12.1c-19.9,7.1-37.8,17.5-56.6,27c-66.1,33.4-103.6,99-131.3,164.8c-5.1,12.2-9.9,23.8-16.3,35.4
			c-6.6,12-10.4,24.2-15.4,36.9c-11.2,28.2-38.3,48.8-62.1,66.1c-16.1,11.7-31.3,24.7-47.5,35.9c-6.7,4.7-14.9,7.4-21.9,11.7
			c-10.5,6.5-19.6,14.8-30.1,21.2l15-6c-35.4,9-71.7,15.4-106.4,26.9c-37.4,12.4-76.1,28.5-115.4,33.5
			c-69.3,8.9-138.9-3.2-207.2-13.8c-88.9-13.9-175.5-37.6-264.1-53.1c-43-7.5-86.4-7.6-129.4-14.8c-26.5-4.5-53.9-10.7-79.9-17.9
			c-10.4-2.9-21.7-7.9-32.5-8.7c-34.1-2.6-68.3,3.3-102.3,3.1c-34.1-0.2-69.4-2.8-103.2,2.7c-33.8,5.5-67,13.7-100.8,19
			c-67.1,10.4-134.6,20.8-201.9,29.2c-90.2,11.3-182.9,12-273.8,12.2c-52.9,0.1-105.8,0.2-158.5,5.6c-86.9,8.8-172.6,29.7-259,41.9
			c-61.5,8.7-122.2,17.5-182.9,30.5c-33.1,7.1-69.8,19.1-104,17.9l21,3c-23.1-2-46.1-4.9-69.4-6c-62.2-2.7-121.6-24.3-183.5-30.5
			c-33.7-3.4-67.6-5.4-101.5-5.8c-33.5-0.4-67.2-1.3-100.1,6.2c-33.1,7.5-66.2,10.7-99.8,14.4c-31.5,3.4-67.1,2.6-97.2,12.7
			c-8.1,2.7-17,5.1-24.4,9.5c-9.2,5.5-16.5,13.6-26,18.9c-11.4,6.5-25.3,15.2-38.4,17.7c-12.2,2.4-19.9-5.1-28.1-13.4
			c-13.7-13.8-26.7-29.7-35.5-47.2c-19.9-39.9-13.3-89.3-39.8-126.7c-29.6-41.8-79.2-64.1-124.8-83.6c-60.1-25.7-120.6-49-182-71
			c-23.5-8.4-52.4-19.2-77.9-19.6c-75.9-1-137.1,48.9-211,57.7c-15.8,1.9-35.6,0.1-50.5,7c-5.9,2.7-8.3,7.1-13.4,10.6
			c-8.9,6-23.8,7.9-33.2,12.5c-13.3,6.4-24.7,18.5-38.8,22.6c-2.9-3.8-4-8.2-3.3-13.1c-1.9-9.4-5.8-18-11.6-25.8
			c-17.1-26.9-38.4-51.5-60.4-74.4c-17.7-18.4-37-34.2-56.2-50.9c-9.9-8.6-19.5-18.1-30.4-25.5c-7.6-5.2-14.7-6.1-24.2-6.9
			c-20.8-1.7-42.4-2-63.1-0.2c-13.2,1.2-26.5,3.4-38.7,8.6c-6.3,2.7-16,4.6-21.1,8.9l12,3c-12-4.9-24.7-2.7-37.5-3.2
			c-22.9-0.9-45.7-4.3-68.5-5.9c-27.8-2-55-2.6-82.8-3c-25.6-0.4-50.1,3.3-75.1,8.9c-25,5.6-50.6,10.8-75.1,18.2
			c-21.2,6.4-41.5,15.2-62.8,21.6c-18.3,5.4-36.4,11.5-54.5,17.6c-23.9,8-47.9,9.6-72.7,13.7c-17.1,2.9-33.6,8-50.4,11.9
			c-9.7,2.3-20.5,3-29.7,7.1c-10.1,4.5-19.6,9.9-30,14c-37.3,14.7-74.4,21.9-114.1,26.1c-9.8,1.1-23.2,5-32.9,2.1
			c-13.1-3.9-18.7-22-24.4-33.2c-14.8-29.1-27.1-59.7-43.5-87.9c-14.4-24.7-32.6-47.2-52.4-67.8c-21-21.9-45-40.5-72.4-53.8
			c-27.7-13.4-55.9-26.1-83.7-39.2c-24.2-11.4-49.5-23.2-74.6-32.5c-8.5-3.1-15.4-5.6-23.6-1.1c-3.2,1.8-7.3,7.6-9.7,9.4
			c-4.3,3.3-9.8,5.5-14.9,7.4c-14.4,5.4-27.8,13.1-39.4,23.3c-15.7,13.8-29.5,30.6-38.7,49.3c-5.6,11.4-8.3,23.1-14.9,34.1
			c-6.2,10.4-11.2,21.3-17.8,31.4c-25.3,38.5-59.2,70-92.6,101.3c-9.5,8.9-19.3,18.4-27.3,28.7c-6.2,7.9-6.5,13.5-18.6,13.4
			c-28.6-0.1-59.3-13.4-86.1-22.1c-19.4-6.4-39.1-13.1-56.6-23.7c-17.7-10.7-35.9-21.9-51.4-35.7c-13-11.5-24.3-23.2-39.3-32.2
			c-14.3-8.6-30.6-21.1-48.5-19.2l6-3c-26.6-0.2-54.4-0.2-79.3,10.7c-18.3,8-23.8,22-33.8,37.9c-11.7,18.7-27.2,36.4-43,51.9
			c-13.4,13.1-29,27-37.5,44c-5.3,10.6-8.1,26.4-22.7,26.9c-8.7,0.3-19.3-2.5-26.9-6.4c-16.5-8.5-21.6-28.8-26.8-45.1
			c-7.3-22.7-16.5-44.4-25.1-66.6c-4.1-10.4-7.3-22.2-13.9-31.4c-23.7-33-58.5-47.5-97.6-51.5c-33.3-3.4-65.8-0.4-99,4.1
			c-16.8,2.3-31.4,8.4-46.9,14.8c-25.3,10.4-52.5,15.9-78.3,25c-19.8,6.9-39.4,14.2-59.5,20.4c-15.3,4.8-29,12.6-43.4,19.3
			c-10.4,4.8-19.5,10.6-28.5,17.7c-8,6.3-13.2,14.3-20.7,21c-18,16.1-42.4,21.8-63.2,32.8c-4.3,2.3-9.5,6.3-14.7,5.8
			c-5.1-0.5-14.8-10.8-17.3-13c-17.5-15.8-35.9-30.4-54.8-44.4c-37.1-27.3-76.5-51.6-112.2-80.8c-14.9-12.2-28.9-25.4-43.5-38
			c-11.3-9.8-18.7-26.9-36.2-21.6c-24.5,7.3-48,22.3-66.4,39.6c-5.5,5.1-7.6,11.5-12.3,17c-7.7,9-19.7,16.2-29.7,22.2
			c-32.5,19.5-66.5,35.8-102.5,47.9c-9.6,3.2-18.8,5.9-27.3,11.6c-7.5,5-11.6,11.4-17.2,18.2l9-9c-25.3,15.4-47.5,36-74.7,48.4
			c-14-12-21-32.9-30.6-48.7c-15.6-25.5-32.2-49.4-46.4-75.8c-5.2-9.7-10.9-20.1-17.5-28.8c-4.7-6.2-7-5.8-14.8-6.5
			c-23.2-2-44.1-3.4-67.5,0.7c-27.3,4.8-54.6,10.4-81.9,15.5c-22.2,4.2-47.2,6.8-68,15.4c-15,6.2-27.6,15.5-39.6,26.3
			c-12.5,11.3-23.6,23.9-35.6,35.7c-14.3,14-28.5,22.8-47.6,29.4c-29.1,10.1-63.4,14.5-93.9,14.7c-27,0.2-60.9-1.9-87-10.9
			c-15.2-5.2-26.6-12.3-33-27.2c-7.5-17.4-3.1-42.1-2.2-60.7c1.2-23.7,4.9-47.7,1.8-71.3c-3-23.4-16.9-44.8-32.4-61.9
			C624.1,670.5,578,649.7,537,629c-25.4-12.8-51-25.1-77.8-34.5c-23.4-8.2-48.6-17.5-73.6-19.6c-16-1.4-30.6,0.6-46.2,4.6
			c-18.3,4.7-40.6,8.4-56.1,19.4c-13.4,9.6-22.6,23.4-32.2,36.5c-10.1,13.8-20.1,27.8-30.2,41.6c-14.1,19.4-26.8,36.1-45.9,51.1
			c-17.5,13.6-36.7,24.3-53.4,38.9c-11.9,10.3-21.6,20.3-36.3,26.3c-16.6,6.8-35.9,9.8-53.6,12.6c-33.9,5.4-68.2,3.8-102.3,6.3
			c-14.6,1.1-29.3,3.1-43.5,6.6c-5.5,1.4-10.9,3.8-16.5,4.8L-154.7,813.7z"/>
	
</g>
<g id="viens">
	
		<path class="st0" d="M10044,531c9.7,11.3,17.6,24,23.8,37.5c15.3,33.2,28.4,67.8,43.4,101.2c10.6,23.7,22.6,46.8,34.1,70
			c3.2,6.5,13.6,31.5,24.2,29.3c5.9-7.9,7.1-16.8,3.4-26.7c-3.4-20.9-6.7-41.8-9.8-62.7c-6.5-40.6-13.2-81.1-18.2-121.9
			c-1.7-13.7-9.8-37.5-1.4-50.5c6.2-9.5,19-9.4,29.1-11.2c45.4-8,89.1-22.5,127.3-49c39.6-27.5,54.6-64.7,54.5-112.2
			c0-39.3-12.1-74.6-42.7-100.1c-22.4-18.7-47-27.1-75.5-32c-44.7-7.6-90.4-11.2-135.4-15.7c-88-8.8-176.5-20.9-264.9-25.5
			c-38.1-2-74.3,0.8-111.4,10.2c-27.1,6.9-48.2,18.3-72.5,31.4c-19.8,10.6-39.8,20.5-59.1,31.9c-14.8,8.7-27.2,20.1-41.7,29.1
			c-24.3,15.1-54.5,31.8-70.5,56c-12.3,18.7-30.5,43.5-21.1,66.7c9.9,24.3,34.5,46.4,57.2,59c31.6,17.5,68.7,27.7,102.1,41.4
			c30.7,12.6,60.7,30,92.5,39.4c24.9,7.4,50.7,10.1,76.4,13.4c23.1,3,44.6,7.6,68.1,7.6c44.7,0.1,87.8-12.9,132.5-12.6
			c18.4,0.1,33.8-1.9,51.7-4"/>
	
</g>
<g id="noclick">
	
		
			<path class="st0" d="M2868.2,791.2c6.6-8.1,17.6-7.3,26.8-4.9c11.2,2.8,23,3.4,33.9,7.1c7.2,2.5,13.3,10.3,14.2,17.9
				c0.2,1.7-0.4,2.7-0.6,4.2c-0.3,2.1-2.4-0.3,0.7,1.4c-1-0.5-1.8-1.4-2.7-2.1c-3.9-2.6-8.2-5.5-12.6-7.4
				c-8.9-3.9-21.6-4.6-30.9-1.6c-9.6,3.1-14.7,10.1-18.5,18.9c-3.4,7.8-6.9,15.9-0.5,23.3c3.1,3.6,7.4,5.5,11.7,7.2
				c5.4,2.2,10.5,4.3,16.4,4.9c25.2,2.7,44-19.7,54.2-39.9c-3.7-0.5-7.3-1-11-1.4c1.9,5.5,0.6,11.4,0.5,17.1
				c-0.1,5.4,0.5,11.1,1.8,16.4c2.6,10.2,8.6,18.2,17.2,24c6.4,4.3,12.4-6.1,6.1-10.4c-7.4-5-11.2-12.1-12.5-20.8
				c-1.5-9.8,1.8-20.1-1.5-29.6c-1.6-4.5-8.5-6.4-11-1.4c-8.5,16.9-24.8,38.9-46.6,33.4c-4.5-1.1-9.5-3.1-13.6-5.3
				c-4-2.2-3.9-3.4-2.6-7.1c2.7-7.5,5.9-15.8,14.4-18c9.2-2.4,19.1-0.4,26.9,4.6c3.3,2.1,7.7,6.1,11.6,7c5.2,1.2,10.4-2.9,12.9-7.2
				c4.6-7.9,1.3-18-3.2-25.1c-5.2-8.3-11.9-12.9-21.3-15.5c-6.7-1.8-13.6-2.6-20.3-3.8c-5.5-1-10.7-2.7-16.2-3.5
				c-11.6-1.8-24.4-0.4-32.2,9.3C2854.9,788.7,2863.4,797.2,2868.2,791.2L2868.2,791.2z"/>
		
	
	
		
			<path class="st0" d="M3500.2,703.2c4-5.1,13-2.6,18.6-2.3c9.5,0.4,18.6,2.1,27.8,4.9c10,3,19.7,6.5,29.8,9.1
				c10.3,2.6,20.7,4.7,31.1,6.6c18.3,3.3,37.7,5,55.3,11.4c18.1,6.6,29.4,23.2,43,35.9c3.5,3.2,7,6.6,9.5,10.6
				c2.8,4.6,3.9,10.1,4.9,15.3c2.1,11.9,1.9,24.2,1.9,36.2c0,7.7,12,7.7,12,0c0-21,1.6-46.6-12.9-63.6c-6.3-7.4-14-13.6-20.6-20.7
				c-7-7.5-14.2-15.2-23.2-20.2c-17.8-10-39.4-11.6-59.2-15.1c-11.7-2.1-23.3-4.2-34.9-7c-11.1-2.7-21.8-6.4-32.7-9.8
				c-11-3.4-21.9-5-33.4-5.6c-8.8-0.5-19.3-1.9-25.5,5.9C3487,700.7,3495.4,709.3,3500.2,703.2L3500.2,703.2z"/>
		
	
	
		
			<path class="st0" d="M3650,731c-0.2,18.7,5.7,36.3,12.2,53.6c2.7,7.2,14.3,4.1,11.6-3.2c-6.1-16.3-11.9-32.8-11.8-50.4
				C3662.1,723.3,3650.1,723.3,3650,731L3650,731z"/>
		
	
	
		
			<path class="st0" d="M4155,848.2c30.1-13.6,63.7-12.1,95.7-16.6c17.6-2.5,36.7-8.9,51-19.5c7.7-5.7,14.4-14,11.8-24.2
				c-1.1-4.2-7-6-10-2.6c-6.4,7.1-11.5,15.6-15.4,24.3c-4.3,9.5-8.2,20.4-6.6,31c1.7,11,10.6,18.2,21.5,19.3
				c11.1,1.1,21.9-4.1,33-2.8c7.7,0.9,7.6-11.2,0-12c-9.3-1-18.3,2.4-27.5,2.9c-7.6,0.4-14.8-2.2-15.4-10.7
				c-0.6-8.2,2.9-16.7,6.4-23.9c3.3-6.9,7.3-13.9,12.4-19.6c-3.3-0.9-6.7-1.8-10-2.6c1.3,5.2-5.3,10.2-10,13.2
				c-7.5,4.8-15.8,8.2-24.2,10.9c-22.3,7.4-46.1,6.8-69.2,9.6c-17.2,2.1-33.8,5.8-49.6,13C4141.9,841,4148,851.3,4155,848.2
				L4155,848.2z"/>
		
	
	
		
			<path class="st0" d="M4276,817c11,0,21.9,1.2,32.9,2.6c11.5,1.5,22.8,1.8,34.4,1.6c10.7-0.2,21.6,0.4,32.3-1.3
				c11-1.7,21.5-5.5,32.5-6.9c7.6-0.9,7.7-13,0-12c-10.7,1.3-20.8,4.4-31.3,6.5c-11,2.2-22.3,1.5-33.5,1.7
				c-11.2,0.2-22.3,0-33.4-1.5c-11.2-1.5-22.4-2.8-33.8-2.7C4268.3,805,4268.3,817,4276,817L4276,817z"/>
		
	
	
		
			<path class="st0" d="M5542.8,1038c5.3,10.5,13.1,20.7,15.1,32.6c1.9,11.4-0.3,22.3,8.8,31.4c6.9,6.9,15.1,4.9,20.8-2.2
				c2.7-3.4,4.9-7.3,7.4-10.8c2.9-4,5.7-7.9,7.7-12.4c4-9.1,4.5-20.6,3.3-30.4c-1.3-10.1-8.1-19.2-17.9-22.5
				c-8.2-2.8-17.1-0.9-25.4,0.5c-9.5,1.6-18.6,1.7-26.5,8c-16.1,12.8-20.8,40.7-4.4,55.1c5.8,5.1,14.3-3.4,8.5-8.5
				c-10.2-9-8.1-25.7,0.8-35c5.3-5.5,11.7-6.2,18.9-7.2c6.6-0.9,13.4-2.9,20.1-2.4c7,0.5,12.7,5.7,13.9,12.7
				c1.2,6.8,0.8,16-1.4,22.6c-2.3,6.8-7.5,12.4-11.3,18.3c-1,1.6-3.2,6.3-5.3,6.7c0.1,0,0.5,0.1-0.4-0.7c-1.8-1.7-3.2-3.9-4-6.3
				c-1.5-4.4-1-9.2-1.3-13.7c-0.3-5-1.3-9.8-3.1-14.5c-3.6-9.6-9.3-18.2-14-27.3C5549.7,1025.1,5539.3,1031.2,5542.8,1038
				L5542.8,1038z"/>
		
	
	
		
			<path class="st0" d="M6867.8,1070.8c-5.6,5.4-7.6,12-10.4,19.1c-2.9,7.5-8.8,13.2-12.5,20.2c-3.1,5.9,4.5,12.3,9.4,7.3
				c3.8-3.9,8.2-7.2,11.9-11.2c3.9-4.3,5.8-9,7.7-14.5c3.1-9.3,12.9-14,21.1-18.2c9.1-4.6,18.8-8.8,29.2-8.6
				c11.8,0.2,22.7,5.6,32.7,11.3c6.7,3.8,12.8-6.5,6.1-10.4c-11.1-6.3-22.8-11.7-35.6-12.8c-12.3-1-23.7,3.1-34.6,8.3
				c-9.2,4.3-19.6,9.6-25.9,17.9c-3.9,5.1-4.1,11.8-7.7,16.9c-3.6,4.9-9.1,8.5-13.3,12.8c3.1,2.4,6.3,4.8,9.4,7.3
				c3.4-6.6,8.8-12,11.9-18.8c2.8-6.2,4-13.1,9.1-18.1C6881.8,1073.8,6873.3,1065.4,6867.8,1070.8L6867.8,1070.8z"/>
		
	
	
		
			<path class="st0" d="M6875.8,1054.8c-3.3,3.6-4.9,7.6-5.4,12.4c-0.5,3.8,0.2,8.5-2.6,11.6c-5.2,5.7,3.3,14.2,8.5,8.5
				c3.3-3.6,4.9-7.6,5.4-12.4c0.5-3.8-0.2-8.5,2.6-11.6C6889.4,1057.5,6880.9,1049,6875.8,1054.8L6875.8,1054.8z"/>
		
	
	
		
			<path d="M9644,261c-8-0.9-14.5,1.8-21.4,5.6c-4.7,2.6-8.9,3.9-14.1,5.1c-9.3,2.2-22.5,5.9-21.5,17.8
				c0.9,10.6,11.4,13.8,20.4,14.9c5.9,0.8,19.7,0,22.5,5.4c-0.2-1.5-0.4-3.1-0.6-4.6c-1.6,4.4-9.1,6.8-12.6,9.5
				c-6.2,4.7-11.4,10.5-16.8,16c-5.4,5.5,3.1,14,8.5,8.5c5.4-5.6,10.7-11.9,17.3-16.2c4.9-3.2,10.6-5.6,13.6-10.9
				c5.8-10-5.9-16.1-14.1-17.6c-7.5-1.4-16.6-0.5-23.7-3.5c-1.6-0.7-3.1-1.9-2.5-2.9c1.6-2.8,8-3.7,10.7-4.3
				c5.1-1.2,10-2.2,14.7-4.5c6.8-3.4,11.8-7.2,19.8-6.3C9651.7,273.8,9651.6,261.8,9644,261L9644,261z"/>
		
	
	
		
			<path d="M9658.2,272.6c3.2,8.6,3.5,18.1,7.3,26.6c4.3,9.7,13.2,14.1,23.2,9.7c9.9-4.3,14.2-16,17-25.7c3-10.1,5.4-21.6,4.3-32.2
				c-0.8-7.6-12.8-7.7-12,0c0.9,8.3-0.8,16.9-2.8,24.9c-1.6,6.6-4.1,17.3-10,21.3c-5.9,4-8.3-0.5-10.1-6.1
				c-2.3-7.1-2.8-14.7-5.4-21.7C9667.1,262.2,9655.5,265.3,9658.2,272.6L9658.2,272.6z"/>
		
	
	
		
			<path d="M9734,231c0,18.7,0,37.3,0,56c0,7.7,12,7.7,12,0c0-18.7,0-37.3,0-56C9746,223.3,9734,223.3,9734,231L9734,231z"/>
		
	
	
		
			<path d="M9740,217c7.7,0,7.7-12,0-12C9732.3,205,9732.3,217,9740,217L9740,217z"/>
		
	
	
		
			<path d="M9770,215c0.9,8.2,4,15.1,7.7,22.4c2.8,5.3,4.9,10.4,5.5,16.4c0.9,8.9,0.2,24.8,9.8,29.5c12,5.9,20.3-10.8,23.9-19.3
				c2-4.7,3.4-9.6,5-14.5c2.8-8.3,6.5-16.3,7.9-25c1.2-7.6-10.4-10.8-11.6-3.2c-1.1,7.3-4,14.2-6.5,21.1c-1.6,4.4-2.8,9-4.5,13.4
				c-1.6,4.3-3.4,8.5-5.9,12.3c-0.8,1.3-1.8,2.4-2.9,3.5c-2,2.2,0-0.8,0.3,1.4c-0.2-1.3-1.4-3.1-1.7-4.5c-0.5-2.1-0.8-4.2-1.1-6.3
				c-0.6-4.6-0.8-9.2-1.4-13.7c-1.7-12.1-11.3-21.4-12.6-33.5C9781.2,207.4,9769.2,207.3,9770,215L9770,215z"/>
		
	
	
		
			<path d="M9840,249c11.1-1.1,23.8-3,33.5-8.8c10.9-6.5,10.3-19.2,1.1-27c-8-6.7-21.6-10.5-28.4-0.2c-5.4,8.2-7.6,21.2-6.8,30.9
				c1.4,16.7,15.8,29,29.6,36.3c6.8,3.6,12.9-6.7,6.1-10.4c-10.2-5.4-23-14.5-23.7-27.3c-0.2-4.3,0.5-8.7,1.4-12.9
				c0.6-2.6,2-10.1,4.3-11c4.2-1.7,16.7,6.1,11.5,10.5c-3.6,3.1-9.7,4.2-14.1,5.3c-4.7,1.1-9.5,2-14.4,2.5
				C9832.4,237.8,9832.3,249.8,9840,249L9840,249z"/>
		
	
	
		
			<path d="M9915,232.2c5.7-3.7,13.9-4.3,20.5-4.6c5.8-0.3,15.9-0.9,20.7,2.8c-0.5-1.9-1-3.9-1.5-5.8c-1.3,7.2-9.5,12.3-15.5,16.2
				c-8.5,5.4-17.7,10-26,15.8c-6.4,4.5-14,10.5-14.5,19c-0.6,10.1,8.3,15.2,17.1,16.8c10.8,1.9,21.5,0.7,32.3,0.6
				c7.7-0.1,7.7-12.1,0-12c-8.2,0.1-16.3,0.9-24.4,0.3c-3.7-0.3-8.2-0.6-11.5-2.6c-1.9-1.2-2-1.9-1.2-3.6c0.6-1.4,2.9-3.9,5-5.7
				c3.1-2.6,6.5-4.7,9.9-6.8c7.9-4.8,16.1-9.1,23.6-14.4c7.1-5,15.2-11.4,16.8-20.5c0.3-2,0.2-4.5-1.5-5.8
				c-7.7-6.1-18.5-6.7-27.9-6.4c-9,0.3-20,1.2-27.8,6.2C9902.5,226,9908.5,236.4,9915,232.2L9915,232.2z"/>
		
	
	
		
			<path d="M9916,261c12.1-0.1,24,2.5,36,4c7.6,1,7.6-11,0-12c-12-1.5-23.8-4.1-36-4C9908.3,249.1,9908.3,261.1,9916,261L9916,261z"
				/>
		
	
	
		
			<path d="M10022,251c0.1,4.8,0.7,9.7,0.9,14.5c0.2,4.3,0.8,9.6-1.1,13.6c3.1-0.4,6.3-0.8,9.4-1.2c-1.6-1.8-1-5.8-0.7-7.9
				c0.6-4.2,2-8.4,4-12.2c1.6-3,3.1-5.3,6-7c0.4-0.3,1-0.3,1.4-0.5c-0.5,0.2-1.2-0.4-0.3,0.1c-0.5-0.3-0.1,0.2,0,0.3
				c6.3,10,3.5,26,15.4,32.9c2.6,1.5,5.1,0.7,7.3-0.9c5.9-4.6,5.3-15.1,5.4-21.7c0.1-4.3,0-8.7,0.6-13c0.2-1.5,0.6-3.1,1.1-4.6
				c0.1-0.3,0.3-0.3,0.6-1.1c-0.3,0.9,1-0.9,0.1-0.2c-0.4,0.3,0.2-0.1,1.4,0.2c1.8,0.5,2.7,1.1,3.9,2.6c3,3.7,4.7,8.7,6.1,13.2
				c3.2,9.9,5,20.2,6.6,30.4c1.2,7.6,12.8,4.4,11.6-3.2c-1.4-8.9-3-17.7-5.4-26.4c-2.4-8.5-5.5-18.9-12.6-24.7
				c-5.9-4.8-15.3-5.9-20.6,0.1c-4.9,5.5-5,14.3-5.2,21.3c-0.1,4.2-0.1,8.3-0.4,12.5c-0.1,1.7-0.2,2.6-0.7,4.4c-0.4,1.6,0,1-1,1.7
				c2.4-0.3,4.8-0.6,7.3-0.9c-1.8-1-3.2-4.1-4.1-6.9c-1.3-4-2.1-8.1-3.2-12.1c-1.9-7-5.4-15.7-14-15.9c-10.1-0.1-16.5,9.7-19.9,18
				c-3.7,9-6.7,22,0.7,30c2.4,2.7,7.8,2.2,9.4-1.2c5.1-10.8,2-22.8,1.8-34.2C10033.9,243.3,10021.9,243.3,10022,251L10022,251z"/>
		
	
	
		
			<path d="M10132,249c-9.3-0.7-15.9,5.6-17,14.6c-1,8.7,2.2,18.1,6.8,25.4c4.5,7.2,11.9,14.5,21.1,14.1
				c11.6-0.5,17.6-15.7,19.8-25.1c1.6-6.5,1.4-13.4-2.4-19.1c-4.1-6.1-11-9.7-17.3-13.1c-6.8-3.7-12.8,6.6-6.1,10.4
				c4.4,2.4,9.9,4.7,13,8.8c2.9,3.9,1.7,8.7,0.3,12.9c-1.2,3.9-3.2,10.1-6.8,12.5c-2.2,1.5-4,0.3-6.1-1.3c-5.6-4.3-9-12-10.3-18.7
				c-0.5-2.7-0.6-5.9,0.2-7.8c0.4-0.8,0.5-1,1.1-1.3c0.5-0.2,2-0.4,3.5-0.3C10139.7,261.5,10139.7,249.5,10132,249L10132,249z"/>
		
	
	
		
			<path d="M10178,263c0,13.3,0,26.7,0,40c0,7.7,12,7.7,12,0c0-13.3,0-26.7,0-40C10190,255.3,10178,255.3,10178,263L10178,263z"/>
		
	
	
		
			<path d="M10178.4,236.8c1.5,0.5-0.4-0.3,1,0.5c0,0,1.4,1,0.9,0.6c0.9,0.8,1.8,1.7,2.5,2.6c1,1.2,2.7,3.8,4,5.6
				c1.9,2.6,5.2,3.9,8.2,2.2c2.6-1.5,4-5.6,2.2-8.2c-4.3-6.1-8.2-12.3-15.6-14.8c-3.1-1-6.6,1.2-7.4,4.2
				C10173.3,232.7,10175.3,235.7,10178.4,236.8L10178.4,236.8z"/>
		
	
	
		
			<path d="M9574,399c1.5,13.6,3.5,30.2,13.8,40.2c5.5,5.4,14-3.1,8.5-8.5c-7.7-7.6-9.1-21.5-10.2-31.8
				C9585.2,391.4,9573.1,391.3,9574,399L9574,399z"/>
		
	
	
		
			<path d="M9563,408.2c9.2-6.9,19.4-12.4,30.4-15.7c3.7-1.1,8.1-2.7,12-1.9c3.4,0.7,5.9,3.3,8.1,5.8c2.7,3,7.5,7.9,7.3,12.3
				c-0.3,4.3-4.9,6.7-8,8.8c-3.8,2.6-7.5,5.2-10.5,8.7c-3.5,4.2-6.4,8.8-10.5,12.5c-5.8,5.2,2.7,13.6,8.5,8.5
				c5.2-4.6,8.3-11.1,13.5-15.7c4-3.5,8.8-5.7,12.7-9.3c4.6-4.2,7.1-10.3,6.1-16.5c-1-6.5-5.5-11.8-9.6-16.7
				c-7.3-8.7-16.1-12.1-27.3-9.6c-13.9,3.1-27.4,9.9-38.7,18.4C9550.9,402.4,9556.9,412.8,9563,408.2L9563,408.2z"/>
		
	
	
		
			<path d="M9654,447c0.1-7.3,0-14.8,1.6-22c1.3-5.6,3.7-10.6,6.4-15.7c2.6-4.8,5.3-9.4,8.2-14c2.3-3.5,4.9-8,8.6-10.1
				c-1.5,0.2-3.1,0.4-4.6,0.6c3,0.9,5.4,4.3,7.3,6.6c2.7,3.3,5.1,7,7.5,10.5c2.1,3.2,4.7,6.2,6.5,9.6c2.4,4.5,2.6,9.4,2.6,14.4
				c-0.1,7.7,11.9,7.7,12,0c0.1-7.4-0.9-14.6-4.6-21.1c-2.8-4.9-6.5-9.6-9.7-14.2c-3.7-5.3-7.6-10.8-12.8-14.6
				c-5-3.6-9.3-3.5-13.8,0.6c-8.1,7.3-13.5,18.2-18.5,27.7c-7.1,13.4-8.3,26.7-8.5,41.6C9641.9,454.7,9653.9,454.7,9654,447
				L9654,447z"/>
		
	
	
		
			<path d="M9664.2,431.2c8.6-8,20-13.1,31.8-14.2c7.6-0.8,7.7-12.8,0-12c-15,1.5-29.1,7.4-40.2,17.8
				C9650.1,428,9658.6,436.5,9664.2,431.2L9664.2,431.2z"/>
		
	
	
		
			<path d="M9738,411c0.9-8.7-2-16.8-3.4-25.2c-0.6-3.5-0.8-7.1-0.2-10.6c0.2-1.4,0.8-5.5,2.5-6.1c3.6-1.4,8,5.9,9.5,8.4
				c2.6,4.5,4.8,9.4,8.6,13c8.8,8.5,21,3.1,26.5-6.3c5.5-9.6,6.1-20.9,8.3-31.5c1.6-7.5-10-10.8-11.6-3.2c-2,9.7-1.9,22.2-8.2,30.4
				c-2.4,3.1-5.2,4-7.8,0.8c-3.2-4-5-9.1-8-13.3c-7-9.7-22.2-15.5-29-2.4c-3.3,6.3-3.6,13.9-2.7,20.7c1.1,8.5,4.4,16.7,3.5,25.3
				C9725.2,418.7,9737.2,418.6,9738,411L9738,411z"/>
		
	
	
		
			<path d="M9864,337c-11,0.5-21.4,4-29.7,11.3c-7.6,6.7-14.2,17.7-14.1,28.1c0.2,19.6,24.5,22.4,39.1,24.9
				c-1.2-0.9-2.4-1.8-3.6-2.8c0.3,0.6,0.3,0.1,0.3,0.1c-0.4,0.6-1,1.2-2,1.9c-3,2.2-6.8,3.6-10.3,4.9c-6.7,2.6-14.6,4.4-20,9.3
				c-5.8,5.2,2.7,13.6,8.5,8.5c1.2-1.1,5.5-2.8,8.1-3.7c4.3-1.6,8.6-3.2,12.8-5c7-3.1,15.9-8.2,14.7-17.2c-0.3-2.1-1.1-4.6-2.6-6.1
				c-1.9-1.8-4.6-1.9-7.1-2.3c-4.8-0.8-9.6-1.6-14.2-3c-3.5-1-7.8-2.4-10.2-5.3c-2.6-3.1-1.4-7.3-0.1-10.8
				c5-12.9,16.8-20.2,30.4-20.9C9871.7,348.6,9871.7,336.6,9864,337L9864,337z"/>
		
	
	
		
			<path d="M9942,359c0,8.9-0.6,17.8,0.4,26.7c0.8,7.2,2.4,15.7,7.8,21c10.4,10.2,25.5,0,34-7.4c5.8-5.1-2.7-13.6-8.5-8.5
				c-4.4,3.9-15.1,13.1-19,4.4c-4.8-11-2.8-24.5-2.8-36.2C9954,351.3,9942,351.3,9942,359L9942,359z"/>
		
	
	
		
			<path d="M10004.2,395.2c6.7-5.9,8.2-15,9.2-23.4c0.8-6.7,0.8-16.7,6.8-21.2c6.3-4.7,12.9-2.3,15.3,4.6c2.6,7.5,2.4,15.9,2.4,23.7
				c0,7.7,12,7.7,12,0c0-10,0-20.8-4.1-30.1c-4.5-10.3-14.6-14.7-25.4-11.5c-10.7,3.3-15.8,12.4-17.6,22.9
				c-1.4,8.2-0.4,20.5-7.2,26.4C9989.9,391.8,9998.4,400.3,10004.2,395.2L10004.2,395.2z"/>
		
	
	
		
			<path d="M9999,388.2c10-4.3,19.7-9.6,30.6-11.4c7.6-1.2,4.4-12.8-3.2-11.6c-11.8,1.9-22.5,7.9-33.4,12.6
				C9985.9,380.9,9992,391.2,9999,388.2L9999,388.2z"/>
		
	
	
		
			<path d="M9810,515c-1.4-12.8-6.8-26.5-4.2-39.5c0.5-2.6,2.5-10.8,6-10.1c3.4,0.7,7.3,7.2,9.3,9.7c6.5,8.1,14.8,15.8,25.9,11.9
				c9.9-3.5,16.2-12.9,22.9-20.4c1.8-2.1,4.2-5.4,6.8-6.4c1.9-0.7,0.3-0.8,1.4-0.1c1.5,1.1,2,5.2,2.4,6.9c0.8,3.2,1.3,6.4,1.9,9.6
				c1.3,7.6,12.9,4.4,11.6-3.2c-1.6-9.2-3.6-26.4-16.4-25.8c-12.2,0.5-20.2,16.7-28.3,24.1c-3.4,3.1-7.6,6-12,3.2
				c-4.7-3-7.9-8.8-11.5-12.9c-3.6-4.1-8.3-8.5-14.1-8.8c-6.3-0.3-11,4.4-13.8,9.6c-9.1,16.6-1.6,34.9,0.3,52.2
				C9798.8,522.6,9810.8,522.7,9810,515L9810,515z"/>
		
	
	
		
			<path d="M9930,503c-0.1-8.5-1.3-17-1.5-25.5c-0.1-7.4-0.3-17.1,6.4-21.9c5.1-3.7,9.4,1.4,11.8,5.7c3.3,5.8,5.4,13.5,3.4,20.1
				c-2.2,7.4,9.4,10.6,11.6,3.2c4.6-15.6-6.9-48.1-27.9-41.8c-24.5,7.4-16,41.7-15.8,60.2C9918.1,510.7,9930.1,510.7,9930,503
				L9930,503z"/>
		
	
	
		
			<path d="M9916.2,495.2c11.1-13.4,32.2-4.2,44-16c5.5-5.5-3-14-8.5-8.5c-2.5,2.5-6.9,2.8-10.3,3.2c-4.1,0.5-8.2,1-12.3,1.9
				c-8.4,1.8-15.8,4.1-21.4,11C9902.9,492.7,9911.3,501.2,9916.2,495.2L9916.2,495.2z"/>
		
	
	
		
			<path d="M9986.8,434c9.6,13.8,11.9,30.5,15.4,46.6c1.7,7.5,13.2,4.3,11.6-3.2c-3.8-17-6.4-34.8-16.6-49.4
				C9992.8,421.7,9982.4,427.7,9986.8,434L9986.8,434z"/>
		
	
	
		
			<path d="M9967,460.2c19.2-10.8,40.6-18.1,57.2-32.9c5.8-5.1-2.7-13.6-8.5-8.5c-15.8,14-36.6,20.8-54.8,31.1
				C9954.2,453.6,9960.3,464,9967,460.2L9967,460.2z"/>
		
	
	
		
			<path d="M10050,407c0,21.3,0,42.7,0,64c0,7.7,12,7.7,12,0c0-21.3,0-42.7,0-64C10062,399.3,10050,399.3,10050,407L10050,407z"/>
		
	
	
		
			<path d="M10062,423c0.4-3.4,13.6-2.8,15.9-3c2.2-0.2,6.8-2,8.9-1.2c-1.1-0.4,0,0.8,0.2,1.1c1,2.1,2.1,4.2,2.5,6.5
				c0.2,1,0.3,2.1,0.2,2.8c0,0.1,0.2,0.1-0.3,0.3c-1.4,0.5-4.2,0.8-6.4,0.7c-6.1-0.1-12.2-1.5-18.3-1.5c-6.9,0-8,9.8-1.6,11.8
				c11.4,3.5,20.3,7.5,27.6,17.4c4.5,6.2,15,0.2,10.4-6.1c-4.3-5.9-9-11.2-15.3-15.1c-6-3.7-12.8-5.8-19.5-7.8
				c-0.5,3.9-1.1,7.9-1.6,11.8c8.7,0,17.7,2.9,26.4,0.8c11.4-2.8,12.1-13.8,8.3-23.1c-2-4.9-4.7-10.1-10.4-11.3
				c-4.5-1-9.4,0.8-13.9,1.1c-10.7,0.6-23.8,1.6-25.2,14.8C10049.2,430.7,10061.2,430.6,10062,423L10062,423z"/>
		
	
	
		
			<path d="M10123.8,391.2c4.8,5.4,4.4,15.6,5.6,22.3c1.6,8.9,4.8,16.7,9.4,24.5c3.9,6.6,14.3,0.6,10.4-6.1
				c-4.8-8.1-7.4-15.9-8.8-25.2c-1.3-8.4-2.2-17.3-8.1-24C10127.1,377,10118.6,385.5,10123.8,391.2L10123.8,391.2z"/>
		
	
	
		
			<path d="M10118,359c0-1.3,0-2.7,0-4c0-3.1-2.8-6.1-6-6c-3.3,0.1-6,2.6-6,6c0,1.3,0,2.7,0,4c0,3.1,2.8,6.1,6,6
				C10115.3,364.9,10118,362.4,10118,359L10118,359z"/>
		
	
	
		
			<path d="M10179.8,366.8c-7.7,7.5-15.3,16.2-18.7,26.6c-3.8,11.5,1.3,22.1,12.2,27.2c9.1,4.2,18.4,3.1,22.9-6.6
				c3.1-6.8,2.6-17.3,8.2-22.6c5.6-5.3-2.9-13.8-8.5-8.5c-5.2,5-6.8,12.3-8.5,19.1c-0.7,2.7-1.2,5.6-2.6,8c-0.4,0.7-0.8,1.1-0.8,1.2
				c-0.8,0.3-1.6,0.1-2.8-0.2c-20.8-5.4-0.9-27.8,7.1-35.5C10193.8,369.9,10185.3,361.4,10179.8,366.8L10179.8,366.8z"/>
		
	
	
		
			<path d="M10246,415c0-15.2,0-30.5-4.1-45.3c-0.8-3-2-5.9-2.9-8.9c-0.7-2.1-1.7-4.1,1.1-4.7c2.4-0.5,5.3,0.6,7.8,0.2
				c3.5-0.6,6.1-2.4,8.4-5.1c5-5.8-3.4-14.4-8.5-8.5c-2.5,2.9-5.1,1.2-8.5,1.4c-3.4,0.2-6.6,1.5-9.1,3.9c-5.1,4.9-4.3,11.5-2.2,17.7
				c5.7,16.1,6,32.4,6,49.3C10234,422.7,10246,422.7,10246,415L10246,415z"/>
		
	
	
		
			<path d="M10236,389c11.2,0.3,23.2,2.7,32.2-5.8c5.6-5.3-2.9-13.8-8.5-8.5c-5.7,5.4-16.7,2.4-23.8,2.2
				C10228.3,376.8,10228.3,388.8,10236,389L10236,389z"/>
		
	
	
		
			<path d="M10236,433c18.4,0.1,41.8,4.8,56.2-9.8c5.4-5.5-3-14-8.5-8.5c-5.8,5.9-14.6,6.7-22.5,6.9c-8.4,0.2-16.9-0.6-25.3-0.7
				C10228.3,421,10228.3,433,10236,433L10236,433z"/>
		</g>
	

</svg>
