<?xml version="1.0" encoding="utf-8"?>
<!-- Generator: Adobe Illustrator 19.0.0, SVG Export Plug-In . SVG Version: 6.00 Build 0)  -->
<svg version="1.1" xmlns="http://www.w3.org/2000/svg" xmlns:xlink="http://www.w3.org/1999/xlink" x="0px" y="0px"
	 viewBox="0 0 10800 2332" style="enable-background:new 0 0 10800 2332;" xml:space="preserve">
<style type="text/css">
	.st0{fill:#597A5C;}
	.st1{fill:#FFFFFF;}
	.st2{fill:#0E0E0E;}
</style>
<g id="viens">
	
		<path class="st0" d="M5829.7,689.9c-9.1-8.1-16.3-18.2-24.2-27.3c-14.8-17-31.5-32.4-47.5-48.3c-17-16.9-31.9-34.9-48.4-52.3
			c-22.2-23.4-43.7-50-62.8-75.8c-14.3-19.4-14.3-40.2-21.7-62.4c-11.4-34.2-31.3-60.3-57.3-84c-11.8-10.7-22.2-33.2-27.5-47.7
			c-4.1-11.2-6.8-20.6-6.6-32.3c0.1-9.1,4.4-39.3-3.4-44.9c-25,11.2-48.7,23.4-76.9,23.1c-16.8-0.1-28.8,1.4-42.2-9.9
			c-5.9-4.9-10.4-10.7-16-15.8c-5.2-4.7-16.5-9.3-17.4-17.5c-1.4-12,19.7-15.3,28.7-18c8.4-2.5,15.5-2.5,24.2-2.8
			c10.5-0.4,20.3-4.2,30.5-6.2c24.6-4.9,49-6,73.3-10.8c19.4-3.8,39.5-14.2,59.1-15.3c16-0.8,20.6,0.2,28.3,15.3
			c5.7,11.1,5.8,23,7.6,35c1.4,9.3,4.2,16,4.1,25.9c-0.1,9.2,0,18.5,0,27.7c0,14.5-1.1,23.4,7.9,35.3c9.4,12.5,16.3,26.8,26.3,38.9
			c13.5,16.3,25.2,26.8,45.4,32.1c9.1,2.4,17,5.8,23.7,12.9c4.1,4.3,13.3,14.1,14.3,19.8c2.2,13.4-19.1,24.1-28.2,30.4
			c-14.8,10.3-28.8,18-45.3,25.1c-24.3,10.5-44.6,25.9-66.6,40c24.3-20.7,54.1-36.2,82.5-50.1c32.8-16.1,62.9-37.3,96.3-52.3
			c17.5-7.8,34.6-15.3,52.1-22.8c5.3-2.3,10-6.2,15.4-8.1c7.8-2.8,17.3-3,25.4-4.9c13.6-3.2,32-15.4,45.9-11.6
			c11.8,3.3,22.5,16.6,31.9,23.7c11.6,8.7,23.2,14.4,33.3,24.8c22.1,22.8,22.5,52.6,28.8,82.2c5,23.1,6.3,46,11,68.9"/>
		
			<path class="st1" d="M5833.9,685.7c-7.5-6.9-13.8-14.9-20.3-22.7c-6.9-8.3-14.3-16.2-21.9-23.9c-15.2-15.4-31.1-30.1-45.7-46.1
				c-29.7-32.3-59.6-64.4-86.2-99.4c-6.1-8-12.4-15.9-16.3-25.3c-3.7-9-5.6-18.6-7.8-28.1c-4.3-18.4-10.8-35.9-20.3-52.3
				c-9-15.5-20.4-29.6-33-42.4c-6.1-6.2-12.9-11.6-18-18.7c-5.2-7.4-9.4-15.4-13.2-23.6c-4.1-8.9-7.7-18.3-9.9-27.8
				c-1.9-8.1-1.8-16.1-1.2-24.3c0.5-7.5,1.1-15.1,0.6-22.6c-0.4-6-1.2-13.8-6.3-17.8c-2.3-1.9-4.6-2.1-7.3-0.9
				c-14.2,6.4-28.2,13.2-43.1,17.6c-14.6,4.3-29.2,5.1-44.3,4.6c-5.9-0.2-11.9-0.8-17.3-3.5c-6.8-3.3-11.8-8.9-16.9-14.3
				c-4.6-4.9-9.5-8.7-15-12.6c-2.6-1.8-8.3-5.4-6.4-9.3c1.7-3.3,7.2-4.9,10.4-5.9c4.3-1.4,8.7-2.4,13.1-3.6c7.6-2.1,15.1-2.3,23-2.7
				c8.2-0.4,16.1-2.5,24.1-4.5c33.2-8.5,68-7.3,100.7-18c14.5-4.7,28.8-9.9,44.2-9.9c3.5,0,7.4,0,10.2,2.3
				c4.4,3.5,7.4,10.4,9.1,15.6c2.6,7.7,3.1,15.9,4.2,24c1,7.3,3.1,14.4,4.1,21.6c1.1,8.4,0.4,17.2,0.4,25.7c0,7.4-0.3,14.9,0.1,22.3
				c0.3,6.2,1.6,12.1,4.2,17.7c3.2,6.7,8.3,12.5,12.3,18.7c8.2,12.9,16.1,25.6,26.5,36.8c8.8,9.4,18.8,17.2,30.8,22.1
				c6.4,2.6,13.2,3.7,19.5,6.5c5.8,2.6,10.2,6.5,14.5,11.2c3.3,3.6,8.6,8.4,9.8,13.4c1,4.2-3,8.2-5.8,10.8
				c-8.3,7.8-19.4,13.9-29.1,20c-13.3,8.4-27.3,14.6-41.5,21.4c-14.4,6.8-27.7,15.5-40.9,24.2c-6.6,4.4-13.3,8.9-20,13.2
				c2.4,3.1,4.8,6.3,7.3,9.4c30.2-25.5,66.4-40.4,100.7-59.3c17.6-9.7,34.7-20.3,52.4-29.9c18.4-10,37.6-18.1,56.8-26.5
				c9.5-4.1,19.2-7.9,28.1-13.1c8.4-4.9,17.5-5.4,26.9-7c8-1.4,15.3-4.6,22.8-7.6c6.8-2.7,14.9-6.3,22.5-5.1
				c7.8,1.2,14.4,7.8,20,12.9c6.4,5.9,12.9,11.3,20.1,16.1c7.9,5.3,16,10.3,22.8,17c6.4,6.3,11.3,13.7,14.9,21.9
				c7.8,17.8,9.3,37.7,13.1,56.5c4.8,23.6,6.7,47.7,11.5,71.3c1.5,7.6,13.1,4.4,11.6-3.2c-4.5-22.2-6.1-44.8-10.6-67
				c-3.7-17.8-5.5-36.3-11.3-53.7c-6.1-18.2-17-32.9-32.5-44.1c-7.7-5.6-16.1-10.2-23.3-16.3c-6.8-5.8-12.9-12.3-20.3-17.3
				c-7-4.7-14.6-7-23-5.9c-8.4,1.1-16.3,4.5-24.1,7.6c-8.6,3.5-16.7,5.3-25.8,6.7c-4.8,0.7-9.5,1.5-14,3.3
				c-4.5,1.8-8.3,4.5-12.6,6.8c-9.5,5-19.9,8.7-29.8,13c-10.3,4.5-20.7,9-31,13.8c-19,9-37,19.9-55.2,30.4
				c-39.9,23.1-83.4,40.2-119,70.2c-5.2,4.4,1.6,13.1,7.3,9.4c14.6-9.4,28.7-19.5,43.7-28.2c14.9-8.7,31.1-14.8,46.2-23.1
				c12.3-6.8,24.4-14.6,35.8-22.8c9.1-6.5,20.4-16.4,17-29c-1.6-5.8-6.1-10.9-9.9-15.4c-4.2-4.9-8.6-9.6-14-13.2
				c-6.5-4.2-13.8-6.2-21.1-8.4c-6.6-2-12.8-4.9-18.5-8.9c-12.4-8.5-22.3-21.2-30.4-33.7c-4.5-7.1-8.8-14.4-13.6-21.2
				c-4.3-6.1-8.4-11.6-9.3-19.3c-2.2-16.9,1.3-34.2-0.7-51.1c-0.9-7.9-3.3-15.5-4.3-23.4c-1.1-8.5-1.7-17.2-4.4-25.4
				c-3.5-10.6-10.2-23.4-22.1-25.9c-14.3-3-30,1.2-43.5,5.5c-8.4,2.7-16.8,5.7-25.3,8c-8.8,2.3-18,3.6-27,4.8
				c-18.8,2.5-38,4-56.6,8.3c-8.7,2-17.2,4.9-26.3,5.3c-8.6,0.4-16.9,0.8-25.3,3.1c-9.6,2.7-21.3,4.5-28.5,12.1
				c-3.7,4-5.2,9.6-3.7,14.8c1.8,6.2,7,10.3,12.1,13.8c12.2,8.5,20.5,22.1,34.5,28.1c12.9,5.5,29.4,4.8,43.1,3.6
				c16.8-1.4,32.7-6.8,48.2-13.4c7.7-3.3,15.3-6.8,22.9-10.2c-2.4-0.3-4.8-0.6-7.3-0.9c3,2.4,2.8,9.3,2.9,13.4
				c0.1,6.7-0.4,13.4-0.8,20.1c-1.2,16.8,2.7,32.3,9.1,47.9c6.3,15.5,14.1,31.9,26.4,43.6c13.4,12.7,26,25.9,36.2,41.3
				c10.4,15.8,18.2,33.2,22.9,51.5c4.7,18.6,7.9,37.2,19.6,53c12.9,17.5,26.4,34.5,40.5,51c14.3,16.7,29.5,32.5,44.2,48.8
				c16.2,18,33.3,34.8,50.4,51.8c8.6,8.6,17.2,17.3,25.1,26.6c7.6,8.8,14.5,18.2,23.1,26C5831.1,699.3,5839.7,690.9,5833.9,685.7
				L5833.9,685.7z"/>
		
	
	
		<path class="st0" d="M5881.7,337.9c0.6-12.9,4.5-24.5,7.8-37c5.6-21.1,8.1-42.8,10.5-64.5c4.2-37.1,9.8-77.1,4.7-114.7
			c-1.5-11.2-1-32.3-10.7-40.4c-8.5-7.1-24.4-6.8-34.5-8c-19.6-2.3-38.5-5.5-58.4-2.7c-13.3,1.9-26.4,5.4-39.7,7.6
			c-8,1.3-16.9,3.6-23.8,8.3c-7.3,4.9-18.4,17.7-18.3,26.8c7.5,10.4,36.6,4.5,48,4.5c15.2,0,30.7-1,45.9-0.2
			c14,0.8,12.9,10.3,8.8,21.7c-7.7,21.2-16.5,42.1-20.5,64.5c-6,33.5-14.6,68.1-15.9,102.1c-0.6,17.4-12.9,47,4,59.9"/>
		
			<path class="st1" d="M5887.7,337.9c0.9-16,6.9-31.1,10.3-46.6c3.4-15.9,5.5-32,7.3-48.1c3.7-32.2,8.3-64.6,7.4-97.1
				c-0.4-13.2-1.9-26.5-3.4-39.7c-1.2-10.6-3.1-23-12-30c-9.4-7.4-22.2-7.6-33.6-8.6c-15.5-1.3-30.8-4.2-46.4-4.2
				c-16.7,0-32.7,4.1-48.9,7.4c-13.3,2.7-26.8,4.4-37.6,13.4c-7.7,6.4-18.1,18.2-17.4,29c0.6,10,16.3,11.8,23.7,12.1
				c9.8,0.4,19.4-1.3,29.2-1.6c7.7-0.2,15.4-0.2,23.1-0.4c8-0.2,16.5-0.7,24.5,0.3c4,0.5,5.3,1.4,4.8,5.5
				c-0.7,5.8-3.6,11.7-5.6,17.2c-5.5,14.8-11.2,29.7-15,45.1c-3.8,15.6-6.3,31.6-9.4,47.4c-3.1,16.3-6,32.6-7.7,49.1
				c-0.7,7.2-0.8,14.5-1.6,21.6c-0.5,5.1-1.7,10.2-2.5,15.3c-1.8,10.4-3.7,22-0.2,32.4c1.7,5,4.6,9.5,8.7,12.8
				c6,4.8,14.5-3.6,8.5-8.5c-7.8-6.3-7.6-16.2-6.7-25.3c1-9.7,3.6-19.1,4.3-28.8c1.1-14.6,2.3-29.1,4.7-43.6
				c2.5-15.2,5.7-30.3,8.6-45.4c2.7-14,5.4-27.8,9.9-41.4c4.4-13.4,10.2-26.3,14.3-39.7c2.4-7.9,3.1-17.7-4.9-22.7
				c-4.6-2.9-10.4-3-15.6-3.2c-8-0.3-16-0.1-23.9,0.1c-11.6,0.3-23.1,0.7-34.7,1.5c-7.3,0.5-21,2.6-26.3-4c0.6,1.4,1.2,2.8,1.8,4.2
				c0.4-9.9,11.8-20.4,20.1-24.3c6.1-2.9,12.9-4.1,19.5-5.3c7.9-1.4,15.7-3.2,23.6-4.8c16.2-3.3,31.9-3.9,48.4-2.3
				c7.7,0.8,15.4,1.9,23.1,2.7c5.7,0.6,11.4,0.7,17.1,1.7c4.9,0.8,10.8,2,14.2,6c3.1,3.7,4.2,8.9,5.1,13.6c2.2,11.6,3,24.1,3.8,35.9
				c2,31.8-2.1,63.6-5.7,95.2c-2.1,18.2-4,36.4-7.7,54.3c-3.6,17.3-10.1,33.9-11.1,51.7C5875.3,345.6,5887.3,345.6,5887.7,337.9
				L5887.7,337.9z"/>
		
	
	
		
			<path class="st1" d="M5949.4,453.7c-23.4,23.3-46.6,46.7-71,68.9c-11.6,10.6-24,18.7-39.1,23.3c-16.1,4.8-32.9,5.9-49.6,6.1
				c-7.7,0.1-7.7,12.1,0,12c17.1-0.2,34.5-1.3,51-6c16.2-4.6,29.9-12.6,42.5-23.6c12.2-10.6,23.7-22,35.5-33.1
				c13.4-12.7,26.2-26,39.3-39C5963.4,456.7,5954.9,448.2,5949.4,453.7L5949.4,453.7z"/>
		
	
	
		
			<path class="st1" d="M6018.7,528.7c-29.6,14.3-55.2,34.9-82,53.6c-13.3,9.3-26.5,16.6-42.1,21.2c-15.4,4.5-31.3,7.4-46.5,12.6
				c-7.3,2.5-4.1,14.1,3.2,11.6c15.2-5.2,31-8.1,46.5-12.6c16-4.7,29.9-11.9,43.6-21.4c27.3-19,53.3-40.1,83.4-54.6
				C6031.7,535.7,6025.6,525.4,6018.7,528.7L6018.7,528.7z"/>
		
	
	
		<path class="st1" d="M6132,355c10.4-11,15.7-24.6,28-34.4c9.7-7.7,19.4-14.4,31.8-16.7c14-2.6,27.9-4.6,42-3.1
			c13.8,1.5,32.9,0.6,45.6,7c21.2,10.7,28.2,43.9,26.4,65.2c-2.1,25.2-19.9,29.4-40.9,34.7c7.1,12.6,27.1,15.8,37.4,25.5
			c8.5,8.1,21.4,26.1,35,26c-45.4,1.4-89-21.7-123-50.2c-8.2-6.8-13.1-11.4-23.5-15.1c-7.5-2.6-14.2-5.1-20.9-9.4
			c-13.7-8.8-40.6-16.3-38-37.6"/>
		
			<path class="st0" d="M6136.2,359.2c7.2-7.8,12.3-17,18.9-25.2c6.5-8,15.1-14.5,24.2-19.4c10.1-5.4,22.2-6.8,33.4-7.8
				c11.5-1.1,22.7,0.3,34.1,0.9c9.4,0.6,19.5,0.8,28.3,4.7c7.2,3.1,12.4,9.2,16.1,15.9c7.4,13.4,10.4,30.9,8.5,46.1
				c-1,8.2-4.8,15.1-12.1,19.3c-7.4,4.3-16.1,6.1-24.3,8.2c-3.7,0.9-5.6,5.6-3.6,8.8c8.8,14.5,26.7,15.9,38.3,26.7
				c11.5,10.7,21.8,27.2,39.3,27.7c0-4,0-8,0-12c-35.2,0.8-68.5-12.9-97.3-32.3c-7.2-4.8-14.1-10-20.8-15.6
				c-5.8-4.8-11.4-9.9-18.1-13.5c-7.8-4.1-16.5-6-24.2-10.2c-5.4-2.9-10.5-6-16-8.8c-10.5-5.4-24.3-12-22.9-25.8
				c0.7-7.7-11.3-7.6-12,0c-1.4,14,8.1,24,19.2,30.8c5.3,3.3,11,5.9,16.5,8.9c7.5,4,14.5,8.2,22.5,11.2c8.1,3,15,6.2,21.7,11.8
				c6.9,5.8,13.9,11.5,21.2,16.7c15,10.8,31.2,20,48.4,26.9c19.6,7.9,40.7,12.3,61.9,11.8c7.7-0.2,7.7-11.8,0-12
				c-7.1-0.2-13-6-17.8-10.6c-5-4.9-9.4-10.7-14.8-15.1c-5.4-4.5-11.8-7.4-18.1-10.5c-6.1-3-12.9-6.2-16.6-12.2
				c-1.2,2.9-2.4,5.9-3.6,8.8c16.7-4.2,35.1-9,42.2-26.5c6.8-16.8,3.5-39.4-3-55.8c-3.4-8.6-8.1-16.9-15.2-23
				c-8-6.9-17.7-9.7-28-11.1c-24.9-3.3-51.1-4.5-75.6,1.8c-12.9,3.3-25.3,11.6-34.9,20.8c-9.6,9.2-15.4,21.4-24.3,31.1
				C6122.5,356.4,6131,364.9,6136.2,359.2L6136.2,359.2z"/>
		
	
	
		
			<path class="st2" d="M6220,603c-0.1-5-0.9-10-1-15.1c0-1.2,0.2-2.5,0.1-3.7c0.7,4.7-1.1,5.4-0.2,2.5c-0.7,2.9-2.1,5.4-4.1,7.4
				c0.2-0.2,0.5-0.5,0.7-0.7c-5.1,4.8-3.1,2.3-1.2,1.2c0.7-0.4,1.4-0.7,2.1-1c-3.7,1.5-4.6,1.9-2.9,1.3c1.2-0.2,2.4-0.8,3.6-1.1
				c2.5-0.7,5.1-1.3,7.6-1.8c3-0.6,5.9-1.2,8.9-1.7c6.6-1-6.1,0.7-0.6,0.1c1.9-0.2,3.8-0.4,5.7-0.6c4.4-0.4,8.9-0.8,13.4-0.9
				c4.2-0.1,8.3,0.1,12.5,0.3c3.7,0.2-6.4-1.4-3.1-0.4c0.7,0.2,1.4,0.4,2.1,0.5c3.3,0.5-6.1-3.1-3.5-1.5c1.9,1.2,0.7,0.2-3.6-2.9
				c-2.5-2.6-4.3-5.7-5.3-9.2c3.7-9,7.4-18.1,11-27.1c-6.6,4.5-14,9.1-21.5,11.7c6.3-2.2-1.2,0.4-2.4,0.9c-1.7,0.6-3.3,1.3-5,1.9
				c-2,0.7-4.1,1.5-6.1,2.1c-11.5,3.5-29.3,7.5-34.6,19.8c-3.9,9.2-4.6,18.2,1.9,26.7c6,7.8,15.7,10.8,25.2,8.6
				c26.3-6,52.9-10.3,79.1-16.7c-4.3-15.4-8.5-30.9-12.8-46.3c-11.4,2.9-22.6,6.6-34.1,8.9c-1.6,0.3-3.1,0.6-4.7,0.9
				c-6.2,1,4.9-0.4,0,0c-3.3,0.3-6.6,0.6-9.9,0.5c-0.8,0-1.7-0.1-2.5-0.1c-3.3-0.1,3.6,0.3,3.5,0.5c-0.1,0.2-3.5-0.8-3.9-0.9
				c-4.1-1,5.5,3.3,1.6,0.6c-2.3-1.6,3,2.4,3,2.4c-0.1,0.1-1.5-1.6-1.5-1.6c2.1,7.8,4.1,15.6,6.2,23.4c1-3.2-3.5,6.6-0.9,2.6
				c-4,6.4-3.4,4.1-1.7,2.6c2.5-2.4-6,3.8-1.5,1.1c0.8-0.5,1.6-1,2.4-1.4c1.9-1,6.4-2.3-1.1,0.3c1-0.3,2-0.8,3-1.1
				c2.6-0.9,5.3-1.7,8.1-2.3c1.3-0.3,2.6-0.6,3.9-0.8c5.6-1-3.2,0.3-1.4,0.1c2.5-0.2,4.9-0.5,7.4-0.5c1.1,0,2.3,0,3.4,0.1
				c1.1,0.1,5.5,0.6,0.3-0.1c-5-0.7-1.2,0-0.1,0.2c4.6,0.9-5.4-2.6-2.7-1.2c-3.7-9-7.4-18.1-11-27.1c-0.8,2.8,1.7-3.7,1.6-3.5
				c-1.4,2.9,4.1-4,2-2.5c-0.4,0.3-1,0.9-1.3,1.3c-0.9,1.3,4.2-2.6,2.5-2c-1.4,0.6-2.8,1.7-4.1,2.4c-0.7,0.3-1.4,0.6-2.1,1
				c-2.9,1.4,2-0.9,2.5-1c-6.4,1.6-12.9,4.2-19.2,6.2c-7.2,2.2-14.2,5.3-21,8.6c-2.6,1.3,4.9-1.9,2.1-0.9c-0.8,0.3-1.7,0.7-2.5,1
				c-1.9,0.7-3.8,1.1-5.7,1.7c-3.1,1,1.9-0.4,2.7-0.2c-0.6-0.1-1.7,0-2.4,0.1c-3.9,0.5,4.6,0.8,2.6,0.3c-2.2-0.6,5.7,3,2.4,0.8
				c4,6.9,7.9,13.8,11.9,20.7c0-1,0-2.1,0-3.1c0-3.8-1.5,6-0.3,2.6c0.2-0.7,0.4-1.5,0.6-2.2c1-4.3-2.3,4.3-1.1,2.5
				c0.4-0.6,0.7-1.3,1.1-1.9c1.5-2.6,2.4-0.8-1.7,2.1c1.2-0.8,2.4-2.3,3.4-3.4c1.9-1.8-5.3,3.6-2.3,1.9c0.8-0.5,1.5-1,2.3-1.4
				c0.8-0.5,1.7-0.9,2.5-1.3c2-1.1,4.8-1-2.2,0.9c3.6-0.9,7-2.4,10.6-3.1c1.9-0.4,3.8-0.7,5.7-1c2.9-0.5-6.5,0.8-2.7,0.4
				c1-0.1,2.1-0.2,3.1-0.3c3.8-0.3,7.5-0.5,11.3-0.6c6.6-0.1,13.3,0.3,19.9,1c-8-8-16-16-24-24c0.1,1.4-0.3,6.3,0.4,1.5
				c0.7-4.9-0.2-0.2-0.5,1c-1.1,4.3,2.8-5.4,0.2-0.7c-0.7,1.2-1.7,2.3-2.3,3.6c0.5-1,4-4.7,1.3-1.8c-0.5,0.6-1,1.1-1.5,1.7
				c-1.1,1.1-2.2,2.2-3.4,3.2c-0.7,0.6-1.6,1.2-2.3,1.9c0.4-0.4,4.6-3.3,1.9-1.5c-1.5,1.1-3.1,2.1-4.6,3.1c-3,1.9-6.2,3.5-9.4,5.1
				c-2.9,1.5,1.7-0.7,2.3-0.9c-0.8,0.2-1.5,0.6-2.3,0.9c-1.7,0.6-3.4,1.2-5.1,1.7c-1.5,0.4-3,0.8-4.4,1.2c-0.9,0.2-1.8,0.4-2.7,0.5
				c-3.3,0.7,3-0.6,3.2-0.4c-0.7-0.7-7.1,0.1-8.6,0c-5.6-0.7-13.2,3.2-17,7c-4.2,4.2-7.3,11-7,17c0.3,6.2,2.3,12.6,7,17
				c5,4.6,10.3,6.2,17,7c17.9,2.3,38.7-6.3,53.3-16c16.9-11.3,34.8-30,32.5-52.1c-1.4-14.1-9.9-22.3-24-24c-27.5-3.2-60.8-1-82.5,18
				c-6.5,5.7-11.4,13.8-13.8,22.1c-1.3,4.4-2,9.4-1.9,14c0.2,12.9,9,22.5,21,25.8c11,3,22.4,0.6,32.7-3.6c5-2,9.9-4.2,14.8-6.5
				c3.5-1.6-6,2.2-1.6,0.7c1.4-0.5,2.9-0.9,4.3-1.4c19.7-6,45-12.5,51.1-35.2c2.7-9.9-1.7-22.2-11-27.1c-13.4-7-28.4-5.9-42.8-3.5
				c-13.4,2.2-27.6,7.4-37.4,17c-10.8,10.6-14.2,27.5-3,39.3c5.2,5.5,12.2,9.4,19.5,11.1c14.4,3.4,29.5,1.2,43.7-1.8
				c10.7-2.3,21.1-5.7,31.8-8.4c12.2-3.1,20.7-17.4,16.8-29.5c-4.1-12.7-16.4-19.9-29.5-16.8c-26.2,6.3-52.8,10.7-79.1,16.7
				c9,11.8,18.1,23.5,27.1,35.3c0.9-1.9-0.1-0.7-3,3.7c-4,2.9-5.2,3.8-3.5,2.8c0.7-0.3,1.9-1.4,2.7-1.4c-1.2,0-6.3,2.5-1.9,0.9
				c1-0.4,2.1-0.7,3.1-1.1c3.6-1.2,7.3-2.2,10.9-3.4c15.3-5.1,30.8-11.5,44.1-20.6c8.2-5.6,14.9-16.8,11-27.1
				c-6.7-17.9-23.3-22-40.6-22.1c-11.8-0.1-23.7,1.4-35.3,3.1c-11.3,1.7-23.7,4.1-33.4,10.5c-10.8,7-16.3,17.2-17,29.8
				c-0.4,6.3,0.8,12.5,1,18.7c0.3,12.5,10.8,24.6,24,24C6208.7,626.4,6220.3,616.4,6220,603L6220,603z"/>
		
	</g>

<g id="noclick">
	
		
			<path class="st2" d="M5692,1303c-0.1,35.4-3.8,70.7-4.2,106.1c-0.2,17.4-0.5,34.9,0.7,52.3c0.7,9.7,1.8,19.4,3.7,28.9
				c0.8,4.2,1.8,8.4,2.6,12.6c0.3,1.8,0.7,3.6,1,5.4c0.4,2.7,0.4,2.4-0.1-1c0.1,1.2,0.2,2.4,0.3,3.6c1,12.5,10.4,24.6,24,24
				c12.2-0.5,25-10.6,24-24c-0.8-10.1-2.7-20-4.8-29.8c-0.4-1.8-0.7-3.6-1.1-5.4c-0.1-0.7-1.2-7.8-0.7-4.1c0.3,2,0.2,1.8,0-0.6
				c-0.1-1.3-0.3-2.6-0.4-3.9c-0.2-1.9-0.3-3.9-0.5-5.8c-1.2-17.4-0.9-34.9-0.7-52.3c0.4-35.4,4-70.7,4.2-106.1
				c0-12.6-11.1-24.6-24-24C5703,1279.6,5692,1289.5,5692,1303L5692,1303z"/>
		
	
	
		
			<path class="st2" d="M5716.1,1355.7c20.3-10,40.3-20.5,61-29.7c1.7-0.8,3.4-1.5,5.1-2.3c2.6-1.3-5.2,1.9-2.5,1.1
				c0.9-0.3,1.7-0.7,2.6-1c1.2-0.4,2.9-0.4,3.9-1.1c-3.4,2-6.3,0.5-3.2,0.6c-1.6,0-3.8-0.6-5.4-1.3c-5.3-2.3,1.4,1.7-2.9-1.8
				c-4-3.2-0.7-0.1-0.2,0.2c-0.5-0.3-3.2-5.2-1.7-1.9c0,0,1.1,2.4,1.3,2.5c-1-0.3-1.7-4.5-0.8-1.7c0.2,0.5,0.4,1,0.6,1.5
				c0.6,1.6,1.1,3.1,1.6,4.7c2.1,6.3,4,12.7,5.5,19.2c0.8,3.5,1.5,7.1,2.1,10.7c0.6,3.8-0.4-2.8-0.4-2.8c0.3,0.8,0.2,2.1,0.3,3
				c0.2,1.9,0.3,3.9,0.3,5.8c0,1.7,0,3.4-0.1,5c-0.4,5.9,1.3-5.5,0.1-0.6c-0.3,1.5-0.8,2.9-1.2,4.3c-0.6,2.3-1.9,0.2,1.3-3.1
				c-0.3,0.3-1.2,2-1.3,2.5c-1.3,3.3,2.2-3.3,2.1-2.6c0,0.2-1,1.1-1.2,1.3c-2.8,2.5,4.9-3,2.4-1.7c-0.7,0.4-1.3,0.9-2,1.2
				c-1,0.5-2,1-3,1.5c-4,2,0.8-0.1,1.1-0.4c-1.7,1.5-5.9,2.1-8,2.8c-5.7,1.8-11.6,3.1-17.5,4.2c-3,0.6-6.1,1.1-9.1,1.5
				c-1.1,0.2-2.2,0.3-3.3,0.5c6.3-1.2,0.5-0.2-0.8-0.1c-13.8,1.1-28.3,0.7-41.3,6.1c-6,2.5-10.9,5.1-14.3,11
				c-3,5.1-4.3,12.7-2.4,18.5c3.6,11.1,17.1,21.9,29.5,16.8c2.7-1.1,5.5-2.1,8.4-2.8c0.6-0.1,1.1-0.2,1.7-0.4c2.7-0.5,2.3-0.4-1.2,0
				c1,0.1,2.5-0.3,3.5-0.4c6.5-0.6,13.1-0.6,19.6-1.3c13.3-1.4,27-3.6,39.8-7.5c11.6-3.5,24.5-8.3,32.6-17.8
				c8.2-9.8,11.5-21.1,12.4-33.7c1.2-17.6-3.6-36-9.1-52.6c-3.4-10.3-7-21.1-15.1-28.7c-10.5-9.8-25.3-11.9-38.5-7.1
				c-26.6,9.6-51.4,23.9-76.6,36.4c-11.3,5.6-15.3,22.5-8.6,32.8C5690.7,1358.7,5704.1,1361.7,5716.1,1355.7L5716.1,1355.7z"/>
		
	
	
		
			<path class="st2" d="M5936,1479c-0.1-35-4.8-70.1-1.8-105.2c0.2-2.2,0.5-4.3,0.7-6.5c0.3-2.9-0.2,1.8-0.3,1.8
				c-0.2-0.3,0.5-3.1,0.5-3.7c0.6-3.5,1.2-6.9,2.1-10.3c0.4-1.5,0.9-3,1.4-4.5c0.3-0.9,0.6-1.7,0.9-2.5c0.8-2.4-1.2,2.8-1.1,2.6
				c1.6-2.7,2.7-5.6,4.4-8.3c0.8-1.3,1.7-2.6,2.6-3.9c1.7-2.5-3.4,3.9-1.3,1.7c0.5-0.5,0.8-1,1.3-1.5c2.2-2.5,4.7-4.6,7.1-6.9
				c1.7-1.7-2.3,1.8-2.2,1.7c0.5-0.2,1.2-0.8,1.6-1.1c1.3-0.8,2.6-1.7,4-2.4c1-0.6,5.7-2.7,1.9-1.1c-4,1.6,2-0.6,2.9-0.9
				c1.3-0.4,2.7-0.7,4-1c0.9-0.2,1.8-0.3,2.8-0.5c2.5-0.5-3,0.4-2.8,0.4c2.3,0.4,5.2-0.3,7.7-0.2c2.5,0.2,5,1.6-2.3-0.4
				c0.8,0.2,1.7,0.3,2.6,0.5c1,0.2,1.9,0.5,2.9,0.8c0.4,0.1,0.8,0.3,1.2,0.4c3.3,0.9-4.8-2.4-3.1-1.3c1.5,0.9,3.1,1.6,4.6,2.5
				c1,0.6,4,2.9,0.2,0c-3.8-2.9-0.6-0.4,0.3,0.5c1.3,1.2,2.4,2.6,3.7,3.9c2.1,2.3-3.8-5.4-1.5-1.8c0.6,1,1.3,1.9,1.9,2.9
				c1,1.6,1.9,3.3,2.7,5c0.5,0.9,2.2,4.9,0.3,0.4c-1.9-4.4-0.1-0.2,0.3,1c1.5,4.2,2.7,8.6,3.7,13c0.5,2.3,0.9,4.6,1.2,6.9
				c0.7,4.3-0.5-4-0.3-2.4c0.1,1.4,0.3,2.7,0.4,4.1c0.4,4.8,0.6,9.6,0.6,14.4c0,5.5-0.3,10.9-0.8,16.4c-0.1,1.2-0.3,2.3-0.4,3.5
				c-0.3,3,1-6.7,0.2-1.5c-0.4,2.5-0.8,5.1-1.3,7.6c-0.9,4.6-2.1,9.3-3.6,13.8c-0.6,1.9-1.4,3.8-2.1,5.6c2.7-7.5,1.1-2.5-0.5,0.5
				c-5.9,11.1-3.1,26.6,8.6,32.8c11.1,5.9,26.5,3.2,32.8-8.6c10.5-19.5,14.2-42.5,15-64.4c0.8-23.5-2.6-48.3-13.7-69.3
				c-11.9-22.4-35.6-37-61.3-34.6c-19.1,1.8-36.7,9.4-50.4,23.1c-11.8,11.8-20.4,27.6-24.1,43.9c-10,43.7-2.4,89.1-2.2,133.3
				c0,12.6,11,24.6,24,24C5925,1502.4,5936.1,1492.5,5936,1479L5936,1479z"/>
		
	
	
		
			<path class="st2" d="M5940.7,1439.1c0.4-0.7,2.9-3.9,0.3-0.7c-2.6,3.2-0.1,0.2,0.6-0.5c1.4-1.5,3.5-2.8,4.7-4.4
				c-0.5,0.6-4.4,3.2-1.7,1.4c0.9-0.6,1.9-1.2,2.8-1.8c1.9-1.2,3.9-2.3,5.9-3.4c1.9-1,3.7-1.9,5.6-2.7c1.3-0.6,2.6-1.1,3.8-1.7
				c-0.8,0.4-4.9,2-1.9,0.8c4.2-1.7,8.4-3.3,12.5-5.1c5.2-2.1,10.3-4.4,15.4-6.7c1.4-0.7,4.9-1.9-1.5,0.6c1.1-0.4,2.2-0.9,3.3-1.4
				c3.5-1.5,7-2.9,10.5-4.4c10.1-4.3,19.8-9.4,27.8-17.1c9-8.7,9.4-25.3,0-33.9c-9.7-8.9-24.3-9.3-33.9,0c-0.6,0.6-3.7,3-0.4,0.6
				c3.4-2.5,0-0.1-0.8,0.5c-2,1.3-4,2.5-6.1,3.6c-2.2,1.1-4.4,2.2-6.7,3.2c-1.1,0.5-2.3,1-3.4,1.5c-2.8,1.2,5-2.1,1-0.4
				c-5.6,2.3-11.2,4.6-16.7,7.1c-1.8,0.8-8.5,3.2-1.2,0.6c-2.1,0.7-4.1,1.7-6.2,2.5c-21.2,8.5-42.8,17.3-55.3,37.7
				c-6.6,10.7-2.7,26.9,8.6,32.8C5919.6,1453.9,5933.7,1450.6,5940.7,1439.1L5940.7,1439.1z"/>
		
	
	
		
			<path class="st2" d="M6048,1239c-0.7,7.7,0.5,15.3,1.7,22.9c0.5,3,1.1,6.1,1.5,9.1c0.1,0.7,0.9,3,0.5,3.6
				c-0.4-2.9-0.5-3.4-0.2-1.6c0.1,0.9,0.2,1.9,0.4,2.8c1.5,12.4,2.7,24.8,3.9,37.1c2.7,27.1,7.9,53.8,13.1,80.5
				c2.4,12.4,17.9,20.5,29.5,16.8c13.2-4.3,19.3-16.3,16.8-29.5c-2.3-12.1-4.8-24.3-6.9-36.4c-1.1-6.4-2.2-12.8-3.1-19.3
				c-0.4-2.8-0.4-1.3,0.1,0.6c-0.4-1.5-0.4-3.3-0.6-4.9c-0.4-3.2-0.7-6.4-1-9.7c-1.2-12.1-2.3-24.1-3.8-36.2c-0.9-7.4-2-14.7-3.2-22
				c-0.3-1.5-0.5-3.1-0.8-4.6c-0.6-3.4,0.3,5.9,0.1-0.1c-0.1-3.1-0.2-6.1,0.1-9.1c1.2-12.5-11.9-24.5-24-24
				C6058,1215.6,6049.3,1225.6,6048,1239L6048,1239z"/>
		
	
	
		
			<path class="st2" d="M6084.7,1255.1c0.4-0.7,3.4-4.6,3.3-5.1c0.4,1.1-3.3,3.9-1,1.4c0.7-0.7,1.3-1.4,2-2.1c0.9-0.9,4-2.8,4.3-3.9
				c-0.6,1.8-3.9,2.8-1.3,1.1c1.2-0.8,2.4-1.6,3.7-2.4c1.7-1,3.4-2,5.2-2.8c0.9-0.4,1.8-0.9,2.7-1.3c2.7-1.3,0.6,0.9-1.6,0.6
				c1.4,0.2,4.3-1.7,5.7-2.1c2.1-0.8,4.3-1.4,6.5-2.1c3.7-1.1,7.3-2.1,11.1-2.8c2.4-0.5,4,0.5-1.9,0.2c0.8,0,1.7-0.2,2.5-0.2
				c1.8-0.1,3.6,0,5.4,0c5.2,0.1-5.7-1.4-0.8-0.1c1,0.3,6.2,2.1,1.8,0.3c-4.4-1.9,0.6,0.5,1.4,1c0.9,0.5,3,2.2-0.2-0.3
				c-3.4-2.7-0.6-0.4,0.1,0.3c0.5,0.5,1,1.1,1.6,1.6c2.5,2.4-1.4-1.8-1.6-2.1c0.5,1.4,1.9,2.9,2.6,4.2c0.3,0.5,0.7,1.9,1.2,2.4
				c-2.4-2.6-1.6-4.3-0.8-1.9c0.8,2.4,1.6,4.8,2.2,7.3c0.5,2.1,1,4.2,1.4,6.3c0.2,0.9,0.2,2.4,0.6,3.3c-0.2-0.5-0.6-5.8-0.2-1.4
				c0.4,4.7,0.8,9.4,0.8,14.1c0,2.1-0.1,4.3-0.2,6.4c-0.1,1-0.2,2-0.2,3.1c-0.2,3.2,1.2-4.8,0.1-2c-2,5.4,2.9-4.1-0.1,0.6
				c-0.5,0.7-1,1.5-1.4,2.2c-1.3,2.4,3.7-4.1,0.8-1.2c-2.7,2.7-5.5,5.1-8.4,7.5c-2.9,2.4,0.3-0.2,0.7-0.6c-1.1,1-2.5,1.9-3.8,2.8
				c-2.3,1.6-4.6,3.2-7,4.8c-8,5.3-16.2,10.2-24.7,14.7c-10.3,5.4-21.4,14.5-23.3,26.7c-1.2,7.9-0.9,17.8,6.2,23.4
				c12.5,9.9,26.5,16.4,42.2,19.3c14.2,2.6,28.6,3.4,43,3.9c6.1,0.2,12.1,0.4,18.2,0.8c3.4,0.2,7,0.4,10.3,1
				c-0.9-0.1-1.7-0.2-2.6-0.4c1.3,0.2,2.5,0.4,3.8,0.5c1.9,0.3,3.8,0.6,5.7,0.9c18.5,2.9,36.9,6.5,55.6,8c12.5,1,24.5-11.8,24-24
				c-0.6-13.9-10.6-22.9-24-24c-4.1-0.3-8.2-0.8-12.3-1.3c-1.8-0.2-1.3-0.2,1.6,0.2c-0.9-0.1-1.9-0.3-2.8-0.4
				c-2.2-0.3-4.4-0.7-6.6-1c-7.6-1.2-15.1-2.6-22.7-3.8c-14.6-2.3-29-4-43.7-4.5c-5.8-0.2-11.7-0.4-17.5-0.7
				c-3.2-0.2-6.4-0.4-9.6-0.7c-1.5-0.1-2.9-0.3-4.4-0.4c-6.1-0.7,4.6,0.9-0.1,0c-5.6-1-11.2-2.1-16.6-4c-0.9-0.3-1.7-0.6-2.6-0.9
				c1.1,0.5,2.1,0.9,3.2,1.4c-1.1-0.7-2.5-1.1-3.7-1.8c-1.4-0.7-2.8-1.5-4.1-2.4c-1.4-0.9-5.8-4.3-0.1,0.2
				c2.1,7.8,4.1,15.6,6.2,23.4c0.2-1.1,1.3-4.1-0.3-0.1c-0.4,1.1-5.2,6.9-2.5,4.3c1.6-1.5,1.8-0.5-2.2,1.5c0.7-0.3,1.4-0.9,2-1.4
				c3.4-2.1,7.1-3.7,10.6-5.6c9.6-5.1,18.9-11.5,27.7-17.9c10-7.3,20.3-14.9,26.7-25.7c6.6-11.1,7.6-24.4,7.2-37
				c-0.7-22-5.1-48.4-22.1-64.1c-16.7-15.5-39.3-17.4-60.6-11.7c-25.1,6.8-49.8,18.9-63.2,42.3c-6.3,10.9-2.9,26.8,8.6,32.8
				C6063.3,1269.8,6078,1266.7,6084.7,1255.1L6084.7,1255.1z"/>
		
	
	
		
			<path class="st2" d="M6372,1075c-0.1,14.3,2,28.8,5.8,42.7c3.3,12.1,8,23.7,11.4,35.7c6.2,21.8,8.7,45.9,25.9,62.6
				c9,8.8,25.1,9.6,33.9,0c8.7-9.5,9.6-24.6,0-33.9c-0.7-0.6-1.7-2.1-2.5-2.6c0.6,0.4,3.2,4.7,1.5,1.9c-1.2-2-2.4-4-3.4-6.1
				c-1.8-3.6,0.4,0,0.6,1.4c-0.1-1-0.8-2.2-1.2-3.2c-0.8-2.4-1.6-4.9-2.3-7.3c-2.4-8.8-4-17.9-6.6-26.7
				c-3.3-11.1-7.5-21.8-10.6-32.9c-1.5-5.5-2.7-11-3.7-16.6c-1.1-5.8,0.4,5.5-0.1-0.5c-0.1-1.5-0.3-2.9-0.4-4.4
				c-0.2-3.4-0.3-6.7-0.3-10.1c0.1-12.6-11.1-24.6-24-24C6382.9,1051.6,6372.1,1061.5,6372,1075L6372,1075z"/>
		
	
	
		
			<path class="st2" d="M6388,971c0-2.7,0-5.3,0-8c0-6.2-2.7-12.6-7-17c-2.2-2.3-4.7-4-7.7-5c-2.9-1.5-5.9-2.2-9.2-2.1
				c-6.2,0.3-12.6,2.3-17,7c-4.3,4.7-7,10.5-7,17c0,2.7,0,5.3,0,8c0,6.2,2.7,12.6,7,17c2.2,2.3,4.7,4,7.7,5c2.9,1.5,5.9,2.2,9.2,2.1
				c6.2-0.3,12.6-2.3,17-7C6385.3,983.3,6388,977.5,6388,971L6388,971z"/>
		
	
	
		
			<path class="st2" d="M6535,942c-1.2,1.1-2.4,2.2-3.7,3.3c-0.5,0.4-1.2,0.9-1.6,1.3c-0.1,0.1,4.2-3.1,2.1-1.6
				c-2.6,1.9-5.3,3.8-8,5.6c-5.2,3.4-10.5,6.6-15.6,10.1c-13.4,9.2-25.5,20.2-33,34.9c-8.5,16.8-14.2,34.6-15.2,53.5
				c-1,18.6,4.2,36.8,13.4,52.9c14.7,25.5,35.8,50.3,64.3,60c28.6,9.8,56.9-4.5,77-24.5c19.1-18.9,33.5-42.7,45.9-66.5
				c5.8-11.1,3.2-26.6-8.6-32.8c-11.1-5.8-26.6-3.3-32.8,8.6c-4.4,8.3-8.9,16.5-13.8,24.5c-2.7,4.4-5.6,8.8-8.6,13.1
				c-1.5,2.2-3.1,4.3-4.7,6.5c-2.9,4,3.6-4.5,0.5-0.6c-1.1,1.4-2.2,2.8-3.4,4.1c-3.4,4-6.9,7.8-10.7,11.4c-1.5,1.4-3.1,2.8-4.7,4.2
				c-1.6,1.4-4.8,2.6,1-0.7c-1.4,0.8-2.6,1.9-4,2.7c-2,1.3-4,2.4-6.1,3.5c-2,1-5.1,1.4,1.6-0.6c-1.1,0.3-2.1,0.8-3.2,1.1
				c-2.1,0.7-4.3,1-6.4,1.5c7.2-1.7,4.3-0.5,2-0.4c-1.5,0.1-2.9,0-4.4-0.1c-4.9-0.2,5.9,1.4,1.2,0.1c-1.3-0.4-2.6-0.6-3.8-1
				c-1.2-0.4-2.5-1.1-3.8-1.3c5.9,1.3,3,1.3,0.8,0.1c-2.5-1.3-4.8-2.7-7.1-4.3c-0.4-0.3-0.8-0.5-1.1-0.8c-2-1.5-1.5-1.1,1.5,1.2
				c-0.8-1.3-3.2-2.7-4.3-3.8c-3.9-3.6-7.6-7.5-11-11.6c-0.9-1.1-1.7-2.4-2.7-3.4c4.6,4.6,1.4,1.8,0.3,0.3c-1.9-2.6-3.7-5.3-5.4-8
				c-2.7-4.2-7.2-9.9-8.3-14.8c1.3,5.8,0.3,0.5-0.1-0.9c-0.5-1.6-1-3.3-1.4-5c-0.2-0.8-1.4-4.3-1-5c0.4,3.6,0.5,4,0.2,1.3
				c-0.1-1.1-0.2-2.2-0.2-3.4c-0.2-3.4,0.1-6.7,0.2-10.1c0.2-5.8-1.1,5.4,0-0.4c0.3-1.7,0.6-3.4,1-5c0.6-2.8,1.4-5.6,2.2-8.3
				c0.5-1.7,1.1-3.3,1.7-5c0.4-1.1,0.8-2.2,1.3-3.3c-1.3,3-1.4,3.3-0.4,0.9c1.6-3.5,3.2-7.1,5.3-10.4c0.4-0.7,2.4-2.9,2.4-3.7
				c-2.3,2.9-2.7,3.4-1.1,1.5c0.6-0.7,1.2-1.4,1.9-2.1c2.2-2.4,4.6-4.5,7.1-6.6c3.8-3.3-4.6,3.3-0.5,0.4c1.5-1.1,3-2.1,4.5-3.2
				c12.1-8.2,24.7-15.4,35.4-25.5c9.2-8.6,9.3-25.4,0-33.9C6559.1,933,6544.8,932.9,6535,942L6535,942z"/>
		
	
	
		
			<path class="st2" d="M6643,924c3.3,4-2.1-3.2-0.4-0.7c0.7,1.1,1.5,2.1,2.2,3.2c1.4,2.2,2.8,4.4,4,6.6c1.3,2.3,2.4,4.6,3.6,7
				c0.4,0.9,0.8,2,1.3,2.9c-3.1-4.8-0.7-1.7,0,0.2c3.8,9.7,6.8,19.7,9.7,29.8c2.7,9.1,5.2,18.2,7.5,27.5
				c2.5,10.5,5.7,21.9,12.4,30.7c4,5.2,7.8,9.2,14.3,11c5.7,1.6,13.4,0.9,18.5-2.4c9.8-6.3,16.8-22.2,8.6-32.8
				c-1.4-1.8-2.4-3.7-3.6-5.6c-2.4-4,1.3,3.9,0.4,1.2c-0.4-1.1-0.9-2.3-1.2-3.4c-1.6-4.7-2.7-9.5-3.8-14.3
				c-2.3-9.8-5.3-19.5-8.1-29.2c-7-23.6-15.5-46.5-31.4-65.6c-8.1-9.7-25.7-9-33.9,0C6633.6,900.3,6634.4,913.6,6643,924L6643,924z"
				/>
		
	
	
		
			<path class="st2" d="M6604,831c12.6,0,24.6-11,24-24c-0.6-13-10.5-24-24-24c-12.6,0-24.6,11-24,24
				C6580.6,820,6590.5,831,6604,831L6604,831z"/>
		
	
	
		
			<path class="st2" d="M6744.9,737.4c2.3,6.4,3.9,13.1,5.1,19.8c0.2,1.4,0.6,2.9,0.7,4.4c-0.5-6.4-0.1-0.8,0,0.7
				c0.4,3.6,0.7,7.1,1,10.7c1.4,15,3.1,30,6.9,44.6c7.4,28.3,16.9,56.1,26.3,83.8c4,11.9,16.7,20.9,29.5,16.8
				c11.8-3.8,21.1-16.8,16.8-29.5c-9.4-27.7-18.9-55.4-26.3-83.8c-0.9-3.3-1.7-6.6-2.4-9.9c-0.4-1.7-0.7-3.5-1-5.3
				c-0.1-0.8-0.9-5.9-0.4-2.1c0.6,3.8-0.2-2.3-0.3-3c-0.2-1.5-0.3-3-0.5-4.5c-0.4-3.6-0.7-7.1-1-10.7c-1.4-15.1-3-30.4-8.2-44.8
				c-4.2-11.8-16.5-21-29.5-16.8C6750,711.6,6740.3,724.7,6744.9,737.4L6744.9,737.4z"/>
		
	
	
		
			<path class="st2" d="M6796,999c0,24,0,48,0,72c0,12.6,11,24.6,24,24c13-0.6,24-10.5,24-24c0-24,0-48,0-72c0-12.6-11-24.6-24-24
				C6807,975.6,6796,985.5,6796,999L6796,999z"/>
		
	
	
		
			<path class="st2" d="M5553,1216c16.9-21,17.7-45.5,22.6-70.8c6.1-31.4,12.3-62.8,18.8-94c6.5-31.2,14.8-61.7,24.9-91.9
				c4.9-14.8,10-29.6,14.5-44.6c2-6.7,3.3-13.2,4.3-20c0.5-3.3,1-6.6,1.8-9.9c0.4-1.5,0.8-3.1,1.4-4.6c-0.9,2.2-0.7,2.2,0.6-0.2
				c-13.8,0-27.6,0-41.4,0c-1.8-4.3-0.1,0.3,0.1,1.4c0.4,1.9,0.9,3.7,1.2,5.6c-0.7-4.1,0.2,4.2,0.3,5.7c0.3,8.5-0.3,17-1,25.5
				c-1.4,16.2-2.6,32.3-2.8,48.5c-0.6,40.8,5.5,80.1,22.1,117.5c7.8,17.5,18.5,33.7,28.1,50.3c9.7,16.8,18.4,31.5,36.8,39.6
				c29.2,12.8,65.5,9.6,96.7,7.7c36.7-2.2,73.5-7.9,108.7-18.6c17.8-5.4,35.2-12.2,52-20.1c16.4-7.7,31.8-17.3,48.2-25.2
				c17.5-8.4,34.9-16.7,51.4-27.1c15.8-10,31-20.9,46.9-30.8c33.3-20.9,67.3-40.7,100.4-61.8c32.8-20.9,65.1-42.6,96.3-65.8
				c32.3-23.9,63.3-49.5,94.5-74.8c60.3-48.9,125.1-91.3,191.2-132.1c66.7-41.1,134.6-82,205.9-114.6
				c33.2-15.2,68.2-29.8,104.1-37.7c18.7-4.1,35.7-5.8,55.2-4.7c18.7,1.1,36.5,3.5,54.8,7.4c16.2,3.4,32.6,7.5,48.1,13.4
				c-0.4-0.1,6.6,2.7,3.5,1.3c-3.1-1.3,3.6,1.7,3.3,1.5c2.6,1.3,5.2,2.6,7.8,4c3.1,1.7,6.2,3.6,9.2,5.6c1.2,0.8,2.4,1.6,3.5,2.5
				c5.5,3.8-3-3,2,1.6c12.2,11.1,18.9,17.9,25.7,31.8c7.5,15.2,13.4,31.3,17.9,48.4c20,76.2,27.1,154.6,21.7,233.1
				c-2.5,36.1-6.3,72.4-16.3,107.4c-4.7,16.4-9.8,29.8-16.4,43.3c-7.1,14.5-15.3,28.5-24.3,41.9c-37.2,55.1-92.4,104.8-146.5,144.9
				c-29.9,22.2-61,42.7-92,63.3c-32.1,21.3-65.6,41.2-100.6,57.6c-73.3,34.3-148.1,64.9-221.7,98.6
				c-71.6,32.8-142.7,67.8-215.8,96.9c-72.3,28.8-147.4,49.6-223.7,64.3c-77.7,15-157.2,22.8-236.3,15.7
				c-75.3-6.8-149.3-30.1-219.9-57.5c-15.7-6.1-26.8-10.1-40.3-16.6c-6.7-3.2-13.3-6.8-19.7-10.7c-3.1-2-6.2-4-9.2-6.2
				c-3.6-2.7,3.9,3.6-1.9-1.6c-1.8-1.6-3.7-3.2-5.5-4.9c-9.6-9.1-18-21.5-22.4-34.1c-6-17.1-9.2-34-10.4-51.7
				c-5-73.9,15.3-149.9,46.8-215.9c8-16.7,17.3-32.7,24.2-49.8c6.8-16.8,9.5-34.8,9.9-52.8c0.3-13-11.3-24-24-24
				c-13.3,0-23.7,11-24,24c-0.4,15-3.3,30-9.9,43.3c-8.4,17.2-17.5,33.9-25.3,51.4c-16,36.1-28.6,73.1-36.4,111.8
				c-8,39.7-12.7,80.8-8.6,121.2c4,39.1,14.8,77.9,42.6,107c23.8,24.8,56.1,38.3,87.5,50.6c35.5,13.8,71.1,27,107.7,37.7
				c79.1,23.1,160.6,32.9,242.9,28.3c81.5-4.6,163-19.8,241.8-41c77.9-21,151.7-51.5,225-84.7c74.3-33.6,147.8-69.4,223-101.1
				c75.2-31.7,150.4-63.9,219.2-108.3c63.2-40.8,126-83.6,181.1-135.1c52.6-49.1,99.3-106.8,123.7-175.3
				c12.8-36,17.7-74.5,21.6-112.4c4-40.2,5.1-80.7,2.8-121c-2.4-41.6-8.6-83-18-123.6c-8.8-37.9-18.6-77-43.1-108.1
				c-19.6-24.9-46.1-40.9-75.8-51.1c-36.8-12.6-76.6-18.8-115.4-20.5c-40.3-1.7-79.9,10.3-117.3,24.3c-37.6,14-74.1,30.9-109.6,49.5
				c-71,37.2-139.9,79-207.3,122.4c-33.7,21.7-67.4,43.7-99.4,67.8c-32.4,24.4-63.5,50.5-95.1,75.9
				c-61.6,49.4-127.8,92.3-195.1,133.3c-16.8,10.3-33.9,20.1-50.4,30.9c-16.1,10.5-31.7,21.7-48.3,31.4c-16.8,9.8-34.7,17.4-52,26.2
				c-14.9,7.6-31.8,17.8-45.6,23.6c-16.6,7-33.9,12.4-51.3,16.8c-8.3,2.1-16.7,3.9-25.1,5.4c-9.1,1.7-17.2,2.9-24.7,3.8
				c-17.8,2-35.7,3.1-53.5,3.2c-6.7,0.1-13.5,0.2-20.2,0.1c-3.8,0-7.6-0.1-11.4-0.3c-1.5-0.1-3-0.2-4.6-0.3
				c-7.1-0.5,4.2,1.1-2.6-0.4c-3.3-0.7-6.5-1.5-9.7-2.5c-3.8-1.2,4.5,2.7-1.3-0.5c-1.2-0.7-2.5-1.4-3.8-2.1c-3.8-2-1.3-0.9-0.4-0.1
				c0,0-3.9-4.7-2.5-2.8c-3.1-4.3-5.5-9.5-8.2-14.2c-9.8-17-21.3-33.6-28.9-51.7c-14.4-33.9-16.5-69.9-15.2-107.3
				c1.1-32.9,8.8-65.7-4.7-97.1c-7.5-17.5-32.9-13.7-41.4,0c-7.4,11.9-7.5,24.9-10.6,38c-3.5,14.8-9,29.4-13.8,43.8
				c-10.1,30.1-19.1,60.2-25.8,91.3c-6.9,31.7-12.5,63.7-19.1,95.4c-2.4,11.3-3.8,22.6-5.7,33.9c-0.9,5.3-1.9,10.7-3.4,15.9
				c-0.3,1.1-3.6,9.1-1.3,4.5c-0.6,1.1-5.1,8-1.5,3.5c-8.1,10.1-9.9,24.1,0,33.9C5527.4,1224.4,5544.8,1226.1,5553,1216L5553,1216z"
				/>
		
	
</g>
</svg>
