<?xml version="1.0" encoding="utf-8"?>
<!-- Generator: Adobe Illustrator 19.0.0, SVG Export Plug-In . SVG Version: 6.00 Build 0)  -->
<svg version="1.1" xmlns="http://www.w3.org/2000/svg" xmlns:xlink="http://www.w3.org/1999/xlink" x="0px" y="0px"
	 viewBox="0 0 10800 2332" style="enable-background:new 0 0 10800 2332;" xml:space="preserve">
<style type="text/css">
	.st0{fill:#DBC095;}
	.st1{fill:#5F825E;}
	.st2{fill:#FFFFFF;}
	.st3{fill:#FF0000;}
</style>
<g id="viens">
	
		<path class="st0" d="M7495,1599c167.8-71.6,334.8-144.7,501.9-218.2c69.5-30.5,141.6-54.2,210.9-85.1
			c71.3-31.8,132.2-75,190.6-126.7c38.7-34.3,62.3-79.4,99.2-113.8c15.8-14.7,32.4-22.5,46.7-39.5c23.3-27.8,50.9-50.8,71.6-81
			c17.4-25.4,23.3-56,40.6-80.8c13.1-18.7,35.3-31.9,53.8-44.5c13.8-7.8,26.7-16.9,38.7-27.4c12.5-15.1,24.3-30.7,35.4-46.9
			c62.1-76.6,130.5-148.8,193.3-225c28.9-35,62.4-68.4,86.4-105.2c16-24.5,29.7-20.2,56.6-23.8c22.4-3,43.7-11.3,66.2-13.7
			c93.6-9.9,184.3,10.5,276.5,21.6c42.5,5.1,93,6.3,133.8,19.4c29.4,9.4,54.3,29.5,79.3,46.4c18.1,12.3,39.3,19.4,57.2,31.8
			c17.3,12,25.6,30.3,33.2,49.4c10.3,25.9,18,52.6,30.3,77.7c7.8,16,14.9,20.3,0.1,33.2c-26.7,23.3-94.5,20.6-125.6,20.4
			c-63-0.3-127.8-2.5-190.7-6.4c-65.9-4.1-132.7-4.4-198.1-14.2c-23.4-5.3-47-7.9-71-8c-12.8,3.2-23.6,0.6-32.3-7.8
			c54.4-21.9,118.2-13.1,174.8-4.9c76.1,11.1,152.5,22.4,229.2,29c45.2,3.9,91.6,2.8,136.4,7.2c14.2,1.4,35.5,7.3,46.1,16.4
			c21.9,18.8,14,46.7,0.9,68c-29.9,48.8-85.6,61-138.6,66.7c-71,7.7-142,6.6-213-0.3c-34.9-3.4-70-9.3-104.7-14.6
			c-11.6-1.8-30.5-1.3-39.9-10c12.1-9.7,38-6.2,51.9-6.1c46.5,0.2,92.9,0.3,139.4,0.1c83-0.3,165.5,9,248.3,8.4
			c25.7-0.2,61.4-6.3,86.8,1.3c23.8,7.1,33.9,34.1,40,56.2c9.3,33.8,10.5,65.3-23,84.9c-34.9,20.4-81.3,27.7-120.1,37.7
			c-55.5,14.4-113.5,17.7-170.4,24c-30.7,3.4-61.1,4-92,4.1c-19.6,0.1-53.2,7.2-67.6-8.2c58-24.3,127.2-13.4,188.4-23.8
			c68.4-11.6,137.4-22.4,206-31.9c31.1-4.3,58,11.9,51.7,47.4c-4.1,23.3-22.1,43.2-41.9,54.3c-31.3,17.5-63.4,30.2-93.9,50
			c-47.9,31.1-96.3,51.5-150.7,68c-52.1,15.7-106.2,18.8-158.2,33.7c-25.1,7.2-42.9,25.6-69.2,32.4c-23.9,6.2-36.8,16.3-57.5,29.4
			c-50.7,32.1-103.4,59-153.2,92.7c-43.2,29.2-89.6,53-134.6,79.1c-22.4,13-38.2,31.9-57.2,48.8c-15.8,14-33,26-48.3,40.7
			c-34.7,33.4-58.6,70.1-86.1,108.8c-35.5,50-71.6,98.9-120.4,136.5c-24.1,18.6-47.8,38.1-72,56.4c-27.7,21.1-61.5,31.4-91.5,48.7
			c-24.2,14-51.2,27.5-73.4,44c-34.9,25.9-52.8,56.8-101.8,41.2c-64.8-20.7-124.8-55.8-189.9-77c-62.5-20.3-130.5-39.3-187.8-72
			c-47.3-27-89.1-61.9-131.5-95.6c-49.6-39.5-105-57.3-160.7-84.8c-39.3-19.4-66.8-36.2-111.7-35.2"/>
		
			<path d="M7498,1604.2c116.6-49.8,232.9-100.3,349-151.1c58.7-25.7,117-52.4,176.1-77c55.4-23,112-42.9,167.2-66.3
				c99.3-42.2,194.9-105.9,261.4-191.8c16.5-21.3,32.8-43.3,53.1-61.1c9-7.9,19-14.4,28.3-21.9c10.8-8.8,19.3-19.7,28.8-30
				c18.5-19.9,38.2-38.7,54.5-60.6c16-21.6,23.5-46.8,35.4-70.5c13.1-26,34.7-41.8,58.6-57.2c10.1-6.5,20.4-12.5,29.9-19.8
				c10.8-8.2,18.7-17.3,26.9-28c18.9-24.4,37.1-48.9,57.2-72.4c19.9-23.4,40.2-46.5,60.5-69.5c40.3-45.7,79.1-92.6,119.3-138.4
				c18.6-21.3,37.6-42.3,54.4-65.1c6.8-9.3,12.6-21.4,22.3-28.2c8-5.5,18-5.8,27.4-6.7c27.5-2.5,53.5-12.2,80.9-15.2
				c30.5-3.3,61.4-3,92-0.9c61.1,4,121.4,15.6,182.2,22.8c54.9,6.5,114.4,4.8,163.5,33.6c23.9,14,44.9,32,69.7,44.5
				c11.5,5.8,23.5,11.1,34,18.7c11.8,8.5,19.5,20.9,25.5,33.9c12,26.4,19.6,54.5,31.3,81c3.2,7.2,14.5,22,11.4,29.9
				c-3.7,9.2-19.8,14.6-28.3,17.2c-41.2,12.3-88,7.9-130.5,7.3c-62.1-0.9-124-4.4-186.1-7.6c-62.8-3.1-125-5.6-187-16
				c-13.7-2.3-27.6-3.8-41.5-4.4c-14.6-0.6-29.4,4.3-41.5-6.3c-0.9,3.3-1.8,6.7-2.6,10c71.7-27.9,153.2-7.4,226.4,3
				c81.2,11.6,162.3,22,244.3,24.7c20.5,0.7,40.9,1.4,61.3,3.2c16.1,1.4,35.7,4.6,48.6,15.3c28.8,23.9,0,67.1-20.9,85.5
				c-23.3,20.6-54.2,29.8-84.3,35.1c-38.2,6.7-77.6,8.6-116.3,9.2c-46.3,0.6-92.7-1.8-138.7-7c-24.6-2.8-49.1-6.7-73.5-10.5
				c-8.6-1.3-17.1-2.7-25.8-3.6c-9.1-0.9-19.9-1.3-27.3-7.3c-0.4,3.1-0.8,6.3-1.2,9.4c11.9-8.3,28.7-6,42.4-5.5
				c19.9,0.7,39.9,0.3,59.9,0.4c41.7,0.1,83.4-0.7,125.1,0.4c80.4,2.2,160.8,11.1,241.3,6.2c17.2-1.1,36.4-2.8,53.1,2.8
				c15.3,5.1,24.1,19.2,29.7,33.5c10,25.2,20.2,62,0.3,84.9c-11.4,13.1-29.8,20.2-45.7,25.8c-16.6,5.9-33.6,10.1-50.7,14.2
				c-38.4,9.1-76.3,18.3-115.5,23.1c-45,5.6-90.7,11-136,12.8c-19.9,0.8-39.9,0.1-59.8,1.5c-15.5,1.1-37.2,4.7-49.6-7.1
				c-0.9,3.3-1.8,6.7-2.6,10c49.3-19.9,103-15.9,155-19.8c26.6-2,52.8-7.2,79.1-11.5c29-4.7,58-9.3,87-13.7
				c13.7-2.1,27.5-4.1,41.2-6.1c13.8-2,28.3-5.5,42.2-4.9c20.6,0.8,36.2,13.9,34.7,35.4c-1.7,26.1-21.9,45.9-43.5,57.8
				c-23.5,12.9-48.2,23.6-71.6,36.8c-22.9,12.9-44.4,27.6-67.9,39.5c-23.4,11.8-47.7,21.7-72.4,30.2
				c-52.4,17.9-106.4,24.1-160.1,36.1c-24.4,5.4-44.1,13.8-65.7,26.1c-20.2,11.5-43.2,15.3-63.3,27.1c-22.2,13-43.5,27.5-65.8,40.5
				c-23.8,14-47.9,27.6-71.5,41.9c-23.6,14.3-46.3,30.2-69.8,44.7c-23.4,14.4-47.5,27.6-71.5,41.1c-22.4,12.5-44.5,24.4-63.6,41.8
				c-19.2,17.5-37.9,34.8-58.1,51.3c-40,32.6-69.4,74.6-98.9,116.4c-30.1,42.7-60.7,85.6-98.8,121.6c-20,18.9-42.3,35.1-63.8,52.1
				c-22.1,17.5-43.6,35.1-68.9,47.8c-44.8,22.4-91.8,42.9-132.1,73.3c-15.3,11.5-28.7,26.2-45.4,35.8c-21.4,12.3-42.5,6.7-64.5-1.1
				c-51.1-18-99-43.6-149.6-62.9c-49.1-18.8-100.3-31.5-149.2-50.8c-51.3-20.2-96.9-48.9-140.5-82.4c-20.6-15.8-40.4-32.7-61.1-48.3
				c-21-15.7-44-28.5-67.6-39.9c-23.5-11.3-47.5-21.3-71.1-32.4c-21.4-10-42-21.6-63.9-30.6c-21.2-8.7-43.1-12.9-66-12.7
				c-7.7,0.1-7.7,12.1,0,12c53.1-0.5,97.8,30.1,144.6,51.1c24.3,10.9,48.7,21.4,72.2,34c25.8,13.8,48.6,31,71.4,49.2
				c42.3,33.8,85.3,67.8,134.1,91.9c47.4,23.5,98.2,38.9,148.4,54.9c53.8,17.1,104.1,41.3,155.9,63.1c22.8,9.6,47.8,21.8,72.6,24.1
				c18.4,1.8,34.9-4.5,49.5-15.2c17.4-12.7,32.5-28,50.6-39.8c22.6-14.8,46.8-28.2,70.8-40.7c23-12,47.5-21.1,69.4-35
				c23.5-15,44.8-34,66.7-51.3c22.1-17.4,43.7-34.6,63-55.1c17.1-18,32.6-37.4,47.6-57.1c32.7-43.4,61.1-90.5,97.9-130.7
				c18.7-20.3,40.4-36.4,61.2-54.3c20.9-18.1,38.8-38.8,62.9-52.9c48.9-28.5,97.9-55.9,145.5-86.6c47.5-30.7,97.7-56.7,145.2-87.3
				c9.3-6,18.4-12.2,28.4-16.9c11.8-5.7,24.7-7.9,36.7-13.2c10-4.4,19.2-10.2,28.6-15.5c12-6.8,24.2-11.3,37.6-14.6
				c55.6-14,112.5-18.9,167.1-37.1c24-8,47.5-17.2,70.3-28.1c24.9-11.8,47.7-26.5,71.3-40.5c23.7-14.1,49-25.1,73.4-38
				c19.9-10.5,37.9-24,48-44.8c7.9-16.2,10.9-37.2,1-53.2c-8.1-13-23-19.3-37.7-20.4c-11.5-0.9-23.2,1.7-34.5,3.3
				c-15.3,2.2-30.6,4.4-45.8,6.7c-29.8,4.4-59.6,9.1-89.3,13.9c-28.9,4.7-57.6,10.5-86.8,12.5c-27.3,1.9-54.7,1.7-82,4.2
				c-24.7,2.2-49,6.5-72.1,15.8c-4,1.6-6.2,6.6-2.6,10c10.2,9.7,24.1,11.6,37.7,11.6c17.5,0,35.1-1.6,52.6-1.8
				c46-0.6,91.5-5.6,137.2-10.4c42.9-4.5,84.4-12.2,126.3-22.1c36.2-8.5,76.8-15.3,108.1-36.8c26-17.9,30.3-46.6,24.3-75.8
				c-5.5-26.8-16.1-61.7-44.4-72.3c-16.1-6-34.7-5.4-51.6-4.6c-20.2,1-40.2,2.3-60.4,2.1c-46.8-0.5-93.5-3.7-140.2-5.9
				c-52.4-2.6-104.7-2.3-157.2-2.3c-25.3,0-50.8,0.5-76.1-0.4c-16-0.6-34.7-2.6-48.5,7.1c-2.8,2-4.5,6.8-1.2,9.4
				c11.3,9,25,9.5,38.8,11.1c22.6,2.6,45,6.9,67.4,10.1c45.6,6.4,91.5,10,137.5,10.7c44.1,0.7,88.4-1.1,132.2-6.9
				c31.7-4.2,64.3-11.4,91.5-29c25-16.2,47.7-43.4,51.4-73.8c4.3-35.4-27.3-52.6-57.8-57.6c-42.8-7.1-87.3-4.3-130.5-7.2
				c-47-3.1-93.9-9.2-140.5-15.5c-48.6-6.6-97-14.9-145.8-20.3c-44.5-4.9-90.5-5.6-132.8,10.9c-3.9,1.5-6.4,6.8-2.6,10
				c8.4,7.4,17.8,11.4,29.1,10.8c16.1-1,31.4-0.7,47.6,1.3c31.3,4,62,9.9,93.6,12.3c64.5,5,129.5,7.6,194.1,10.4
				c55,2.4,110.2,4.2,165.2,3.4c21.5-0.3,43.6-1.5,64.5-6.9c14.5-3.8,38.4-12.5,42-29.4c1.6-7.4-2.6-13.9-5.9-20.2
				c-7.8-14.5-13.7-29.9-19.3-45.4c-9-24.7-16.4-52.5-32.6-73.7c-16.9-22.1-44.2-29.9-67.2-43.8c-24.2-14.5-45.4-33.3-71.3-45.1
				c-50.7-23-110.9-20.6-165.2-27.6c-62.1-8-124-19.5-186.7-22.1c-31.3-1.3-63.9-1.4-94.7,5.1c-13.8,2.9-27.3,7.1-41.2,9.6
				c-11.2,2.1-22.6,2.2-33.9,4c-21.1,3.3-30.1,17.8-41.7,34.2c-18.7,26.3-40.7,49.9-61.9,74.2c-41,47.2-81.2,95.1-122.5,142
				c-21.8,24.8-43.4,49.6-64.6,74.8c-8.9,10.6-18.2,21.1-26.1,32.3c-9.3,13.2-18.6,26.9-29.4,39c-18.2,20.5-45.7,32.2-67.6,48.5
				c-22.5,16.8-35.6,36.9-46.5,62.5c-11.6,27.4-24.2,50.8-44.3,73.1c-8.9,9.9-18.2,19.4-27.4,29c-10.1,10.6-19.2,22.4-29.8,32.5
				c-9.6,9-20.8,16.1-31,24.4c-11,9-20.8,19.4-30,30.2c-18,21.1-33.7,43.9-52,64.8c-37.3,42.7-86.3,78.1-134.1,108.1
				c-51.9,32.6-108.3,55.6-165.3,77.7c-59.5,23-118.2,47-176.6,72.6c-120.3,52.8-240.7,105.5-361.4,157.4
				c-29.8,12.8-59.7,25.6-89.5,38.4C7484.9,1596.8,7491,1607.2,7498,1604.2L7498,1604.2z"/>
		</g>
	

<g id="noclick">
	
		<path class="st1" d="M8463,2135c-28.3,34.1-61.9,53.3-95.8,81.2c-31.8,26-60.9,55.1-89.9,84.2c-10.2,10.2-25.5,35.3-38,43.8
			c-15.4,10.3-39.8,9.3-57.9,12.7c-111.4,20.7-227.5,9.1-340.1,9.7c-105.3,0.5-209.4,15.6-314.2,24.4
			c-101.4,8.5-202.2,20.7-303.4,30.8c-108.3,10.7-219.1,14.1-327.8,16.3c-143.3,2.9-285.7-10-428.5-18.9
			c-254.4-16-508.9-24.7-763.6-34c-283-10.3-566.1-13.9-849.1-24c-157.4-5.6-314.1-10-471.6-10l96,24
			c-37.4-2.4-76.8-15.7-113.1-23.8c-55.5-12.4-109.1-22.4-166-25.3c-190.4-9.6-378.9-10.4-568.9,8.9
			c-169.3,17.2-339.6,29.8-509.4,40.5c-201.8,12.7-402.2,10.8-604.1,8c-426.8-6-852.3-51.3-1278.8-67.7
			c-221-8.5-442.3-13.4-663.5-12.8c-148.8,0.3-294.5,2.7-442.1-16c-75.4-9.5-151.4-12.5-227-20.1c-19.3-2.3-38.6-3.6-58-3.8
			c-7.9,0.4-15.9,0.8-23.8,1.2c-15.6-4.8-17-13-21.1-29c-23.7-91.7,14.6-185.7,20.2-276.8c1.5-24.3-0.4-49.3-0.4-73.7
			c0-14.8,5-35-8-45.6l-128-88c35.1,30.5,73.5,56,106.5,89.3c74.6,75.2,128.3,163,220.9,218.6c78.1,46.9,168.5,65.2,258.2,75.7
			c147.5,17.3,298.7,5.7,445.8-7.1c92.4-8.1,184.5-17.9,276.1-32.5c41.4-6.6,82.4-14.7,124.4-16l-104,96
			c177-228.3,475.1-330.8,744.7-392.5c309.6-70.9,626.8-99.4,943.4-118.5c229.2-13.8,456.7-17.9,686.1-11.5
			c207.5,5.8,414.6,11.6,620.2,42.3c93.7,14,187,32,278.2,58c83.1,23.6,163.4,55.7,244.7,84.2c179.8,63.1,365.4,107.3,545.6,169.4
			c53.3,18.4,106,40,159.8,56.6c13.5,4.2,27,8.6,41.3,7.9h-56c46.9-1.1,90.9-13,136.2-24.2c107.6-26.4,214.3-53.4,320-86.9
			c205-64.8,412-118.3,618.8-176.5c173.5-48.8,345-108.8,513.4-172.8c121.7-46.3,238.4-104.1,359.8-151
			c46-17.8,93.7-31.6,138.3-52.9c34.1-16.3,60-36.9,96-48.6c48.5-15.8,86.5-15.9,137-9.3c62.1,8.2,123.5,16.2,185.3,26.3
			c33.3,5.5,68.7,15,102.4,16.1c83.2,2.7,167.6,9.4,248.3,32.8c73.5,21.2,139.9,51.2,189.1,110.9c37.8,45.9,75.3,82.4,101.8,136.2
			c37.3,75.7,61.1,156.6,93.8,234.2c16.9,40.1,18.8,78.2,15.2,121.6c-2.8,33.9-5.5,90.5-31.4,116"/>
	
	
		
			<path d="M1793,1943c0.5,39.6-14.7,77.9-27.2,114.9c-6.2,18.5-11.9,37.1-16.1,56.2c-4.9,22-8.8,44.1-12.3,66.4
				c-7.2,44.5-12.6,89.8-24.6,133.3c-9.3,34-29.3,63.6-53.8,88.5c-28,28.4-61.2,50.9-95,71.6c-6.6,4-0.6,14.4,6.1,10.4
				c60.4-36.9,122.7-82.3,148.9-150.8c7.5-19.7,11.4-40.8,15.3-61.4c4.3-22.7,7.9-45.6,11.5-68.4c6.9-43.7,13.7-87.7,27.4-129.9
				c13.7-42.3,32.3-85.5,31.8-130.7C1804.9,1935.3,1792.9,1935.3,1793,1943L1793,1943z"/>
		
	
	
		
			<path d="M3473.2,1776.6c16.8,49.2,18.1,101.7,28.2,152.3c10.9,54.6,26.4,108.1,32.7,163.5c5.9,51.6,4.4,105.3-16,153.7
				c-17.6,41.9-46.7,77.5-76.1,111.7c-40.1,46.6-77.7,95.5-119.3,140.9c-5.2,5.7,3.3,14.2,8.5,8.5c38.1-41.7,72.4-86.6,109.3-129.3
				c30.4-35.2,61.5-70.8,82.1-112.9c49.4-100.8,18.3-214.2-5-317.5c-6.5-28.9-10.7-57.9-14.7-87.2c-4-29.3-8.6-58.8-18.1-86.9
				C3482.3,1766.1,3470.7,1769.3,3473.2,1776.6L3473.2,1776.6z"/>
		
	
	
		
			<path d="M5001,1919c-2.4,30.4-17.5,57.7-27.6,86c-10.5,29-15.2,59.9-17.8,90.5c-5.8,66.9-0.7,133.6-1.7,200.5
				c-0.2,14.9-0.4,29.9-2,44.7c-1.4,13.1-4.2,27.7-13.1,38c-5,5.8,3.5,14.4,8.5,8.5c16.5-19.2,17.2-46.6,18-70.7
				c1.2-34.3,0.2-68.6-0.5-102.9c-0.7-33.7-0.5-67.3,1.5-100.9c2-32,5.7-64.1,15.4-94.8c10.4-33.2,28.5-63.7,31.4-99
				C5013.6,1911.3,5001.6,1911.3,5001,1919L5001,1919z"/>
		
	
	
		
			<path d="M5988,1892.2c44,31.9,91.3,58.9,136.2,89.5c41.7,28.4,82,59.1,120.7,91.5c38.8,32.5,75.9,67.2,109.7,105
				c33.6,37.7,62.5,79.1,89.5,121.8c16.1,25.4,31.2,51.5,43.3,79.1c5.1,11.7,9.7,23.6,13.2,35.9c3.5,12.3,6.4,25.7,4.7,38.6
				c-0.4,3.2,0.8,6.4,4.2,7.4c2.8,0.8,6.9-1,7.4-4.2c3.2-23.4-4.3-47.2-12.8-68.7c-9.6-24.4-21.7-47.7-35-70.3
				c-26.6-45.2-56.3-89.4-90-129.6c-65.8-78.5-146.1-143.7-229.1-203.1c-50.7-36.2-105.3-66.5-155.7-103.1
				C5987.8,1877.3,5981.8,1887.7,5988,1892.2L5988,1892.2z"/>
		
	
	
		
			<path d="M7167,1525c74.5-2,149.1,7.2,219.2,33.3c34.6,12.9,67.1,29.9,98.6,49.1c26.8,16.3,53.2,33.4,78.8,51.5
				c53.7,37.9,105,80.8,146,132.5c19.6,24.7,36.7,51.8,49.2,80.9c12.8,29.9,20.1,62.1,27.6,93.7c15.6,66,29.1,135.5,66.3,193.5
				c4.4,6.9,9.2,13.4,14.2,19.9c4.7,6.1,13.2-2.5,8.5-8.5c-42.7-54.7-58-125.1-73.4-191.2c-7.6-32.4-14.7-65.4-26.1-96.7
				c-11-30.1-26.8-58.2-45.6-84c-39.1-53.8-89.6-98.3-142.9-137.5c-25.9-19.1-52.7-37-80-54c-30.2-18.9-60.8-36.8-93.6-50.8
				c-68.9-29.4-143-42.8-217.7-43.7c-9.7-0.1-19.3,0-29,0.2C7159.3,1513.2,7159.3,1525.2,7167,1525L7167,1525z"/>
		
	
	
		
			<path d="M8210,1449.8c-2.1-1-4.3-1.9-6.4-2.9c0.7,2.7,1.4,5.5,2.2,8.2c10.1-22.7,36.5-30.3,57.6-39.2c12.1-5.1,22.8-11.7,33.8-19
				c11.3-7.4,23.9-16.2,37.9-16c7.7,0.1,7.7-11.9,0-12c-15.2-0.2-28.9,7.8-41.3,15.9c-11.7,7.6-23,15.1-35.9,20.5
				c-23.3,9.6-51.2,18.8-62.4,43.7c-1.2,2.7-1,6.8,2.2,8.2c2.1,1,4.3,1.9,6.4,2.9C8211,1463.3,8217.1,1453,8210,1449.8L8210,1449.8z
				"/>
		
	
	
		
			<path d="M8316.2,1490c19.5-35.1,36.8-72,63.1-102.8c5-5.8-3.5-14.4-8.5-8.5c-27,31.6-44.9,69.1-64.9,105.2
				C8302.1,1490.7,8312.4,1496.8,8316.2,1490L8316.2,1490z"/>
		
	
	
		
			<path d="M8434,1540.2c46.7-31.5,54.9-93.6,97.2-128.9c5.9-5-2.6-13.4-8.5-8.5c-20.9,17.4-34,41.7-46.8,65.2
				c-12.6,22.9-25.8,46.9-48,61.9C8421.6,1534.1,8427.6,1544.5,8434,1540.2L8434,1540.2z"/>
		
	
	
		
			<path d="M8619.2,1355.2c11.1-12.5,20.2-25.3,25.1-41.5c4.6-15.2,4.2-33.8,14.9-46.5c4.9-5.9-3.5-14.4-8.5-8.5
				c-11.1,13.2-12.5,29.8-16.4,46c-4,16.6-12.5,29.4-23.6,42C8605.7,1352.5,8614.1,1361,8619.2,1355.2L8619.2,1355.2z"/>
		
	
	
		
			<path d="M8533,1303c1.7-23.3,21-40.8,24-64c0.4-3.2-3.1-6-6-6c-3.6,0-5.6,2.8-6,6c-1.5,11.1-7.8,21-13,30.7
				c-5.6,10.5-10.1,21.3-11,33.3C8520.5,1310.7,8532.5,1310.7,8533,1303L8533,1303z"/>
		
	
	
		<path class="st2" d="M408.7,1783.3c-34-3.8-70.5,9-103.3,15.8c-57.6,12-115.3,23.2-172.7,36.2c-49.2,11.1-98.8,20.6-148,32
			c-17.8,4.1-85.4,12.2-87.7,34.4c73.3,24,161.1,9,236.1,1.7c68.9-6.7,134.2-16.4,203.7-16.1c35.7,0.2,68.6-4.2,103.8-10
			c55.2-9.1,106.8-17.5,159.8-38c38.9-15.1,77.9-21.7,118-31.4c39.6-9.6,76.3-27.2,115.2-38.9c115.3-34.8,234.1-59.7,350.3-91.5
			c89.5-24.5,166.6-76.4,252.4-110.2c44.3-17.5,87.8-36.8,131.4-56c56.4-24.8,114.9-46.5,169.3-75.4c48.5-25.7,92.4-39.9,118-91
			c14.1-28.1,2.9-51.8-14.3-77.2c-33.8-49.9-78.8-83.8-128.2-116.5c-50.9-33.8-100.2-63.1-159.4-80.2c-67.5-19.5-142.4-15-208.4,7.8
			c-75,25.9-149.1,48.6-220,84.6c-58.1,29.5-117.4,56.9-176.3,84.6c-83.1,39-163.5,87.8-248.2,123c-53.7,22.3-108,44.5-156.1,78.4
			c-46.5,32.9-71.7,84.8-99,133.6c-16.7,29.8-41.2,65.1-51,98.1c-8.8,29.8-1.4,71.4-1.4,102.2"/>
	
	
		
			<path d="M556.4,1563c-5,5.6-12.5,7-19.2,9.7c-7.7,3.1-14.9,7.5-20.7,13.5c-11.1,11.5-15.2,27.4-15.4,43c-0.2,15,3,29.3,16.4,37.8
				c10.5,6.7,27.5,10.5,38.6,3.1c10.8-7.3,9.2-21.3,16.8-30.5c4.9-5.9-3.6-14.5-8.5-8.5c-6.2,7.5-7.1,16.5-11.5,24.8
				c-4.8,9.1-17.6,6.6-25.4,3c-5-2.3-9.9-5.9-12-11.1c-2.3-5.6-2.5-12.5-2.5-18.5c0.2-13,3.5-26.3,13-35.6
				c5.5-5.3,12.3-8.7,19.4-11.2c7.1-2.5,14.3-5.1,19.4-10.9C570,1565.8,561.5,1557.2,556.4,1563L556.4,1563z"/>
		
	
	
		
			<path d="M626.7,1547.3c-0.3-21.4,4.4-42.6,4-64c-0.1-7.7-12.1-7.7-12,0c0.4,21.4-4.3,42.6-4,64
				C614.8,1555,626.8,1555,626.7,1547.3L626.7,1547.3z"/>
		
	
	
		
			<path d="M626.9,1556.9c4,21.2,3.9,42.7,3.8,64.1c0,10.8,0.1,21.5,0.1,32.3c0,9-2.3,19,1,27.6c1.1,2.8,2.9,4.1,5.8,4.4
				c12,1.4,23.1-5.5,33.7-10c13.2-5.7,27.4-8.8,40.5-14.8c7-3.2,0.9-13.6-6.1-10.4c-12.3,5.6-25.5,8.5-37.9,13.7
				c-9.5,4-19.6,10.8-30.3,9.5c1.9,1.5,3.9,2.9,5.8,4.4c-1.6-4.2-1.3-8.5-1-12.8c0.3-4.8,0.4-9.7,0.4-14.5c0-11.1-0.1-22.1,0-33.2
				c0.1-21.3-0.2-42.5-4.2-63.5C637,1546.1,625.4,1549.3,626.9,1556.9L626.9,1556.9z"/>
		
	
	
		
			<path d="M632.9,1627.5c5-5.7,11.3-10.3,18-13.9c6.2-3.3,12.8-5.1,18-10.1c5.6-5.4-2.9-13.8-8.5-8.5c-4.9,4.7-12.4,6.3-18.2,9.8
				c-6.5,3.9-12.8,8.5-17.8,14.2C619.4,1624.9,627.8,1633.4,632.9,1627.5L632.9,1627.5z"/>
		
	
	
		
			<path d="M635.7,1568.5c8.2-4.2,16.6-7.7,25.3-10.4c4.1-1.3,8.1-2.7,12-4.4c3.7-1.6,7.5-3.8,11.6-4.3c7.6-0.9,7.7-12.9,0-12
				c-9.5,1.1-17.8,6.4-26.8,9.2c-9.8,3-19.1,7-28.2,11.6C622.8,1561.6,628.8,1572,635.7,1568.5L635.7,1568.5z"/>
		
	
	
		
			<path d="M752.7,1513.3c-21.2,2.8-40,17.4-50.6,35.6c-4.5,7.7-9.2,18-7.1,27.2c1.8,7.9,8.4,12.8,15.5,15.7c12.3,5,26,5.9,39.1,7.1
				c7.2,0.7,14.5,1.4,21.5,3.5c2.1,0.6,5.1,1.7,6.4,2.9c0.9,0.8,0.8,1.2,0.7,0.9c0-0.5-0.5,1.3-1,2.1c-4.3,7-13.7,11.8-20.7,15.6
				c-9.4,5.2-20.5,7.1-28.1,15.1c-5.3,5.6,3.1,14.1,8.5,8.5c6.5-6.8,16.9-8.4,25-12.8c7-3.8,13.9-8.1,19.8-13.5
				c5-4.6,10.1-11.3,8-18.5c-1.7-6-7.8-9.2-13.2-11.1c-12.8-4.6-26.7-4-40.1-5.8c1.3,0.2-1.9-0.4-2.2-0.4c-1.7-0.3-3.4-0.6-5.1-0.9
				c-3.6-0.7-7.3-1.4-10.8-2.5c-5.6-1.7-12.5-4.6-11.7-11.6c1.2-10.7,8.8-21.1,16.2-28.5c8-8,18.6-15,30-16.5c3.2-0.4,6-2.4,6-6
				C758.7,1516.4,755.9,1512.9,752.7,1513.3L752.7,1513.3z"/>
		
	
	
		
			<path d="M826.7,1499.3c-0.6,18.8,6.1,35.1,12.9,52.2c7.6,19.2,13.6,39.1,15.1,59.8c0.5,7.7,12.5,7.7,12,0
				c-1.5-20.5-6.8-40.4-14.2-59.5c-6.7-17.3-14.4-33.5-13.8-52.5C838.9,1491.6,826.9,1491.6,826.7,1499.3L826.7,1499.3z"/>
		
	
	
		
			<path d="M817.8,1534.3c14.3-25.3,45.4-33.5,67.1-50.8c6-4.8-2.5-13.2-8.5-8.5c-23,18.3-53.7,26.2-68.9,53.2
				C803.7,1535,814,1541.1,817.8,1534.3L817.8,1534.3z"/>
		
	
	
		
			<path d="M907.5,1382.3c7.7,17.1,13.7,34.8,20.7,52.2c5.3,13.2,12.4,27.4,26,33.6c2.7,1.2,6.8,1,8.2-2.2c7.6-17.3,9.2-36.1,9-54.8
				c-0.1-8.9-0.3-17.8-2.8-26.4c-2.4-8.4-6.1-16.6-6-25.5c0.1-7.7-11.9-7.7-12,0c-0.2,8.1,2.3,15.6,4.7,23.3
				c2.7,8.5,3.8,16.3,4,25.2c0.4,17.5-0.2,35.9-7.3,52.2c2.7-0.7,5.5-1.4,8.2-2.2c-12.4-5.6-18-19.4-22.4-31.4
				c-6.3-16.9-12.6-33.7-20-50.1C914.7,1369.2,904.3,1375.3,907.5,1382.3L907.5,1382.3z"/>
		
	
	
		
			<path d="M1026.7,1455.3c-0.5-19.5-10.4-37.1-18.2-54.5c-2.8-6.3-5.9-12.4-8.7-18.6c-2.4-5.4-6.3-13.1-4-19.1
				c-3.3,0.9-6.7,1.8-10,2.6c1.9,1.6,2.2,2.6,3.9,5.3c2.1,3.4,4.1,6.9,6.1,10.4c4.9,8.7,9.7,17.4,15,25.8
				c4.4,6.8,9.3,14.8,16.3,19.2c2.8,1.7,6.2,2.8,9.5,2c7.5-1.8,6.6-12.6,7.4-18.7c2.5-20.7,2.8-41.6,2.7-62.5c0-7.7-12-7.7-12,0
				c0,24.5-0.4,49.1-4.3,73.4c0.9-1.2,1.8-2.4,2.8-3.6c1.3-0.6,2.1,0.1,0.9-0.5c1.5,0.7-1.8-1.2-1.1-0.7c-2.3-1.7-4.2-4.1-5.9-6.3
				c-4.7-6-8.6-12.7-12.5-19.3c-3.9-6.7-7.6-13.5-11.5-20.2c-2.5-4.3-5.1-9.6-8.9-12.9c-3.6-3.1-8.4-1.7-10,2.6
				c-5.1,13.4,6.2,29.7,11.5,41.4c7.7,16.8,18.6,35.1,19.1,54C1014.9,1463,1026.9,1463,1026.7,1455.3L1026.7,1455.3z"/>
		
	
	
		
			<path d="M1130.7,1383.3c0,29.5,0,59,0,88.6c0,13.4,0.2,26.8-0.2,40.2c-0.3,9.7-0.9,19.8,5.5,27.9c3.6,4.6,9.7,0.2,10.2-4.2
				c1.2-11.1-3.7-20.4-6.8-30.7c-3.4-11.2-6.7-22.5-10.3-33.7c-3.4-10.8-7.6-21.4-11.3-32.2c-3.3-9.7-5.9-19.6-8.9-29.3
				c-1.2-3.9-6.7-18.1,1.8-16.5c3.3,0.6,6.3,2.4,9.6,3.1c3.7,0.9,7.4,1.2,11,2.3c13.3,4.1,15.9,19.6,18.1,31.7
				c1.4,8.2,1.5,17.6-7.9,20.5c-8.4,2.6-17.3,1.6-25.1,6.3c-5.4,3.3-2.7,10.6,3,11.2c14.5,1.4,29,2.8,43.1,6.5
				c14.1,3.6,27.1,9.7,39.3,17.6c6.5,4.2,12.5-6.2,6.1-10.4c-13-8.4-27.1-14.9-42.1-18.8c-15.1-3.9-30.8-5.4-46.3-6.9
				c1,3.7,2,7.5,3,11.2c7.5-4.5,17.1-2.8,25.1-6.1c9.4-3.8,14.1-12.3,14.5-22.1c0.4-9.3-2.3-19.1-5-27.9
				c-2.4-7.7-6.1-14.9-12.8-19.7c-6.7-4.7-14.3-5-21.9-7.2c-9-2.6-19.1-6.9-25.6,2.9c-5.4,8.1-1.5,18.7,1.1,27.1
				c3.6,12,7.1,23.9,11.2,35.7c5,14.2,9.8,28.4,14.3,42.9c2.3,7.5,4.3,15,6.8,22.5c2.3,7.2,5,12.2,4.2,20c3.4-1.4,6.8-2.8,10.2-4.2
				c-2.4-3-2.2-8.2-2.2-11.8c0-4.7,0.3-9.4,0.3-14.1c0.1-13.1,0.1-26.3,0.1-39.4c0-27.6,0-55.2,0-82.8
				C1142.7,1375.6,1130.7,1375.6,1130.7,1383.3L1130.7,1383.3z"/>
		
	
	
		
			<path d="M1218.7,1455.3c-0.8-17.5-7.8-32.9-14.6-48.8c-3.7-8.5-7-17.2-8.1-26.5c-1-9-1.9-18-3.1-27c-0.5-3.9-1.5-10.6,1-14
				c2.9-3.9,10.7-0.4,14,1.1c14.3,6.6,27.2,20.6,32,35.7c3.2,10.2,2.5,20.5,2.8,31c0.2,10.1,2.4,20,4.2,30
				c1.4,7.6,12.9,4.4,11.6-3.2c-1.8-10.1-3.9-20.1-3.8-30.4c0.1-10.5-0.1-21.2-3.4-31.2c-5.7-17.1-19.3-32.9-35.3-41.2
				c-12.2-6.4-30.3-9.1-34.6,7.8c-1.7,6.8-0.6,14,0.5,20.8c1.7,10.7,1.5,21.7,4.1,32.3c5.4,21.9,19.7,40.4,20.7,63.5
				C1207,1463,1219,1463,1218.7,1455.3L1218.7,1455.3z"/>
		
	
	
		
			<path d="M1199.7,1416.5c15.6-7.3,25.2-21.2,37.2-32.9c5.5-5.4-3-13.9-8.5-8.5c-11.2,11-20.2,24.2-34.8,31.1
				C1186.7,1409.4,1192.7,1419.7,1199.7,1416.5L1199.7,1416.5z"/>
		
	
	
		
			<path d="M1301.6,1322.1c-23,11.1-22.9,45.7-15.2,66.3c5.2,13.9,14.2,27,25.8,36.4c2.9,2.3,5.9,4.5,9.1,6.4
				c3.1,1.9,7.9,5.1,11.7,5.1c5.7,0,10.9-7.5,13.2-11.9c6.6-12.4,7.6-27.3,8.5-41.1c0.5-7.7-11.5-7.7-12,0
				c-0.5,7.6-1.1,15.3-2.7,22.8c-1.5,6.8-3.7,15.2-10,19.1c1.5-0.2,3.1-0.4,4.6-0.6c-19.1-8-34.2-27-38.8-47.1
				c-3.3-14.4-3.7-37.4,12-45C1314.6,1329.1,1308.6,1318.8,1301.6,1322.1L1301.6,1322.1z"/>
		
	
	
		
			<path d="M1396.7,1305.3c-8.7-0.8-18,1.1-26.4,3.4c-9.7,2.6-19.9,6.5-27.4,13.4c-7.5,6.8-9.6,16.3-5.2,25.4
				c6.2,12.6,19.7,18.5,29.7,27.5c4.4,4,7.8,9.2,13,12.1c6.8,3.8,13.1,1.3,17.4-4.8c4.5-6.3-5.9-12.3-10.4-6.1
				c-0.9,1.3-1.7,0.1-3.2-1.1c-2-1.7-3.7-3.7-5.4-5.6c-4.2-4.6-9.4-8.1-14.5-11.8c-6.3-4.6-21.1-14.5-16.3-23.4
				c4.1-7.5,15.1-11.1,22.7-13.4c8.2-2.4,17.1-4.4,25.7-3.7C1404.4,1318,1404.3,1306,1396.7,1305.3L1396.7,1305.3z"/>
		
	
	
		
			<path d="M1450.7,1307.3c-0.4,9.9-7.1,18.5-11.4,27c-3.7,7.3-5.9,14.6-6.3,22.8c-0.7,14.1,4.1,31,18.9,35.9
				c29.8,9.8,27.9-37.7,25.1-54.8c-1.3-8-2.7-16.3-5.4-24c-1.4-3.9-3.1-7.2-6.1-10.1c-3.8-3.6-8.6-5.7-12.6-9
				c-5.9-4.9-14.5,3.6-8.5,8.5c4.9,4,12.7,6.8,15.3,12.9c2.3,5.3,3.3,11.4,4.4,17.1c1.8,9.3,2.9,18.4,2.5,27.9
				c-0.2,5.8-0.6,21.6-9,20.7c-11.8-1.3-13.2-17.6-12.5-26.6c1.4-17.6,16.9-30.2,17.6-48.1C1463,1299.6,1451,1299.6,1450.7,1307.3
				L1450.7,1307.3z"/>
		
	
	
		
			<path d="M1460.4,1259.5c9.9,10.4,14.4,25,22.5,36.7c5.9,8.6,13.3,20.5,24.3,22.8c2.9,0.6,6.8,0.6,9.1-1.6
				c2.6-2.5,3.6-7.8,4.4-11.2c1.8-7.9,1.8-15.9,1.7-24c-0.1-7.8-0.1-15.4,1.3-23.2c0.9-4.9,1.3-12.1,5.2-15.5
				c5.8-5.1-2.7-13.5-8.5-8.5c-7.7,6.7-8.8,21-9.8,30.5c-1.4,14.8,2.2,30.4-3.8,44.6c1.2-0.9,2.4-1.8,3.6-2.8
				c-3.7,0.7-8.5-5.7-10.5-8.1c-3.1-3.7-5.8-7.8-8.5-11.8c-8-11.9-12.4-25.9-22.5-36.4C1463.6,1245.5,1455.1,1254,1460.4,1259.5
				L1460.4,1259.5z"/>
		
	
	
		
			<path d="M1582.7,1359.3c0-21.6,1.4-43.1,0.7-64.7c-0.3-9.3-0.8-18.8-2.6-27.9c-0.2-1.1-0.4-2.3-0.7-3.4c-0.1-0.5,0.3-1.9,0-1.2
				c-0.4,0.8,1.3-0.5,2.4-0.8c1.6-0.5,3.1-0.7,4.8-0.6c4.4,0.1,12.7,2.2,12.3,8.1c-0.2,3.3-5,5.7-7.5,7.5c-4.3,3-8.5,6.1-10.7,11
				c-2.7,5.9-1.6,12.3,3.3,16.7c4.9,4.4,12.5,6.5,17.8,8.9c9,4.1,18.9,7.8,26.2,14.7c5.6,5.3,14.1-3.1,8.5-8.5
				c-7.2-6.9-16.2-10.9-25.2-15c-5.9-2.7-13.6-4.6-18.8-8.6c-1.4-1.1-1.7-0.9-1.1-2.9c0.6-2.1,3-3.7,4.7-4.9
				c4.5-3.3,9.7-6.1,12.7-11c9.1-15.3-8.8-28-22.6-27.9c-6.6,0-15.4,2.5-17.9,9.4c-2.2,6.4,1.1,14.9,1.7,21.4
				c2.5,26.5,0.3,53.2,0.2,79.8C1570.7,1367,1582.7,1367,1582.7,1359.3L1582.7,1359.3z"/>
		
	
	
		
			<path d="M1668.7,1253.3c-12.8,1.3-27.1,6.2-34.8,17.1c-7.4,10.5-3,23.6,3.1,33.5c5.8,9.4,13.6,17.7,21,26
				c7.2,8.2,18.5,17.6,29.4,9.8c5-3.6,8.8-9,12-14.2c3-5,6.2-10.7,7-16.6c1-7.6-10.5-10.8-11.6-3.2c-0.7,4.7-3.1,9.1-5.5,13.1
				c-2.2,3.6-5.4,9.7-9.5,11.5c-4,1.8-8.9-4-11.2-6.5c-3.5-3.7-6.6-7.6-10-11.4c-6.8-7.6-16-17.6-16.7-28.3
				c-0.8-12.4,17-17.9,26.7-18.9C1676.3,1264.5,1676.4,1252.5,1668.7,1253.3L1668.7,1253.3z"/>
		
	
	
		
			<path d="M1719.5,1242.3c8.8,17.3,21.6,36.6,19.2,57c-0.9,7.7,11.1,7.6,12,0c2.6-22.4-11.1-43.9-20.8-63
				C1726.4,1229.4,1716,1235.4,1719.5,1242.3L1719.5,1242.3z"/>
		
	
	
		
			<path d="M1720.7,1197.3c-2.7,0-5.3,0-8,0c-3.1,0-6.1,2.8-6,6c0.1,3.3,2.6,6,6,6c2.7,0,5.3,0,8,0c3.1,0,6.1-2.8,6-6
				C1726.5,1200,1724,1197.3,1720.7,1197.3L1720.7,1197.3z"/>
		
	</g>

<g id="noclick">
	
		<path class="st3" d="M1833.2,524.8c-6.2,16.7-38.7,29.4-53.1,36.1c-46.2,21.6-101.6,27.8-151.8,32.4
			c-112.3,10.1-224.7,3.6-337.1,9.8c-154.3,8.6-320.4,27.3-470.5-18.7c-54.1-16.6-106.4-41.8-149.2-79.3
			c-9.4-8.2-38.8-36.6-29.4-52.5c37-7.8,75.7,8,112.5,13.5c28.9,4.3,60.1,12,89.3,10.1c-13-16.1-32.4-25.5-50.4-35.2
			c-13.1-7-24.9-12.9-28-28.3c35.8-18.6,81.6-19.5,121.1-25.4c19.6-2.7,39.1-6.1,58.5-10.2c14.3,0.6,22.4-5.1,24.3-17.2
			c-24.2-27.3-55.2-48.8-84.2-71.1c-7.2-5.5-42.4-23.5-41-33.8c18,5.2,35.6,11.7,53.6,16.9c36.3,10.6,75.7,13,113.4,13
			c21,0,115.4,1.6,87.7-43.5c-10.7-17.4-31.3-30-48.3-40c-21-12.3-43.7-22.3-65.6-32.9c-23.8-11.5-47.9-22.2-71.6-33.9
			c-8.4-4.1-23.7-9.2-28.4-18.2c29.5-13.6,67.2-8.2,98.8-7.4c44,1,87.9,3.4,131.8,6.5c-28.2-13.1-64.2-11.1-94.3-19.5
			c10.7-9.4,52.2-10.7,59.7-11.4c37.6-3.4,75.1-3.5,112.8-4.2c62.5-1.2,124.7-3.5,187.2-3.5c59.8,0,119-4,178.8-4
			c46.7,0,95.1-3.3,141.6,0.9c37.4,3.4,74.4,1.8,111.9,3c9.7,0.3,32.9-15.1,35.7-5.2c8.3,29.7,3.8,65.5,3.8,95.7
			c0,16.5,0.4,33.1,0.3,49.6c-0.1,17.8-3.9,31-8.4,47.9c-4.9,18.5-8.2,38.7-8,57.9c0.4,31.9-1.5,66.6,11.2,96.2
			c8.3,19.3-2.2,65-2.6,86"/>
	
	
		
			<path d="M1240.2,150.8c-7.3-7-16.1-12.3-25.4-16.3c-9.1-3.9-19.4-7-29.4-5.4c-9.2,1.5-16.7,7.4-22.6,14.3
				c-6.5,7.4-12.4,15.5-18.5,23.3c-14.9,19-24.3,39.9-30.4,63.2c-6,23.4-8.5,47.6-9.4,71.7c-1.8,49.6,3.3,99.3-1.5,148.8
				c-2.5,25.6-8.7,50.7-11.5,76.2c-0.7,6.4-1.2,12.7-1.4,19.1c-0.2,5.7-1.1,11.8-0.7,17.5c0.7,9.9,9,15.8,17.2,20
				c19.3,9.8,43.5,15.8,63.5,4.1c10.7-6.3,16.3-16.5,21.7-27.1c2.8-5.6,6.2-10.5,10-15.4c3.8-4.9,6.8-9.9,8-16
				c1.4-7.5-10.2-10.8-11.6-3.2c-1.8,9.6-10,16.3-14.6,24.5c-4.7,8.4-8,18.1-15.8,24.3c-14.6,11.8-34.6,7.5-50.3,0.7
				c-6.7-2.9-16.4-6.5-16.2-14.9c0.3-11.2,0.9-22.5,2.1-33.6c2.5-23.2,8-46,10.7-69.2c5.3-44.9,1.7-90.2,1.9-135.3
				c0.1-22.2,1-44.6,4.7-66.6c3.5-21.3,9.1-43.4,19.8-62.3c5.6-9.9,12.7-18.7,19.9-27.5c5.7-7.1,10.8-15.6,18.3-21
				c8.1-5.8,17.5-4.1,26.4-1.1c9.6,3.3,19.1,8.6,26.5,15.7C1237.3,164.6,1245.8,156.1,1240.2,150.8L1240.2,150.8z"/>
		
	
	
		
			<path d="M1278.8,132c-10.7,22.5-17.5,46.5-22.4,70.9c-5.1,25.2-8.6,50.8-10.8,76.4c-4.9,55.9-3.6,112.1-3.6,168.1
				c0,31.9-0.1,63.7-0.1,95.6c0,7.7,12,7.7,12,0c0-55.7-0.1-111.4,0-167.1c0.1-53.5,2.6-106.8,12.1-159.5
				c4.8-26.8,11.3-53.7,23.1-78.4C1292.5,131.1,1282.1,125,1278.8,132L1278.8,132z"/>
		
	
	
		
			<path d="M1330,567c-0.6-57.2,1.6-114.5,9.2-171.2c3.8-28.2,9-56.3,15.9-84c6.9-27.8,17.6-54.6,22.8-82.8c3-16,4.8-32.3,6.9-48.4
				c2-16.2,6.7-31.8,8.9-48c0.5-3.2-0.8-6.4-4.2-7.4c-2.8-0.8-6.9,1-7.4,4.2c-2.1,14.8-6.4,29.1-8.5,43.9c-2,14.4-3.4,28.8-5.7,43.1
				c-4.6,28.5-14.8,55.3-22.1,83.1c-14.7,55.7-22.4,113.2-25.8,170.7c-1.9,32.2-2.5,64.5-2.1,96.7
				C1318.1,574.7,1330.1,574.7,1330,567L1330,567z"/>
		
	
	
		
			<path d="M1239.8,343.2c9.8,9.5,26.1,7.7,38.5,6.7c17.9-1.5,35.8-1,53.8-1c7.7,0,7.7-12,0-12c-16.6,0-33.4-0.7-50,0.7
				c-6.5,0.5-13,1.2-19.5,1c-4.7-0.1-10.7-0.4-14.2-3.9C1242.7,329.4,1234.2,337.9,1239.8,343.2L1239.8,343.2z"/>
		
	
	
		
			<path d="M1430,167c-1.7,29.6-9.3,58.6-12.2,88.1c-1.4,14.4-2.6,28.9-3.3,43.4c-0.7,14.6-0.4,29.2-0.8,43.8
				c-0.6,27.4-2.7,55,0,82.3c2.6,27.2,10.5,54.2,20.5,79.5c3.7,9.3,7.4,20.3,17.1,24.8c7.3,3.4,15.4,1.1,21.9-3.1
				c13.9-8.8,24.5-23.7,33.5-37.2c6.8-10.2,11.4-21.8,15.8-33.2c5-12.7,10.2-25.3,14.7-38.3c4.6-13.4,8.3-27,10.2-41
				c1.9-13.9,2.1-28,2.6-42c0.6-16.4,2.1-32.8,4-49.1c2-16.2,4.9-32.3,6.6-48.6c3.3-32.4,1.3-65,1.3-97.5c0-7.7-12-7.7-12,0
				c0,27.4,1.4,54.9-0.1,82.3c-1.5,27.5-7.1,54.6-9.7,82.1c-2.6,27.4-0.7,55.5-6.4,82.5c-5.2,25.1-15.7,49-25.2,72.7
				c-6.9,17.1-16.9,32.6-29.3,46.3c-4.7,5.1-10.4,11.2-17.2,13.3c-8.4,2.6-12.2-7.1-14.8-13.4c-9.4-23.5-17.5-48.5-20.8-73.7
				c-3.4-26.1-1.8-52.5-1-78.7c1-30.9,0.9-61.5,3.8-92.3c1.5-15.7,3.7-31.1,6.4-46.6c2.7-15.4,5.4-30.8,6.3-46.5
				C1442.4,159.3,1430.4,159.3,1430,167L1430,167z"/>
		
	
	
		
			<path d="M1646,531c0-29.2,0.9-58.4,2-87.6c1.1-29.1,1.7-58.2,3.1-87.3c0.7-14.3,1.6-28.7,3.5-42.9c1.8-14,5.5-27.6,8.4-41.4
				c2.8-13.7,4.1-27.5,5.4-41.4c0.6-6.6,1.2-13.3,2.6-19.8c1.4-6.3,2.9-12.5,3.3-19c0.6-8.5,1.3-17,1-25.5c-0.2-7.4-0.7-18.2-7-23.3
				c-6-4.8-14.5,3.6-8.5,8.5c4.1,3.3,3.6,13.2,3.6,18.3c0,7.1-0.6,14.2-1.1,21.3c-0.4,5.9-1.9,11.5-3.1,17.3
				c-1.4,6.7-2,13.5-2.7,20.2c-1.3,13.5-2.4,26.8-5.2,40.1c-2.8,13.7-6.4,27.2-8.3,41.1c-1.9,13.5-3,27-3.7,40.6
				c-1.5,28.1-2,56.2-3,84.4c-1.2,32.1-2.3,64.3-2.3,96.4C1634,538.7,1646,538.7,1646,531L1646,531z"/>
		
	
	
		
			<path d="M1580,149c15.6-0.1,31.6-1.4,47,1.8c13.6,2.8,26.6,5.8,40.6,6.1c14.6,0.3,29.3-0.8,43.8,0.2c9.4,0.6,22.1,2.4,28.9-5.9
				c4.8-5.9-3.6-14.5-8.5-8.5c-4.9,6-17.8,2.4-24.5,2.2c-14.9-0.3-29.9,0.6-44.8-0.2c-13.3-0.7-25.6-4.8-38.7-6.6
				c-14.5-2.1-29.1-1.2-43.7-1.2C1572.3,137,1572.3,149,1580,149L1580,149z"/>
		
	
</g>
</svg>
