<?xml version="1.0" encoding="utf-8"?>
<!-- Generator: Adobe Illustrator 19.0.0, SVG Export Plug-In . SVG Version: 6.00 Build 0)  -->
<svg version="1.1" xmlns="http://www.w3.org/2000/svg" xmlns:xlink="http://www.w3.org/1999/xlink" x="0px" y="0px"
	 viewBox="0 0 10800 2332" style="enable-background:new 0 0 10800 2332;" xml:space="preserve">
<style type="text/css">
	.st0{fill:#6812D8;}
	.st1{fill:none;stroke:#FFFFFF;stroke-width:12;stroke-miterlimit:10;}
</style>
<g id="viens">
	<path class="st0" d="M8024,1975c250.2,78.7,610.2-53.9,835.7-155.8c276.2-124.8,618.1-370.3,760-644.5
		c56.4-108.9,105.9-235.5,56.3-354.9c-67.4-162.3-264.5-262.7-428.8-292.9c-438.1-80.5-902.1,88.8-1341.5,45.8
		c73.2-66,190.4-74.1,272-134.1c-30.3-28.9-104.9-15.5-146-15.8c-119.5-1-238.9-1.7-358.3,5.1c-117.8,6.8-357.6-10.2-456.5,67.1
		c95.6,103.8,260.2,169.3,382.2,237.3c106.4,59.3,219.9,125.3,336.7,161.6c-20.2-62.2-92.8-79.6-107.2-142.1
		c171.3-60.9,422.1-16.7,604.1-17c173-0.3,309.7,38.1,470.8,96c219.4,78.8,497.2,193.1,356.2,472
		c-180.1,356.2-559.5,487.4-915.7,582c-74.8,19.9-148.7,45.4-225.8,50c-43.3,2.6-175.7,29.4-54.2,56"/>
		<path class="st0" d="M6760,703c-124.2,1.2-260.3,53.6-290.2,185.8c-32.1,142.4,43.4,307-29.6,438.5
			c-90.7,163.2-310.6,174.2-472.8,175.6c-102.9,0.9-206.9-5.1-309.7-0.4c-97.4,4.5-162.3,6.2-53.7-63.7
			c-47.3-17.5-241.9,2.2-234.1,78.2c4.8,46.7,176,129,213.3,141.8c-13.8-35.8-44.2-61.7-55.1-99.8c132.9,66.4,278.8,64,425.9,64
			c179.8,0,349.2,2.1,485.7-127.9c101.6-96.8,150-176.4,136.2-320.4c-13.4-139-48-197.8,110.3-261.9
			c99.9-40.5,372.6-59.5,390.9-199.6c-37.5,13.9-138.2,33-170.9,12.8c25.8-62.8,109.4-88.8,111-160.5
			C6894.7,608,6755.9,679.7,6640,743"/>
</g>

<g id="noclick">
	<path class="st1" d="M3344,319c-2.7,83.5-0.7,164.5,0,248"/>
	<path class="st1" d="M3288,319c46.9-22.9,123-41.2,150.8,15.8c27,55.6-16.1,74.4-58.2,41.2c239.2,13.4,22.5,184.9-52.6,111"/>
	<path class="st1" d="M3536,319c-0.4,72.2,24.4,144.4,32,216"/>
	<path class="st1" d="M3552,239c0-8,0-16,0-24"/>
	<path class="st1" d="M3672,287c-8.3,63.4-48.3,240.8,64,144"/>
	<path class="st1" d="M3680,335c23.2-9.2,48.4-17.6,72-24"/>
	<path class="st1" d="M3672,255c37.6-25.1,91-18.6,136-24"/>
	<path class="st1" d="M3944,215c0,113,17.8,241.3-8,352"/>
	<path class="st1" d="M3928,263c48.4,55.7,98.6,120.3,127.8,187.5c31.9-62,34.5-155.9,32.2-227.5"/>
	<path class="st1" d="M3448,687c72.7,30.2,66.3,176.7,20.4,223.7c-57.1,58.5-133.9,44.6-148.4-39.7"/>
	<path class="st1" d="M3360,727c53.5-41.1,101.3-59.8,168-64"/>
	<path class="st1" d="M3656,687c0,38.6-19.5,225.9,71,177.9c99.9-53-42.8-154.8-79-177.9"/>
	<path class="st1" d="M3768,687c49,47.5,43.5,138.3,98,183c36.2-36.9,39.7-135.6,38-191"/>
	<path class="st1" d="M4048,671c0.5,40-28.8,151.4-8.8,182.5c30.6,47.5,73.5-7.2,88.8-46.5"/>
	<path class="st1" d="M3992,727c37.3-16.5,79.7-19.3,120-16"/>
	<path class="st1" d="M4040,671c28.5-14.8,59.4-26.7,88-40"/>
	<path class="st1" d="M4144,591c35.7-25.3,77.9-44.2,104-80"/>
	<path class="st1" d="M4356,647c-18.2,41.3-13.3,92.3-28,136"/>
	<path class="st1" d="M4312,859c0-5.3,0-10.7,0-16"/>
	<path class="st1" d="M3256,1231c-5.3-21.3-26-70.4-4.1-88.4c28.2-23.1,56.5,20.9,21.8,39.9c18-1.6,36.6,4.1,50.2,16.3
		c-5.3,23.4-31.8,24.2-52,28.2"/>
	<path class="st1" d="M3372,1135c-47,0.1,16.7,81.4,53.2,68.3c-1.4-24.1-32.1-96.7-65.2-64.3"/>
	<path class="st1" d="M3468,1171c-21.3-6.3-34.7-37.8-32.5-58.9c23.4,11,40.9,32.8,63.7,45.3c11.5-15.1,9.9-35.6,8.7-54.5"/>
	<path class="st1" d="M3572,1195c16.4-20,28.3-43.3,48.4-59.9c14.4,9.9,22.9,40.6,31.6,55.9"/>
	<path class="st1" d="M3578,1169c25.9,0.1,54.6-1.8,80-6"/>
	<path class="st1" d="M3698,1131c0.1,18.7,13.3,96.5,40,46"/>
	<path class="st1" d="M3776,1137c0,10.4-7.2,46.3,2,54c13.4,11.4,58.4-22.7,62.7-35.8c8.3-25.4-30.1-40.1-46.7-20.2"/>
	<path class="st1" d="M3890,1117c0,26.7,0,53.3,0,80"/>
	<path class="st1" d="M3880,1121c11.6-6.7,61.3-1.7,62.5,16c1,15.8-52.5,16.6-66.5,23.9c23.1,16.1,53.6,19.8,78,36.1"/>
	<path class="st1" d="M4032,1143c-8.1-14.8-32.4-34.4-41.8-11.9c-12,28.8,35.7,37.8,51.3,46.1c-12.9,11.1-35.8,26.4-53.5,27.8"/>
	<path class="st1" d="M4232,1101c-0.5,32.5,6.3,65.3,6,98"/>
	<path class="st1" d="M4178,1133c28.5-8.2,56.9-22,84-34"/>
	<path class="st1" d="M4294,1119c-30.1,21,4,70.3,24.7,58c29.8-17.7-23.2-97.9-36.7-54"/>
	<path class="st1" d="M4350,1103c15.3,27.8,4.9,74.9,27.7,97.6c33.1-9.9,30.4-70,38.3-95.6"/>
	<path class="st1" d="M4456,1093c-1.5,30,6.6,63.6,16,92"/>
	<path class="st1" d="M4422,1115c22.8-5.6,46.2-11.7,70-12"/>
	<path class="st1" d="M4500,1101c12.5,22.6,9,57.6,21.7,75.7c10.5-9.4,19.1-22.8,28.3-33.7"/>
	<path class="st1" d="M4500,1129c12.1-8.2,25.2-11.5,38-18"/>
	<path class="st1" d="M4508,1107c4.5-16.9,34.6-22.7,48-36"/>
	<path class="st1" d="M3312,1367c10.2-20.4,14-46.1,28.3-63.8c17.1,22.5,19.4,56.6,23.7,83.8"/>
	<path class="st1" d="M3322,1353c12.3-5.8,28.4-6.4,42-6"/>
	<path class="st1" d="M3360,1301c-2-12.7-14.3-25.3-24-34"/>
	<path class="st1" d="M3454,1327c10,18.3-1.1,92.1,11.5,100c11.4,7.2,30-10.2,38.5-18"/>
	<path class="st1" d="M3496,1347c2.9-12.7,3.6-25.7,8-38"/>
	<path class="st1" d="M3538,1311c6.7,34.5,7.9,69.7,16,104"/>
	<path class="st1" d="M3566,1315c3.6,27.2,15.1,54.7,16,82"/>
	<path class="st1" d="M3534,1377c15.1-6.4,30.6-12.4,44-22"/>
	<path class="st1" d="M3622,1315c-0.5,32.6,2.9,65.5,4.4,97.9c16.4-4.3,33.7-17.8,47.6-27.9"/>
	<path class="st1" d="M3630,1347c6.8-3.9,14.3-6.5,22-8"/>
	<path class="st1" d="M3626,1321c14.4-3.8,27.9-9.5,42-14"/>
	<path class="st1" d="M3720,1307c0,14.9-8.1,55,9.7,58c25.1,4.3,38.1-45.1,34.3-62"/>
	<path class="st1" d="M3804,1383c1.9-24.2,12.4-54.9,24.1-75.9c15,5.3,43.9,25.6,50.7,39.7c-15.3,6.4-31.4,3-47.1,4.8
		c9.1,21.4,41,20.6,56.3,37.4"/>
	<path class="st1" d="M3912,1321c8.2,19.4,8.7,51.3,24.4,65.8c13.6-5.9,22.9-20,35.6-27.8"/>
	<path class="st1" d="M3926,1345c12.9-3,27.2-5.9,38-14"/>
	<path class="st1" d="M3912,1323c17.3-2.9,35.1-10.8,52-16"/>
	<path class="st1" d="M4198,1337c-12,0-38-5.9-46,6.1c-7.3,11.1,3,29.4,12,35.9c33.1,23.7,31.6-26.5,25.9-46"/>
	<path class="st1" d="M4236,1383c1.2-25.8-10.3-51-8.5-75.9c19.7,15.6,28.5,44.8,48.1,57.8c13.8-10.6,13.1-39.1,12.4-55.8"/>
	<path class="st1" d="M4406,1297c7.8,23.3,3.3,49.7,4.1,74c13.8,2.9,32.1-6,43.9-14"/>
	<path class="st1" d="M4424,1337c9.5-7.5,20.7-13.7,32-18"/>
	<path class="st1" d="M4422,1297c17-17.6,60.5-9.9,84-16"/>
	<path class="st1" d="M4422,1265c9.4-2.5,17.6-7.5,26-12"/>
	<path class="st1" d="M4518,1355c12.1-25.2,15-66.1-16.8-72.1c16.1,1.2,33.2-6.7,48.8-9.9"/>
	<path class="st1" d="M4570,1365c13.8-26.5,16.3-54.3,25.8-81.6c15.3,17.9,18.9,52.9,26.2,75.6"/>
	<path class="st1" d="M4572,1339c15.2,0,32,2.8,46-4"/>
	<path class="st1" d="M4638,1301c12.6,23.1,10,53.3,20,78"/>
	<path class="st1" d="M4654,1257"/>
	<path class="st1" d="M4710,1293c5.2,17.8,13,33.4,16,52"/>
	<path class="st1" d="M4684,1295c26.4-5.4,53.2-11.3,80-14"/>
	<path class="st1" d="M3328,1533c2.5,30.7-8.6,64.2-16,94"/>
	<path class="st1" d="M3326,1545c17.7-8.5,47.4,24.7,50.6,40.6c4.5,22.2-22.5,38.5-40.6,47.4"/>
	<path class="st1" d="M3422,1651c-8.4-34.5-22.4-83.5-3.9-117c32.1,6.3,41.6,72.5,49.9,99"/>
	<path class="st1" d="M3420,1615c7.4-10.8,24.3-17.4,36-24"/>
	<path class="st1" d="M3506,1619c-7.2-26.1-32.8-76.3-17.8-102.7c20.7,4.8,38.5,69.7,51.8,89.9c8.3-28.2,11.2-63.7,10-93.3"/>
	<path class="st1" d="M3670,1533c-11.4-2.9-21-9.4-29.6-0.9c-16.1,15.7-1.4,48.5,8.7,61c9.7,11.9,18.4,8.8,2.8,24
		c-12.3,12-35.4,15.4-51.9,18"/>
	<path class="st1" d="M3832,1505c0,29.9-4.5,65,0.8,93.7c16.4-4.6,27.6-20.1,39.2-31.7"/>
	<path class="st1" d="M3884,1585c7.5-27.9,8.9-56.6,12.9-84.7c28.8,11.6,40.5,82.5,29.1,110.7"/>
	<path class="st1" d="M3890,1555c12.8-2.5,25.2-7.2,38-10"/>
	<path class="st1" d="M4112,1545c-8.6-6.2-27.3-24.3-38.2-15.9c-13.8,10.7-7.3,59.6,6.4,70.2c14.8,11.4,27.8-1.3,27.8,18.7
		c-0.1,21.4-31.1,36.8-48,40.9"/>
	<path class="st1" d="M4150,1521c7.5,23.3-1.5,50.3,3.9,74.6c17.9,3.5,42.4-18.9,56.1-28.6"/>
	<path class="st1" d="M4150,1555c18.5-10.2,37.6-19.6,56-30"/>
	<path class="st1" d="M4142,1517c15.9-7.3,31.3-14.7,48-20"/>
	<path class="st1" d="M4236,1515c-0.1,27.4,7.7,58.6,3.2,85.1c-2.2-0.1-4-1.2-5.2-3.1"/>
	<path class="st1" d="M4232,1535c12-11.8,24.6-19,34.2-6.1c20.8,27.7-11.4,47.9-33,52.5c18.9,5.4,31.6,18.1,46.7,29.6"/>
	<path class="st1" d="M4314,1487c-0.7,32.9,2.1,86.3,2,108"/>
	<path class="st1" d="M4314,1515c8.7-12.1,32.8-27.9,45.9-14.9c23.8,23.3-6.7,42.9-26.1,47.2c33.3,7.4,47.2,25.6,64.2,51.7"/>
	<path class="st1" d="M4416,1505c1,21.4,5.5,45.9,15.2,65c12.3-9.7,20.4-19.7,34.8-27"/>
	<path class="st1" d="M4428,1531c11-6.9,23.5-10.7,34-18"/>
	<path class="st1" d="M4410,1495c23.5-8.4,50.2-7.8,74-16"/>
	<path class="st1" d="M4596,1501c-0.5,26.7-0.2,54.9,2.4,81.4c23.7-7.3,44.8-18.9,69.6-23.4"/>
	<path class="st1" d="M4616,1541c17.3-12.9,41.5-15.8,60-28"/>
	<path class="st1" d="M4616,1495c13,0,27.6,2.1,40-2"/>
	<path class="st1" d="M4740,1499c0.9,32-6.9,63.9-6,96"/>
	<path class="st1" d="M4696,1499c14.8-15.1,56-8,78-8"/>
	<path class="st1" d="M3300,1745c1.7,17.6-9.5,81.3,0.9,92.3c14.5,15.4,47.9-20.7,57.1-32.3"/>
	<path class="st1" d="M3378,1847c-0.2-17.4-23.5-105.9,11.8-110.9c28.6-4.1,32.8,77.7,30.2,96.9"/>
	<path class="st1" d="M3390,1813c19.4,0.6,44.7,1.8,60-12"/>
	<path class="st1" d="M3556,1775c-11.7,19.1-40.4,136.6,10.2,110.1c19.6-10.3,31.9-47,21.9-66.5c-6.3-12.2-20.2-18.4-30.1-27.6"/>
	<path class="st1" d="M3628,1877c1.1-33.4-5.7-67.1-6.7-100.5c15,20.4,18.4,56.9,38.6,71.6c18.6-23.4,18.3-50.1,26.1-77.1"/>
	<path class="st1" d="M3800,1781c9,17.7,21.2,41,34.1,55.6c8.4-26.9,5.8-59.4,5.9-87.6"/>
	<path class="st1" d="M3870,1837c-0.7-33.6,7.8-66.1,16.7-98.3c24.4,1.2,24.2,73,23.3,94.3"/>
	<path class="st1" d="M3866,1807c15.6-3.8,31-13.6,48-14"/>
	<path class="st1" d="M4024,1759c16.3,31.6,29.8,66.9,49.6,96.2c25.7-32.2,5.4-91.8,18.4-130.2"/>
	<path class="st1" d="M4158,1737c-40.9,10.2-12.2,63.9,6.4,80.3c32.8-10.1,19.9-92.9-20.4-88.3"/>
	<path class="st1" d="M4200,1741c8.2,26.6,3.4,56.6,8,84"/>
	<path class="st1" d="M4196,1689"/>
	<path class="st1" d="M4242,1729c6.4,27.1,5.8,55.4,12,82"/>
	<path class="st1" d="M4238,1717c10.1-1.6,53.1,13.1,55.2,25.2c2.7,15.4-29,29.2-41,31.1c23.1,16.8,51.9,25.8,75.9,41.8"/>
	<path class="st1" d="M4522,1737c-36-15.5-49.2,10.4-15.1,31.8c41.5,26.1-2.5,24.1-30.9,30.2"/>
	<path class="st1" d="M4556,1731c0,24,0,48,0,72"/>
	<path class="st1" d="M4552,1705"/>
	<path class="st1" d="M4646,1705c10.7,12,12,30,20.3,43.3c9.5-10,13.4-24.4,21.4-35.7c3.4,37.5-0.6,75.3-5.8,112.4"/>
	<path class="st1" d="M4726,1717c6.9-12.1,14.1-23.4,20-36"/>
	<path class="st1" d="M4760,1771c11.1-23.7,23.1-52.9,38-73.8c14.7,19.8,10,68.3,10,91.8"/>
	<path class="st1" d="M4770,1749c16.4-5.4,34.9-7.3,52-8"/>
	<path class="st1" d="M3294,1981c7.8,26.1,2,58.7,2,86"/>
	<path class="st1" d="M3284,2011c15.7-13.5,51.6-37.5,46.7,4.3c-2.1,18.2-21.3,23.9-36.7,31.7"/>
	<path class="st1" d="M3366,2009c-6.5,17.9-1.5,49.8,0.4,69.7c12.2-0.1,23.6-7.3,35.6-9.7"/>
	<path class="st1" d="M3356,2043c11.7-7.8,25.7-11.3,38-18"/>
	<path class="st1" d="M3348,2015c16.8-11.4,43.5-23.5,64-24"/>
	<path class="st1" d="M3552,1991c-0.1,31.5-4.5,64-1.6,95.2c22.3-14.2,50.2-20.8,71.6-35.2"/>
	<path class="st1" d="M3628,2015c6.3-12.6,13.7-24.6,22-36"/>
	<path class="st1" d="M3668,2093c7.2-32.3,19.9-73.2,40-99.7c14.9,18.8,17.5,60,26,83.7"/>
	<path class="st1" d="M3692,2061c8.3-6.9,19.3-9.5,30-10"/>
	<path class="st1" d="M3790,2091c5.1-13.9,10.2-26.6,9.9-42c-0.2-15.1-8.6-29.3-7.4-43.8c12.1,16.1,17.4,35.7,27.8,52.6
		c12.6-7.2,14.2-29.6,23.7-41.8c10.1,20.2,11.3,45.5,18,67"/>
	<path class="st1" d="M3894,2007c0.6-4.3,3.3-9.8,4.9-14c14.3,9.5,9.3,49.4,13.2,67.5c0.3-16.7,0.4-33.2-2.4-49.7
		c-1.3-7.6-9.6-23.1-5.4-30.1c3.7-6.2,25.8-11.3,31.7-7.7c16.3,9.9-0.1,32.9-15.9,34.7c3.4,8.7,20.2,12.4,21.6,23.2
		c2.2,16.3-19.5,18.8-31.7,20"/>
	<path class="st1" d="M4006,1987c-7.2,23.8-2.8,52.9-6,78"/>
	<path class="st1" d="M3996,1965"/>
	<path class="st1" d="M4038,2075c5.8-26.8,13.9-62.1,30.5-83.3c10.9,23.3,9.2,51.1,17.5,75.3"/>
	<path class="st1" d="M4038,2035c11.5,0,22.6-2.6,34-4"/>
	<path class="st1" d="M4100,2049c5.4-16.8,15.6-31.8,20.9-49.1c4.4-14.6,4.1-30.9,9.3-44.7c16.8,14.6,26.7,41.9,32.6,63.4
		c12.9-21.8,18.6-51.4,27.3-75.6"/>
	<path class="st1" d="M4266,2001c-30.4-2.2-52.2,49-50,74c24.8,2.8,47.5-29.5,64-46"/>
	<path class="st1" d="M4304,1973c-0.3,22.6-5.2,72.9,7.7,90c12.7-4.2,25.8-7.3,38.3-12"/>
	<path class="st1" d="M4308,2027c10.5-6.1,22.6-9.9,34-14"/>
	<path class="st1" d="M4288,1981c19.1-7.3,39.1-4.6,58-10"/>
	<path class="st1" d="M4586,1947c-19.2-1-43.9,11.7-43.9,33.1c0,32.3,34.6,33.4,54.1,43.6c-13.2,20.4-53.4,29.9-76.2,37.4"/>
	<path class="st1" d="M4636,1953c-10.9,20.1-5.5,56.7,5.9,75.9c20.9-14.4,29.8-49.2,32.1-73.9"/>
	<path class="st1" d="M4696,2021c5.6-27,8.2-60.8,17.9-86.1c17,7,41.3,23.5,51.5,38.5c-20.7,19.7-37.7-1.3-55.7,7.7
		c34,28.8,100.6,19.2,142.3,29.8"/>
	<path class="st1" d="M5052,1931c-0.7,22.9,3.1,45.7,4.4,68.3c23.1,8.1,51.5,3.7,75.6,3.7"/>
	<path class="st1" d="M5108,1949c7.2,33.4,9,71.7,18.9,103.6c14.8-4.3,30.6-10.3,43.1-19.6"/>
	<path class="st1" d="M5130,2007c13.7-7.8,28.6-13.4,42-22"/>
	<path class="st1" d="M5112,1957c19.6-6.6,40.5-7.4,60-14"/>
	<path class="st1" d="M5516,2017c-8.2,23.4-8,55.1-8,80"/>
	<path class="st1" d="M5512,2025c17.7-4.1,54.7-18.3,56.5,13.7c1.5,28.4-48.6,14.1-66.5,8.3"/>
	<path class="st1" d="M5670,2005c0,23.1-12.4,62.9-4.6,82.5c17.9-1.7,34.1-11.8,50.6-18.5"/>
	<path class="st1" d="M5722,2081c26-18.4,19.5-49.6,32.7-70.8c22,29.4,14.6,88.2,53.3,106.8"/>
	<path class="st1" d="M5746,2061c10.2-0.6,20.1-3.8,30-6"/>
	<path class="st1" d="M5888,2001c0,20,0,40,0,60"/>
	<path class="st1" d="M5830,2005c30.5-2.3,61.4-6.7,92-10"/>
	<path class="st1" d="M5952,1997c1.2,19.2,2.5,47.2,14.4,62.1c19-11.1,32.6-26.8,53.6-36.1"/>
	<path class="st1" d="M5960,2009c15.1-8.3,32.7-9.9,48-18"/>
	<path class="st1" d="M5936,1999c26.1-6.2,48.1-23,72-34"/>
	<path class="st1" d="M6054,2003c-1,19.8,4.6,43,10,62"/>
	<path class="st1" d="M6062,1975c14.3,30.3,38.3,54.8,54,84"/>
	<path class="st1" d="M6062,2011c3.7,12.9,13.1,46,30,28"/>
	<path class="st1" d="M6128,1963c7.7,24.2,6.2,52.1,20.3,73.9c21.6-11.5,28-50,35.7-71.9"/>
	<path class="st1" d="M6358,1963c4.2,27,8.4,57.9,16,84"/>
	<path class="st1" d="M6354,1961c19.4,0.6,88.3,34,85.5,55.5c-2.3,17.3-55.7,25.9-69.5,30.5"/>
	<path class="st1" d="M6550,1949c3.1,12.6,8.4,24.4,10.9,37.1c1.3,6.5-0.5,26.1,4.7,30.9c10.3,9.5,45.5-4.9,58.4-8"/>
	<path class="st1" d="M6564,1997c13.2-7.3,28.3-8.1,42-14"/>
	<path class="st1" d="M6562,1963c30.1-9.4,64.4-18.7,96-18"/>
	<path class="st1" d="M6698,1941c-13.5,1.5-21.1,15.2-24.3,27.5c-6.5,24.7,6.1,25.4,21.2,40.7c21.7,22-3.3,41.1-18.8,63.8"/>
	<path class="st1" d="M6804,1947c-1.1,30.6,6.3,61.3,6,92"/>
	<path class="st1" d="M6788,1905"/>
	<path class="st1" d="M6914,1909c-16.1,13.5-41.8,20.8-51.6,40.7c-9.2,18.5-2.9,44.1,18.8,48.5c41.2,8.3,47.6-68.3,20.9-53.2"/>
	<path class="st1" d="M6972,2003c4.9-25.3,2.3-52.2,8.7-77.2c10.2,15.3,11.6,35.9,21.6,50.6c20.1-8.5,42.7-50.9,49.7-71.4"/>
	<path class="st1" d="M9433.6,965.4c-3.8,25.8-40.3,116.9-23.2,138.5c26.1,32.8,91.2-34.5,101.2-60.5"/>
	<path class="st1" d="M9439.6,881.4c-41.5,21.1-56.9,47.8-84,84"/>
	<path class="st1" d="M9475.5,797.4c5,4.9,7,10.9,6,18"/>
	<path class="st1" d="M9391.6,761.4c-34.9,39.4-53.5,93.5-89.9,130.4c-19.9-17.3-41.2-33.6-60.1-52.5"/>
	<path class="st1" d="M9355.6,839.4c-18.5-25.2-43.5-44.6-66-66"/>
	<path class="st1" d="M9391.6,767.4c-24.7-25.5-58.4-44.3-90-60"/>
	<path class="st1" d="M9187.6,773.4c6.3-28.9,53.5-129.3,17-139.1c-21.9-5.8-80.5,54.9-97.1,69.2c-1.7-30.9,2.6-63,14-92.1"/>
	<path class="st1" d="M8935.7,593.5c13.5-14.1,66.1-34.5,77.8-6.9c15.3,36.1-49.9,53.1-66.4,69.8c-66.2,67.1,24.7,55.4,72.6,27"/>
	<path class="st1" d="M6692.1,773.4c-28.6,14.5-31.4,42.7-0.9,57.3c15.5-22.9,8.3-42.2-17.1-51.3"/>
	<path class="st1" d="M6572.1,815.4c-4,29.8,35.4,50.8,25.3,71.1c-13.7,27.7-54.3,20.1-67.3,0.9"/>
	<path class="st1" d="M6518.1,971.4c12,0,24,0,36,0"/>
	<path class="st1" d="M6494.1,971.4"/>
	<path class="st1" d="M6462,1435c-4.6-9.4-14.5-21.4-26.2-24c-7.9,23.2,8.6,38.9-23.8,31.6c-31.9-7.1-21.5,4.3-16,32.4"/>
	<path class="st1" d="M6326,1485c-5.8,16.4,31.3,18.5,42.5,17.4c2.1-22.1-37.1-39.7-52.5-21.4"/>
	<path class="st1" d="M6302,1535c-10.4-9.3-22.6-48.6-40.1-35.8c-14.9,10.9-6.4,49.2-18.2,63.9c-17.7-5.7-20.2-31.1-25.7-46.2"/>
	<path class="st1" d="M6146,1535c6.4,11.6,5.7,26.9,8,40"/>
	<path class="st1" d="M6112,1541c19.9-5.8,44,1.3,64-6"/>
	<path class="st1" d="M6064,1535c-14.7,7.2-32.1,18-38.4,34c22.9,24.9,52.1-15.8,28.4-28"/>
	<path class="st1" d="M5974,1579c4.2-7.7-1.6-33.2-12.2-35.1c-14.3-2.6-24.9,37.6-34.4,47c-9.5-8.5-21.5-25.1-23.5-37.9"/>
	<path class="st1" d="M5834,1537c10.1-1.2,41.3-6.4,38.2,14.5c-1.5,10.2-37.1,20.3-45.7,27.6c11.6,8.5,25.5,8.1,39.5,7.9"/>
</g>
</svg>
