<?xml version="1.0" encoding="utf-8"?>
<!-- Generator: Adobe Illustrator 19.0.0, SVG Export Plug-In . SVG Version: 6.00 Build 0)  -->
<svg version="1.1" xmlns="http://www.w3.org/2000/svg" xmlns:xlink="http://www.w3.org/1999/xlink" x="0px" y="0px"
viewBox="0 0 10800 2332" style="enable-background:new 0 0 10800 2332;" xml:space="preserve">
<style type="text/css">
.st0{fill:#FFFFFF;}
.st1{fill:none;stroke:#FFFFFF;stroke-width:30;stroke-miterlimit:10;}
</style>
<g id="noclick">
<path class="st0" d="M3410.7,563.4C3409.5,564.1,3411.5,563.1,3410.7,563.4c-0.6,0.2,1.3,0,0.2-0.1c0.8,0.1,0.8,0.3,0.1-0.1
c-0.7-0.4,1.3,0.7,0,0c-0.7-0.4-0.1-0.1,0.2,0.2c-0.1-0.2-0.7-1-0.4-0.3c0.3,0.4,0.3,0.4,0-0.1c0.1,0.2,0.2,0.4,0.3,0.7
c-0.1-1.2,0,1.3,0-0.1c-0.3,1-0.5,2-0.8,3c0.4-0.6,0.1-0.1-0.2,0.2c0.7-1-0.6,0.4,0,0c0.7-0.4-1,0.5-0.3,0.1
c0.7-0.4,0.6-0.1-0.1-0.1c0.1,0,0.8-0.1,0.9,0c0-0.1-1.3-0.4-0.1,0.1c0.8,0.3-1-0.5-0.3-0.1c0.7,0.4-1.2-0.8-0.1,0
c-0.3-0.2-0.7-0.8-0.2-0.1c-0.2-0.3-0.3-1-0.2-0.2c-0.3-1.5,0-0.5-0.1-0.1c-0.1,0.8,0.1-1.2,0.1-0.3c-0.1,0.8-0.3,0.6,0.1,0
c-0.1,0.2-0.3,0.5-0.4,0.7c0.1-0.2,0.3-0.4,0.4-0.5c-0.4,0.4-0.4,0.4,0,0.1c0.7-0.5-0.4,0.1-0.5,0.2c-2.8,1.3-3.8,5.6-2.2,8.2
c1.9,2.9,5.2,3.6,8.2,2.2c5.1-2.4,7.4-9,5.8-14.2c-1.8-6-8.4-9-14.3-7.4c-2.7,0.8-5.4,2.6-6.8,5.1c-1.7,2.9-0.9,6.7,0.9,9.4
c3.5,5.1,10.3,7.1,15.8,4c2.7-1.5,3.9-5.5,2.2-8.2C3417.2,562.8,3413.7,561.7,3410.7,563.4L3410.7,563.4z"/>

<path class="st0" d="M3448.4,573c-0.3,0.1-0.6,0.2-0.8,0.2c0.9-0.1,1-0.1,0.3-0.1c-0.1,0-0.3,0-0.4,0c-0.7-0.1-0.6,0,0.3,0
c-0.2,0-0.4-0.1-0.6-0.2c-0.4-0.1-0.3-0.1,0.4,0.2c-0.3-0.1-0.5-0.3-0.8-0.4c0.6,0.5,0.7,0.6,0.2,0.1c0.6,1.4,1.2,2.8,1.8,4.2
c-0.2,1.1-0.2,1.3-0.1,0.7c-0.1,0.6-0.5,1.2-0.9,1.6c0.4-0.4,0.3-0.3-0.5,0.3c0.4-0.2,0.4-0.2-0.1,0c-0.5,0.2-0.6,0.2-0.1,0.1
c-1.1,0.1-1.3,0.1-0.7,0.1c-1.1-0.2-1.3-0.2-0.7-0.1c-0.6-0.2-1.1-0.5-1.6-0.9c2.4,2.1,6.2,2.5,8.5,0c2.1-2.3,2.5-6.3,0-8.5
c-2.5-2.2-5.8-3.1-9.1-2.1c-2.9,0.9-5.6,3.2-6.4,6.3c-2.2,8.2,8.2,12,14.6,9.9c3-1,5.2-4.2,4.2-7.4
C3454.8,574.2,3451.6,572,3448.4,573L3448.4,573z"/>

<path class="st0" d="M4318,619.3c-0.1-0.2-0.3-1.8-0.2-0.8c0-0.4,0-0.8,0-1.2c-0.1,0.5-0.1,0.5,0,0.1c0-0.3,0.5-1.6,0.3-1.3
c-0.3,0.7,1-1.6,0.3-0.7c-2.8,0-5.7,0-8.5,0c-0.3-0.5-0.4-0.6-0.2-0.3c0.2,0.4,0.2,0.3-0.1-0.3c0-0.2,0-0.4,0-0.6
c0,0.6,0,0.7,0.1,0.2c0.1-0.4,0.1-0.4,0-0.1c-0.1,0.4-0.1,0.3,0.2-0.3c-0.7,1,0.8-0.6-0.3,0.3c-2.5,2.1-2.1,6.3,0,8.5
c2.5,2.5,6,2.1,8.5,0c4.8-4,4.5-11.5,0.4-15.8c-2-2.1-6.5-2.5-8.5,0c-3.5,4.5-5.1,9.9-3.4,15.6c0.9,3,4.3,5.2,7.4,4.2
C4316.8,625.7,4318.9,622.6,4318,619.3L4318,619.3z"/>

<path class="st0" d="M4336,635.3c-0.3-1-0.4-1.8,0.1-2.9c0.4-0.9,1.2-1.4,2.4-1.9c-1.5,0.2-3.1,0.4-4.6,0.6
c-0.7-0.2-0.8-0.7-1.1-1.2c-0.2-0.3-0.2,0.8,0.1,0.1c-0.1,0.4-0.4,0.7-0.1,0.3c-1.1,1.1-2.9,2-4.5,2.6c-3,1.2-5.1,4-4.2,7.4
c0.8,2.9,4.3,5.4,7.4,4.2c4.5-1.8,9.4-3.9,11.8-8.4c2.4-4.5,1.9-10.4-1.7-14.1c-4.5-4.4-10.5-2.4-14.1,2c-3.3,4-4.6,9.5-3,14.5
C4326.8,645.9,4338.3,642.7,4336,635.3L4336,635.3z"/>

<path class="st0" d="M4505.3,631.3c0,0,0.4,0,0.2,0.1c-0.2,0.3-0.2,0.1,0.1-0.6c-0.6,0.9-0.6,1,0.1,0.2c-3.1-0.4-6.3-0.8-9.4-1.2
	c2.4,3.2,2.6,6.7,0.4,10.1c-4.2,6.5,6.2,12.5,10.4,6.1c4.3-6.7,4.3-15.8-0.4-22.3c-2.3-3.2-6.4-4.1-9.4-1.2
	c-5.9,5.5-4.4,14.8,1.9,19.2c2.7,1.9,6.7,0.5,8.2-2.2C4509.2,636.6,4508,633.2,4505.3,631.3L4505.3,631.3z"/>

	<path class="st0" d="M4535.7,636.7c0.3,0.1,0.3,0.3,0.5,0.4c-0.2-0.1-0.7-0.6-0.2-0.2c-0.3-0.3-0.2-0.8-0.1-0.2
		c0.2,0.9,0.2-0.5,0,0c0,0.1-0.2,0.6-0.2,0.7c0,0.3,0.4-0.4,0.2-0.2c-0.5,0.3-0.2,0.2-0.2,0.1c0.4-0.1,0.4-0.1,0.1-0.1
		c-0.4,0-0.3,0.1,0.4,0.1c-1.7-1-3.5-2-5.2-3c-0.3-0.5,0.5-1.6-0.3-0.5c-1.8,2.7-0.5,6.7,2.2,8.2c3,1.7,6.4,0.5,8.2-2.2
		c2.5-3.6,2.6-9.6-0.7-12.9c-3.5-3.5-9.8-1.5-12.9,1.5c-6.6,6.4-3.3,16.8,5,19.7c3.1,1,6.6-1.2,7.4-4.2
		C4540.8,640.8,4538.8,637.8,4535.7,636.7L4535.7,636.7z"/>
		
		
		
		
		<path class="st0" d="M4404.9,839.3c-0.4,0.2-0.8,0.4-1.3,0.7c0,0-1,0.4-0.6,0.2c-0.4,0.2-0.9,0.3-1.4,0.4c0.3-0.1,0.4,0.2,0.2,0
			c-0.4-0.4,0.3,0.2,0.5,0.3c0.2,0.1,0.7,0.9,0.4,0.4c-0.3-0.5,0.2,0.5,0.2,0.7c0.1,0.5-0.8,2.7-0.2,1.7c1.9-2.7,0.5-6.7-2.2-8.2
			c-3-1.7-6.3-0.5-8.2,2.2c-3.1,4.4-0.8,10.7,3.5,13.3c4.9,3,10.3,1.2,15-1.2c2.9-1.5,3.7-5.5,2.2-8.2
			C4411.4,838.6,4407.8,837.8,4404.9,839.3L4404.9,839.3z"/>
			
			
			
			
			<path class="st0" d="M4378.3,844.7c0.3,0.4,0.2,0.3-0.2-0.3c0.1,0.5,0.1,0.4-0.1-0.3c-0.5-1,0,0.3-0.2-0.9
				c-0.2-1.4-0.2,0.5,0.1-0.9c0.1-0.3,0.4-1,0.1-0.7c-1.9,0.5-3.9,1-5.8,1.5c-0.4-0.1-0.3-0.2-0.5-0.6c0.2-1.5,0.4-3.1,0.6-4.6
				c-0.4,0.6-1.6,1-2.3,1c-7.7,0.2-7.7,12.2,0,12c4.8-0.1,9.6-2.3,12.3-6.4c3.7-5.5-2-11.1-6.9-13c-1.8-0.7-4.7,0-5.8,1.5
				c-4.8,6.2-4.9,14,0.2,20.1c2.1,2.5,6.3,2.2,8.5,0C4380.7,850.8,4380.4,847.2,4378.3,844.7L4378.3,844.7z"/>
				
				
				
				
				<path class="st0" d="M4588,675c-2.5-0.1-5-0.2-7.5-0.4c1,3.7,2,7.5,3,11.2c1.9-1,3.8-2.1,5.8-3.1c2.8-1.5,3.9-5.5,2.2-8.2
					c-1.8-2.8-5.3-3.8-8.2-2.2c-1.9,1-3.8,2.1-5.8,3.1c-2.2,1.2-3.6,4.3-2.8,6.8c0.8,2.6,3,4.3,5.8,4.4c2.5,0.1,5,0.2,7.5,0.4
					c3.1,0.2,6.1-2.9,6-6C4593.8,677.6,4591.4,675.2,4588,675L4588,675z"/>
					
					
					
					
					<path class="st0" d="M4620.1,680.9c-2-2-4.1-3.9-6.1-5.9c-2.3-2.2-6.3-2.4-8.5,0c-2.2,2.4-2.4,6.2,0,8.5c2,2,4.1,3.9,6.1,5.9
						c2.3,2.2,6.3,2.4,8.5,0C4622.2,687,4622.5,683.3,4620.1,680.9L4620.1,680.9z"/>
						
						
						
						
						<path class="st0" d="M4705.2,584.1c0.7-1.3,1.3-2.7,2-4c0.7-1.5,1-3,0.6-4.6c-0.4-1.4-1.5-2.9-2.8-3.6c-1.4-0.7-3.1-1.1-4.6-0.6
							c-1.4,0.5-2.9,1.4-3.6,2.8c-0.7,1.3-1.3,2.7-2,4c-0.7,1.5-1,3-0.6,4.6c0.4,1.4,1.5,2.9,2.8,3.6c1.4,0.7,3.1,1.1,4.6,0.6
							C4703.1,586.3,4704.5,585.4,4705.2,584.1L4705.2,584.1z"/>
							
							
							
							
							<path class="st0" d="M4735.6,577.3c-5.8-0.9-11.7,0-16.5,3.5c3,1.7,6,3.5,9,5.2c0-0.3,0.1-1-0.1-0.3c0,0.1-1.1,1.1,0.3-0.3
								c5.4-5.5-3-14-8.5-8.5c-2.4,2.5-3.8,5.7-3.7,9.1c0.1,4.1,5.2,8.1,9,5.2c2.3-1.7,4.9-2.7,7.2-2.3c3.2,0.5,6.5-0.8,7.4-4.2
								C4740.6,581.8,4738.8,577.8,4735.6,577.3L4735.6,577.3z"/>
								
								
								
								
								<path class="st0" d="M5084,632.6c0.7-2.2,1.4-4.4,2.1-6.6c0.8-2.4-0.5-5.6-2.8-6.8c-2.2-1.2-5.5-1.1-7.3,0.9
									c-2.2,2.6-2.8,6-1,9.1c1.7,2.7,5.3,4.5,8.5,3.4c2.9-1.1,5.2-4.1,4.2-7.4c-0.9-2.9-4.2-5.4-7.4-4.2c1.6-0.6,3.8,0.4,4.7,1.7
									c1.3,1.8,1.3,3.9-0.5,6c-3.3-1.9-6.7-3.9-10-5.8c-0.7,2.2-1.4,4.4-2.1,6.6c-0.9,3,1.1,6.7,4.2,7.4
									C5079.9,637.6,5083,635.9,5084,632.6L5084,632.6z"/>
									
									
									
									
									<path class="st0" d="M5100.8,624.5c0.7,0.4,0.5,0.2,0.9,0.6c0.4,0.5,0.1,0,0-0.1c-0.2-0.2-0.1,0.9,0.1,0.2
										c3.3-0.9,6.7-1.8,10-2.6c0.7,1.4,0.9,1.6,0.6,0.7c0.1,0.3,0.1,0.6,0,1c0-1,0.1,0-0.6,0.5c-0.7,0.5-1.7-0.1-0.8,0.4
										c-0.6-0.3-0.9-0.4-1.2-1.1c0.2-1.5,0.4-3.1,0.6-4.6c-1.4,2.4-3.3,4.7-5.5,6.4c-2.6,2-3.9,5.2-2.2,8.2c1.5,2.5,5.6,4.1,8.2,2.2
										c3.7-2.8,7.1-6,9.4-10.1c3-5.2-1-10.9-6.2-12.6c-4.6-1.4-9.7,0.3-12.2,4.5c-2.6,4.4-1.7,9.2,1.3,13c2.7,3.5,9.2,1.5,10-2.6
										c1.1-5.6-1.1-11.6-6.5-14.2c-2.9-1.4-6.5-0.8-8.2,2.2C5097.1,619,5097.9,623.1,5100.8,624.5L5100.8,624.5z"/>
										
										
										
										
										<path class="st0" d="M5490.4,705.4c4.2-3.4,6.4-8.5,6.7-13.8c0.3-5-6.9-8.1-10.2-4.2c-2.2,2.5-3.2,3.2-6.5,3.8
											c-3.1,0.6-5.1,4.4-4.2,7.4c1.1,3.3,4.1,4.9,7.4,4.2c4.5-0.9,8.8-3.4,11.8-6.9c-3.4-1.4-6.8-2.8-10.2-4.2c-0.1,0.7-0.1,0.8,0,0.1
											c-0.1,0.4-0.2,0.8-0.3,1.1c-0.1,0.4-0.2,0.7-0.4,1.1c0.2-0.5,0.2-0.5-0.1,0.2c-0.2,0.3-0.4,0.7-0.6,1c0.4-0.4,0.3-0.4-0.1,0.2
											c-0.5,0.6-1.1,1.1-1.7,1.6c-2.5,2-2.2,6.5,0,8.5C5484.5,707.8,5487.7,707.5,5490.4,705.4L5490.4,705.4z"/>
											
											
											
											
											<path class="st0" d="M5526,701c-1.1-0.1-2.6-0.6-3.7-1.4c-1-0.8-2-2.1-2.4-3.2c-0.2,1.5-0.4,3.1-0.6,4.6
												c-1.1,2.3-3.1,0.9-4.3-0.1c-1.3-0.3-1.9-1-1.7-2.1c-0.1-0.8,0.1-1.5,0.6-2.1c-2.4,2.2-2.2,6.3,0,8.5c2.4,2.4,6.1,2.2,8.5,0
												c4.1-3.7,3.5-10.7-1.2-13.7c-4.4-2.8-10.7-0.7-12.6,4.1c-1.7,4.4,2,9.7,5.3,12.5c3.5,3,7.5,4.6,12.1,4.8c3.2,0.2,6-2.9,6-6
												C5532,703.6,5529.3,701.2,5526,701L5526,701z"/>
												<path class="st0" d="M5998.2,727.2c1.6-1.7,3.3-3.5,4.9-5.2c1.8-1.9,2.4-5,0.9-7.3c-1.5-2.3-4.1-3.4-6.8-2.8
													c-1.6,0.4-3.3,0.8-4.9,1.2c-3,0.8-5.2,4.3-4.2,7.4c1,3.1,4.1,5,7.4,4.2c1.6-0.4,3.3-0.8,4.9-1.2c-1.9-3.3-3.9-6.7-5.8-10
													c-1.6,1.7-3.3,3.5-4.9,5.2c-2.2,2.3-2.4,6.2,0,8.5C5992.1,729.4,5995.9,729.7,5998.2,727.2L5998.2,727.2z"/>
													
													
													
													
													<path class="st0" d="M6036,696.9c-4.7,0.5-8.5,2-12.2,5c1.9-0.5,3.9-1,5.8-1.5c-1-0.2,0,0,0,0.1c-0.5-0.3-0.6-0.3-0.2-0.1
														c0.3,0.2,0.3,0.2,0,0c-0.1-0.1-0.9-0.8-0.4-0.4c0.4,0.4-0.3-0.8,0.1,0.3c-0.1-0.3-0.2-0.6-0.3-1c0.2,0.7,0,0.6,0-0.1
														c0-0.8-0.3,0.9,0,0.2c0.3-0.6-0.5,0.7-0.5,0.8c0.4-0.6,0.4-0.2-0.1,0c-0.5,0.2-0.8,0.3-1.3,0.4c1.4-0.3-0.8,0,0,0
														c0.6,0-0.6-0.4-0.1,0c0.6,0.4-0.7-0.7,0.1,0.1c0.5,0.5,0.1,0.3-0.1-0.1c-0.1-0.2-0.1-0.4-0.2-0.6c0.1,0.5,0.2,0.6,0.1,0
														c0-0.6-0.1-1.1,0.2-1.7c-1.5,2.9-0.7,6.5,2.2,8.2c2.7,1.6,6.7,0.7,8.2-2.2c6.2-11.8-12.7-22.2-19.2-10.4
														c-2.7,4.8-1.3,11,2.5,14.9c2.1,2.2,5.7,4.1,8.9,3.3c2.5-0.7,4.2-2.9,6.3-3.1c3.2-0.3,6-2.5,6-6
														C6042,699.9,6039.2,696.6,6036,696.9L6036,696.9z"/>
														
														
														
														
														<path class="st0" d="M5712,871c7.7,0,7.7-12,0-12C5704.3,859,5704.3,871,5712,871L5712,871z"/>
														
														
														
														
														<path class="st0" d="M5688,871c7.7,0,7.7-12,0-12C5680.3,859,5680.3,871,5688,871L5688,871z"/>
														
														
														
														
														<path class="st0" d="M6415.7,666.9c-2.2-0.4-6-1.4-6.3-4c0,0.2,0-2.1,0.2-1.2c-0.1-0.2-0.3,0.2-0.4,0c-0.1-0.3-1.1,0.8-0.6-1
															c-2.2,7.4,9.4,10.6,11.6,3.2c1.6-5.2-1.3-10.5-6.1-12.9c-5.4-2.6-11.5-0.7-14.7,4.3c-6.5,10.4,2.7,21.2,13,23.2
															C6420,680,6423.3,668.4,6415.7,666.9L6415.7,666.9z"/>
															
															
															
															
															<path class="st0" d="M6452,677.3c-1-3.6-0.3-6.7,1.9-9.7c-3.7-1.5-7.3-3.1-11-4.6c-1,3.4-2.1,6.9-3.1,10.3
																c-2.2,7.4,9.4,10.6,11.6,3.2c1-3.4,2.1-6.9,3.1-10.3c0.9-2.8-0.8-6-3.5-7.1c-2.9-1.2-5.7-0.1-7.5,2.5c-3.9,5.5-4.9,12.5-3.1,19
																C6442.5,687.9,6454.1,684.8,6452,677.3L6452,677.3z"/>
																
																
																
																
																<path class="st0" d="M7166.2,469.2c0.7-0.7,1.3-1.3,2-2c1.1-1.1,1.8-2.7,1.8-4.2c0-1.5-0.7-3.2-1.8-4.2c-1.1-1-2.6-1.8-4.2-1.8
																	c-1.6,0.1-3.1,0.6-4.2,1.8c-0.7,0.7-1.3,1.3-2,2c-1.1,1.1-1.8,2.7-1.8,4.2c0,1.5,0.7,3.2,1.8,4.2c1.1,1,2.6,1.8,4.2,1.8
																	C7163.6,470.9,7165.1,470.4,7166.2,469.2L7166.2,469.2z"/>
																	
																	
																	
																	
																	<path class="st0" d="M7208,473c0-2.7,0-5.3,0-8c0-3.1-2.8-6.1-6-6c-3.3,0.1-6,2.6-6,6c0,2.7,0,5.3,0,8c0,3.1,2.8,6.1,6,6
																		C7205.3,478.9,7208,476.4,7208,473L7208,473z"/>
																		
																		
																		
																		
																		<path class="st0" d="M7588,447c7.7,0,7.7-12,0-12C7580.3,435,7580.3,447,7588,447L7588,447z"/>
																		
																		
																		
																		
																		<path class="st0" d="M7620.2,437.2c2.1-1.7,4.1-3.4,6.2-5.1c-2.4,0.3-4.8,0.6-7.3,0.9c0.4,0.2,0.6,0.4,0.1,0
																			c0.1,0.1,1.1,1.2,0.6,0.6c-0.4-0.5,0.2,0.8,0,0.1c-0.1-0.7,0.2,0.9,0.2,0.8c0.7,3.2,4.4,5,7.4,4.2c3.3-0.9,4.8-4.2,4.2-7.4
																			c-0.8-3.7-3.2-6.8-6.5-8.7c-2.5-1.4-5.2-0.8-7.3,0.9c-2.1,1.7-4.1,3.4-6.2,5.1c-2.5,2.1-2.1,6.3,0,8.5
																			C7614.2,439.7,7617.7,439.3,7620.2,437.2L7620.2,437.2z"/>
																			
																			
																			
																			
																			<path class="st0" d="M7753.2,180.4c5.3-4.1,11.1-7.6,17.4-10c-2.5-2.5-4.9-4.9-7.4-7.4c-0.4,2.9-2.1,5.3-5.2,5.5
																				c-7.7,0.4-7.7,12.4,0,12c8.1-0.4,15.5-6,16.8-14.3c0.6-4-2.6-9.2-7.4-7.4c-7.3,2.8-14.1,6.4-20.3,11.2c-2.6,2-3.9,5.2-2.2,8.2
																				C7746.5,180.8,7750.6,182.4,7753.2,180.4L7753.2,180.4z"/>
																				
																				
																				
																				
																				<path class="st0" d="M7720,186.6c0.5,1.7-0.1-1.1,0.2,0.6c0.1,1,0.2-0.1,0,0.4c-0.1,0.2-0.5,1.4,0,0.4c-0.2,0.5-0.6,1-0.9,1.4
																					c3.7,1.5,7.3,3.1,11,4.6c1.3-3.2,2.5-6.3,3.8-9.5c1.2-2.9-1.3-6.7-4.2-7.4c-3.5-0.8-6.1,1.1-7.4,4.2c-1.3,3.2-2.5,6.3-3.8,9.5
																					c-1.1,2.8,1,6,3.5,7.1c3,1.2,5.7,0,7.5-2.5c2.6-3.4,3.1-8.1,2-12.1c-0.9-3-4.3-5.2-7.4-4.2C7721.2,180.3,7719.1,183.4,7720,186.6
																					L7720,186.6z"/>
																					
																					
																					
																					
																					<path class="st0" d="M2446,25c-0.7,0-1.3,0-2,0c-1.5,0-3.2,0.7-4.2,1.8c-1,1-1.8,2.7-1.8,4.2c0.1,1.6,0.6,3.2,1.8,4.2
																						c1.2,1.1,2.6,1.8,4.2,1.8c0.7,0,1.3,0,2,0c1.5,0,3.2-0.7,4.2-1.8c1-1,1.8-2.7,1.8-4.2c-0.1-1.6-0.6-3.2-1.8-4.2
																						C2449.1,25.7,2447.6,25,2446,25L2446,25z"/>
																						
																						
																						
																						
																						<path class="st0" d="M2476.8,40c-0.7,1.3-1.3,2.7-2,4c-0.7,1.5-1,3-0.6,4.6c0.4,1.4,1.5,2.9,2.8,3.6c2.7,1.4,6.7,0.8,8.2-2.2
																							c0.7-1.3,1.3-2.7,2-4c0.7-1.5,1-3,0.6-4.6c-0.4-1.4-1.5-2.9-2.8-3.6C2482.3,36.4,2478.3,37,2476.8,40L2476.8,40z"/>
																							
																							
																						</g>
																						<g id="noclick">
																							
																							
																							<path class="st0" d="M3830.7,662.5c-0.7-7.7-4.3-17-11.5-20.8c-8.8-4.7-15.3,8.9-18.3,15.1c-1.8,3.6-4.7,8.7-3.7,12.8
																								c1,3.9,5.1,5.9,8.6,7.2c3.2,1.2,8.3,1.4,10.1,4.5c-0.6-1,1-0.4-0.5-0.8c-0.9-0.2-2.5,0.2-3.5,0.3c-2.9,0.2-5.8,0.5-8.7,0.7
																								c-7.6,0.6-7.7,12.6,0,12c8.7-0.7,24.1,0.7,24.7-11.6c0.2-4.8-2.2-8.9-6-11.6c-2.1-1.5-4.5-2.4-7-3.2c-0.9-0.3-6.3-1.2-6.7-2
																								c0.2,1.5,0.4,3.1,0.6,4.6c0.5-3.4,2.4-6.7,4.1-9.7c1.1-1.9,3.4-7.1,5.6-8c-1.5,0.2-3.1,0.4-4.6,0.6c2.9,0.7,4.8,7.6,5,10.1
																								C3819.4,670.1,3831.4,670.2,3830.7,662.5L3830.7,662.5z"/>
																								
																								
																								
																								
																								<path class="st0" d="M3820.2,643c0.1-7.3-0.4-14.4-1.5-21.6c-0.5-3.2-4.5-5-7.4-4.2c-3.4,1-4.7,4.2-4.2,7.4
																									c0.9,6.1,1.2,12.2,1.1,18.4C3808.1,650.7,3820.1,650.7,3820.2,643L3820.2,643z"/>
																									
																									
																									
																									
																									<path class="st0" d="M3805.6,690.1c1.6,7.1,2.8,14.2,3.4,21.4c0.6,7.6,12.7,7.7,12,0c-0.7-8.3-2-16.5-3.9-24.6
																										C3815.4,679.4,3803.8,682.6,3805.6,690.1L3805.6,690.1z"/>
																										
																										
																										
																										
																										<path class="st0" d="M3865.6,659.7c-4.3-6.1-11.7-16-20.4-13.2c-9,2.8-12.4,14.1-10.1,22.3c2.2,7.9,6.5,15.6,15.6,15.7
																											c0.9,0,2.7-0.4,3.4-0.1c-0.2-0.1,0.9,0.6,0.7,0.6c0.1,0.4,0.1,0.8,0.2,1.2c0.2-0.5,0.5-0.9,0.7-1.4c-0.9,0-2.6,0.9-3.5,1.2
																											c-5.3,1.9-10.5,3.7-15.8,5.6c-7.2,2.6-4.1,14.1,3.2,11.6c4.1-1.4,8.2-2.9,12.3-4.3c3.4-1.2,7.4-2,10.4-4
																											c6.2-3.9,5.7-13.4,1.3-18.5c-2.3-2.6-5.3-3.8-8.8-4c-3.8-0.2-4.9,0.9-6.6-2.8c-1.3-2.7-3.9-8.9,0-10.9c0.9-0.5,1.4,0.6,2.8,1.9
																											c1.6,1.6,3,3.3,4.3,5.1C3859.6,672,3870,666.1,3865.6,659.7L3865.6,659.7z"/>
																											
																											
																											
																											
																											<path class="st0" d="M3855.6,649.3c-2.8-7.9-4.8-16-5.8-24.3c-0.9-7.6-12.9-7.7-12,0c1.1,9.4,3,18.5,6.2,27.5
																												C3846.6,659.7,3858.2,656.6,3855.6,649.3L3855.6,649.3z"/>
																												
																												
																												
																												
																												<path class="st0" d="M3842,697.5c2.8,6.8,4.5,13.7,4.9,21c0.4,7.7,12.4,7.7,12,0c-0.5-8.4-2.1-16.5-5.3-24.2
																													c-1.2-3-4-5.1-7.4-4.2C3843.4,690.8,3840.8,694.5,3842,697.5L3842,697.5z"/>
																													
																													
																												</g>
																												<g id="viensg">
																													
																													
																													<path class="st0" d="M7973.6,71.1c-8.1-2.3-17.1,0.1-22.4,6.9c-5.6,7.2-5.7,17.9-0.1,25c5.5,7,15,7.2,21,0.6
																														c7.5-8.3,3.4-18.1,6.3-27.7c-3.9-0.5-7.9-1.1-11.8-1.6c-0.8,10.3-0.5,21.5,7.9,28.8c8.3,7.2,18.2,4.8,26-1.9
																														c7.3-6.3,12.8-15.8,12.4-25.6c-0.4-9.8-6.6-17.6-14.2-23.2c-14.9-11.1-39.3-18.9-53.3-2.3c-6.3,7.5-9.7,17.5-12.5,26.7
																														c-3,9.5-4.1,19.6-1.1,29.3c6.1,19.5,25.4,34.3,46.1,33.4c7.7-0.3,7.7-12.3,0-12c-12.4,0.5-24.1-6.1-30.7-16.5
																														c-7.9-12.5-5-25.2-0.2-38.4c2.1-5.8,4.5-12.5,9.4-16.6c5.6-4.7,13.2-4,19.8-1.9c10.6,3.4,27.5,12.4,24.3,25.9
																														c-1.3,5.4-8.5,17-15.4,15.6c-8.5-1.8-7-15.2-6.5-21.3c0.5-7-9.8-7.8-11.8-1.6c-1.5,4.8-1.3,9.7-1.4,14.7c0,1.8-0.7,10.2-4.3,8.9
																														c-3.5-1.3-2.3-8.3-1-10.5c2.2-3.4,6.5-4.2,10.1-3.2C7977.8,84.8,7981,73.3,7973.6,71.1L7973.6,71.1z"/>
																														
																														
																														
																														
																														<path class="st0" d="M7887.9,89.4c-3.2,13-4.4,31.6,11.6,36.8c12.1,3.9,21.7-7.1,21.6-18.5c-0.1-13.1-12.5-22.9-23.7-27.4
																															c-6-2.4-11.7,2.7-11.2,8.9c0.6,7.9,9.7,10.2,15.8,12.7c6.3,2.6,16.2,9.3,23,5.5c5.8-3.2,7-12.5,7.5-18.4
																															c1.3-13.5-4.5-28-17.2-34.2c-27.3-13.3-48.9,22.1-51.4,44.9c-0.9,8.5,1.5,16.1,6.4,23c2.3,3.2,4.5,6.3,6.1,9.9
																															c1.6,3.5,3,6.9,5.7,9.8c10.1,10.6,26.8,7.6,39.3,3.8c7.4-2.2,4.2-13.8-3.2-11.6c-6.6,2-14.1,4.1-21.1,2.7
																															c-8.1-1.6-8.9-9-12.6-15.1c-2-3.4-4.9-6.3-6.7-9.8c-2.1-4-2.6-8.3-1.9-12.7c1.1-7.7,4.7-15.4,8.8-22c3.5-5.6,8.3-11.5,14.9-13.3
																															c6.8-1.9,13.5,1.8,17.3,7.4c2.4,3.6,3.5,7.8,3.6,12.1c0.1,4.1-1.4,7.8-1.7,11.7c-1.1,1.9-0.7,2.2,1.3,0.8
																															c-1.2-0.4-2.3-0.8-3.4-1.3c-2.4-1-4.8-2-7.2-3c-2.4-1-4.8-2-7.2-3c-1.2-0.5-2.4-1-3.5-1.5c-2.1-1.7-3.1-0.5-3,3.6
																															c-1.5-0.2-3.1-0.4-4.6-0.6c7.3,3.7,21.7,10.5,17.1,21.1c-1.7,3.8-5.2,4-8,1.1c-5-5.3-2.4-14.1-0.9-20.2
																															C7901.3,85.1,7889.7,81.9,7887.9,89.4L7887.9,89.4z"/>
																															
																															
																														</g>
																														<g id="viens">

																															<path d="M5368,2007c-36.4,52.8-84.1,84.2-145.6,103.5c-73.7,23.1-160.6,34.9-238.2,33.5c-23.4-0.4-50.6-0.2-72.9-7.5
																																c-23.1-7.6-39.8-20.4-61.7-31.2c-104.7-51.7-234.8-54.9-348.9-65.7c-168.1-15.8-338.3-11.6-506.5-0.6
																																c-101.6,6.7-204.9,12.9-306.9,12.5c-96.4-0.4-186.2-9.6-279.3-35.3c-119.3-33-238.6-62.1-361.2-80.8c-83-12.7-159.9-8.9-241.4,11
																																c-66.6,16.3-128.1,48-197.5,27.5c-90.7-26.9-175-74.3-265.3-103.4c-87.8-28.3-179.1-61.4-271.4-71c-40.1-4.2-90.5,10.2-128.1-8.4
																																c-38.8-19.2-61.1-70.5-81.4-105.9c-17.7-30.8-56.3-78.9-45.9-117.7c9.1-34.2,65.8-38.1,93.2-40.5
																																c144.8-12.5,289.7-32.1,435.2-32.2c29.8,0,46.9-4.9,70.6,14.8c35.9,29.7,76.4,59.2,122.3,70.4c63.5,15.5,125.2,9.8,189.4,3.5
																																c95.8-9.4,191.8-21.8,288.2-21.7c82.6,0.1,167.1,19.8,249,29.4c130.6,15.2,264.9,25.3,396.4,18.8c81.6-4.1,162.5-16.5,244.1-21.9
																																c58.3-3.9,104.9,7.3,161.2,19.6c57.9,12.7,124.6,12.7,183.6,12.3c81.4-0.5,159.4-25.2,239.9-32.4c83.1-7.5,166.6,16.6,246.8,35.1
																																c101.3,23.4,203.6,41.1,307.4,47.8c96.3,6.2,190.8-2.1,286.2-13.7c40.1-4.9,79.1-13.7,119.2-6.6c72.6,12.9,144.1,55.8,207,92.4
																																c28.7,16.7,47.6,23.9,56.9,56c5.7,19.6,13.7,50.5,8.3,71c-5.4,20.6-23.9,34.4-41.7,45.7c-19.5,12.4-40.4,25.5-60.9,36.1
																																c-25.1,13-55,13.7-82.1,20.5c-32.1,8.1-63.9,17.9-96.1,25.3c-24.9,5.7-61.8,4.4-79.8,25.8"/>
																															</g>
																															<g id="noclick">
																																<path class="st1" d="M1976,1279c16.5,0.2,32.3,8.4,48.3,11.9c30.5,6.8,62,9.6,92.7,15.8c63.7,13,130.5,24.6,195.6,28.6
																																	c33.4,2.1,67.8-0.2,101.2-0.4c39-0.2,75.7,8.8,114.2,8"/>
																																	<path class="st1" d="M2248,1335c-39.8,23.8-72.3,61.4-103.5,95.1c-47.7,51.7-91.7,107.1-137.8,160.3
																																		c-27.2,31.4-57.5,60.4-86.1,90.6c-38.9,41.2-83.6,71.4-128.4,105.5c-51.7,39.3-102.5,82.6-162.5,108.6
																																		c-66.5,28.9-149.1,75.6-223.7,49.4c-69.1-24.3-130.6-65.4-199.6-90.1c-26.4-9.4-60-33.2-89.1-30.2c12.7,9.8,32.8,15.7,47,24.2
																																		c35.4,21.1,75.9,33,112.2,52.8c69.4,37.7,142.2,59.3,219.8,74.2c82.7,15.9,161.3,24.1,245.2,23.4c48.4-0.4,97,1.5,144.7,10.4
																																		c17.4,3.3,32.1,6.3,49.7,5.8"/>
																																		<path class="st1" d="M2600,1343c-54.7,113.8-143.4,215.3-222.4,312.2c-34.3,42-61.6,90.4-99.2,129.6
																																			c-36.8,38.5-75.7,76-110.6,116.2c-14.4,16.6-55,53-31.4,72.2c11.3,2.4,22.3,5.6,33.2,9.6c12.7,5.7,25.6,10.6,38.9,14.6
																																			c15.7,4.5,31.8,7.2,47.4,11.6c40.6,11.5,77.4,14,120,14c23.7,0,48.3-2.3,71.7,1.8c19.4,3.4,36.5,6.8,56.3,6.2"/>
																																			<path class="st1" d="M3064,1375c-55.2-5.3-98.8-40.2-158.2-32.4c-51.8,6.8-98.7,51.1-122,95.6c-15.8,30.3-18,64.6-26,97.3
																																				c-7.9,32.2-12.6,41.4,16.8,59.4c27.2,16.7,52.8,23.3,81.6,35.6c25.7,11,53,28.7,76.1,44.1c48.3,32.3,77.7,111.5,86.6,166.5
																																				c14.7,90.1-94.4,134.7-153.7,175.9c-24.3,16.9-40.8,28-69,37.8c-20.4,7.2-63.3,26.8-84.8,13.4c-18.7-11.7-26.5-56.6-29.8-75.8
																																				c-4.4-25.4-0.3-51.6-17.6-73.6"/>
																																				<path class="st1" d="M3256,1575c24.7-38,28.6-67.8,40-110.7c6-22.7,16.5-67.1,37.5-81.2c50.3-34,99.6,150.3,98.5,191.9"/>
																																				<path class="st1" d="M3288,1495c21.9-3.3,42.3-12.8,64.4-15.4c15.7-1.8,31.8-0.5,47.6-0.6"/>
																																				<path class="st1" d="M3536,1399c0.6,17.1,7.4,32.5,8.4,49.6c1,17-0.4,34.3-0.3,51.3c0.1,17.4,1.6,35-1.8,52.2
																																					c-2.1,10.6-8.2,19.6-6.2,30.8"/>
																																					<path class="st1" d="M3464,1399c32.8-0.7,63.2,8.7,96,8"/>
																																					<path class="st1" d="M3688,1391c-2.7,26.5,8.5,54.1,8.2,81.2c-0.5,39.6-0.2,79.2-0.2,118.8"/>
																																					<path class="st1" d="M3600,1391c53.3,0,106.7,0,160,0"/>
																																					<path class="st1" d="M3824,1391c3.9,34.2,3.9,70.7,9.8,104.4c2,11.3,6,21.5,6.7,33.3c1,17.4-3.3,35.3,0.2,52.6
																																						c14.4,5.9,37.9-13.5,51.7-18.7c25.3-9.4,48.8-12.6,75.7-11.7"/>
																																						<path class="st1" d="M3840,1479c17,2.5,31.3-7.4,48-8"/>
																																						<path class="st1" d="M3816,1399c18.7,0,37.3,0,56,0"/>
																																						<path class="st1" d="M4000,1599c27.4-19.2,27.2-65.5,30.4-95c2.6-24.4-3.1-52,2.7-75.6c18.3-0.1,47.6,73.2,54.3,86.8
																																							c15.5,31.5,25.9,70.3,48.9,97.5c14.7-7.4,19.8-41.6,24-54c5.4-15.8,9.7-32.8,16.5-48c6.1-13.7,17.6-25.8,22.1-40.2
																																							c3.5-11.1-2.5-23.4,9.1-31.4"/>
																																							<path class="st1" d="M4264,1455c0,56.4,8.6,111.8,8,168"/>
																																							<path class="st1" d="M4264,1463c36.7,3.3,70.4,14,104.5,27.9c24.9,10.2,60.7,23.7,56.8,58.5c-2.6,23.4-33.9,38-51.5,49.7
																																								c-25,16.7-47.1,37.3-77.8,39.8"/>
																																								<path class="st1" d="M4512,1503c-16.4,14.5-7.2,52.4-9.9,72c-3,21.7-15.2,64,11,75.4c14.5,6.3,40.9-4.2,55.9-7.5
																																									c18.8-4.1,35.8-3.7,55-3.9"/>
																																									<path class="st1" d="M4536,1567c24,0,48,0,72,0"/>
																																									<path class="st1" d="M4488,1519c53.1-6.4,106.2-25.1,160-24"/>
																																									<path class="st1" d="M4760,1671c-1.2-42.6,9-86.2,18.2-127.8c3-13.8,8.5-54.8,27.5-53.1c22.1,17.8,36.9,60.7,49,85.7
																																										c9.7,20.1,14.8,54.5,39.6,62.1c20.7-7.7,29.7-52.3,33.2-70.5c3.3-17.3,11.4-38.8,8.6-56.4"/>
																																										<path class="st1" d="M5056,1479c15,15.4,8.4,51.8,8.2,71.8c-0.3,23.6,1.8,62.5-16.2,80.2"/>
																																										<path class="st1" d="M4976,1495c45.8,0.5,91.1-20.6,136-16"/>
																																										<path class="st1" d="M3328,1743c-3.7,47.3-27.1,90.8-40.4,136c-13,44.1-11,86.9-16.4,131.7c-1.3,11.1-12.1,32.7-7.1,43.5
																																											c9.2,19.7,31.3,14,48.2,9.7c54.1-13.8,111.5-26.3,167.7-24.9"/>
																																											<path class="st1" d="M3640,1791c0,42.4,0,84.8,0,127.2c0,27.9-4.9,61.3-1.5,88.9c4.2,33.6,32.5,34.2,64.2,33.2
																																												c26.3-0.9,47.7-18.5,73.3-17.3"/>
																																												<path class="st1" d="M3640,1911c17.2-17.8,46-16.2,68.6-20.1c17.6-3,34.2-7.9,51.4-11.9"/>
																																												<path class="st1" d="M3592,1791c39.9,5.3,87.4-12.1,127.2-15.1c40.3-3.1,80.3-9.9,120.8-8.9"/>
																																												<path class="st1" d="M4608,1831c-74.5,78.6-109.7,186.3-184,264"/>
																																												<path class="st1" d="M4576,1847c44.6,0,100.7-11.2,134.4,25.2c18,19.5,31.1,54.7,42.2,78.8c11.8,25.6,12.2,47.6-8.4,68
																																													c-22.6,22.4-51.2,48-80.4,61c-28.2,12.6-61.1,13.9-91.3,15c-28.8,1.1-56.1,8.5-85.1,8.2c-21.1-0.2-42.3-0.2-63.4-0.2"/>
																																													<path class="st1" d="M4984,1815c45,2.9-8.7,111.1-17.6,126.4c-11.6,19.9-29.7,49.1-46.2,65c-13.1,12.6-34.9,11.2-52.4,12
																																														c-28.8,1.4-57.7-0.9-84.5-12.8c-13.9-6.2-47.5-21.6-54.5-38c-18.2-42.5,53.9-65.7,79.3-80.6"/>
																																														<path class="st1" d="M4856,1799c39.9-0.8,78.7,7.5,118.6,8.4c35.2,0.8,70.7-0.4,106-0.4c44.8,0,93.4-0.9,135.4,16"/>
																																														<path class="st1" d="M808,2079c-79.6-46.7-185-51.6-274.3-66.4c-61.2-10.1-122.1-17.2-183.7-24.2c-20.6-2.3-41.2-7.3-62-5.5"/>
																																														<path class="st1" d="M728,1863c-225.5-77.3-459.1-126.6-688-192"/>
																																														<path class="st1" d="M848,1647c-61.2-42-125-73.3-194.5-99.6C554.8,1510,452.3,1483.1,360,1431"/>
																																														<path class="st1" d="M1192,1559c-27.2-41.8-92.3-55.9-136-76.3c-69.8-32.7-142.8-58.4-208-99.7"/>
																																														<path class="st1" d="M1520,1399c-43.8-18.7-91.6-31.7-132.3-56.1c-19.7-11.8-42.5-36.2-67.7-31.9"/>
																																														<path class="st1" d="M1680,1351c2.2-25.3-30.6-44.9-47-57.8c-25.8-20.2-60.3-36.3-81-62.2"/>
																																														<path class="st1" d="M5528,1655c13.4-20.2,74.7-22.7,86.8-24.2c80.8-9.8,162.2-13.1,243.4-16.2c64-2.4,128.5-8,192.6-7.9
																																															c29.3,0.1,57.7,4,85.2-7.8"/>
																																															<path class="st1" d="M5688,1807c42.2-13.7,83.3-19.1,127.8-24c107.2-11.9,216.4-18.6,324-24.4c161.4-8.6,322.8-14.8,484.2-23.6"/>
																																															<path class="st1" d="M5776,1967c134-10,267.1-16.4,401.6-16.7c121.4-0.3,246.7,1.6,366.4,24.7"/>
																																															<path class="st1" d="M5632,2063c60.1,38.1,134.9,41.6,203.9,52.3c41.5,6.4,82.8,10,124.5,14.1c23.4,2.3,48.1,7.6,71.6,5.6"/>
																																															<path class="st1" d="M5352,2143c25.1,12.5,49.8,25.4,75.8,36c21.2,8.6,45.8,24.4,68.2,28"/>
																																														</g>
																																													</svg>
