<?xml version="1.0" encoding="utf-8"?>
<!-- Generator: Adobe Illustrator 19.0.0, SVG Export Plug-In . SVG Version: 6.00 Build 0)  -->
<svg version="1.1" xmlns="http://www.w3.org/2000/svg" xmlns:xlink="http://www.w3.org/1999/xlink" x="0px" y="0px"
	 viewBox="0 0 10800 2332" style="enable-background:new 0 0 10800 2332;" xml:space="preserve">
<style type="text/css">
	.st0{fill:#FFFFFF;}
</style>
<g id="noclick">
	 
	 
	 <path class="st0" d="M90,15c0,83.1,0,166.1,0,249.2c0,83.4,0,166.8,0,250.2c0,46.9,0,93.7,0,140.6c0,7.7,12,7.7,12,0
	 	c0-83.1,0-166.1,0-249.2c0-83.4,0-166.8,0-250.2c0-46.9,0-93.7,0-140.6C102,7.3,90,7.3,90,15L90,15z"/>
	 
	 
	 
	 
	 <path class="st0" d="M354,71c1.1,36.5-3.7,72.7-9.2,108.6c-5.6,36.6-10.7,73.1-15.1,109.9c-8.7,73.3-14.7,146.9-22.6,220.3
	 	c-4.3,40.3-9,80.6-9.1,121.1c0,7.7,12,7.7,12,0c0.1-35.8,3.7-71.3,7.5-106.8c4-36.8,7.3-73.6,10.9-110.5
	 	c7.2-73.6,15-147.2,26.2-220.3C361,152.9,367.3,112.1,366,71C365.8,63.3,353.8,63.3,354,71L354,71z"/>
	 
	 
	 
	 
	 <path class="st0" d="M89.6,404.8c30.4-11.3,62.6-14.6,94.7-17c16-1.2,32.1-2.2,48.1-4.1c16.4-1.9,32.5-5.7,48.9-7.9
	 	c18.1-2.5,36.5-2.8,54.8-2.8c7.7,0,7.7-12,0-12c-16.4,0-32.8,0.3-49.1,2.1c-16.5,1.9-32.6,5.9-49,8c-32.4,4.2-65.1,4.6-97.4,9.1
	 	c-18.4,2.6-36.6,6.6-54.1,13.1C79.2,395.9,82.3,407.5,89.6,404.8L89.6,404.8z"/>
	 
	 
	 
	 
	 <path class="st0" d="M466,279c2.2,22.1-3.4,43.9-5.8,65.8c-2.7,24.8-2.9,49.9-2.8,74.7c0.1,24.7,0.9,49.4,0.6,74
	 	c-0.3,23.1-2.1,46.2-3.1,69.3c-1.1,25.8-1.1,51.8,3.4,77.4c0.3,2,2.3,3.7,4.2,4.2c28.1,6.7,56.2-2.3,81.5-14.5
	 	c25.8-12.5,49.4-29,75.1-41.8c6.9-3.4,0.8-13.8-6.1-10.4c-24.3,12.1-46.6,27.5-70.9,39.7c-23.3,11.7-50.1,21.6-76.4,15.3
	 	c1.4,1.4,2.8,2.8,4.2,4.2c-8-45-1.1-91.3,0-136.6c1.2-49.3-2.4-98.6,1.6-147.8c2-24.5,9-48.9,6.5-73.6
	 	C477.2,271.4,465.2,271.3,466,279L466,279z"/>
	 
	 
	 
	 
	 <path class="st0" d="M505.6,484.8c15.5-5.8,31.5-9.9,47.2-15.2c6.9-2.3,13.2-5.6,19.5-8.9c6.1-3.3,12.6-6.9,19.6-7.7
	 	c7.6-0.8,7.7-12.8,0-12c-15.1,1.6-26.6,11.5-40.5,16.4c-16.2,5.7-32.9,9.7-49,15.8C495.2,475.9,498.3,487.5,505.6,484.8
	 	L505.6,484.8z"/>
	 
	 
	 
	 
	 <path class="st0" d="M483,348.2c12.7-7.9,28-9.8,42.6-11c14.3-1.2,28.6-1.9,42.8-4.6c25.3-4.8,55.8-7.4,75.8-25.3
	 	c5.8-5.2-2.8-13.6-8.5-8.5c-9.5,8.5-22.9,12.2-34.9,15.2c-12.8,3.2-25.9,5.3-38.9,7.7c-28.1,5.2-59.7,0.4-85,16.2
	 	C470.4,341.9,476.5,352.3,483,348.2L483,348.2z"/>
	 
	 
	 
	 
	 <path class="st0" d="M440,197c16.7,1.3,31.9-6.4,46.2-14c16.6-8.9,33.5-17.2,50.4-25.6c34.6-17.2,69.2-34.5,103.8-51.8
	 	c19.6-9.8,39.1-19.6,58.7-29.3c6.9-3.5,0.8-13.8-6.1-10.4c-67.1,33.5-134.5,66.5-201.2,100.7c-16.1,8.3-32.8,19.9-51.8,18.5
	 	C432.3,184.4,432.3,196.4,440,197L440,197z"/>
	 
	 
	 
	 
	 <path class="st0" d="M946,151c-0.5,24.8,2.7,49.4,5,74.1c2.3,25.5,3.1,51.2,3.3,76.8c0.5,51.1-0.3,102.1-0.3,153.2
	 	c0,29.3,0,58.5,0,87.8c0,7.7,12,7.7,12,0c0-51.9-0.1-103.8,0.1-155.7c0.2-50.8,1.7-101.9-2.2-152.6c-2.1-27.9-6.4-55.7-5.8-83.7
	 	C958.2,143.3,946.2,143.3,946,151L946,151z"/>
	 
	 
	 
	 
	 <path class="st0" d="M1130,183c-1.8,77.7,15.6,154,22,231.1c1.8,21.6,2.6,43.2,2,64.9c-0.2,7.7,11.8,7.7,12,0
	 	c2.3-77.7-15.1-154-21.7-231c-1.8-21.6-2.8-43.3-2.3-65C1142.2,175.3,1130.2,175.3,1130,183L1130,183z"/>
	 
	 
	 
	 
	 <path class="st0" d="M900.2,363.2c11.5-10.3,29.2-12.4,43.9-13.5c18.6-1.5,37.4-1.6,56.1-1.3c23.3,0.3,46.7,1.2,70-0.7
	 	c22.7-1.8,45.3-4,68.1-5.1c25.9-1.2,51.8-1.6,77.7-1.6c7.7,0,7.7-12,0-12c-47.4,0-94.6,2-141.8,6.4c-43.4,4.1-87.2-1.2-130.7,2.4
	 	c-18,1.5-37.8,4.5-51.7,17C886,359.9,894.5,368.4,900.2,363.2L900.2,363.2z"/>
	 
	 
	 
	 
	 <path class="st0" d="M1496,169c-21.1,0.8-41,5.7-60.5,13.6c-19.5,7.9-38.9,16.3-58,25.3c-18.6,8.8-36.6,19-52.1,32.7
	 	c-14.8,13-27.1,29.4-38.2,45.6c-19.6,28.5-38.4,68.9-17,101.6c16.1,24.7,47.3,34.2,74.8,39.4c33.5,6.3,68.8,9.9,102.9,7.6
	 	c36.4-2.5,76.7-13.7,100.3-43.6c21.6-27.4,29.6-65.5,27.9-99.8c-2.1-41.1-23.7-76.8-47.5-109.2c-10.7-14.7-22.2-28.8-33.2-43.1
	 	c-9-11.8-19.1-24.5-32.6-31.4c-11.5-5.8-29.4-6.3-34.3,8.2c-4.4,13,0.4,29.2,3,42.1c1.1,5.6,2.5,11.4,2.5,17.1
	 	c-0.1,7.7,11.9,7.7,12,0c0.1-12.7-4.3-25.4-6.1-37.9c-0.8-5.3-1.6-11.4-0.2-16.7c1.1-4.1,4.4-5.3,9.2-5c13,0.9,24,14.5,31.7,23.7
	 	c9.2,11.1,17.8,22.7,26.6,34.1c23.3,30.2,48.5,64,55.3,102.5c5.4,30.7,0.5,65.7-14.1,93.3c-33.9,64.1-122.6,57.7-183.4,49.3
	 	c-25-3.4-53.6-8.3-73.6-24.9c-9.8-8.1-16.4-18.9-18.1-31.6c-2.4-17.9,4.5-35.8,12.9-51.2c17.9-32.6,43-62.3,75.4-81
	 	c16.6-9.6,34.3-17,51.9-24.6c17.6-7.6,35.1-15.9,53.9-20.3c9.5-2.3,19.1-3.4,28.8-3.7C1503.7,180.7,1503.7,168.7,1496,169
	 	L1496,169z"/>
	 
	 
	 
	 
	 <path class="st0" d="M1834,191c0,45.4,0,90.9,0,136.3c0,24.2-3.9,48.3-2.9,72.6c0.4,11,1.3,23.5,7.1,33.1
	 	c6.2,10.3,18.7,13.2,29.9,13.4c29.8,0.5,56.4-15.3,85.2-19.7c22-3.4,43.9-7.2,65.8-10.5c22.7-3.4,45.8-5.5,68.8-3.3
	 	c7.7,0.8,7.6-11.2,0-12c-39-3.9-78.1,4.7-116.3,11c-14.9,2.4-29.4,4.4-43.8,8.9c-14.4,4.4-28.7,9.4-43.6,12.1
	 	c-9.8,1.8-26.1,3.7-33.6-3.3c-6-5.7-6.8-17.7-7.3-25.8c-1.5-22.9,2.3-45.5,2.7-68.3c0.8-48.1,0-96.3,0-144.5
	 	C1846,183.3,1834,183.3,1834,191L1834,191z"/>
	 
	 
	 
	 
	 <path class="st0" d="M2118,439c0-35.9,0-71.7,0-107.6c0-34.9-1.8-69.9-0.7-104.7c0.4-13.9-0.5-30.8,7-43.2
	 	c5.5-9.1,15.2-14.1,25.1-16.7c21.5-5.6,44.1-2.2,66-1.9c40.2,0.5,80.4,0.1,120.6,0.1c7.7,0,7.7-12,0-12c-37.5,0-75.1,0.2-112.6,0
	 	c-24-0.1-48.6-3.5-72.4,1.2c-11,2.2-21.9,6.6-30.1,14.4c-10.4,10-13.5,23.8-14.6,37.6c-2.9,35.4-0.5,71-0.3,106.5
	 	c0.2,42.1,0,84.2,0,126.3C2106,446.7,2118,446.7,2118,439L2118,439z"/>
	 
	 
	 
	 
	 <path class="st0" d="M2064,317c74.7,0,149.3,0,224,0c7.7,0,7.7-12,0-12c-74.7,0-149.3,0-224,0C2056.3,305,2056.3,317,2064,317
	 	L2064,317z"/>
	 
	 
	 
	 
	 <path class="st0" d="M2096,429c78.8,0,157.6,0,236.4,0c22.5,0,45,0,67.6,0c7.7,0,7.7-12,0-12c-78.8,0-157.6,0-236.4,0
	 	c-22.5,0-45,0-67.6,0C2088.3,417,2088.3,429,2096,429L2096,429z"/>
	 
	 
	 
	 
	 <path class="st0" d="M2692.2,154.8c-19.9-21-52.4-27.9-79.8-31.9c-14.6-2.1-29.1-3.6-43.8-1.6c-15.3,2.1-30.4,7.4-43.1,16.3
	 	c-19.8,13.9-38.1,39.6-36.1,65c1.6,20.1,15.8,34.9,32.3,44.9c18.4,11.2,39.7,17.8,60.5,22.8c19.2,4.6,39.4,6.1,57.9,13.3
	 	c35.4,13.7,98.9,57.9,68.1,102.3c-9.3,13.4-23.7,24.2-37.7,32.1c-15,8.5-31.7,14.3-48.9,16.2c-17.8,1.9-35.9,1-53.8,0.2
	 	c-8.6-0.4-17.4-0.3-25.8-2.4c-7.9-2-15.3-5.3-22.9-8.4c-7.6-3.1-15.2-5.4-23.3-6.5c-3.2-0.4-6,3.1-6,6c0,3.6,2.8,5.6,6,6
	 	c16.2,2.2,30.2,11.9,46.1,15.2c8.2,1.7,16.7,1.7,25.1,2.1c9.1,0.4,18.3,0.9,27.5,1c17.4,0.2,34.8-0.9,51.5-5.9
	 	c16.3-4.8,31.9-12.6,45.5-22.8c21.5-16.1,41.2-38.2,35.7-66.9c-4.5-23.8-23.6-42.8-42.2-56.7c-18.5-13.8-40.8-25.4-63.7-29.2
	 	c-19.6-3.3-39.1-7.1-58.1-13.2c-18.5-5.9-38.4-13.9-51.8-28.5c-13.6-14.9-11.7-33.9-2.4-50.6c15.3-27.4,44.9-41.5,75.7-41.2
	 	c14.1,0.2,28.4,2.5,42.1,5.4c14.3,3,28.8,7.1,41.7,14.2c5.6,3.1,10.7,6.8,15.2,11.4C2689.1,168.9,2697.6,160.4,2692.2,154.8
	 	L2692.2,154.8z"/>
	 
	 
	 
	 
	 <path class="st0" d="M984,737c-26.2-2.5-52,4-77.1,10.7c-25.8,6.8-51.7,12.5-78.2,16.1c-26.7,3.6-53.5,4.8-80.3,5.9
	 	c-27.3,1.2-54.6,2.9-81.9,5c-55,4.3-109.8,10.1-164.6,15.9c-27.2,2.9-54.5,5.6-81.6,9.3c-27.1,3.7-54.2,7.8-81.3,11.6
	 	c-25.6,3.6-51.5,7.3-77.4,8.6c-22.6,1.1-45.3,0.6-67.8,3.2c-18.9,2.2-36.5,6.6-48.3,22.6c-10.1,13.7-13.5,31.3-14.9,48
	 	c-1.7,20.4,0,40.2,4.1,60.2c1,4.8,2.1,9.4,2.1,14.4c0,5.1-0.5,10.3,0,15.4c0.7,8.2,4.4,14.9,11.3,19.5
	 	c12.3,8.2,28.8,4.1,41.6-0.9c14.2-5.5,27.2-13.4,40.9-20.2c16.2-8,37.1-12.2,55.5-15.7c22.8-4.4,46-7,69.2-8.5
	 	c23.1-1.5,46.2-1.3,69.3-1.2c27.5,0.1,55.1,0.2,82.6,0.1c55.6,0,111.3,0,166.9-0.6c55.3-0.7,110.6-1.6,165.8-0.9
	 	c27.1,0.4,54.1,1,81,4.2c13.4,1.6,26.8,3.4,40.3,4.6c11.2,1,22.4,1.8,33.4,4.5c20.3,5,36.7,16.9,46.9,35.3
	 	c8.3,15.1,10.7,32.4,9.4,49.5c-2.9,36.9-21.9,72.1-43.9,101.1c-10.4,13.7-22.2,26.5-35.4,37.5c-16.3,13.5-35.4,23.6-55,31.3
	 	c-40.6,15.9-84,23-127,29c-26.8,3.8-53.9,6.8-81,3.7c-26.3-3-52.1-10.3-77.2-18.4c-25-8-50.1-16.1-75-24.6
	 	c-24.4-8.4-48.1-18.8-71.9-28.8c-23.5-9.9-47.3-19.6-71.8-26.7c-12.7-3.7-25.5-6.5-38.3-9.8c-11.2-2.9-23.4-5.9-33.5-11.6
	 	c-14-7.8-27.8-23.1-44.8-23.3c-7.7-0.1-7.7,11.9,0,12c7.8,0.1,15.6,6.2,21.8,10.4c7.1,4.8,13.9,10.2,21.9,13.6
	 	c24.4,10.3,50.8,14.3,76,22.1c49.2,15.2,94.8,39.7,143.7,55.8c24.7,8.1,49.4,16.5,74.3,24.3c25.1,7.8,50.7,14.5,77,17.3
	 	c27.1,2.9,54.3-0.4,81.2-4.2c21.5-3,43.1-6.3,64.4-10.7c41.6-8.8,84.2-22,118.4-48.3c28.7-22.1,52.1-52.7,68.3-85
	 	c16-31.8,27.1-70.2,16.2-105.3c-5.5-17.6-16.6-33.8-31.7-44.6c-18.1-12.9-40.7-15.8-62.3-17.6c-26.9-2.2-53.6-7-80.6-8
	 	c-27.7-1.1-55.5-1.3-83.2-1.3c-55-0.1-109.9,1.1-164.8,1.5c-55.7,0.4-111.4,0.3-167.1,0.2c-48.8-0.1-97.7-1.7-146.3,3.9
	 	c-22.5,2.6-45,6.2-66.9,12.1c-9.3,2.5-18.8,5.2-27.7,9c-5.7,2.5-11.1,5.6-16.6,8.5c-13.2,7.1-27.6,15.3-42.7,17.1
	 	c-5.7,0.7-11.8,0.2-16.3-3.7c-6.4-5.8-4.1-15.8-4.1-23.5c0-10.6-3.5-21.1-5.2-31.5c-1.6-10.1-1.9-20.2-1.7-30.4
	 	c0.4-16.1,1.9-33.4,9.7-47.8c3.7-6.9,8.9-12.8,15.7-16.6c8.4-4.7,18.7-5.9,28-6.9c22.7-2.5,45.6-1.9,68.5-3.2
	 	c53.2-3,106-13.3,158.8-20.4c54.4-7.3,109.3-12.3,164-17.7c55.1-5.4,110.4-10.1,165.7-12.3c26.5-1.1,52.8-2.6,79.1-6.1
	 	c26-3.5,51.6-9,76.9-15.7c24.7-6.6,49.9-13.2,75.7-10.7C991.7,749.7,991.6,737.7,984,737L984,737z"/>
	 
	 
	 
	 
	 <path class="st0" d="M1144,813c28.8,0.1,58.5,5.5,86.8-2.1c10.9-2.9,21.7-7,32.3-10.9c10.1-3.8,21.1-7.8,29.4-14.9
	 	c10.6-9.1,20.1-23.8,13.4-37.9c-5.8-12.1-20.3-18.5-32.2-22.7c-14.8-5.3-30.5-8.2-46-10.2c-14.1-1.8-28.7-3-42.6,0.8
	 	c-20.4,5.6-32.7,22.2-37.2,42.3c-2.2,10.2-3.5,21-4.1,31.3c-0.7,10.2-0.3,20.9,3.9,30.4c8.6,19.5,33.4,21.2,52,21.5
	 	c21.9,0.3,45.7-2.9,65.3-13.3c4.1-2.2,7.9-4.9,11.4-8c5.7-5.2-2.8-13.7-8.5-8.5c-13.5,12.2-34.8,15.8-52.3,17.3
	 	c-9.8,0.8-19.8,0.9-29.6-0.3c-7.5-0.8-17.3-2-23.1-7.4c-5.9-5.5-7.1-14.4-7.3-22c-0.3-9.1,0.9-18.2,2.2-27.2
	 	c2.3-17.1,7.5-35,24.6-42.5c12-5.3,25.6-4.5,38.3-3.2c13.3,1.3,26.7,3.7,39.6,7.3c11,3.1,23.7,7.2,31.7,15.3
	 	c3.1,3.1,4.6,6.2,4.4,10.1c-0.2,3.9-3.6,9.4-7,13.3c-6.9,7.7-15.8,11.8-25.3,15.5c-10.4,4.1-21.1,7.6-31.7,11.1
	 	c-28.2,9.3-59.2,3.1-88.2,3C1136.3,801,1136.3,813,1144,813L1144,813z"/>
	 
	 
	 
	 
	 <path class="st0" d="M1478,903c-3.8-29.5,24.4-48.3,47-60.6c11.5-6.2,23.5-11.3,35.3-17c6.9-3.3,13.8-6.8,21.1-8.9
	 	c6.2-1.8,10.3-1.3,15.7,2.4c11.7,8.1,19.9,20.9,28.7,31.7c11.4,14,22.8,27.7,32.8,42.8c19.4,29.4,32.5,61.7,39.8,96.2
	 	c3.7,17.2,5.9,34.7,5.9,52.3c0,16.4-1.2,35.1-11.2,48.7c3.5,0,6.9,0,10.4,0c-11.7-16.2-19-35.2-26.2-53.7
	 	c-7.7-19.7-15-39.9-25.7-58.1c-9.7-16.5-22.8-31.2-41-38.3c-22.4-8.6-48.1-2.9-69.1,6.8c-29.3,13.5-52.8,37.6-71.1,63.6
	 	c-8.9,12.6-16.2,26-23.5,39.6c-7,13.2-14.5,26.8-17.8,41.5c-3,13.7-1,26.5,7.8,37.6c6.9,8.8,16.8,14.5,27.4,17.7
	 	c23.6,7.1,50,3,73.5-2.1c25.1-5.5,50.7-12.7,74.4-22.8c15.5-6.7,31.1-14.8,44-25.9c6.6-5.7,12.4-12.4,18.8-18.3
	 	c6.3-5.8,13.4-9.8,20.9-13.7c7.2-3.8,14.2-7.7,20.2-13.3c5.7-5.3-2.8-13.7-8.5-8.5c-11.5,10.6-27.4,15-39.3,25.4
	 	c-6,5.2-11.2,11.2-17,16.7c-5.9,5.6-12.7,10.2-19.7,14.4c-23.4,14-49.3,22-75.5,29.2c-22.4,6.1-45.8,11.5-69.2,10.6
	 	c-18.7-0.8-44.5-8.6-47.3-30.6c-1.7-13.3,4.9-27.2,10.7-38.8c6.3-12.5,12.8-25.1,20.1-37.1c15.6-25.6,35.6-49.7,61.1-66
	 	c19.2-12.3,44.6-21.9,67.7-16.7c16.7,3.8,29.2,15.6,38.4,29.6c21.5,32.9,28.9,72.7,48.4,106.6c2.1,3.7,4.4,7.3,6.9,10.8
	 	c2.8,3.8,7.6,3.8,10.4,0c9.7-13.3,12-31.1,12.7-47.1c0.7-16.7-0.8-33.5-3.6-49.9c-6.3-37.1-19-72.9-38.9-105
	 	c-10.3-16.6-22.3-32.3-34.9-47.2c-10.1-12-19-25.5-31.1-35.5c-5.5-4.5-11.9-8.7-19.3-8.8c-8.1-0.1-16.2,3.6-23.4,6.8
	 	c-12.9,5.7-25.9,11.8-38.5,18.1c-28.4,14.3-65.3,38-60.6,74.9C1467,910.6,1479,910.7,1478,903L1478,903z"/>
	 
	 
	 
	 
	 <path class="st0" d="M1762.8,778c14.5,33.7,10.7,73.3,8.8,109c-1,18.8-0.9,37.6-1.6,56.4c-0.8,21.8-3.1,43.5-5.5,65.2
	 	c-2.4,22-7.4,45.2-0.4,66.9c1.9,5.9,9.5,5.5,11.6,0c17.5-46.6,4.2-96.5,5.1-144.6c0.4-23.5,5.1-45.8,16.8-66.3
	 	c8.9-15.7,21.5-33.7,39.4-39.8c15.6-5.3,32.5,1.6,41.8,14.9c8.9,12.8,12.1,28.9,13.6,44.1c3.1,32.6-1.8,64.9-2.2,97.4
	 	c-0.2,15.4-0.7,30.9-0.7,46.3c0,13.2,1,26.3,2.1,39.5c0.8,10.5,1.7,21.1,4,31.5c2,8.9,5.1,18.9,12.3,25c5.9,4.9,14.4-3.5,8.5-8.5
	 	c-6.4-5.4-8.3-14.9-9.9-22.8c-1.7-9-2.4-18.1-3.1-27.3c-1-12.5-1.9-24.8-1.9-37.4c0-14.9,0.6-29.8,0.7-44.7
	 	c0.2-33.8,5.6-67.4,1.9-101.2c-1.8-16.2-5.2-33.3-14.4-47.1c-9.5-14.3-25.8-24.4-43.4-23.5c-21,1-37.4,16.4-49.2,32.5
	 	c-13.5,18.3-22.8,39.5-26.1,62.1c-8.2,55.2,13.4,113.3-6.7,166.9c3.9,0,7.7,0,11.6,0c-6.2-19.3-1.8-40.2,0.4-59.8
	 	c2.5-22,4.9-44,5.8-66.1c0.8-19.2,0.6-38.5,1.6-57.7c1-19.1,2.2-38.3,1.5-57.4c-0.8-20.3-3.7-40.5-11.8-59.2
	 	C1770.1,764.9,1759.8,771,1762.8,778L1762.8,778z"/>
	 
	 
	 
	 
	 <path class="st0" d="M2010,807c0,79.7-2.3,159.5-1.4,239.2c0.2,22.4,0.8,44.7,1.6,67.1c0.3,7.7,11.5,7.7,12,0
	 	c1.5-25.8-1.7-51.4-4.5-77c-2.8-24.8-3.6-49.3-4-74.2c-0.3-21.6-0.2-44.2,10.9-63.6c5.9-10.3,13.2-19.6,19.1-30
	 	c5.8-10.4,11.1-21,16.9-31.4c4-7.2,7.9-15.2,13.8-21.1c5.6-5.5,12.2-5.8,19.3-2.8c16.8,7,25.1,24.4,30.9,40.5
	 	c6.7,18.6,11.9,37.8,17.8,56.7c7.6,24.4,14.8,49,20.3,73.9c3.1,14.2,5.7,28.5,6.8,43.1c1.1,14.4,1,28.9,0.9,43.4
	 	c-0.1,12.8,0,24.7,2.9,37.3c2.6,11.4,6.6,23.1,5,34.9c-0.4,3.2,3.1,6,6,6c3.6,0,5.6-2.8,6-6c1.5-10.9-1.6-22-4.1-32.5
	 	c-1.3-5.2-2.6-10.5-3.4-15.8c-0.9-6.3-0.5-12.7-0.4-19c0.4-27.4-0.1-54.5-5.3-81.4c-5.1-26.4-12.4-52.2-20.2-77.9
	 	c-6.4-20.9-12.3-42-19.4-62.6c-5.9-17.2-13.9-35.7-29.4-46.4c-8-5.5-18.3-9.5-28.1-7.6c-8.1,1.6-14.1,7.4-18.9,13.8
	 	c-13.6,18.3-21.8,40.3-33.8,59.6c-6.5,10.4-13.9,19.8-18.4,31.3c-4.1,10.5-5.8,21.8-6.6,33c-0.9,13.2-0.2,26.5-0.1,39.7
	 	c0.1,14.6,0.7,29.1,2.1,43.6c3,30.7,8,61.4,6.2,92.4c4,0,8,0,12,0c-3.1-79.7-1.5-159.4-0.6-239.1c0.2-22.4,0.4-44.7,0.4-67.1
	 	C2022,799.3,2010,799.3,2010,807L2010,807z"/>
	 
	 
	 
	 
	 <path class="st0" d="M2288,917c21.7,1.9,42.8-2.8,63.8-7.6c21.1-4.8,42.5-8.8,63.7-13.1c20.7-4.3,41.5-9,61.6-15.6
	 	c13-4.2,26-9.5,37.3-17.2c10.3-6.9,20.4-16.6,22.9-29.2c2.9-14.1-3.7-27.7-12.9-38.1c-20-22.8-52.1-35.3-80.5-43.6
	 	c-33.2-9.6-68-11.8-101.7-3.4c-18.7,4.7-36.7,12.1-53.9,20.8c-12.8,6.4-24.5,15-32.7,26.9c-7.9,11.5-11.4,25.1-13.1,38.8
	 	c-1.9,15.3-3.2,31.5-2.5,46.9c0.6,14.7,4.3,29.6,15,40.3c6.1,6.1,13.7,10,21.4,13.6c8.5,4,17.3,7.6,26.2,10.7
	 	c73.3,25.6,152.9,19.7,229.1,18.1c9.4-0.2,18.8-0.3,28.2-0.3c7.7,0,7.7-12,0-12c-71.7,0.1-144.7,7.7-215.5-6.8
	 	c-17.2-3.5-34.1-8.4-50.4-15c-14.1-5.7-30.1-11.8-37.2-26.2c-6-12.2-5.3-26.9-4.5-40.1c0.8-14,1.1-28.5,4.8-42.1
	 	c3.1-11.8,9.1-22.1,18.2-30.2c11.6-10.3,27-16.7,41.3-22.5c32.7-13.2,67.3-18,102.2-11.4c27.4,5.2,55.4,14.9,78.8,30.3
	 	c10.6,7,21.3,16,26.3,28c4.5,10.9,1.1,21.1-7,29.1c-8.8,8.7-20.5,14.5-31.8,18.9c-15.8,6.2-32.3,10.5-48.8,14.3
	 	c-19.6,4.6-39.5,8.3-59.3,12.3c-19.5,3.9-38.7,9.3-58.4,12.2c-10.2,1.5-20.5,2-30.7,1.1C2280.3,904.3,2280.4,916.3,2288,917
	 	L2288,917z"/>
	 
	 
	 
	 
	 <path class="st0" d="M2217.6,692.8c31.4-12.3,64.7-18.3,97.6-25.5c16.5-3.6,32.9-7.7,49-13c14-4.6,27.8-9.7,42.2-12.5
	 	c13-2.6,27.9-4.9,37.9-14.5c5.6-5.4-2.9-13.9-8.5-8.5c-8,7.8-21.5,9.2-31.9,11.3c-14.1,2.8-27.5,7.6-41.1,12.1
	 	c-31.2,10.3-63.5,15.9-95.4,23.3c-18,4.2-35.8,9.1-52.9,15.8C2207.3,684,2210.4,695.6,2217.6,692.8L2217.6,692.8z"/>
	 
	 
	 
	 
	 <path class="st0" d="M2614.4,780.8c49.1,19,108.3,23.7,155.3-3.8c21.2-12.5,44-32.3,44.6-58.8c0.3-12.3-4.8-24.5-14-32.7
	 	c-9.2-8.2-21.2-11.6-33-13.8c-12.2-2.3-24.5-3.3-36.8-4.7c-10.4-1.2-21.2-3.2-31.8-3.6c-10.5-0.4-21,0.6-29.1,7.9
	 	c-7.4,6.6-11.7,16.2-15,25.3c-7.2,20-9.5,41.6-11.5,62.6c-2.3,24.4-4.7,51.1,7.4,73.4c6.9,12.7,18,21.7,31.3,27
	 	c13.1,5.3,27.2,7.7,40.6,12.5c13,4.6,26.1,10.2,39.9,11.7c15,1.6,28.9-4,42.6-9.1c6.8-2.5,13.6-4.8,20.8-5.9
	 	c7.6-1.1,4.4-12.7-3.2-11.6c-13.2,2-25.1,8.1-37.7,12c-13,4-24.5,3-37.4-1c-12-3.7-23.6-8.7-35.7-12.1
	 	c-12.8-3.6-27-5.9-37.9-14.1c-20.1-15.1-21.7-41.9-20.3-64.9c1.1-18.6,3-37.5,6.7-55.8c2-9.6,4.4-19.4,8.6-28.3
	 	c3-6.3,7.2-13.8,14.3-16.3c9.4-3.3,21.6-1.1,31.2,0.2c9.1,1.2,18.2,2.4,27.3,3.4c19.8,2.1,49.4,3.3,58.4,24.9
	 	c9.3,22.5-9.5,42.6-26.2,54.8c-40,29.1-92.8,29.2-138.5,15.4c-6-1.8-11.8-3.9-17.7-6.1C2610.4,766.4,2607.3,778,2614.4,780.8
	 	L2614.4,780.8z"/>
	 
	 
	 
	 
	 <path class="st0" d="M354.8,1554c13,26,27.4,51.1,36.3,79c5.5,17.2,11.6,36.4,25,49.2c6.6,6.3,15.1,10.4,24.4,10.4
	 	c12.4,0,21.2-8.8,29.3-17.3c18.3-19.2,42-33.4,55.6-56.8c6.6-11.4,9.9-24.4,13.7-36.9c3.7-12.3,7.8-25.1,17.2-34.4
	 	c5.5-5.5-3-13.9-8.5-8.5c-16.3,16.2-19.4,40.1-26.9,60.8c-8.8,24.2-29,39.5-47.7,55.9c-8.4,7.3-15.5,17.7-25.3,23.3
	 	c-6.7,3.8-15.1,1.6-20.9-2.9c-13.4-10.4-19-29.6-24-45.1c-9.4-29.2-24.1-55.5-37.8-82.8C361.7,1541.1,351.4,1547.1,354.8,1554
	 	L354.8,1554z"/>
	 
	 
	 
	 
	 <path class="st0" d="M789,1553.8c-37.6,18.1-76.3,38.9-103.7,71.3c-25.3,29.9-43.5,75.6-17,110.5c11.2,14.8,28.2,24.4,46.5,27
	 	c20.2,2.9,43.4-2.1,58.1-16.9c6.9-7,11.9-15.7,16.7-24.2c5.3-9.3,11.5-17.9,17.3-26.8c12-18.4,18.5-38.1,16.3-60.3
	 	c-4.5-45.5-53.7-67.2-83.1-95.6c-5.6-5.4-14,3.1-8.5,8.5c12.8,12.4,27.7,22.5,41.5,33.8c13.4,10.9,27.7,23.4,34.6,39.6
	 	c7,16.6,4.9,37.5-2.8,53.4c-4.2,8.7-9.7,16.7-15.3,24.7c-5.6,8-10.1,16.5-15.1,24.8c-4.5,7.5-9.8,14.7-17.2,19.4
	 	c-7.9,5-17.8,7.6-27.1,8.2c-16.7,1.1-33.6-4.2-45.9-15.8c-12.5-11.8-18.5-28.3-17-45.4c1.7-18.7,11.4-37.1,22.7-51.7
	 	c26.4-34.4,66.8-55.7,105.1-74.2C802,1560.8,795.9,1550.5,789,1553.8L789,1553.8z"/>
	 
	 
	 
	 
	 <path class="st0" d="M922.2,1445.4c-14.5,37.6-20.2,77.5-11.8,117.2c2.7,12.9,6.7,25.8,11.5,38c4.6,11.5,10.2,23,18.8,32
	 	c8.3,8.8,19.6,14,31.8,12.4c13.2-1.7,23.3-12.4,31.4-22.1c20.8-24.7,37.8-54.1,46-85.5c2.4-9.3,4.4-19.2,4-28.8
	 	c-0.4-9.9-2.9-19.5-6.6-28.6c-7.3-18.1-18.3-34.4-26.1-52.2c-3.1-7.1-13.4-1-10.4,6.1c12.4,28.1,35.3,54.8,30.3,87.4
	 	c-4.7,30.5-19.9,58.5-37.9,83.1c-7.1,9.7-15.3,20.8-26,26.7c-8.2,4.6-18.3,1.8-25.1-4.1c-15.9-13.9-22.4-37.8-27.7-57.5
	 	c-11.1-40.8-5.8-82,9.3-121C936.6,1441.4,925,1438.3,922.2,1445.4L922.2,1445.4z"/>
	 
	 
	 
	 
	 <path class="st0" d="M1248,1409c-17.5-0.5-33.8,6.5-49.4,13.6c-7.8,3.6-15.6,7.4-23.7,10.3c-6.7,2.4-13.6,4.2-20.3,6.5
	 	c-12.7,4.2-26.3,9.9-33.9,21.4c-3.1,4.7-5.4,9.9-7.6,15c-2.2,5.2-4.6,10.5-5.7,16.1c-2.8,14.6,7.2,26.6,16.8,36.1
	 	c6,5.9,11.7,12,18.1,17.5c6.5,5.5,13.5,10.5,20.5,15.5c6.1,4.3,12,9,18.4,12.8c3.3,2,9.2,4.2,11,8c1.9,4.1-3.3,10.1-5.8,12.9
	 	c-3.4,3.7-7.6,6.4-12,8.8c-23.7,13.1-52,18-78.3,23.2c1.5,3.7,3.1,7.3,4.6,11c24.1-14.7,52.1-21.4,78.7-30
	 	c31-10,61.5-21.7,91.3-34.6c17.7-7.7,35.1-16,52.2-24.9c6.8-3.6,0.8-13.9-6.1-10.4c-29.7,15.6-60.5,29.1-91.8,41
	 	c-28.3,10.8-57.2,19.4-85.9,29.1c-15.3,5.2-30.6,11-44.4,19.4c-6,3.6-1.9,12.3,4.6,11c23.8-4.7,47.9-9.7,70.4-19.2
	 	c10.2-4.3,20.6-9.7,27.5-18.7c7.8-10,11-22.1-0.2-30.8c-4.3-3.4-9.3-5.7-13.9-8.8c-6.7-4.5-13.2-9.4-19.7-14
	 	c-13.4-9.6-25.8-21-36.7-33.4c-4.4-5-8.4-11.2-7.7-18.2c0.3-3.4,2.9-9.7,4.7-13.8c2.1-4.9,4.3-10,7.3-14.4
	 	c3.6-5.2,9.3-8.6,14.9-11.3c7.2-3.5,15-5.7,22.7-8c8.1-2.5,15.9-5.5,23.7-9c17.6-7.9,35.8-18.3,55.7-17.7
	 	C1255.7,1421.2,1255.7,1409.2,1248,1409L1248,1409z"/>
	 
	 
	 
	 
	 <path class="st0" d="M1491,1452.2c17.8-8.6,33.8-20.3,51-30.2c18.3-10.5,38.6-17,58.2-24.5c9.9-3.8,19.7-7.8,29.3-12
	 	c9-4,17.6-8.8,26.6-12.5c8.1-3.4,17.7-6.4,26.3-3.2c7.2,2.6,12.7,8.8,16.3,15.3c7.1,12.8,8.3,29,1.5,42.1
	 	c-7.5,14.3-21.7,22.7-36.1,28.8c-9.8,4.1-23.5,11-34.5,8.4c-10.4-2.4-0.6-17.4,3.8-21.9c10.7-11.1,25.4-18.4,39.4-24.4
	 	c13.1-5.6,26.8-10.2,40.7-13.1c7.6-1.6,4.4-13.1-3.2-11.6c-14.3,3-28.2,7.9-41.7,13.5c-14.9,6.3-30,14-41.9,25.3
	 	c-9,8.5-18.8,24.5-11,36.7c7.2,11.4,24.8,8.3,35.5,4.8c16.7-5.4,34.5-12.7,47.4-24.9c13.1-12.3,19.8-29.6,17.6-47.5
	 	c-2.2-17.2-11.7-35.3-28.5-42.3c-20.9-8.7-42.6,6.2-61,14.6c-25,11.4-51.6,19.2-76.5,30.6c-22.9,10.5-42.7,26.7-65.4,37.7
	 	C1478,1445.2,1484.1,1455.5,1491,1452.2L1491,1452.2z"/>
	 
	 
	 
	 
	 <path class="st0" d="M1786,1343c0.3,19.2-0.6,38.3-2.8,57.3c-2.1,18.4-5.9,36.4-9.1,54.6c-2.9,16.5-4.8,33.6-1,50.1
	 	c1.4,6,4.1,18.7,11.1,20.2c5.7,1.2,12-0.8,17.2-3c24.4-10.1,45.8-30.5,60-52.4c8.6-13.3,15.3-27.8,22.6-41.9
	 	c7-13.6,14.7-26.3,24.2-38.3c8.7-10.9,18.2-21.6,23.8-34.6c6.4-14.7,6.1-30.3,1.7-45.6c-2.1-7.4-13.7-4.3-11.6,3.2
	 	c4.6,15.9,3.5,30.9-5.1,45.2c-8.2,13.6-19.6,25.1-28.6,38.2c-21.9,31.9-31.8,70.6-62.5,96.1c-5.9,4.9-12.2,9.5-18.8,13.5
	 	c-5.5,3.4-13.9,8.8-20.8,7.8c1.2,0.9,2.4,1.8,3.6,2.8c-13.5-25.4-4.8-54.9-0.1-81.4c5.4-30.3,8.5-61,7.9-91.8
	 	C1797.9,1335.3,1785.9,1335.3,1786,1343L1786,1343z"/>
	 
	 
	 
	 
	 <path class="st0" d="M1982,1447c1.2-15.5,8-29.7,16.6-42.4c8-11.9,17.9-22.1,25.6-34.2c7.2-11.5,13.5-23.9,22.9-33.9
	 	c10.1-10.7,24.4-17.6,38.4-21.6c16.5-4.7,33.6-5.7,50.6-5.9c7.7-0.1,7.7-12.1,0-12c-32.5,0.4-66.6,4.6-92.5,26.3
	 	c-11.3,9.4-18.7,22.9-26.2,35.3c-3.7,6-7.3,12.1-11.8,17.7c-5,6.3-10.3,12.3-15,18.9c-11,15.5-19,32.8-20.6,51.9
	 	C1969.4,1454.7,1981.4,1454.7,1982,1447L1982,1447z"/>
	 
	 
	 
	 
	 <path class="st0" d="M2132.2,1411.2c9.9-10.4,20.8-19.7,32.5-28c10.6-7.5,21.8-13.8,32.8-20.7c8-5,15.4-10.8,23.4-15.7
	 	c7.2-4.5,16.2-10.1,25.1-9.6c8.1,0.4,11.5,8.4,13.7,15.2c3,9.4,4.5,19.4,5.4,29.2c0.7,7.7,1.5,15.6,1.3,23.3
	 	c-0.2,8.8-1.4,17.6-2.1,26.4c-1.6,18.5-4.7,46.3,11.5,59.9c5.9,4.9,14.4-3.5,8.5-8.5c-6.4-5.4-8.1-14.1-8.7-22.1
	 	c-0.8-10.6,0-21.2,0.9-31.8c0.8-8.9,2.1-17.9,1.9-26.9c-0.2-8.9-0.9-17.8-2-26.6c-2-16.6-5-44-24.5-49.3
	 	c-9.6-2.6-19.7,1.1-28.2,5.4c-9.5,4.7-18,11-26.7,17c-11.6,7.9-24,14.5-35.5,22.5c-13.6,9.4-26.3,19.9-37.7,31.8
	 	C2118.4,1408.3,2126.9,1416.8,2132.2,1411.2L2132.2,1411.2z"/>
	 
	 
	 
	 
	 <path class="st0" d="M2270,1295c0-18.7,0-37.3,0-56c0-7.7-12-7.7-12,0c0,18.7,0,37.3,0,56C2258,1302.7,2270,1302.7,2270,1295
	 	L2270,1295z"/>
	 
	 
	 
	 
	 <path class="st0" d="M2336,1325c30.7,2.9,65.9-4.2,89.4-25.1c10.4-9.2,20-22.7,16.4-37.2c-3.2-12.5-14.5-21.5-25.9-26.2
	 	c-11.6-4.8-26.1-6.3-37.3,0.3c-11.2,6.6-17.8,19.1-19.9,31.6c-4.7,28.1,6.2,59.1,20.8,82.9c8.7,14.2,20.8,25.9,34,35.8
	 	c16.9,12.7,37.2,20.6,58.6,18c7.6-0.9,7.7-12.9,0-12c-16.5,2-31.8-2.5-45.6-11.5c-11.4-7.4-22.6-17.1-30.9-27.9
	 	c-14.2-18.6-24-43.5-25.7-66.8c-0.8-10.8,0.2-22.4,6.5-31.7c5.8-8.6,14.8-11.9,24.9-10.5c9.9,1.4,20.8,6.7,26.4,15.4
	 	c6.3,9.8,1,19.2-6.1,26.9c-20.8,22.5-56.2,28.9-85.5,26.1C2328.3,1312.3,2328.4,1324.3,2336,1325L2336,1325z"/>
	 
	 
	 
	 
	 <path class="st0" d="M2520,1269c62.2-3.5,123.4-15.7,184.4-27.6c15.7-3.1,31.4-6.1,47.1-9c9.9-1.8,19.4-3.6,29.5-2.9
	 	c7,0.5,14.9,2,20.5,6.4c6,4.7,6.4,11.9,4.4,18.8c-6.6,23.2-31.4,34.9-46.7,51.5c-9,9.8-14.7,21.6-20.5,33.4
	 	c-5.1,10.4-10.9,20-17.6,29.4c-13.8,19.5-29.3,38.3-39.3,60.2c-4.4,9.7-7.9,20-8.3,30.7c-0.2,5.3,0.5,9,5.5,11.5
	 	c4.1,2,8.7,2.9,13.3,2.9c10.7-0.1,21.2-4.5,30.7-9c10.1-4.9,19.6-10.7,29.4-16.1c9.8-5.4,20.3-9.3,30.5-14.1
	 	c12.9-6.1,26.7-13.2,41.2-14.1c7.7-0.5,7.7-12.5,0-12c-15.7,1-30.3,7.8-44.3,14.4c-11.6,5.5-23.6,10.1-34.8,16.3
	 	c-10.9,6.1-21.5,12.7-33,17.6c-8.7,3.7-20.5,8.1-29.3,2.4c1,1.7,2,3.5,3,5.2c-0.9-16.7,7.2-32.3,15.6-46.2
	 	c9.4-15.5,20.7-29.9,31.1-44.7c5.1-7.2,9.8-14.5,13.9-22.3c4.6-8.9,8.5-18.1,13.8-26.6c10.1-16.1,26.6-25.9,39.9-39.1
	 	c11.1-11.1,21.7-27.1,18.8-43.6c-2.2-12.6-13.5-20-25.2-23c-14.8-3.7-29.4-1.4-44.1,1.3c-23.3,4.3-46.6,8.9-69.9,13.4
	 	c-52.7,10.2-105.7,19.8-159.3,22.9C2512.3,1257.4,2512.3,1269.4,2520,1269L2520,1269z"/>
	 
	 
	 
	 
	 <path class="st0" d="M2672,1325c42.7,0,85.3,0,128,0c7.7,0,7.7-12,0-12c-42.7,0-85.3,0-128,0C2664.3,1313,2664.3,1325,2672,1325
	 	L2672,1325z"/>
	 
	 
	 
	 
	 <path class="st0" d="M194,1863c-2.2,16.7,4,32.9,6.3,49.2c2.6,18.5,4,37.1,6,55.7c3.9,37,12.5,73.8,11.7,111.1
	 	c-0.2,7.7,11.8,7.7,12,0c0.8-37.3-7.8-74.2-11.7-111.1c-2-18.6-3.5-37.2-6-55.7c-2.1-16.3-8.4-32.6-6.3-49.2
	 	C207,1855.4,195,1855.4,194,1863L194,1863z"/>
	 
	 
	 
	 
	 <path class="st0" d="M204.2,1907.2c9.6-11,22.3-19.7,37.3-14.4c13.2,4.7,23.2,17.1,30.5,28.5c7.9,12.4,14.9,26.8,17.7,41.3
	 	c2.5,13.3-4,24.2-15,31.2c-13.2,8.5-29,12.3-44.2,15.3c-7.6,1.5-4.4,13.1,3.2,11.6c28-5.6,70.6-18,68.6-54.2
	 	c-1-17-9.7-34.8-18.4-49.1c-8.8-14.4-20.6-28.7-36.6-35.3c-19.6-8.1-38.3,1.5-51.4,16.5C190.7,1904.5,199.1,1913.1,204.2,1907.2
	 	L204.2,1907.2z"/>
	 
	 
	 
	 
	 <path class="st0" d="M389.8,1957.4c-2.1-9.3,0.1-17.1,7.8-22.9c7.7-5.8,17.3-9.1,26.1-12.7c19.8-8.3,38.6-19,59-25.8
	 	c8.8-2.9,18.8-6,28.1-4.4c7.2,1.2,13.3,5.3,18.1,10.6c11.2,12.4,15.9,30.4,18.3,46.5c2.6,17.3,3.1,36.6-2.2,53.4
	 	c2.9-1.2,5.9-2.4,8.8-3.6c-10.5-5.8-15.4-17.7-19.4-28.4c-4.6-12.2-8.2-25.1-15.2-36.1c-7.2-11.4-17.8-19.2-31.4-20.9
	 	c-14.4-1.8-28.4,3.6-39.8,12c-24.4,18-41,45.8-54,72.7c-6,12.5-16.5,27.2-6.7,40.4c5.9,7.9,14.4,13.2,24.3,14.1
	 	c9.4,0.9,18.7-2.1,27.5-4.9c22.1-7,45-12.2,64.4-25.5c8.2-5.6,13.7-12.9,19.1-21c5-7.6,9.8-15.2,18.4-19
	 	c-1.5,0.2-3.1,0.4-4.6,0.6c8,3.2,10.4,10.8,12,18.6c1.7,7.9,2.6,16.3,7,23.3c5.3,8.4,14.1,13.1,24.1,11.6
	 	c9.7-1.5,18.2-8,28.3-6.8c7.7,0.8,7.6-11.2,0-12c-10.1-1.1-18.5,4.1-27.9,6.6c-8.5,2.2-14.1-3.2-16.6-11c-4.8-15.3-4-33-21-40.7
	 	c-9.1-4.1-18.4,6.6-23.4,13.2c-5.6,7.4-9.8,15.9-16.5,22.4c-8.5,8.2-20.8,13.4-31.8,17.4c-11.2,4.1-22.7,7-34,10.6
	 	c-9.3,2.9-20.7,7.4-30.3,3.3c-4.2-1.8-9.2-5.9-10.9-10.2c-1.3-3.4,0.2-6.8,1.7-9.9c7.1-15,14.3-29.9,23.1-43.9
	 	c9.3-14.8,20.3-29.8,34.7-40.1c12-8.6,28.4-14.3,42.3-6.4c13.9,7.9,18.7,25.9,23.7,39.9c5.5,15.3,11.8,32.3,26.8,40.6
	 	c3.5,1.9,7.6,0.2,8.8-3.6c5.3-17,5.2-36.2,3-53.7c-2.4-19.6-7.6-40.1-20.4-55.7c-5.6-6.8-12.8-12.2-21.3-14.9
	 	c-10-3.2-20.8-1.6-30.8,1c-23.5,6.3-44.5,18.8-66.7,28.2c-11.1,4.7-22.9,8.6-32.3,16.6c-10.3,8.7-12.8,21.1-9.9,33.9
	 	C379.9,1968.1,391.5,1964.9,389.8,1957.4L389.8,1957.4z"/>
	 
	 
	 
	 
	 <path class="st0" d="M816,1889c-35,0-70.1,0.1-105.1,0c-28.8-0.1-58.5-1.9-86.1,7.7c-11.9,4.1-23.4,10-33.9,16.8
	 	c-9,5.8-18,13.4-21.3,24c-6.6,20.9,12.3,36.6,29.1,44.2c17.8,8.1,37.2,12.2,56.5,14.6c28.6,3.5,58.4,2.3,86.1-5.8
	 	c11.2-3.3,25.6-8.8,37-3.5c8.9,4.1,12.1,14.1,12.3,23.3c0.5,21.4-12,41.3-28.1,54.6c-16.5,13.6-37.6,20.8-58.3,25.2
	 	c-21.5,4.6-43.6,6.1-65.6,6.8c-4.9,0.1-9.8,0.2-14.6,0.3c-7.7,0.1-7.7,12.1,0,12c42.8-0.6,88.8-2.5,127.5-22.8
	 	c19-10,35.3-25.3,44.3-45c8.3-18.1,11.9-45.8-5.1-60.4c-21.3-18.2-50.1,0-73.3,3c-25.4,3.3-51.4,3-76.6-1.9
	 	c-18-3.5-39.9-8.4-53.5-21.7c-6.1-5.9-9.2-14.3-4.9-22.3c4.8-9.1,15.2-14.7,23.9-19.5c12.3-6.8,24.9-12,38.7-14.6
	 	c13.8-2.7,27.9-2.9,41.9-2.8c34.5,0.1,68.9,0.1,103.4,0.1c8.6,0,17.2,0,25.8,0C823.7,1901,823.7,1889,816,1889L816,1889z"/>
	 
	 
	 
	 
	 <path class="st0" d="M1002.8,1834c14.6,29.6,30.1,58.6,45,88c7.4,14.6,14.9,29.3,22.1,44c5.1,10.4,9.1,20.8,13.2,31.7
	 	c3.1,8.2,7.2,17.2,15.5,21.3c4,1.9,11.1,3.5,15,0.6c2.5-1.9,4.1-5.7,5.7-8.3c2-3.3,3.9-6.6,5.8-9.9c14.8-26.3,26.3-54.2,38-81.9
	 	c11.7-27.6,30.1-57.3,26.8-88.5c-0.8-7.6-12.8-7.7-12,0c1.7,15.9-3.2,31.2-9.1,45.8c-5.9,14.5-12.7,28.7-18.8,43.1
	 	c-13.3,31.4-26.7,63.1-45.2,91.9c1.7-1,3.5-2,5.2-3c-8.7,1.1-12.4-6.7-15.1-13.8c-3.9-10.1-7.4-20-12.1-29.8
	 	c-14.1-29.5-29.3-58.5-44.3-87.5c-8.6-16.5-17.1-33-25.3-49.7C1009.8,1821,999.4,1827.1,1002.8,1834L1002.8,1834z"/>
	 
	 
	 
	 
	 <path class="st0" d="M1314,1799c0.5,10.7-5.1,18.8-9.8,27.9c-4.7,9.1-7.5,19.1-9.7,29c-4.4,19.5-5.9,39.1-1.7,58.7
	 	c3.6,16.5,9.4,32.8,17.7,47.5c7.8,13.9,18.8,27.6,34.2,33.3c30,11.1,57.1-22.4,72.1-43.4c9.1-12.7,17.2-26.3,24.1-40.3
	 	c4.4-8.8,7.5-17.1,9.3-26.8c2.8-14.7,5-29.9,4.9-44.9c0-10-1.1-27.6-15.3-25.7c-2.7,0.4-4.2,3.4-4.4,5.8
	 	c-2.8,30.7,11.4,59.2,13.7,89.3c2.3,29.8-4,59.9,1.9,89.6c2.2,11,6,23,15,30.4c7.4,6,16.9,7.4,26.2,6.4
	 	c10.6-1.1,20.9-4.3,31.1-7.3c11-3.2,21.9-6.6,32.6-10.6c22.8-8.4,48.8-19.1,64.4-38.7c4.8-6-3.7-14.5-8.5-8.5
	 	c-12.8,16-33.1,25.4-51.8,32.8c-18.9,7.5-38.6,13.7-58.3,18.5c-7.8,1.9-17.1,3.8-24.7,0.3c-9.1-4.2-12.2-15.9-14.1-24.8
	 	c-5.8-27.2-0.3-55.4-1.5-82.9c-1.4-31.9-17-62.4-14-94.5c-1.5,1.9-2.9,3.9-4.4,5.8c-0.4,0.1-1.6,0-1.7-0.1
	 	c-0.8-0.3-0.4,0.2-0.5-0.4c0.2,1.5,1,1.9,1.4,4.3c0.9,4.3,0.8,10,0.6,14.9c-0.4,11.9-1.9,23.7-4.1,35.4
	 	c-1.6,8.5-3.6,15.5-7.2,23.1c-5.9,12.4-12.8,24.3-20.4,35.7c-8.4,12.6-17.8,24.8-29.4,34.6c-7.9,6.8-18.9,13.9-29.9,11.7
	 	c-13.6-2.8-23.4-15.6-30-26.8c-7.9-13.3-13.2-28.1-16.9-43.1c-4.6-19.3-3.3-38.4,1.2-57.6c2.4-10.2,5.4-19.8,10.5-29
	 	c5.2-9.3,9.6-18.6,9.1-29.5C1325.6,1791.3,1313.6,1791.3,1314,1799L1314,1799z"/>
	 
	 
	 
	 
	 <path class="st0" d="M1770.8,1714c13.1,30.1,10.9,63.7,9.8,95.8c-1,32.9-0.3,65.9,14.2,96.2c3.3,7,13.7,0.9,10.4-6.1
	 	c-14.4-30.3-13.4-64.2-12.3-97c1.1-32.3,1.4-64.8-11.7-95C1778.1,1700.9,1767.8,1707,1770.8,1714L1770.8,1714z"/>
	 
	 
	 
	 
	 <path class="st0" d="M1880,1829c34.6,0,71.2,2.9,102.2-15.6c7.9-4.7,14.7-10.6,21.4-16.8c6.1-5.6,12.6-11.4,16.2-18.9
	 	c6.8-14,0.1-26.8-11.9-34.7c-11.2-7.4-24.8-11.1-37.6-14.4c-13-3.3-25.8-5.9-38.5,0.3c-26.7,13.1-27.4,51.4-17.6,75.2
	 	c7.4,17.9,22.3,29,36,41.8c7.6,7.1,14.1,15.4,21.4,22.8c7.7,7.9,16,15.2,24.2,22.5c5.7,5.1,14.3-3.3,8.5-8.5
	 	c-12.8-11.4-25.2-23-36.5-35.9c-9.6-11.1-21.9-19.4-31.7-30.3c-15.7-17.4-23.4-50.8-6.9-70.4c7.5-8.9,18.8-10.7,29.7-8
	 	c10.6,2.6,21.4,5.2,31.5,9.3c8.3,3.4,21.9,9.6,20.1,20.7c-1.1,6.6-6.8,11.9-11.4,16.2c-5.9,5.6-11.8,11.2-18.5,15.8
	 	c-29.8,20.3-66.4,17-100.7,16.9C1872.3,1817,1872.3,1829,1880,1829L1880,1829z"/>
	 
	 
	 
	 
	 <path class="st0" d="M2147.8,1675.2c9.8,11.9,10.1,31,11.4,45.6c2.1,22.2,4.8,44.3,6.6,66.5c4.1,48.4,9.1,96.7,10.9,145.2
	 	c1,27.5,1.3,54.9,1.3,82.4c0,7.7,12,7.7,12,0c0-50.1-0.9-100.2-5.6-150c-2.3-25.2-4.3-50.4-6.4-75.6c-1.9-22.9-4.7-45.6-6.8-68.5
	 	c-1.7-18.3-2.8-39.3-15-54.1C2151.3,1660.8,2142.9,1669.3,2147.8,1675.2L2147.8,1675.2z"/>
	 
	 
	 
	 
	 <path class="st0" d="M2161.6,1692.8c23.1-3.4,46.5,8.6,68.2,14.7c25.8,7.3,52.1,12.4,77.7,20.1c12.5,3.8,25.1,7.8,36.8,13.7
	 	c11,5.6,21.3,12.3,31.1,19.7c9.7,7.3,19,15.1,28.3,23c8.6,7.2,17.3,14.2,24.4,22.9c11.9,14.5,16.3,32.1,13.6,50.6
	 	c-1.6,11.1-5.3,21.7-9.2,32.1c-4.2,11.3-8.6,22.5-13.9,33.4c-10,20.5-23.3,42-43,54.6c-18.6,11.8-40.4,17.2-61.1,23.9
	 	c-28,9-55.4,16.5-85.1,15.9c-28.7-0.5-55.7-11.1-83.8-16.1c-7.6-1.4-10.8,10.2-3.2,11.6c26.4,4.7,51.8,14.2,78.7,16.2
	 	c27.5,2,55.4-2.8,81.6-11.1c22.9-7.2,46.9-13.6,68.5-24.3c21.9-10.8,37.8-29.3,49.9-50.2c6.6-11.3,12-23.3,16.9-35.5
	 	c4.6-11.4,9.2-23,12.4-34.8c5.2-19.5,5.7-39.9-3.2-58.5c-10.4-21.4-31-35.9-48.9-50.6c-20-16.4-40.9-31.5-65.3-40.6
	 	c-29.9-11.2-61.5-17.9-92.5-25.6c-26.9-6.7-53.9-20.9-82.3-16.7C2150.8,1682.3,2154,1693.9,2161.6,1692.8L2161.6,1692.8z"/>
	 
	 
	 
	 
	 <path class="st0" d="M2651.8,1659.2c29.7,29.4,30.5,75.9,30.5,115c-0.1,55.7,0.3,111.3,0.4,167c0.1,27.2,0.5,54.5-0.5,81.7
	 	c-0.6,17.2-2.6,34.6-8.6,50.8c-5.2,14.1-14.2,26.6-26.9,34.8c-17.4,11.1-39.1,14.3-59.4,13.7c-27.8-0.8-53.6-10.7-79.8-19.3
	 	c-21.6-7.1-41.7-15-54.3-35c-4.1-6.5-14.5-0.5-10.4,6.1c11.9,18.9,29.5,29.4,50.1,36.7c23.2,8.2,46.8,17.1,71.2,21.2
	 	c40.2,6.8,88.7,0.4,112.3-36.8c9.5-15,13.8-32.5,16-49.9c3.1-24.4,2.2-49.4,2.2-74c0.1-60.5-0.8-121-0.5-181.6
	 	c0.2-46.9,2.2-103.2-33.9-138.9C2654.7,1645.3,2646.3,1653.8,2651.8,1659.2L2651.8,1659.2z"/>
	 
	 
	 
	 
	 <path class="st0" d="M2500.2,1699.2c8.7-6.9,20.3-6.8,30.8-6.9c12.4-0.1,24.7-1.5,37.1-2.8c26.5-2.7,52.9-4.3,79.5-5.4
	 	c25.9-1,51.7-1.8,77.6-3.7c24.6-1.8,49.6-3.6,73.2-11.2c26.6-8.5,51.3-21.8,76.6-33.1c7-3.1,0.9-13.5-6.1-10.4
	 	c-22.8,10.2-45,22-68.7,30.2c-24.3,8.4-49.6,10.6-75.1,12.5c-52.7,3.8-105.4,3.8-158,9.1c-13.6,1.4-27.1,2.4-40.8,2.7
	 	c-12.7,0.3-24.5,2.3-34.6,10.4C2485.7,1695.6,2494.3,1704,2500.2,1699.2L2500.2,1699.2z"/>
	 
	 
	 
	 
	 <path class="st0" d="M2860.2,1795.2c8.2-7.8,17.4-14.6,27.1-20.4c10.1-6.1,21.9-12.4,34-13.2c25.4-1.7,32.5,32.7,34,51.9
	 	c1,12.2,0.8,24.7-0.8,36.8c-1.6,11.5-6.9,21.5-17.1,27.6c-9.9,5.9-21.8,8.2-33.1,9.4c-12.5,1.4-26.4-0.1-38.3,4.2
	 	c-27.8,10.1-23.8,43.8-24,67.6c-0.1,7.7,11.9,7.7,12,0c0.2-19.9-5.1-53.4,21.7-57.7c6.8-1.1,13.8-0.9,20.6-1.4
	 	c6.7-0.5,13.3-1.2,19.9-2.4c12.1-2.1,24.2-6.1,33.8-14c10.5-8.7,15.1-21.1,16.6-34.3c1.5-13.1,1.7-26.5,0.3-39.7
	 	c-2.4-23-11.7-56.9-39.4-59.9c-14.5-1.5-29.4,5.2-41.8,12.1c-12.2,6.8-23.9,15.3-34,24.9
	 	C2846.2,1792.1,2854.7,1800.6,2860.2,1795.2L2860.2,1795.2z"/>
	 
	 
	 
	 
	 <path class="st0" d="M2872,2033c-7.2,0.4-15.7-2.4-17.9-10.1c-1.4,2.5-2.8,4.9-4.2,7.4c2.6-0.5,5.1-1,7.7-1.5
	 	c7.6-1.5,4.4-13.1-3.2-11.6c-2.6,0.5-5.1,1-7.7,1.5c-3.2,0.6-5,4.4-4.2,7.4c3.6,12.7,16.8,19.6,29.5,18.9
	 	C2879.7,2044.5,2879.7,2032.5,2872,2033L2872,2033z"/>
	 
	 
</g>
<g id="viensg">
	
		<path class="st0" d="M4136.6,815.4c-21.4,35.6-48.7,42-84.1,60c-24.5,12.4-49.9,29.3-77.1,34.8c-21.7,4.3-45.9,1.2-67.8,1.2
			c-23.1,0-46.3,0-69.4,0c-42.4,0-86.9,3.7-129.2-0.4c43.6,4.6,82.5,18.7,121.7,36.7c45.5,20.9,106.8,11.5,155,11.8
			c43.7,0.3,85.9-6.7,126.4-23.7c24.9-10.5,48.9-20.8,75.4-27.1c36.1-8.7,72.9-9,109.5-13.8c41.3-5.4,75.3-12.6,116.8-1
			c37.4,10.5,69,24.2,108.1,28.6c47.8,5.4,99.4,11.4,146.9,1.4c42.9-9.1,84.1-23.4,124.8-39.6c39.8-15.8,60.8-25.7,66.5-71.5
			c4.3-34.7-3.9-80.4-32.7-104.2c-35.1-28.9-86.9-38.2-129.8-49.4c-44.7-11.7-91-22.8-136.4-31.6c-20.3-4-40.8-6.3-61.5-4.1
			c-22.6,2.5-42,12.4-63.9,18.1c-23.3,6.1-47.6,6.5-71.1,11.5c-31.9,6.8-62.8,12-95.2,16.6c-16.4,2.4-32.6,6.7-49.2,7.7
			c-18.6,1.1-28.9-0.7-43.4,13.1c-7.9,7.6-15.7,15.6-22.4,24.2c-8.8,11.3-17.6,18.2-27.1,28.4c-18.8,20.1-21.5,44.9,3.3,60.1"/>
		
			<path d="M4131.4,812.4c-12.8,20.9-30.9,33.5-52.7,43.9c-11.6,5.5-23.2,10.7-34.6,16.7c-13.2,7-26.1,14.5-39.7,20.9
				c-13.7,6.4-28.1,11.1-43.2,12.2c-15.2,1.1-30.5-0.1-45.7-0.5c-32.3-0.8-64.7-0.5-97,0.1c-36.6,0.7-73.2,2.8-109.7-0.6
				c-7.7-0.7-7.6,11.2,0,12c38,4.1,74.4,16.2,109.2,31.6c15.7,7,30.9,12.9,48,15.5c17,2.7,34.3,3.3,51.5,3.1
				c17.1-0.2,34.3-1.1,51.4-1.6c18.1-0.5,36.2-0.1,54.3-1.8c18.4-1.8,36.8-5,54.6-9.9c18.7-5.2,36.4-12.7,54.3-20.1
				c17.9-7.3,36-14.2,54.7-18.9c19.9-5,40.2-7.3,60.5-9.1c19.9-1.8,39.8-3.6,59.7-6.3c18.6-2.6,37.2-5.4,56.1-5.8
				c19.7-0.4,38.4,2.8,57.2,8.4c18,5.4,35.8,11.6,53.9,16.8c37,10.5,76.3,14,114.6,15.9c19.6,1,39.4,0.9,58.9-1.4
				c19.1-2.3,37.9-6.8,56.5-11.9c36.2-10,71.8-22.9,106.3-37.6c21.3-9.1,40.1-21,49-43.4c10.3-26,9.6-57.9,2.5-84.6
				c-3.8-14.2-10-27.9-19.1-39.6c-9.5-12.1-22.7-21.1-36.2-28.3c-29.1-15.5-61.7-23-93.5-30.8c-38.3-9.5-76.4-19.5-114.9-27.8
				c-38.3-8.3-78.6-18.4-117.5-8.2c-18,4.7-35.1,12.5-53.3,16.5c-19.6,4.3-39.7,5.3-59.4,8.9c-19.8,3.7-39.4,7.9-59.2,11.3
				c-19.8,3.3-39.7,5.8-59.4,9.6c-9.8,1.8-19.5,3.7-29.4,4.3c-7.2,0.4-14.4,0.4-21.5,1.4c-15.4,2.3-26,12.7-36.3,23.6
				c-6.6,7-12.3,14.7-18.8,21.8c-5.9,6.4-12.4,12.2-18.4,18.4c-10,10.3-18.7,23.4-18.6,38.4c0.1,14.6,9.1,25.9,21,33.4
				c6.5,4.2,12.6-6.2,6.1-10.4c-12-7.7-18.1-19.5-13.2-33.4c5.4-15.2,19.6-25.2,30.3-36.5c11.8-12.5,21.5-28,35.8-38
				c11.4-7.9,25.9-5.8,39-7.1c18.9-1.9,37.6-6.3,56.3-9.1c19.1-2.9,38.2-6,57.2-9.6c18.9-3.6,37.6-7.6,56.7-10
				c18.7-2.3,37-5.1,55-11c17.1-5.7,33.9-12.6,52-14.2c19.8-1.7,39.4,0.8,58.8,4.6c38.2,7.5,76.2,16.4,113.9,26
				c32,8.1,64.8,14.9,96,25.9c28.1,9.9,56.8,24.4,71,52c12.8,24.9,15.6,56,10.2,83.3c-2.1,10.7-5.6,21.3-12.7,29.8
				c-6.7,8-15.6,13.4-24.8,17.9c-13.4,6.6-27.6,11.7-41.6,17c-18,6.8-36.2,13.3-54.7,18.9c-18.4,5.6-37,10.7-55.9,14.4
				c-18.3,3.5-37.1,4.5-55.7,4.4c-19-0.2-38-1.7-57-3.6c-18.8-1.9-37.5-3.7-55.9-8c-35.2-8.2-68.8-24.2-104.9-28.7
				c-36.5-4.5-72.8,4.1-109,7.8c-38.1,3.9-76.3,5.7-113.1,17.2c-35.5,11.2-68.3,29-104.7,37.4c-18.1,4.2-36.4,6.6-55,7.6
				c-16.5,0.9-33,0.4-49.6,1c-33.1,1.2-67.1,3.7-99.6-3.5c-16.6-3.7-31.6-11.3-47.2-17.8c-16.3-6.8-33-12.9-50.1-17.7
				c-17.2-4.8-34.7-8.1-52.4-10c0,4,0,8,0,12c33.6,3.2,67.3,1.7,100.9,0.8c33.9-0.8,67.8-0.9,101.7-0.4c15.9,0.2,31.8,1.7,47.7,0.7
				c15.3-0.9,29.8-4.7,43.9-10.7c13.8-5.9,26.9-13.2,40-20.4c12-6.5,24.3-12.3,36.7-18.1c11.8-5.5,23.5-11.3,34-19.2
				c11.4-8.6,20.5-19.2,28-31.4C4145.8,811.9,4135.5,805.8,4131.4,812.4L4131.4,812.4z"/>

			<path d="M4240.4,709.2c-14.5,11.6-16.8,29.8-24.3,45.6c-8.5,17.7-18.4,34.5-19.4,54.6c-0.4,7.7,11.6,7.7,12,0
				c0.9-18.3,10.9-33.8,18.5-50c6.7-14.3,8.8-31.3,21.8-41.7C4254.9,712.9,4246.3,704.4,4240.4,709.2L4240.4,709.2z"/>
			<path d="M4232.6,737.4c12.3,0,26.9-3.6,38.4,2.2c8.3,4.2,15.1,14,19.5,21.8c1.9,3.4,2.5,5.2,1.1,9c-1,2.8-3,4.8-5.7,6
				c-7,3.2-15.9,1.8-23.1,0.2c-8.5-1.9-17-4.8-24.5-9.3c-1.5,3.7-3.1,7.3-4.6,11c12.1,1.9,23.8,11.5,26.9,23.6
				c1.9,7.6-8.6,9.6-14.1,11.7c-12.8,5-27.1,10.4-41.1,8.6c-13.5-1.7-24.4-11.3-35.8-18c-6.7-3.9-12.7,6.5-6.1,10.4
				c14.6,8.5,27.6,19.2,45.2,19.8c17,0.6,34.1-6,49.5-12.7c10.8-4.7,17.5-12.6,13.3-24.7c-5.1-15-18.8-27.8-34.7-30.3
				c-6.4-1-10.9,7.2-4.6,11c8.3,5,17.9,8.4,27.3,10.5c10.2,2.3,21.9,3.5,31.7-1.1c8.9-4.1,15.5-15.3,12.6-25.2
				c-1.7-5.7-5.4-10.8-8.9-15.4c-3.3-4.4-6.9-8.9-11-12.6c-14.6-12.7-33.7-8.6-51.3-8.5C4224.9,725.5,4224.9,737.5,4232.6,737.4
				L4232.6,737.4z"/>
			<path d="M4328.6,725.4c0.2,14.9-5.7,29.5-8.5,43.9c-2.2,11.5-4,28.6,10.4,32.9c9.7,2.8,20.8-1.5,29.7-5c7.1-2.9,4-14.5-3.2-11.6
				c-5.5,2.2-11.3,4.6-17.3,5.3c-0.9,0.1-1.7,0.1-2.6,0.2c-0.3,0-2.5-0.1-1.9,0c-1.7-0.3-2-0.4-2.8-1c1,0.8-0.5-0.5-0.7-0.7
				c0.8,1.1-0.1-0.3-0.2-0.5c0-0.1-0.7-1.9-0.9-3.3c0.1,1.1,0-0.7,0-0.9c0-0.9,0-1.8,0-2.7c0-1.6,0.2-3.3,0.4-4.8
				c2.3-17.3,9.9-34,9.6-51.6C4340.5,717.7,4328.5,717.7,4328.6,725.4L4328.6,725.4z"/>
			<path d="M4340.6,767.4c16.9,0.6,34.4,0,46.2-13.8c5-5.8-3.4-14.3-8.5-8.5c-9.7,11.3-24,10.7-37.7,10.2
				C4332.9,755.2,4332.9,767.2,4340.6,767.4L4340.6,767.4z"/>
			<path d="M4332.8,729.7c8.8-8.8,22.3-10,34.1-10.3c6.9-0.2,13.7-0.4,20.5-1.7c6.9-1.3,13.7-3.3,20.7-4.4
				c7.6-1.2,4.4-12.8-3.2-11.6c-7.5,1.2-14.8,3.4-22.2,4.7c-7.1,1.2-14.3,0.7-21.4,1.2c-13.4,0.9-27.1,3.8-37,13.6
				C4318.8,726.6,4327.3,735.1,4332.8,729.7L4332.8,729.7z"/>
			<path d="M4466.5,707.5c0.6,8.9-7.4,16.3-12.6,22.7c-7,8.7-12.3,18.7-17.1,28.7c-4.3,8.9-7.8,18.1-11,27.4
				c-3.2,9.1-6.5,18.3-12.4,26.1c-4.7,6.1,5.7,12.1,10.4,6.1c6-7.9,9.6-17.4,12.9-26.7c3.6-10.3,7.4-20.3,12.2-30.1
				c5-10,10.6-19.2,17.6-27.9c6.1-7.5,12.8-16.1,12.1-26.4C4478,699.8,4466,699.7,4466.5,707.5L4466.5,707.5z"/>
			<path d="M4454.8,703c2.9,18.5,6.6,36.9,5.6,55.7c-0.6,11.2-1.5,22.7,1,33.7c2.3,10.4,10.1,18.6,21.3,14.5
				c13.3-4.9,20.1-21.4,25.2-33.4c3.1-7.4,6.4-14.9,8.9-22.6c3.3-10.2,3.6-20.9,3.8-31.5c0.1-7.7-11.9-7.7-12,0
				c-0.2,8.2-0.2,16.5-2.3,24.5c-1.6,6.3-4.3,12.3-6.7,18.3c-2.4,6.2-5.1,12.3-8.2,18.1c-2.6,4.8-5.5,10.3-9.9,13.7
				c-1.4,1.1-3.6,2-4.6,2.1c-0.9,0.1-0.7,0.4-1.7-0.8c-1.5-1.7-2.4-6.2-2.8-9.3c-1.3-9.5-0.3-19.2,0.1-28.7
				c0.9-19.3-3.2-38.5-6.1-57.5C4465.2,692.3,4453.6,695.5,4454.8,703L4454.8,703z"/>
	
	
	
	
	<path d="M4580.3,853c7.4-18,15.3-35.5,17.7-55c1.8-14.4-0.3-32.4,8-45c-2.7,0.7-5.5,1.4-8.2,2.2c12.2,6.4,16.8,21.8,20.6,34
		c4.4,14,7.6,29,15,41.9c1.6,2.8,3.7,6.8,6.9,7.8c2.8,0.8,6.4,0.2,9-0.7c5.3-1.9,9-6.4,11.3-11.4c5.2-11.4,5.6-24.7,6-37.1
		c0.1-2.9,0.2-5.8,0.4-8.7c0.1-1.1,0.1-2.2,0.2-3.3c0.2-2-0.3,2.1,0.1-0.9c0.2-1.8,0.5-3.6,0.7-5.4c1.7-13.2,2.1-26.6,2.3-39.9
		c0.1-7.7-11.9-7.7-12,0c-0.3,21.3-2.9,42.3-4,63.5c-0.4,7.7-1,15.6-3.3,23c-1.7,5.5-4,9.5-9.3,9c1.7,1,3.5,2,5.2,3
		c-9.9-13.1-12.8-30.5-17.7-45.8c-4.7-14.8-11-31.7-25.5-39.4c-3-1.6-6.4-0.7-8.2,2.2c-8.6,13-7.8,30.8-9.1,45.7
		c-1.8,20.3-10.3,38.6-17.9,57.2C4565.8,857,4577.4,860.1,4580.3,853L4580.3,853z"/>
	
	
	
	
	<path d="M4682.5,725.4c1.7,15.3-9.8,26.8-12,41.4c-1.8,11.9,2.6,27,13.7,33.3c12.3,7,25.5-2.3,31.6-13c6.1-10.6,12.4-24.7,7.7-37
		c-5.4-14.1-20.2-19.7-30.8-29.1c-5.8-5.1-14.3,3.4-8.5,8.5c7.7,6.8,17.5,11.2,24.4,18.9c7.1,8,4.3,16.9,0.3,25.7
		c-2.8,6.2-10,20.6-19.1,15.2c-7.9-4.6-8.8-17.1-6.6-24.9c1.8-6.5,5.4-12.4,8-18.6c2.8-6.6,4.1-13.5,3.3-20.6
		C4693.6,717.9,4681.6,717.8,4682.5,725.4L4682.5,725.4z"/>
	
	
	
	
	<path d="M4747.7,860.4c-4.5-7.5-7.9-15.3-9.6-23.9c-1.6-8.1-1.6-16.4-1.6-24.6c0-8.1-0.4-16.1-0.7-24.1
		c-0.3-7.2-0.9-16.5,4.1-22.4c-1.4,0.6-2.8,1.2-4.2,1.8c13.2,0.7,24,14.9,30.8,24.7c8.1,11.8,15.2,25.2,18.4,39.2
		c1.5,6.5,12.3,5.2,11.8-1.6c-1.1-14.5,3.4-28.2,5.4-42.4c2-14.4,0.6-29.1,0.5-43.6c0-7.7-12-7.7-12,0c0.1,14.6,1.7,29.5-0.6,43.9
		c-2.2,14-6.4,27.8-5.3,42.1c3.9-0.5,7.9-1.1,11.8-1.6c-2.8-12.2-8.5-24.1-15-34.8c-7-11.7-15.7-23.2-27-31.1
		c-4.8-3.4-10.3-5.8-16.1-6.6c-7.9-1-11.5,6.9-13.2,13.6c-1.9,7.5-1.6,15.4-1.1,23c0.5,7.7,0.5,15.3,0.5,23
		c0.1,18.6,3.1,35.3,12.8,51.4C4741.3,873.1,4751.7,867,4747.7,860.4L4747.7,860.4z"/>
	
	
</g>
<g id="viens">
	
		<path class="st0" d="M7004,509.5c2.2,93.8,76.3,180.9,139.4,244.9c12,12.1,26.1,21.4,39.6,31.6c13.5,10.1,17.4,18.3,27.1,0.5
			c11.4-21.1,3.1-55.7-2.8-77.8c-8.6-32-23.4-64.3-41.6-91.8c-22.1-33.5-24.9-62-31.6-100.3c-4.9-5.8-5.3-11.8-1.2-18.1
			c7.7-5.7,16.4-8,25.9-6.9c24.9-1.4,48.9-5.5,72.9-12.8c20-6.9,39.8-14.2,59.6-21.8c16-4.9,31.7-10.7,47.1-17.3
			c15.4-8.7,25.2-22,32.2-38c21.8-49.8-7.2-84.8-38.5-122.7c-19.8-23.9-40.8-39-69.1-51.9c-41.7-18.9-81.3-15.8-125.8-18.8
			c-44.8-2.9-89-4.9-134-4.7c-66.4,0.2-135.3-5.6-201.4,0.6c-66.9,6.3-152.3,28.7-170.5,101.5c-4.8,19.3-8,40.6-4.4,60.5
			c4.2,23.6,20.3,40.4,35,58.2c50.5,60.9,132.2,67.2,205.9,67.2c45.4,0,90.9,0,136.3,0"/>
	
			<path d="M6998,509.5c2.2,78.4,49.7,147.5,99.5,204.5c12.3,14,25,27.6,38,40.9c14.7,15,32,26,48.2,39.2c4.6,3.7,9.7,8.8,16,8.8
				c7,0,11.6-6.4,14.8-11.9c8.9-15.6,8.2-34.4,5.7-51.6c-5.8-39.9-21.1-79-41.7-113.5c-5.4-9-11.4-17.5-16.3-26.8
				c-4.3-8.2-7.7-16.9-10.5-25.7c-5.5-17.9-8.1-36.6-11.3-55.1c-0.4-2.4-0.8-4-2.1-6.1c-1.3-1.9-2.4-3.7-2.2-6.1
				c0.4-5.1,6.4-6.9,10.6-8c4.7-1.3,9.2-0.7,13.9-0.8c6-0.2,12.1-0.9,18-1.6c22.7-2.7,44.8-7.7,66.4-15.4
				c21.3-7.5,42.4-15.4,63.7-22.8c19.1-6.6,38.7-13,52.2-28.8c12.1-14.2,20.2-32.6,22.6-51.1c2.2-17.7-2-35-9.8-50.8
				c-8.3-16.7-20.3-31.4-32.1-45.8c-11.9-14.4-24.4-27.7-39.6-38.7c-15.7-11.4-33.5-20.5-51.9-26.8c-19.6-6.7-40.3-9.5-60.9-10.8
				c-21.3-1.3-42.6-1.9-63.9-3.2c-23.6-1.5-47.2-2.6-70.8-3.3c-23.5-0.7-47-0.5-70.6-0.8c-23.3-0.3-46.6-1.1-69.9-1.6
				c-42.9-1-86.1-1.4-128.7,4.1c-56.9,7.4-125.7,26.9-152.4,83.3c-8.1,17.1-11.9,36.5-13.3,55.2c-1.5,20.9,2.1,40.9,13.4,58.7
				c5.1,8.1,11.2,15.5,17.3,22.8c6,7.2,11.9,14.4,18.6,21c12.4,12,26.7,22,42.2,29.7c31.3,15.6,66.2,22.2,100.8,25
				c40.8,3.3,82,1.9,122.9,1.9c23,0,46.1,0,69.1,0c7.7,0,7.7-12,0-12c-45.4,0-90.9,0-136.3,0c-33.7,0-67.8-1.2-100.8-8.4
				c-32.3-7-63.6-20.3-87.9-43.2c-6.6-6.2-12.3-13.1-18.2-20c-5.8-6.9-11.7-13.9-16.7-21.5c-11.3-17.4-14.2-36.3-12.4-56.7
				c1.6-17.3,5.4-35.4,13.7-50.8c6.5-12.1,15.5-22.5,26.1-31.3c22.3-18.4,50.6-28.6,78.4-35.2c77.5-18.3,158.9-9.6,237.7-8.9
				c44.9,0.4,89.7,1.1,134.6,3.8c20.8,1.3,41.7,2,62.5,3.1c19.6,1.1,39,3.3,57.8,9.2c18.2,5.7,35.8,14.7,51.4,25.7
				c14.6,10.3,26.7,23.1,38,36.9c21.4,25.9,45.9,56.5,39,92.4c-3.3,17.2-12,34.7-25.2,46.4c-7.4,6.6-16.2,9.9-25.4,13.5
				c-10.1,3.9-20.5,7.1-30.7,10.6c-20.6,7.1-40.6,16-61.4,22.3c-21,6.4-42.8,10.1-64.7,11.7c-10,0.7-18.8-0.1-28.1,4.6
				c-4.2,2.1-7.5,4.4-9.4,8.8c-1.9,4.3-2.5,9.2-1.1,13.8c0.6,2.1,1.9,3.9,2.9,5.8c0.9,1.7,1,3,1.4,5.1c0.8,4.9,1.6,9.8,2.5,14.6
				c1.5,8.9,3.1,17.7,5.2,26.5c4.2,17.4,10.6,34.2,19.9,49.6c10.6,17.6,21.3,34.7,29.7,53.5c7.9,17.8,13.8,36.3,18.3,55.2
				c3.9,16.2,7.5,34.3,3.8,50.8c-0.8,3.4-1.9,6.8-3.5,9.9c-1,1.9-3.2,6.6-5.2,7.4c-0.3,0.1-2.1-0.9-3.5-2c-2.9-2.1-5.6-4.5-8.4-6.7
				c-8.1-6.2-16.5-11.9-24.5-18.2c-7.9-6.2-15-13.1-22-20.2c-50.8-52.1-102-111.5-122.9-182.7c-4.9-16.8-7.9-34-8.4-51.5
				C7009.8,501.8,6997.8,501.8,6998,509.5L6998,509.5z"/>
	
	
	
	
	<path d="M6780.3,403.3c-2-1.6-2.9-3.4-3.8-5.8c-1.3-3.7-2-7.6-2.4-11.6c-1-10.3-0.6-20.8,0.8-31c1.3-9.8,3.4-20,7.5-29
		c1.5-3.4,3.4-6.9,5.6-9.1c1.4-1.4,1.3-1.5,2.8-2.2c0.6-0.3,0.8-0.3,1.9-0.3c-1.4-0.6-2.8-1.2-4.2-1.8c7.1,6.3,9.1,16.9,10.4,25.9
		c1.4,10.2,1.4,20.5,1.4,30.7c0,10.5-1.1,20.8-1.8,31.2c-0.7,11.2-1,23.5,4.6,33.7c1,1.8,3.1,3,5.2,3c7.8-0.2,14-5.7,18.7-11.4
		c6.6-7.9,11.7-16.9,16.4-26c8.3-16,16.4-33,21.5-50.3c3.2-10.8,5.8-26.1,16.2-32.5c6.6-4,0.6-14.4-6.1-10.4
		c-18.2,11.1-19.1,36.1-26.8,53.9c-7.3,16.8-14.5,34-24.6,49.4c-2.6,3.9-5.3,7.7-8.7,11c-1.2,1.1-2.4,2.2-3.8,3
		c-1.2,0.7-2.4,1.1-3,1.1c1.7,1,3.5,2,5.2,3c-5.1-9.3-3.4-21.8-2.6-31.9c0.8-9.9,1.5-19.6,1.5-29.5c-0.1-18.6,0.5-41.9-10.9-57.7
		c-2.6-3.5-5.4-6.9-10.1-6.5c-3,0.2-5.8,1.3-8.3,3.1c-5.2,3.7-8.7,9.5-11.2,15.2c-6.6,15-9.3,31.9-10,48.1
		c-0.4,8.8-0.1,17.7,1.7,26.3c1.2,5.9,3.4,12.9,8.4,16.8C6777.9,416.5,6786.4,408,6780.3,403.3L6780.3,403.3z"/>
	
	
	
	
	<path d="M6926.1,317.5c-10.7,0.1-22.1-3.4-32.2,1.8c-7.9,4.1-11.6,13-13.5,21.2c-1.8,7.8-2.3,15.8-2.8,23.7
		c-0.5,8.2-1.4,16.5-1.1,24.8c0.3,8.5,3.9,16.6,11.5,21.1c7.9,4.6,18.2,4.4,27,4c20.1-1,33-14.6,38.2-33.2
		c3.2-11.3,4.8-23.8,2-35.4c-2.9-12.4-10.5-22.9-18.9-32.2c-5.2-5.7-13.6,2.8-8.5,8.5c6,6.7,11.8,14.1,14.6,22.7
		c2.8,8.5,2.5,17,0.9,25.7c-2.5,13.6-8.2,28-23.2,31.3c-6.8,1.5-15.7,1.5-22.5-0.3c-5.7-1.5-8.9-6-9.2-11.7
		c-0.3-7.1,0.3-14.2,0.8-21.2c0.4-5.7,0.5-11.5,1.2-17.2c0.8-6.3,2-15.9,7.4-20.2c7-5.6,20-1.3,28.1-1.4
		C6933.8,329.5,6933.8,317.5,6926.1,317.5L6926.1,317.5z"/>
	
	
	
	
	<path d="M6997.8,421.1c3.7-23.3,7.6-47.7,6-71.3c-0.5-7.1-1.3-14.2-1.4-21.3c0-3.4,0-6.9,0.7-10.2c0.5-2.3,1.3-4,2-4.1
		c-1.9-0.5-3.9-1-5.8-1.5c12,10.4,18.2,26.9,23.2,41.6c1.8,5.3,3.2,10.3,4,15.9c0.8,5.4,1.5,10.9,3.4,16
		c4.3,11.4,15.9,16.8,26.5,9.1c10.4-7.5,15.1-21.6,19.9-32.9c7.1-16.7,20.3-30.8,23.4-49.1c1.3-7.6-10.3-10.8-11.6-3.2
		c-2.4,13.8-10.9,24.5-17.6,36.4c-4.4,7.9-7.2,16.6-11.2,24.7c-2.2,4.6-7.4,16.8-14.2,15.8c-5.1-0.7-5.9-12.3-6.6-16.2
		c-3.1-20.1-10.6-41.4-22.8-57.8c-2.7-3.6-7.2-10.5-12.2-10.6c-3.8,0-7.4,3-9.3,6c-4.5,7.2-4,17.1-3.6,25.2
		c0.5,11.1,1.6,21.8,1.2,33c-0.6,17.3-2.9,34.3-5.6,51.4C6985.1,425.5,6996.6,428.7,6997.8,421.1L6997.8,421.1z"/>
	
	
</g>
</svg>
