<?xml version="1.0" encoding="utf-8"?>
<!-- Generator: Adobe Illustrator 19.0.0, SVG Export Plug-In . SVG Version: 6.00 Build 0)  -->
<svg version="1.1" xmlns="http://www.w3.org/2000/svg" xmlns:xlink="http://www.w3.org/1999/xlink" x="0px" y="0px"
	 viewBox="0 0 11073.5 2382.8" style="enable-background:new 0 0 11073.5 2382.8;" xml:space="preserve">
<style type="text/css">
	.st0{fill:none;stroke:#000000;stroke-width:10;stroke-miterlimit:10;}
	.st1{fill:none;stroke:#FF0000;stroke-width:29;stroke-miterlimit:10;}
	.st2{fill:none;stroke:#000000;stroke-width:16;stroke-miterlimit:10;}
	.st3{fill:#FFFFFF;}
	.st4{fill:#0C2307;}
	.st5{fill:#FF0000;}
	.st6{fill:#BABABA;}
	.st7{fill:none;stroke:#000000;stroke-miterlimit:10;}
</style>
<g id="noclick">
	<path id="XMLID_41_" class="st0" d="M8215.8,1257.3c13.1-31.8,10.6-132.3,60.2-124.5c40.1,6.3,81.6,121.2,23.8,136.5"/>
	<path id="XMLID_43_" class="st0" d="M8215.8,1197.3c30.7,2.2,60.7-3.3,90-12"/>
	<path id="XMLID_48_" class="st0" d="M8365.8,1125.3c7.8,27.2,12.5,55.4,12,84"/>
	<path id="XMLID_49_" class="st0" d="M8401.8,1095.3c19.8,31.3,40.5,69.2,36,108"/>
	<path id="XMLID_50_" class="st0" d="M8353.8,1179.3c29.1-11.3,58.2-25.5,90-24"/>
	<path id="XMLID_627_" class="st0" d="M7783.9,1472.1c0,20,0,40,0,60"/>
	<path id="XMLID_634_" class="st0" d="M7795.9,1400.2c0-10,0-20,0-30"/>
	<path id="XMLID_641_" class="st0" d="M7873.9,1424.1c-22.1,26-23.6,70.4-21.9,101.6c11.3-0.6,18.2-5.2,27.8-11.6"/>
	<path id="XMLID_648_" class="st0" d="M7975.8,1466.1c2.5,28.2,8.8,58.8,18.7,82.6c14.2-1.6,16.2-7.9,23.3-16.6"/>
	<path id="XMLID_655_" class="st0" d="M7969.8,1508.1c12-8,24-16,36-24"/>
	<path id="XMLID_662_" class="st0" d="M7975.8,1466.1c1.6-6.9,5.6-10.9,12-12"/>
	<path id="XMLID_669_" class="st0" d="M8059.8,1460.1c-14.6,7.6-26.7,22-34.6,36c25.5,21.8,75.8,39.8,22.6,66"/>
	<path id="XMLID_676_" class="st0" d="M8101.8,1478.1c7.9,27.5,6.4,55.6,6,84"/>
	<path id="XMLID_683_" class="st0" d="M8077.8,1496.1c16.7-12.5,34.9-22.6,54-30"/>
	<path id="XMLID_690_" class="st0" d="M7855.9,1604.1c0,44.3-6.9,95.8,4.7,137.6c26.7,2.5,52.9-6,73.3-23.6"/>
	<path id="XMLID_697_" class="st0" d="M7957.9,1742.1c0.4-30.3-4.1-60.9,6.8-88.6c34.2,2.3,77.2,70.4,47.2,100.6"/>
	<path id="XMLID_704_" class="st0" d="M7957.9,1712.1c14.5-9,30.8-15,48-18"/>
	<path id="XMLID_711_" class="st0" d="M8011.8,1646.1c-20.8-8.3-39.2-21.7-60-30"/>
	<path id="XMLID_725_" class="st1" d="M7945.9,1820.1c-163.2,51.2-252.1,90.1-402.2-19.5c-201.7-147.3-413.7-243.7-665.9-289.8
		c-165.5-30.3-313.6-11.3-479.2,0.6c-183,13.1-346.5,78.6-526.3,107.5c-207.9,33.4-412.3,39.6-617.4-9.4
		c-106.1-25.4-190.2-79.2-290.4-113.3c-74.2-19.5-132.3-17.8-209.9-5.8c-60.5,9.3-119.7,15-181.3,17.5
		c-44.6,1.8-142.2,35.9-181.9,23.6c-138.1-42.5-46.8-354.5-79.8-448.8c-26.5,6.7-47.4,34.1-54.1,58.1c18.2-21.8,29.5-47.2,47.2-69.1
		c22,24.5,44.2,51,66,76.6"/>
	<path id="XMLID_51_" class="st0" d="M8521.7,1070.2c0,36.5,9.3,82.9-12,114"/>
	<path id="XMLID_52_" class="st0" d="M8509.7,1262.2"/>
	<path id="XMLID_53_" class="st0" d="M8167.8,1790.1c7.5-34.9,25.3-66.4,12-102"/>
	<path id="XMLID_402_" class="st0" d="M8125.8,1670.1c27,2.5,53.4,14.2,78,24"/>
	<path id="XMLID_409_" class="st0" d="M8257.8,1688.1c0,40,0,80,0,120"/>
	<path id="XMLID_416_" class="st0" d="M8257.8,1640.1c3.6-5.5,5.6-11.5,6-18"/>
	<path id="XMLID_425_" class="st0" d="M8293.8,1664.1c0,36.4-0.9,72.9,0.8,109.1c13.9,2.2,29.2-3.3,41.2-13.2"/>
	<path id="XMLID_432_" class="st0" d="M8311.8,1718.1c10.7-7.4,23.1-11.6,36-12"/>
	<path id="XMLID_433_" class="st0" d="M8305.8,1670.1c5.2-5.2,11.2-9.2,18-12"/>
	<path id="XMLID_435_" class="st0" d="M8389.8,1664.1c0,48.9,7.5,102.5-6,150"/>
	<path id="XMLID_437_" class="st0" d="M8407.8,1670.1c14,32.6,23.8,68.5,37.3,100.3c15-34.5,11.7-75.2,10.7-112.3"/>
	<path id="XMLID_445_" class="st0" d="M8575.7,1652.1c-88,9.1-87.3-5.4-42.2,71c-15.7,4.9-32.3,15.4-47.8,19"/>
	<path id="XMLID_434_" class="st2" d="M8496,1245.8c1.9-8.4-1.9-13,4.1-20.3c5.1,10.7,1.1,6.4-0.6,19.4c-4.7,2.2-8.5,1.2-11.5-3.2"
		/>
</g>
<g id="viens">
	
		<path id="XMLID_603_" class="st3" d="M4661,834.5c-29-14.3-61.8-15.9-90.8-31.9c-9.1-5-36.8-22.4-37-36.1
			c-0.3-16.8,46.8-3.3,56.3-1c6.9,1.7,13.6,3.4,20.5,5c5.3,1.2,14.2,5.2,19.3,3.6c14.9-4.6,11.7-25.2,11.7-36.3
			c0-20.7-4.3-40.6-4.1-61.1c0.4-45.2-5.8-94.1,3.9-138.5c4.1-18.8,5.5-40.2,24.7-48.8c55.7-24.9,119.3-31.1,179.4-30.9
			c66.7,0.2,133.4,0,200.1,0c26.7,0,49.6-2.1,75.8-8.1c40.6-9.4,79.4-5.7,120.6-3.9c21,0.9,41.7,3.1,62.6,3.9
			c15.7,0.6,29.3,7.6,45.5,8c22.7,0.6,45.9,4.3,67.1,12c30.4,11.1,62.4,17.6,93,27.9c21.5,7.2,27.4,19.3,35.4,38.3
			c3.9,9.4,6.1,15.7,6.1,26.3c0.1,15.4-6.2,32.8-1.8,48.1c4.9,17,27.1,18.9,39.7,28.3c6.5,4.9,12.1,10.4,18.7,15.1
			c6.6,4.7,15.4,8.4,20.6,14.7c4.2,5.1,4.2,7.9,5.4,13.8c2.2,10.3,6.1,19.2,10.2,28.8c11.5,26.9,18.2,53.6,25.2,82.3
			c5.9,24.2,8.9,51.4,10.9,76.1c2.6,32.3,1.8,66.9-12.4,96.9c-17.9,37.7-47.7,69.7-71.2,103.8c-12.1,17.7-22.9,37.2-39.5,51.3
			c-17.5,14.8-40.3,23.9-61.3,32.2c-46.7,18.4-97,34.5-147,39.3c-33.4,3.2-66,5.2-98.7,12.6c-33.7,7.7-66.9,18.1-101.3,21.3
			c-22.6,2.1-45,3.1-67.7,2.9c-16.9-0.1-35.6,2.2-52.3-0.7c-22.6-4-45.1-22.5-63.4-35.1c-29.6-20.3-60.8-34.9-91.9-52.6
			c-22.3-12.7-49.4-22.4-68.8-39.6c-25-22.2-37.3-55.2-58.8-80.4c-15.9-18.7-25-41.6-40.9-59.9c-7.1-8.1-13.3-13.8-15.3-24.9
			c-1.8-9.8-2.6-17.4-5.7-26.9c-3.7-11.1-6.1-21.3-6.7-32.7C4676.6,865.3,4670.5,843.1,4661,834.5"/>
		
			<path id="XMLID_597_" d="M4664,829.3c-24.7-11.9-52.1-15.4-77.4-25.6c-9-3.6-17.4-8.3-25.4-13.8c-7.4-5.1-16.5-11.3-20.7-19.6
				c-0.6-1.2-1.2-2.5-1.3-3.9c0-0.9-0.2-0.4,0.1-0.7c0.5-0.6,3.3-1.3,5.2-1.5c7.5-0.8,15.4,0.7,22.7,2.1
				c17.4,3.4,34.5,8.7,51.7,12.9c9.7,2.4,19-0.2,24.2-9.3c4.4-7.6,4.3-17.1,4-25.7c-0.4-12.5-1-24.8-2.3-37.3
				c-1.5-14.7-1.8-29.2-2-44c-0.4-28.6-2.5-57.2-1-85.8c0.7-14,2.8-27.7,5.5-41.4c2-9.9,3.3-20.7,8.3-29.7
				c5.9-10.6,17.6-14.1,28.4-18.1c13.4-5,27.1-9,41-12.2c26.7-6.2,54.1-9.4,81.5-10.7c29.5-1.5,59-0.8,88.5-0.7
				c31.1,0,62.2,0,93.2-0.1c29.9,0,60,1.2,89.8-1.4c29-2.5,56.8-11.1,85.9-12.5c29.5-1.4,59.3,0.6,88.8,2.4
				c14.9,0.9,29.8,2.2,44.7,3c7.1,0.4,13.9,0.9,20.9,2.5c6.8,1.6,13.5,3.6,20.4,4.7c14,2.3,28.3,1.7,42.3,4.1
				c13.8,2.4,26.9,6.5,40.1,11c27.9,9.6,56.8,15.8,84.9,25c9.3,3.1,17.8,7.5,23.6,15.7c6,8.6,10.5,19.4,13.6,29.4
				c6.9,22.8-10,50.7,4,71.7c5.5,8.2,14.5,12.4,23.3,16.2c4,1.7,8.1,3.4,11.8,5.7c5.5,3.2,10.1,7.7,14.9,11.7
				c4.7,3.8,9.5,7.3,14.7,10.4c5,3,10.9,6.2,13.8,11.6c2.4,4.4,2.6,10.2,3.9,15c2,7,4.8,13.7,7.6,20.4
				c22.1,52.1,33.6,108.8,37.3,165.2c1.8,27.5,0.8,56-9.4,81.9c-10,25.2-27.2,47.5-43.4,68.9c-8.3,10.9-16.7,21.7-24.7,32.8
				c-7.5,10.4-14.3,21.4-21.6,31.9c-7.8,11.2-16.4,21.8-27.5,30c-10.4,7.7-22.1,13.5-33.9,18.7c-52.2,22.8-108.5,41.6-165.4,47.2
				c-29.9,3-59.9,4.9-89.4,10.5c-29.1,5.6-57.4,14.7-86.6,20c-29.7,5.4-60.4,6.4-90.6,6.3c-14.4,0-28.8,1.4-43.2,0.5
				c-13.3-0.9-24.9-5.5-36.3-12.2c-11.2-6.6-21.5-14.4-32.1-21.8c-12-8.4-24.5-15.9-37.2-23c-24.8-13.9-49.7-28-75.2-40.6
				c-22.8-11.3-45.3-22.1-61.8-42.1c-15.9-19.2-26.4-42.1-41.7-61.8c-8.1-10.4-15.7-20.7-22.5-32c-7-11.6-14-23.3-22.9-33.6
				c-3.4-3.9-7.1-7.6-9.9-12.1c-3.4-5.6-4.2-11.8-5.3-18.2c-2.3-13.7-7.6-26.5-9.8-40.2c-1.7-10.6-1.9-21-5.1-31.4
				c-2.8-9.3-6.8-19.1-13.9-26c-5.5-5.4-14,3.1-8.5,8.5c7.4,7.2,10.7,18.5,12.9,28.4c2.7,12.2,2.6,24.7,6,36.8
				c1.8,6.6,4.1,13,5.5,19.7c1.4,6.8,1.8,14,4.1,20.6c4,11.5,13.6,19.3,20.7,28.8c8.2,11,14.7,23.2,22.1,34.7
				c7.2,11.2,16.1,21,23.7,32c14.3,20.8,25.6,44.1,43.5,62.2c18.8,19,43.9,28.9,67.2,41.1c26.2,13.7,52.6,27.8,78.1,43
				c23.5,14,44.6,33.4,69.8,44.3c12.6,5.5,25.7,7.2,39.3,7.1c15,0,30.1-0.6,45.1-0.8c30.8-0.4,61.7-2.4,91.9-8.7
				c29.5-6.1,58.3-15.2,88-20c30.4-4.9,61.2-5.8,91.7-10.1c29.6-4.2,58.5-11.9,86.8-21.2c26.8-8.9,54.2-18.6,79.5-31.3
				c11.9-6,23.4-13.2,33.1-22.4c9.6-9.2,17.3-20.1,24.6-31.1c15.4-23.1,32-45,48.6-67.3c16.5-22.1,33.1-45.7,41.3-72.4
				c8.3-26.9,8.2-55.7,5.9-83.6c-2.4-29.1-6.5-57.7-13.5-86.1c-3.5-14.2-7.2-28.4-11.7-42.3c-4.5-14-10.4-27.2-15.7-40.9
				c-2.4-6.3-4.4-12.6-5.8-19.2c-1.2-5.6-2.8-10.4-6.6-14.8c-3.7-4.3-8.5-7.4-13.2-10.3c-6-3.6-11.4-7.5-16.8-12
				c-4.4-3.7-8.8-7.7-13.7-10.7c-4.3-2.6-9.1-4.5-13.7-6.6c-8.6-3.8-18.1-7.8-20.4-17.9c-3.1-13.4,1.7-27.5,2.4-40.9
				c0.7-13-3.1-24.3-8.1-36c-3.8-8.9-8-17.8-14.9-24.8c-7.7-7.8-17.7-11.8-27.9-15c-28.8-9.2-58.4-15.6-86.9-25.8
				c-13.7-4.9-27.8-8.3-42.2-10.3c-13.9-1.9-28.3-1.3-42-4.4c-6.8-1.5-13.5-3.5-20.3-4.7c-7.2-1.2-14.5-1.3-21.8-1.8
				c-15.7-0.9-31.3-2.3-46.9-3.1c-30.1-1.5-60.5-3.9-90.6-1.5c-15.2,1.2-29.8,4.2-44.7,7.3c-14.5,2.9-29.3,4.7-44.1,5.5
				c-31.3,1.6-62.9,0.6-94.3,0.6c-31.8,0-63.7,0.1-95.5,0c-58.2-0.1-116.3,0.3-172.7,16.5c-13.5,3.9-26.8,8.6-39.7,14.3
				c-10.2,4.5-17.3,12-21.6,22.2c-4.1,9.9-5.6,20.5-7.8,30.9c-3,14.2-4.6,28.5-5.3,43c-1.4,29.6,1,59.2,1.2,88.9
				c0.2,26.9,4.2,53.5,4.4,80.4c0,6.6,0,19.4-9.3,19.7c-5.3,0.2-11.4-3-16.5-4.2c-6.4-1.5-12.8-3.1-19.2-4.7
				c-13.9-3.5-28.3-7.6-42.8-7.4c-6.5,0.1-14.2,1.2-18.2,6.9c-4.4,6.4-1.4,14.7,2.7,20.4c11,15.6,30.3,27,47.6,34.3
				c25.4,10.8,53.4,13.9,78.3,25.9C4664.9,843,4671,832.6,4664,829.3L4664,829.3z"/>
		
	
	
		
			<path id="XMLID_430_" d="M4755,604.5c0.7,6.7,3.3,12.5,5,18.9c1.7,6.2,1.8,12.7,4.1,18.8c1.8,4.9,4.5,11.1,10.6,10.1
				c3.6-0.6,6.1-3.2,7.7-6.4c3.5-6.9,4-15.4,4.8-22.9c0.5-4.5,0.3-4.2,1.4-8.4c1.7-6.9,3.7-13.8,6.2-20.5c2.7-7.2-8.9-10.4-11.6-3.2
				c-3.9,10.4-6.9,21-8,32.1c-0.4,4-0.9,8.1-1.8,12c-0.4,1.8-1,3.5-1.5,5.2c0.1-0.2-0.7,1.2-0.7,1.2c-0.5-0.6,3.8-0.8,1.7-1
				c1.7,1,3.5,2,5.2,3c-3.8-5.9-4.5-12.4-5.6-19.2c-1.2-6.7-4.8-12.9-5.5-19.7C4766.2,596.8,4754.2,596.8,4755,604.5L4755,604.5z"/>
		
	
	
		
			<path id="XMLID_423_" d="M4843,582.5c-13.4,1.5-17.8,13.5-19.7,25.3c-1.9,11.6-2.9,25.7,3.7,36.2c5.3,8.4,16.8,13.9,24.4,5
				c6-7,7.1-17.5,8.1-26.2c0.9-7.1,2.3-14.3,2.1-21.5c-0.3-9.6-3.7-16.3-10.4-23c-5.4-5.5-13.9,3-8.5,8.5c2.5,2.5,4.8,4.6,5.9,8
				c1.2,3.7,1.1,7.8,0.8,11.6c-0.4,5.4-1.2,10.7-1.9,16c-0.6,5.1-1.6,16.5-5.7,19.3c-0.2,0.2,0.6,0.4-0.4,0.1
				c0.9,0.4-2.6-1.7-0.7-0.5c-2.1-1.3-3.5-3.1-4.5-5.4c-2.2-4.9-2.4-10.6-2.2-15.9c0.2-5.9,0.7-24.5,8.9-25.5
				C4850.6,593.6,4850.7,581.6,4843,582.5L4843,582.5z"/>
		
	
	
		
			<path id="XMLID_415_" d="M4897,584.5c-0.8,12.7,2.1,25.6,4.2,38c1.3,7.7,4.2,19.9,14,20.1c10.2,0.2,16.9-10.9,20.8-18.9
				c2.4-5,4.5-10.2,6.6-15.4c2.9-7.2,3.9-14.8,6.2-22.2c2.3-7.4-9.2-10.5-11.6-3.2c-1.8,5.7-2.5,11.6-4.4,17.2
				c-1.7,5.1-3.9,10-6,14.9c-1.8,4-6,15.3-11.4,15.7c-0.2,0,1,0.6,0.4-0.4c-0.8-1.3-1.2-2.7-1.7-4.2c-0.9-3.1-1.4-6.3-1.9-9.5
				c-1.6-10.7-4-21.3-3.3-32.1C4909.5,576.7,4897.5,576.8,4897,584.5L4897,584.5z"/>
		
	
	
		
			<path id="XMLID_408_" d="M4993,574.5c-8.5-0.8-18.5,3.4-26.2,6.9c-7.4,3.4-14.6,10.7-11.8,19.4c2.6,7.9,11.6,13.9,19,16.6
				c0.8,0.3,4.3,1.8,5,1.4c0.1-0.1-0.1-1.6-0.6-1.9c-0.3-0.1-0.2,0.5-0.7,0.9c-2,1.4-4.3,4.5-6.8,4.7c-7.6,0.7-7.7,12.7,0,12
				c6.6-0.6,13.3-5,17.1-10.5c4.7-6.8,1.7-14.5-6.1-16.9c-3.5-1.1-18.5-6.5-14.7-11.7c2.6-3.4,8.2-4.7,12-6
				c4.5-1.5,8.9-3.4,13.7-2.9C5000.7,587.2,5000.6,575.2,4993,574.5L4993,574.5z"/>
		
	
	
		
			<path id="XMLID_401_" d="M5035.8,581.5c4.7,9.5,10.7,18.5,16.5,27.4c4,6.1,10.5,15.6,19.2,13.2c8-2.3,9-13,9.7-19.9
				c1-10.3,1.9-20.3,5.5-30.1c2.7-7.2-8.9-10.4-11.6-3.2c-3.1,8.4-4.8,17.4-5.4,26.3c-0.2,2.9-0.3,5.8-0.7,8.7
				c-0.1,0.9-2,6.8-1.8,7.1c-0.2-0.2,2.1-0.7,2.1-0.5c0,0.1-0.8-0.4-0.8-0.4c-0.4-1-2.1-2-2.8-2.9c-2-2.5-3.7-5.3-5.4-8
				c-4.8-7.9-10.1-15.4-14.2-23.7C5042.8,568.5,5032.4,574.6,5035.8,581.5L5035.8,581.5z"/>
		
	
	
		
			<path id="XMLID_394_" d="M5141,562.5c-14.8,1.1-23.1,13.8-23.3,27.8c-0.2,10.3,4.8,26.4,17.9,25.3c10.8-0.9,17.1-14.2,20.6-22.9
				c2.4-6,4-13.1,3-19.6c-1-6.5-5.4-9.2-11-11.7c-7-3.1-13.1,7.2-6.1,10.4c3.3,1.5,5.2,1.4,5.4,4.5c0.3,4.1-1,8.4-2.4,12.3
				c-1.6,4.4-4.8,12.5-9.3,14.7c-4.6,2.3-5.9-8.6-6-11.6c-0.1-7.3,2.8-16.4,11.3-17C5148.7,573.9,5148.7,561.9,5141,562.5
				L5141,562.5z"/>
		
	
	
		
			<path id="XMLID_387_" d="M5171.8,563.5c4.9,7.5,4.8,18.5,6.1,27.1c1.1,7.6,2.9,19.5,12.3,21c8.9,1.4,12.8-8.4,15.3-15.1
				c3.1-8.1,6.4-19.5,13.8-25.8c5.9-5-2.6-13.5-8.5-8.5c-7.1,6.1-10.3,14.7-13.6,23.2c-1.2,3.1-2.5,6.2-3.7,9.2
				c-0.5,1.3-4.3,6.4-1.1,5.4c1.4-0.4,0.2,0.9,0.2-0.3c0-0.4-0.7-1.5-0.9-1.9c-0.6-1.7-1-3.5-1.3-5.2c-0.6-3.2-1-6.4-1.5-9.6
				c-1.4-8.6-1.6-18-6.6-25.5C5177.9,551,5167.5,557,5171.8,563.5L5171.8,563.5z"/>
		
	
	
		
			<path id="XMLID_380_" d="M5233.8,545.5c3.3,6.6,7.3,12.7,9.7,19.7c2.2,6.2,5.3,12.6,5.5,19.3c0.2,7.7,12.2,7.7,12,0
				c-0.4-16-9.8-31.1-16.8-45C5240.7,532.5,5230.4,538.6,5233.8,545.5L5233.8,545.5z"/>
		
	
	
		
			<path id="XMLID_373_" d="M5287,570.5c8.3-0.7,15.8-3.2,23.4-6.5c4.5-2,9.4-3.5,13.6-6.2c9.4-6.1,8.9-17.4-1.2-22.4
				c-7.3-3.7-20-5.6-26.2,1.1c-4.5,4.8-3.5,11.1-4.7,17c-1.4,6.6-4.8,12.9-0.4,19.3c3.7,5.3,10.8,5.9,16.7,6
				c7.7,0.1,15.3,1.7,23,1.7c7.7,0,7.7-12,0-12c-6.1,0-12.1-1.7-18.2-1.7c-2.2,0-10.4,1.1-11.9-1c-0.7-1,1.3-5.4,1.7-6.6
				c0.8-2.6,1.2-5.2,1.5-7.9c0.2-1.9-0.1-5,1.1-6.6c-0.1,0.1,0.5-0.3,1.8-0.4c3.1-0.4,6.9,0.2,9.7,1.5c1.1,0.5,2.2,1.1,2.7,1.9
				c-0.9-1.5,0.4-1-1.4-0.2c-10.1,4.4-19.8,10.1-31,11.1C5279.4,559.1,5279.3,571.1,5287,570.5L5287,570.5z"/>
		
	
	
		
			<path id="XMLID_366_" d="M5347,554.5c7.2-0.7,13.7-3,20.4-5.6c3.3-1.3,6.7-2.6,10.1-3.5c2.1-0.6,6.9-2.3,9.1-1.3
				c3,1.3-2.7,9.9-4,11.9c-1.5,2.2-3,4.3-4.6,6.4c-0.9,1.2-0.5,0.6-1.7,2.2c-6,7.5-29.5,33.2-13.4,41.2c6,3,13-0.3,18.5-2.9
				c6.1-2.9,12.6-7.4,19.2-8.6c7.6-1.3,4.4-12.9-3.2-11.6c-6.3,1.1-11.7,5.1-17.4,7.6c-2.3,1-4.6,2.3-7,3.2
				c-1.2,0.5-2.6,0.7-3.7,1.2c-1.8,0.9-0.7-0.5-0.5,0.7c0.4,1.8,0.6,1.3,1,0.2c0.5-1.5,1.1-2.9,1.9-4.3c2.1-3.9,4.7-7.5,7.3-11
				c4.5-6,9.3-11.7,13.5-17.8c5.7-8.3,12.2-25.8-2-29.9c-6.3-1.8-14.2,0.3-20.1,2.3c-7.7,2.6-15.2,6.8-23.4,7.5
				C5339.4,543.2,5339.3,555.2,5347,554.5L5347,554.5z"/>
		
	
	
		
			<path id="XMLID_359_" d="M5365,572.5c6.6,0,12.9,0.4,19.4,1.5c5.7,0.9,10.7-0.4,16.2-1.7c7.5-1.8,4.3-13.3-3.2-11.6
				c-5.6,1.3-9.5,1.6-15.2,0.8c-5.7-0.8-11.4-1-17.2-1C5357.3,560.4,5357.3,572.4,5365,572.5L5365,572.5z"/>
		
	
	
		
			<path id="XMLID_352_" d="M4783.2,716.1c4,10.1,1.7,21,0.3,31.4c-0.7,5.4-1.5,10.9-2.1,16.3c-0.3,2.7-0.5,5.5-0.4,8.2
				c0,1.3,0.7,3.5-0.2,4.2c-6,4.9,2.6,13.4,8.5,8.5c4.4-3.6,3.8-8.7,3.7-13.8c-0.1-6.8,1.3-13.6,2.1-20.3
				c1.5-12.5,4.5-25.6-0.3-37.7C4792,705.8,4780.4,708.9,4783.2,716.1L4783.2,716.1z"/>
		
	
	
		
			<path id="XMLID_345_" d="M4790.8,734.1c1.4-3.8,0.6-9.4,2.7-12.8c2.8-4.6,12.2-2.8,16.8-3.5c2.3-0.4,6.2-2.4,7.6,0.3
				c1,2-0.4,3.8-2,4.8c-4.2,2.9-9.7,3.3-13.9,6.4c-6.1,4.6-0.2,15,6.1,10.4c7-5.2,16.7-4.9,20.8-13.9c4-8.7-1.4-19.7-11-20.9
				c-5-0.7-9.9,1.4-14.9,1.5c-5.1,0.1-10.2,0.6-14.5,3.5c-7.9,5.1-6.3,13.3-9.1,21C4776.6,738.1,4788.1,741.3,4790.8,734.1
				L4790.8,734.1z"/>
		
	
	
		
			<path id="XMLID_338_" d="M4868.8,718.1c-0.3,0.9-0.2,0,0.7-0.2c0.9-0.3,1.7-0.6,2.6-0.8c2-0.4,4-0.6,6-0.7c0.9,0,3.2-0.2,3.5,0
				c1,0.8,1.1,4.6,1.3,5.7c0.7,3.7,1.6,7.8-1.8,10.3c-3.4,2.4-8.4,2.2-12.2,1.4c-3.2-0.6-6.5,0.9-7.4,4.2c-2.5,9,4,24.7,13.9,26.6
				c13.1,2.6,14.8-12.5,18.7-20.7c-1.2,0.9-2.4,1.8-3.6,2.8c-1.4,0.2-2.6-0.9-2.6-0.2c0,0.3,0.8,1.5,1,1.9c0.6,1.4,1,2.8,1.4,4.3
				c0.9,2.7,1.9,5.5,3.4,7.9c1.9,2.9,4.6,5.5,8.2,5.6c4.9,0.1,7.3-4,8.9-7.9c1.3-3-1.4-6.6-4.2-7.4c-3.4-1-6.1,1.2-7.4,4.2
				c0.6-1.5,4.4,1.2,4.8-0.5c0.1-0.4-1-1.8-1.2-2.2c-0.3-0.7-0.6-1.4-0.8-2.1c-1-2.8-1.7-5.7-3.1-8.4c-3.1-6.1-12-10.6-15.8-2.5
				c-1.3,2.7-2.5,12.9-5.7,13.7c0.4-0.1,0.5,0.1-0.2-0.7c-1.1-1-1.8-2.6-2.4-3.9c-0.9-2-2.2-5-1.6-7.1c-2.5,1.4-4.9,2.8-7.4,4.2
				c8.2,1.7,17.8,1.3,24.3-4.8c7.1-6.6,5.9-15.6,4-24.1c-2-9.1-7.9-12.5-16.9-12c-7.6,0.4-17.3,2-19.9,10.4
				C4854.9,722.3,4866.5,725.4,4868.8,718.1L4868.8,718.1z"/>
		
	
	
		
			<path id="XMLID_331_" d="M4940,705.3c-4.8-2.7-10-5.6-15.7-4c-5.2,1.5-10.3,6.1-12.9,10.8c-4.6,8.2-5.1,19.9,3.1,25.9
				c9.2,6.8,22.2,5.6,32.9,6c1.4,0,3.3-0.1,4.7,0.4c0.8,0.3,0-0.4-0.1-0.7c0.9,2-0.4,6.7-0.9,8.7c-1.4,6-4.3,11.2-8.3,15.8
				c-5.1,5.8,3.4,14.3,8.5,8.5c7.3-8.3,11.6-17.8,12.6-28.9c0.4-4.4,0-9.1-3.4-12.2c-3.7-3.4-9.3-3.4-14-3.5
				c-6-0.1-11.9,0.2-17.8-1.1c-2.5-0.5-6.6-1.1-8.1-3.6c-1.5-2.7,0.2-7.8,1.8-10.1c1-1.4,3.4-4.1,5.1-4.4c2.1-0.3,4.8,1.8,6.4,2.8
				C4940.7,719.4,4946.8,709,4940,705.3L4940,705.3z"/>
		
	
	
		
			<path id="XMLID_324_" d="M5005,694.5c4.8,0,10.4-0.9,15.1,0c3.1,0.6,5.4,3.1,7.9,4.9c1.3,0.9,2.6,1.7,3.9,2.6
				c0.5,0.4,1.2,1.1,1.8,1.3c1.5,0.6,0.3,1,0.8-0.6c-0.9,2.6-2.4,5-4.4,7c3.1,0.4,6.3,0.8,9.4,1.2c-1.6-2.5-1.8-5.6-3.7-8.1
				c-1.9-2.6-4.6-4.6-7.8-5.1c-6.4-1.1-11.1,3.9-14.9,8.3c-7.2,8.4-16.8,20.2-14.3,32.1c4.1,19.3,34.2,6.3,43.8-0.6
				c5.4-3.8,10-9.8,10.1-16.6c0.1-7.7-5.1-13.3-10.9-17.6c-6.2-4.6-12.2,5.8-6.1,10.4c3.4,2.6,6.5,6.2,3.7,10.4
				c-2.1,3.2-3.8,3.9-7.2,5.8c-5.5,3-12.1,5.9-18.5,6.3c-1.9,0.1-3.2-0.2-3.3-0.4c-1.2-3.5,2-8.6,3.7-11.3c2.4-4,5.4-7.7,8.4-11.2
				c0.8-0.9,1.6-1.8,2.4-2.6c1-1,0.3-1.4,0.9-0.7c1.5,1.6,1.8,5.1,3,7c2.1,3.3,6.5,4,9.4,1.2c3.3-3.2,6.5-7.8,7.5-12.2
				c1.4-5.9-2.6-10.3-7.1-13.5c-4.2-3-8.4-6.9-13.3-8.7c-6.3-2.4-14.1-1.2-20.7-1.2C4997.3,682.4,4997.3,694.4,5005,694.5
				L5005,694.5z"/>
		
	
	
		
			<path id="XMLID_317_" d="M5061,670.5c0,9.9,0,19.9,0,29.8c0,4.3-0.1,8.4,0.6,12.6c0.7,4.5,1.7,8.9,1.4,13.5
				c-0.5,7.7,11.6,7.7,12,0c0.3-4.5-0.6-8.9-1.3-13.3c-0.7-4.3-0.7-8.5-0.7-12.9c0-9.9,0-19.9,0-29.8
				C5073,662.7,5061,662.7,5061,670.5L5061,670.5z"/>
		
	
	
		
			<path id="XMLID_310_" d="M5085.2,668.1c7.6,21.3,5.8,44.2,5.8,66.4c0,7.7,12,7.7,12,0c0-23.3,1.7-47.3-6.2-69.6
				C5094.2,657.6,5082.6,660.8,5085.2,668.1L5085.2,668.1z"/>
		
	
	
		
			<path id="XMLID_303_" d="M5116,691.6c12.6,6.3,28.1,10.7,40,0.4c5.1-4.4,9.7-11.6,8.5-18.6c-1.2-7.3-8.2-11.1-15.2-10.5
				c-14.3,1.3-30.9,13.4-31,28.9c0,7.6,4.6,13.7,9.9,18.6c4.9,4.5,10,10.2,15.8,13.5c7.1,3.9,15.2,2.7,22.7,0.8
				c7.3-1.8,15.2-4.5,20.5-10c5.4-5.6-3.1-14.1-8.5-8.5c-3.6,3.7-9.1,5.3-13.9,6.6c-4.5,1.2-10.4,2.9-14.8,0.7
				c-4.8-2.4-9-7.5-12.9-11.1c-4.1-3.7-8.5-8-6.3-14c2.1-5.7,7.8-9.8,13.3-12c3.6-1.5,10.8-3.8,7.2,2.4c-6.6,11.5-20,7.1-29.4,2.3
				C5115.1,677.8,5109.1,688.2,5116,691.6L5116,691.6z"/>
		
	
	
		
			<path id="XMLID_296_" d="M5198.6,678.2c7.8-2.7,16-3.4,24.2-3.8c4.3-0.2,8.5,0.3,12.8,0.1c3-0.1,7.3-2,10-0.9
				c-1.5-1.9-2.9-3.9-4.4-5.8c-0.2,3.5-5,7.1-7.1,9.5c-4.1,4.6-8.2,9.3-11.9,14.1c-7,9.1-13.5,19.4-14.2,31.2
				c-0.1,2.1,1.2,4.1,3,5.2c7.3,4.5,15,2.2,22.6-0.1c6.9-2.1,14.4-2.2,20.6-6.2c6.5-4.2,0.5-14.6-6.1-10.4c-4.5,2.9-10.1,3-15.1,4.3
				c-4.9,1.2-11.3,5-16,2c1,1.7,2,3.5,3,5.2c0.7-11.6,10.1-22.4,17.4-30.8c6-6.9,15.5-14.3,15.9-24.1c0.1-2.9-2-4.8-4.4-5.8
				c-3.7-1.5-7.3-0.2-11.1,0.3c-4.8,0.7-9.9-0.2-14.8,0c-9.2,0.4-18.6,1.2-27.4,4.2C5188.2,669.2,5191.3,680.8,5198.6,678.2
				L5198.6,678.2z"/>
		
	
	
		
			<path id="XMLID_289_" d="M5193,702.5c10.8,0,21.6,0,32.4,0c9.8,0,19.8,1.3,29.2-2.2c7.2-2.7,4.1-14.3-3.2-11.6
				c-8.9,3.3-18.7,1.8-27.9,1.8c-10.2,0-20.3,0-30.5,0C5185.3,690.5,5185.3,702.5,5193,702.5L5193,702.5z"/>
		
	
	
		
			<path id="XMLID_282_" d="M5336.6,676.2c5.5-1.1,25.6-13.1,27-1.4c0.3,2.4,0.2,5-0.2,7.4c-0.4,2.3-1.6,4.1-2.3,6.2
				c-0.3,0.3-0.7,0.6-1,0.8c1,0.3,2.1,0.6,3.1,0.9c0,0-0.8-2.1-0.8-1.9c-0.8-2.3-1.5-4.6-2.5-6.8c-0.8-1.7-3.3-3.2-5.2-3
				c-8.7,0.9-14.4,8.9-21,14c-6.5,5-15.5,14-9.1,22.5c5.8,7.6,17.8,7.8,25.8,4.2c10.4-4.6,14.8-15.1,18.5-25.2
				c2.6-7.3-9-10.4-11.6-3.2c-2.2,6.1-4.5,13.2-10.4,16.7c-2.1,1.3-4.4,1.8-6.9,1.9c-1.1,0-2.2,0-3.3-0.3c-0.6-0.2-2.6-1.4-2.4-0.7
				c0.2,0.8,0.5-0.6,0.9-1.1c0.7-0.8,1.4-1.6,2.2-2.4c1.6-1.6,3.4-2.9,5.2-4.3c2.4-1.8,4.5-3.9,6.7-5.9c1-0.9,2-1.8,3-2.7
				c0.5-0.4,3.1-1.7,2.3-1.6c-1.7-1-3.5-2-5.2-3c2.8,6.4,4.7,16.3,14.3,13.2c9.1-2.9,11.8-14.2,11.9-22.5
				c0.2-9.1-3.2-17.4-12.9-19.5c-4.3-0.9-9-0.7-13.3,0.1c-5.7,1.1-10.4,4.8-16.1,5.9C5325.8,666.2,5329,677.7,5336.6,676.2
				L5336.6,676.2z"/>
		
	
	
		
			<path id="XMLID_275_" d="M5383,670.5c0.9,9.8-2.8,19.6-2.1,29.6c0.8,11.2,7.5,20.1,19.6,19.8c24.6-0.6,18.3-32.5,24.3-47.7
				c2.8-7.2-8.8-10.3-11.6-3.2c-2.8,7.1-2.5,15.2-3.6,22.7c-0.8,5.2-1.8,14.9-8.2,16.2c-15.5,3.2-5.7-30-6.4-37.3
				C5394.3,662.8,5382.3,662.8,5383,670.5L5383,670.5z"/>
		
	
	
		
			<path id="XMLID_268_" d="M5463,648.5c-0.7,10.2-6.2,19.5-9,29.2c-3,10.4-4.9,21.1-8.8,31.2c-2.8,7.2,8.8,10.3,11.6,3.2
				c4.1-10.7,5.9-21.9,9.2-32.8c3.2-10.3,8.2-19.8,9-30.8C5475.6,640.8,5463.6,640.8,5463,648.5L5463,648.5z"/>
		
	
	
		
			<path id="XMLID_261_" d="M5427.4,668.2c9.8,4,18.6,10.2,27.3,16.1c8.4,5.7,18.3,9.8,26.1,16.3c5.9,5,14.4-3.5,8.5-8.5
				c-8.6-7.3-19.2-11.9-28.5-18.2c-9.7-6.6-19.3-12.9-30.2-17.3C5423.5,653.7,5420.4,665.3,5427.4,668.2L5427.4,668.2z"/>
		
	
	
		
			<path id="XMLID_254_" d="M4833,836.5c0,12.7,0,25.4-0.1,38.2c0,6.2-0.1,12.4,0.6,18.6c0.6,5.9,2.9,11.5,3.4,17.3
				c0.8,7.6,12.8,7.7,12,0c-0.6-5.9-2.7-11.4-3.4-17.3c-0.7-6.2-0.7-12.4-0.6-18.6c0.1-12.7,0.1-25.4,0.1-38.2
				C4845,828.7,4833,828.7,4833,836.5L4833,836.5z"/>
		
	
	
		
			<path id="XMLID_247_" d="M4885.8,845.5c5.3,7,2.9,18.3,3.9,26.5c1.6,13.4,4.9,26.9,5.3,40.5c0.2,7.7,12.2,7.7,12,0
				c-0.4-14.6-4.4-28.8-5.6-43.3c-0.8-9.6,1-21.5-5.2-29.7C4891.6,833.4,4881.1,839.3,4885.8,845.5L4885.8,845.5z"/>
		
	
	
		
			<path id="XMLID_240_" d="M4839,890.5c5.2-0.5,9.7-2.2,14.4-4.2c4.9-2.2,10-3.6,15.3-4.6c9.8-2,20.2,1.1,29.4-3.9
				c6.8-3.7,0.7-14.1-6.1-10.4c-3.9,2.2-8.5,1.5-12.9,1.3c-4.6-0.2-9.1,0.5-13.6,1.4c-4.4,0.9-8.8,2-13,3.7
				c-4.4,1.7-8.7,4.4-13.5,4.8C4831.4,879.2,4831.3,891.2,4839,890.5L4839,890.5z"/>
		
	
	
		
			<path id="XMLID_233_" d="M4967,840.5c0.5,7.8,6.1,12.8,8.1,20c1.9,7,2.8,13.5,7.6,19.4c2,2.5,6.4,2.1,8.5,0
				c5.2-5.2,7.7-11.8,10.4-18.6c1.1-2.7,2.1-5.4,3-8.1c0.7-2.1,1.3-5.7,3.3-7c-3-1.7-6-3.5-9-5.2c0,5.9-1.4,11.6-1.8,17.5
				c-0.4,6-0.1,12.2,0,18.2c0,4.2,0.1,8.4,0.4,12.6c0.2,2.2,1.1,7.3-0.6,8.9c-5.8,5.1,2.7,13.6,8.5,8.5c6.6-5.9,3.9-16.5,3.8-24.2
				c-0.1-7.1-0.3-14.2-0.1-21.3c0.1-6.8,2-13.4,1.9-20.2c0-4.3-5.2-7.8-9-5.2c-5.8,3.9-7.4,10.2-9.6,16.5
				c-2.2,6.5-4.6,14.1-9.5,19.1c2.8,0,5.7,0,8.5,0c-3.3-4.1-3.3-10.6-4.9-15.4c-1.6-5.1-6.9-10.2-7.3-15.4
				C4978.5,832.8,4966.5,832.7,4967,840.5L4967,840.5z"/>
		
	
	
		
			<path id="XMLID_226_" d="M5028.8,844.1c2.7-7.7,6.7-14.7,10.6-21.8c1.7-3.1,3.5-6.1,5-9.3c1.4-3,1.8-6.8,3.8-9.4
				c4.7-6.2-5.8-12.1-10.4-6.1c-2.1,2.8-2.5,6.1-3.7,9.2c-1.5,3.8-4,7.5-6,11.1c-4.1,7.5-8,15-10.9,23.1
				C5014.6,848.1,5026.2,851.3,5028.8,844.1L5028.8,844.1z"/>
		
	
	
		
			<path id="XMLID_219_" d="M5081.2,832.7c4.3-4.2,19.9-18.1,24.6-7.7c1.7,3.8,1.3,8.7,1.5,12.8c0.3,5.2,0.9,10.7-0.5,15.8
				c3.7-0.5,7.3-1,11-1.4c-1.5-2.5-1.6-5.7-3.2-8.3c-1.9-2.9-5.3-5-8.8-5c-6.1,0-11.5,5.6-15.9,9.2c-7.8,6.4-23.8,25.8-10.1,34.4
				c13.9,8.7,59.3-10.7,41.8-28.9c-2.9-3-9.2-1.9-10,2.6c-1.5,8.5,3.9,20.2,12.4,23.3c5,1.8,9.2-0.4,13-3.7c4.7-4,9.9-6.7,15-10.2
				c6.3-4.3,0.3-14.7-6.1-10.4c-3.4,2.4-7.2,4.2-10.6,6.5c-1.9,1.2-6.2,3.8-7.2,5.9c-0.3,0.2-0.6,0.4-0.9,0.7
				c1.5,0.4,1.6,0.3,0.4-0.3c-0.4-0.8-1.5-1.6-2-2.4c-1-1.4-2.8-4.3-2.5-6.2c-3.3,0.9-6.7,1.8-10,2.6c-0.1-0.1,0.5-1,0.1-0.5
				c-0.4,0.5-0.7,1.4-1.1,2c-0.8,1.1-2,2.1-3.1,3c-2.3,1.7-2.8,1.8-5.1,2.6c-2.9,1.1-5.9,2-9,2.7c-1.3,0.3-2.7,0.6-4,0.7
				c-1,0.1-3.3-0.3-4.2,0c-1.7,0.6,0.6-1.1,0.1,0.9c0.3-1,0.3-2.9,0.9-4.3c1.8-4.3,5.2-7.8,8.5-10.8c2.7-2.4,5.7-4.4,8.4-6.6
				c0.4-0.3,0.9-0.6,1.4-0.8c0.6-0.2,0.4-0.3-0.6-0.3c-0.9-0.5-1.2-0.4-0.8,0.3c0.2,0.5,0.3,1.1,0.5,1.6c0.6,1.9,1.2,3.8,2.2,5.6
				c2.7,4.4,9.6,3.6,11-1.4c2.1-7.5,1.1-15.4,0.7-23.1c-0.3-6.7-0.9-13.7-5.8-18.8c-12.2-13-31.1,0-40.6,9.4
				C5067.3,829.7,5075.8,838.2,5081.2,832.7L5081.2,832.7z"/>
		
	
	
		
			<path id="XMLID_212_" d="M5213,794.5c0,14.4-1.5,28.7-1.6,43.1c-0.1,7.5-0.4,16,2.8,23c4.2,9.2,13.3,7.8,20.2,2.5
				c3.1-2.4,5.7-5.3,9-7.4c5-3.2,9.6-6.8,13.9-10.9c5.6-5.3-2.9-13.8-8.5-8.5c-5.8,5.5-12.7,9.4-18.7,14.7c-1.3,1.1-2.6,2.4-4,3.3
				c-0.3,0.2-1.8,0.9-1.9,1.2c0-0.1-0.5,0.8,0.2,0.2c0.1-0.1,0.8,0.6,0.9,0.4c0,0.2-0.6-1.4-0.6-1.5c-0.3-1.4-0.7-2.8-0.9-4.2
				c-2.4-18.4,1.3-37.5,1.2-55.9C5225,786.7,5213,786.7,5213,794.5L5213,794.5z"/>
		
	
	
		
			<path id="XMLID_205_" d="M5269.2,820.7c4.7-5.5,9-10.5,16.1-12.8c4.5-1.5,13.1-5.2,17.8-3.2c3.9,1.7,3.5,7.8,3.3,11.3
				c-0.2,4.8-1.1,10-3.1,14.5c3.5,0,6.9,0,10.4,0c-2.1-4.8-2.6-10.6-8.2-12.9c-3.4-1.4-7.4,1.1-10.6,2.3
				c-7.8,3.1-15.8,6.3-22.5,11.4c-6.5,4.9-11.8,12.4-7.9,20.7c4.5,9.4,16.6,13.8,26.4,13c7-0.5,13.1-3.6,17.5-9.1
				c2.3-2.9,3.9-6,5.6-9.3c1.7-3.4,4.1-6.6,4.8-10.4c1.4-7.6-10.2-10.8-11.6-3.2c-0.5,2.6-2,4.6-3.2,6.9c-1.3,2.5-2.4,5.1-4.1,7.5
				c-2.8,4.1-6.6,5.9-11.6,5.8c-3.9-0.1-8.1-1.3-11.1-3.9c-0.8-0.7-1.6-1.6-2-2.5c-0.3-0.8-0.1-0.9,0.1-1.5
				c2.2-4.6,9.4-7.7,13.9-9.9c5.1-2.4,10.4-4.3,15.5-6.4c-1.5-0.2-3.1-0.4-4.6-0.6c1.6,1.1,2.4,6.5,3.2,8.3c1.7,3.9,8.6,3.9,10.4,0
				c5.1-11.5,9.7-34.4-4-42c-7.6-4.3-17.8-1.2-25.6,1.2c-10.1,3.2-16.6,8.6-23.4,16.6C5255.8,818.1,5264.2,826.6,5269.2,820.7
				L5269.2,820.7z"/>
		
	
	
		
			<path id="XMLID_198_" d="M5317,810.5c0.9,8.7,2.9,16.6,6,24.7c2.3,6.1,4.4,13.1,9.6,17.4c2.2,1.8,4.7,2.3,7.3,0.9
				c8.6-4.5,12.5-13.9,15.5-22.6c1.5-4.3,2.7-8.6,4.3-12.9c1-2.8,2.1-5.7,3.1-8.5c0.8-2.4,1.1-6.9,2.6-8.9c4.7-6-3.7-14.6-8.5-8.5
				c-3.5,4.5-4.2,9.7-6,15c-1.7,4.9-3.6,9.7-5.1,14.6c-2.3,7.3-4.5,17.5-11.9,21.4c2.4,0.3,4.8,0.6,7.3,0.9
				c-3.9-3.2-5.2-8.7-6.9-13.2c-2.5-6.7-4.3-13.3-5.1-20.4C5328.2,802.9,5316.2,802.8,5317,810.5L5317,810.5z"/>
		
	
	
		
			<path id="XMLID_191_" d="M5385,806.5c0,20.3,0,40.5,0,60.8c4,0,8,0,12,0c0-7.4-0.1-14.8-0.2-22.1c0-6.5-0.4-13.3,0.6-19.7
				c0.4-2.4,1-5.6,2.6-7.5c1.5-1.8,3.9-2,6.1-2.5c5.6-1.3,10.9-5.2,16.8-4.9c7.7,0.3,7.7-11.7,0-12c-7.6-0.3-14.1,3.9-21.3,5.6
				c-7.1,1.7-11.6,5.5-14.2,12.4c-2.6,7-2.6,14.6-2.6,21.9c-0.1,9.6,0.1,19.2,0.2,28.9c0,7.7,12,7.7,12,0c0-20.3,0-40.5,0-60.8
				C5397,798.7,5385,798.7,5385,806.5L5385,806.5z"/>
		
	
	
		
			<path id="XMLID_184_" d="M5430,841.6c6.3-3.2,13.2-2.2,19-6.9c4.8-3.9,8.3-9.6,11.1-15.1c2.3-4.4,4.2-10.2,0.2-14.4
				c-4.4-4.6-11.2-2.4-15.6,0.9c-9.7,7.4-12.9,19.3-10.6,31c2.5,12.5,11.9,21.2,23.4,26c15.8,6.6,22.5-8.3,28.5-19.8
				c3.6-6.8-6.7-12.9-10.4-6.1c-2.1,3.9-3.7,8.1-6.2,11.8c-3.2,4.8-6.1,4-10.8,1.3c-8.2-4.8-13.6-11.1-13.4-21.2
				c0.1-3.9,1.1-7.8,3.7-10.8c0.8-0.9,1.8-1.9,2.8-2.7c1.7-1.3,2.3-0.4,0.3-2.8c-2.2-2.6-1.6-0.8-2.9,1.5c-2.3,4.2-4.9,9.7-9.3,12
				c-4.9,2.6-11,2.2-16,4.8C5417.1,834.8,5423.2,845.2,5430,841.6L5430,841.6z"/>
		
	
	
		
			<path id="XMLID_177_" d="M5485.2,800.1c2.9,7.8,4.3,16,6.7,23.9c2.2,7.6,5.1,14.9,6.8,22.6c0.5,2.3,3.3,4.7,5.8,4.4
				c9.4-1.1,9.5-13.3,10.1-20.6c0.9-10.4,0.8-20.9,1.2-31.4c0.1-1.9,0.2-3.8,0.3-5.8c0.1-1.7-0.1-0.2,0.1-0.8
				c0.3-1.3,0.7-2.4,1.3-3.6c1.1-1.9,2.5-3.8,4.4-3.2c1.4,0.5,3.1,3.8,3.9,4.9c1.2,1.8,2.3,3.7,3.4,5.6c4.1,7.6,6.6,15.8,8.6,24.2
				c2.1,8.5,3.9,17.2,3.2,26c-0.6,7.7,11.4,7.7,12,0c1.1-14.1-2.8-29.6-7.5-42.8c-2.5-6.9-5.6-13.7-9.8-19.7
				c-3.6-5.1-8-11.1-14.9-10.8c-10.5,0.5-16.1,11.9-16.8,21c-0.6,8.4-0.5,17-0.9,25.4c-0.2,5-0.4,10-1,14.9
				c-0.2,1.6-0.5,3.1-0.8,4.7c-0.2,0.8-0.1,2-0.2,1.1c0,0-0.3,0.5-0.3,0.5c-0.6-0.4,5.5-2.1,3.7-1.8c1.9,1.5,3.9,2.9,5.8,4.4
				c-1.7-7.7-4.6-15-6.8-22.6c-2.3-8-3.8-16.1-6.7-23.9C5494.1,789.7,5482.5,792.8,5485.2,800.1L5485.2,800.1z"/>
		
	
	
		
			<path id="XMLID_170_" d="M5529.8,753.5c3.3,5.3,7.1,10.3,10.2,15.7c3.1,5.4,5,11.4,7.3,17.1c2.3,5.8,4.7,11.6,7.4,17.2
				c2.4,5,4.9,10.6,8.9,14.6c9.2,9.3,20.6,4.7,30.1-1.4c10-6.3,18.2-14.9,28.3-21.1c6.6-4,0.6-14.4-6.1-10.4
				c-8.5,5.2-15.7,12-23.7,17.9c-3.9,2.9-8.1,5.5-12.6,7.5c-5.3,2.3-8-1-10.5-5.4c-5.3-9.4-9.3-19.6-13.1-29.7
				c-4-10.4-10-18.8-15.9-28.1C5536.1,740.9,5525.7,746.9,5529.8,753.5L5529.8,753.5z"/>
		
	
	
		
			<path id="XMLID_163_" d="M5552.6,782.2c10.2-1.6,20.2-3.9,29.4-8.6c6.9-3.5,0.8-13.9-6.1-10.4c-8.2,4.2-17.5,5.9-26.6,7.4
				C5541.8,771.9,5545,783.5,5552.6,782.2L5552.6,782.2z"/>
		
	
	
		
			<path id="XMLID_156_" d="M4893,952.5c-15.9,0.2-30.9,5.7-44.5,13.6c-9.7,5.6-27.3,14.8-16.7,27.8c4.5,5.5,11.6,9.2,17.2,13.5
				c5,3.9,11.1,6,17.5,5.8c9.5-0.2,25-8.1,21.7-19.9c-2.8-9.9-17.1-8.8-25.1-8.8c-7.7,0.1-7.7,12.1,0,12c3.1,0,6.3-0.2,9.4,0.1
				c1.1,0.1,3.2,0.9,4.2,0.8c1.1-0.2,0.4,0.3,0.5,0.2c-0.5-0.5-0.7-1-0.6-1.7c0.1-0.8,0-0.8-0.2,0.2c-1.6,0.8-2.5,3.1-4.4,4
				c-1.9,0.9-4,1.2-6.1,1.2c-5.6,0-9-2.9-13.1-6.2c-2.3-1.9-4.7-3.4-7.2-5c-1.5-1-2.8-2.1-4.1-3.4c-1.1-1-0.6-1.7-1.1-0.5
				c0.8-1.9,4.6-3.6,6.3-4.7c2.9-1.9,5.8-3.7,8.8-5.4c11.6-6.6,24.2-11.4,37.7-11.5C4900.7,964.4,4900.7,952.4,4893,952.5
				L4893,952.5z"/>
		
	
	
		
			<path id="XMLID_149_" d="M4908.6,986.2c10.2-3.8,19.9-9.3,30.7-11.4c4.5-0.9,8.5-0.5,11,3.8c1,1.7,1.2,2.6,1.3,4.2
				c0,0.9-0.1,1.8,0,2.7c0.3,2.5-2.7,1,2-0.6c1.9,0.5,3.9,1,5.8,1.5c-3.7-3.7-4.1-9.3-9.2-12c-5.2-2.8-10.4-0.7-15.1,2
				c-9.9,5.7-19.2,13.6-23.6,24.5c-2.2,5.2-2.8,11.6,1.1,16.2c3.5,4.1,9,5.2,14.2,4.5c6.3-0.9,13.1-4.4,18.1-8.4
				c6-4.9,7.7-11.7,12.3-17.6c-1.9,0.5-3.9,1-5.8,1.5c2.5,1,4.3,9.6,5.4,11.8c2.9,5.8,7.7,9.1,14.2,9.6c7.7,0.6,7.7-11.4,0-12
				c-3.8-0.3-5-6.4-6.1-9.3c-2.2-5.4-4.8-9.5-10.3-11.8c-1.7-0.7-4.7,0.1-5.8,1.5c-2.9,3.7-4.7,7.6-7.1,11.6
				c-2.6,4.4-6.3,6.9-10.8,9c-1.6,0.7-6.9,3.5-8.8,1.8c-1.3-1.2,1.3-5.7,2.2-7.3c3.8-6.3,9.1-10.7,15.3-14.5
				c1.3-0.8,2.9-2.1,4.4-2.4c1.2-0.3,0.3-0.6,1.2,0.6c2,3.1,3,6.3,5.7,9c1.4,1.4,3.9,2.2,5.8,1.5c6.3-2.2,7.3-9.1,6.8-15
				c-0.6-7-4.8-13.5-11-16.8c-14.6-7.7-33.6,5.1-47,10.1C4898.2,977.3,4901.3,988.9,4908.6,986.2L4908.6,986.2z"/>
		
	
	
		
			<path id="XMLID_142_" d="M4981.2,966.1c2.2,13.6,6.9,27.1,5.7,41c-0.7,7.8,11.1,7.5,12,0c1.2-9.9,5.4-19.4,8.9-28.6
				c2.9-7.5,9.9-7.8,16.8-10.2c7.2-2.6,4.1-14.2-3.2-11.6c-8.8,3.2-18.9,4.7-23.3,14.1c-5.3,11.3-9.7,23.9-11.2,36.3c4,0,8,0,12,0
				c1.3-15-3.7-29.6-6.1-44.2C4991.6,955.3,4980,958.5,4981.2,966.1L4981.2,966.1z"/>
		
	
	
		
			<path id="XMLID_135_" d="M5037,956.5c0,8.9,0.3,17.8-0.1,26.7c-0.4,7.5-1.7,15.2,1,22.4c1.5,3.9,5.1,5.3,8.8,3.6
				c6.7-3.1,8.5-12.1,11.2-18.3c1.8-4.3,3.6-8.6,5.1-13.1c1-3,1.8-6.3,3.7-8.9c4.6-6.2,10.3,2.1,11.4,6.9c1.4,6.4,1.3,13.6,6.4,18.5
				c1.4,1.4,3.9,2.3,5.8,1.5c8.6-3.4,14.4-10.5,18.7-18.5c1.6-2.9,2.8-6,4.3-8.9c0.9-1.7,1.8-3.5,2.9-5c0.4-0.5,1-1.1,1.3-1.6
				c0.5-1,1.6-0.4-0.4-0.3c-1.9-1.5-3.9-2.9-5.8-4.4c1.9,6.2,2.8,12.5,3.9,18.8c1.1,6.1,3,12,3.9,18.2c1.2,7.6,12.7,4.4,11.6-3.2
				c-0.9-6.1-2.9-12-3.9-18.2c-1.1-6.3-1.9-12.7-3.9-18.8c-0.8-2.4-3.1-4.5-5.8-4.4c-8.2,0.3-12.3,9.1-15.5,15.5
				c-3.3,6.8-7,16.3-14.6,19.3c1.9,0.5,3.9,1,5.8,1.5c-2.1-2-2.1-6.3-2.6-9c-0.6-3.6-1.2-7.3-3.1-10.5c-4.4-7.8-13.2-14.2-22.3-10.7
				c-7.7,2.9-10.8,10.8-13.2,18c-1.8,5.3-3.8,10.4-6,15.5c-1.2,2.7-2.2,8.4-5.1,9.7c2.9,1.2,5.9,2.4,8.8,3.6
				c-2.5-6.5-0.8-13.8-0.6-20.6c0.3-8.4,0-16.9,0-25.3C5049,948.7,5037,948.7,5037,956.5L5037,956.5z"/>
		
	
	
		
			<path id="XMLID_128_" d="M5127,940.5c7.7,0,7.7-12,0-12C5119.3,928.5,5119.3,940.5,5127,940.5L5127,940.5z"/>
		
	
	
		
			<path id="XMLID_121_" d="M5148,975.6c6.3-3.7,12.2-7.8,18.9-10.8c5.2-2.4,11-4.8,14.8-9.2c7.3-8.6,2-24.4-9.3-26.4
				c-13.6-2.3-21.4,15.5-22.9,26.2c-1.2,8.1,1.2,15.2,4.5,22.5c2.7,6,5,12.6,9.3,17.6c9.6,11.4,22.4,5.4,32.1-2.3
				c9.9-7.9,20.3-16.8,25.1-28.9c2.5-6.3,2.4-12.3,2.5-18.9c0-1.9-0.3-5.6,1.1-7.1c1.7-1.7,5.9-1.6,8.1-1.8c1.3-0.1,2.7,0,4-0.2
				c1.3-0.2,1.5,0.5,0.8-0.2c1.7,1.9,1.8,6.3,2.2,8.7c0.6,4,1.3,7.7,2.9,11.4c1.6,3.8,3.1,7.2,3.8,11.3c0.9,5.8,2.8,12.3,9.2,14
				c4.7,1.2,9.6-0.8,13.6-3.1c8.6-5.1,15.5-12.6,22.5-19.7c5.4-5.5-3.1-14-8.5-8.5c-5,5.1-9.9,10.3-15.5,14.7
				c-2.3,1.8-5,3.9-7.8,4.7c0,0-1.7,0.6-1.3,0.3c-0.3,0.2-0.5-0.6-0.1-0.1c1.2,1.5-0.3-4.1-0.4-4.8c-1.1-6.4-4.4-11.6-5.9-17.8
				c-1.4-5.7-1.3-12-4.4-17.2c-4.7-8.1-17.6-6.4-25.2-4c-11.7,3.7-11.1,15.1-11.2,25.3c-0.1,11.5-8.5,19.9-16.7,27
				c-4.6,4-15.5,16.2-21.8,9.6c-3.5-3.7-5.2-9.4-7.2-13.9c-2.7-5.8-5.1-11.7-3.9-18.2c0.8-4.3,3.3-13.2,8.2-14.7
				c2.1-0.6,4.4,3.8,3.1,6.3c-1.9,3.6-9.1,5.6-12.5,7.2c-6.5,3-12.2,7-18.3,10.6C5135.3,969.1,5141.3,979.5,5148,975.6L5148,975.6z"
				/>
		
	
	
		
			<path id="XMLID_114_" d="M5360,917.3c-10,5.6-19.1,13.7-20.9,25.6c-1.6,10.5,1.6,21.1,12.9,24.2c12,3.4,24-2.2,25.1-15.3
				c0.7-8.3,6.1-19.7-2.7-25.5c-3.9-2.5-9,0.8-9,5.2c0,14.3,4.1,28.3,3.7,42.6c-0.3,9.6-1.8,21.1,5.7,28.5c5.5,5.4,14-3,8.5-8.5
				c-5.3-5.2-2-17.3-2.2-23.9c-0.4-13-3.7-25.7-3.7-38.8c-3,1.7-6,3.5-9,5.2c-1.6-1-0.8-0.6-1.1,1.2c-0.2,1.1-0.5,2.2-0.7,3.3
				c-0.6,2.6-1.1,5.1-1.3,7.8c-0.3,3.2-0.1,6-3.8,6.9c-2.4,0.6-6.3,0.1-8.4-1.2c-4-2.7-2.7-10.3-1.1-14c2.5-6,8.7-10,14.1-13.1
				C5372.8,923.8,5366.7,913.5,5360,917.3L5360,917.3z"/>
		
	
	
		
			<path id="XMLID_107_" d="M5389,946.5c0.9,9.4,6.6,22.5,15.7,26.6c11.1,5,19.4-8.7,25-16c6.4-8.5,11.9-18.4,15.1-28.5
				c1.4-4.6,0.8-9.8-3.1-13c-4.5-3.8-9.5-1-12.9,2.7c-5.2,5.7,3.2,14.2,8.5,8.5c2.7-3-3.6-2.6-3.7-2.6c-0.4,0.4-1,2.8-1.3,3.4
				c-1.1,2.5-2.1,5.1-3.2,7.6c-2.5,5.7-6,10.9-9.8,15.9c-1.9,2.4-3.8,4.8-5.8,7.2c-1.8,2.1-2.9,4.6-5.1,3.1
				c-3.8-2.7-7-10.3-7.4-14.8C5400.3,938.8,5388.3,938.8,5389,946.5L5389,946.5z"/>
		
	
	
					<path id="XMLID_100_" d="M5443,954.5c7.8-1,14.4-4.1,20.4-9c2.9-2.3,5.5-4.9,7.8-7.8c1.6-2,3.4-6,5.6-7.2
				c1.1-0.6,2.9,1.3,4.5,2.9c2.4,2.5,4.5,5.3,6.3,8.3c3.4,5.9,1.4,12.7,5,18.5c5.2,8.5,14.4,6.6,18.5-1.5c3.4-6.7,5.2-14.7,5.9-22.2
				c0.7-7.7-11.3-7.6-12,0c-0.1,0.6-0.1,1,0,0.1c-0.1,0.6-0.2,1.2-0.3,1.9c-0.3,1.7-0.7,3.4-1.1,5.1c-0.8,3.2-1.6,6.4-3.1,9.3
				c-0.2,0.4-0.8,1.5-0.8,1.5c0,0.9-0.5-0.5,0.7-0.2c3.9,0.9,2.5,0.8,1.8-1.9c-0.7-2.8-0.2-5.8-0.8-8.7c-0.6-2.9-2-5.5-3.4-8.1
				c-4.9-8.3-15.6-22.5-26.7-15.9c-4.5,2.7-7,7.9-10.4,11.7c-4.5,5.1-10.9,10.2-17.9,11.1C5435.4,943.4,5435.3,955.4,5443,954.5
				L5443,954.5z"/>
		
	
						<path id="XMLID_93_" d="M5471,908.5c7.7,0,7.7-12,0-12C5463.3,896.5,5463.3,908.5,5471,908.5L5471,908.5z"/>
		
	
						<path id="XMLID_86_" d="M4900,1103.6c18.5-7.8,31.9-23.8,50.3-31.7c-2.7-0.7-5.5-1.4-8.2-2.2c4.5,6.1,4.1,16.7,4.6,24
				c0.5,8-1.2,18.7,5.2,24.9c1.9,1.8,5,2.4,7.3,0.9c8-5.2,12.4-13.2,15.9-21.8c1.5-3.8,3.3-7.8,4.2-11.8c0.6-3-0.1-9.1,1.9-11.6
				c-1.9,0.5-3.9,1-5.8,1.5c1.9,0.6,3.5,7.3,4,9c1,3.2,2,6.3,2.9,9.5c2,6.9,4.1,18.6,12.2,20.9c8.4,2.3,16.2-6.2,21.5-11.4
				c3.5-3.4,7.2-6.7,10.3-10.5c1.8-2.3,3.6-4.6,4.9-7.2c0.6-1.2,1.7-5.1,3.1-5.6c-2.3-0.9-4.5-1.8-6.8-2.8c1.1,1.9,2.2,5.9,3,9.1
				c1.3,5,2.5,10,4,14.9c2.2,7.7,4.9,18.7,12.4,23.1c10.6,6.2,21-7.1,25.5-15.1c3.5-6.1,6.7-12.6,9.6-19c1.7-3.7,3.3-7.4,4.6-11.2
				c0.5-1.4,1.2-7.2,1.9-7.5c-2.7-0.7-5.5-1.4-8.2-2.2c4.6,6.9,4.4,15.3,6.2,23.1c1.6,6.9,6.1,18.9,15,17.1
				c6.2-1.2,10.4-6.3,13.4-11.6c2.8-5.1,4.4-11.8,8.5-16c5.4-5.5-3.1-14-8.5-8.5c-3.8,3.9-5.8,9-8.1,13.9
				c-1.4,2.9-3.9,10.1-7.8,10.5c1.4,0.6,2.8,1.2,4.2,1.8c-4.6-4.9-5.5-11.5-6.5-18c-1-6.5-2.3-12.8-6-18.4c-1.9-2.9-5.1-3.6-8.2-2.2
				c-5.7,2.7-5.6,8.7-7.2,13.9c-2.2,7.2-5.9,13.8-9.3,20.5c-2.4,4.8-4.7,9.8-8.2,14c-1.5,1.7-3.3,2.7-5,4.1
				c-1.3,0.3-1.5,0.4-0.5,0.2c0.8,0.2,0.8,0.1,0.1,0c0.3,0.2,1.2,1,0.3,0c-9.6-11.2-7.2-30-14.9-42.7c-1.3-2.1-4.3-3.7-6.8-2.8
				c-4.9,2-7.4,5.4-9.7,10c-2.4,4.8-5.8,8.7-9.7,12.4c-2.8,2.6-5.5,5.3-8.3,7.9c-1.5,1.4-3.1,2.5-4.8,3.7c-0.4,0.3-1.4,0.4-1.7,0.7
				c0.5-0.5,1.5,0.6,1.5,0.3c0-1-1.7-3.5-2.1-4.6c-0.7-2-1.3-4.1-2-6.2c-0.9-3-1.8-5.9-2.6-8.9c-2.2-7.5-5-17.2-13.2-20
				c-1.8-0.6-4.6,0-5.8,1.5c-5,6.4-4,14.7-6.7,22.1c-2.8,7.6-5.7,16.6-12.8,21.2c2.4,0.3,4.8,0.6,7.3,0.9c-2.1-2-1.5-7.7-1.6-10.4
				c-0.1-3.6-0.2-7.1-0.5-10.6c-0.7-8.2-0.7-18.5-5.8-25.4c-2.1-2.9-4.9-3.6-8.2-2.2c-18.4,7.9-31.8,23.9-50.3,31.7
				c-3,1.3-3.6,5.7-2.2,8.2C4893.6,1104.6,4897.1,1104.9,4900,1103.6L4900,1103.6z"/>
		
	
						<path id="XMLID_79_" d="M5093,1048.5c0-1.3,0-2.7,0-4c0-3.1-2.8-6.1-6-6c-3.3,0.1-6,2.6-6,6c0,1.3,0,2.7,0,4c0,3.1,2.8,6.1,6,6
				C5090.3,1054.3,5093,1051.8,5093,1048.5L5093,1048.5z"/>
		
	
						<path id="XMLID_72_" d="M5145.2,1046.1c1.8,9.5-1.3,18.8-3.4,27.9c-2.2,9.4-3.7,18.9-4.8,28.5c-0.8,7.7,11.2,7.6,12,0
				c1.1-10.4,3.2-20.6,5.7-30.8c2.3-9.6,4-18.9,2.1-28.8C5155.3,1035.3,5143.8,1038.5,5145.2,1046.1L5145.2,1046.1z"/>
		
	
						<path id="XMLID_65_" d="M5122,1067.6c8.8,3.9,16.7,9.4,25.5,13.2c6.5,2.8,16,3,21.3,7.9c5.7,5.2,14.2-3.2,8.5-8.5
				c-6.2-5.7-14.3-6.6-22-9.2c-9.6-3.3-17.9-9.7-27.2-13.7C5121,1054.2,5114.9,1064.5,5122,1067.6L5122,1067.6z"/>
		
	
						<path id="XMLID_59_" d="M5195,1066.5c8.6,0,17.2-0.1,25.8,0.2c6.4,0.2,13.4-0.3,18-5.3c8.7-9.4,0-20.2-9.4-24.2
				c-4.8-2.1-10.3-3.1-15.5-2c-6.1,1.3-9.5,5.7-11.8,11.2c-3.1,7.3-4.5,15.9-2.7,23.7c1.8,7.7,7.6,13.8,13.7,18.5
				c7,5.4,14.8,8.2,23.2,10.6c4.1,1.2,8.4,2.2,12.3,0c3.6-2,5.9-5.5,8.6-8.4c5.3-5.6-3.2-14.1-8.5-8.5c-1.3,1.4-3.7,5.5-5.5,6.1
				c-1.7,0.6-7.1-1.7-9.1-2.3c-6-1.9-11.6-4.8-16.3-9c-5.3-4.9-7.9-9.9-7.1-17.3c0.4-3.7,1.6-11.4,5.5-12.9c2.9-1.1,7,0.5,9.5,1.8
				c1.5,0.8,2.7,1.7,3.9,2.8c0.5,0.5,0.6,1.5,0.8,0.9c-1,3.6-9.6,2.3-12.2,2.2c-7.8-0.3-15.6-0.1-23.3-0.1
				C5187.3,1054.5,5187.3,1066.5,5195,1066.5L5195,1066.5z"/>
		
	</g>

<g id="noclick">
	
		<path id="XMLID_963_" class="st3" d="M4189.3,411.8c-13.8,26.3-20.3,63.5-20.1,93c0.1,15.4-0.7,28.9,5.9,43.2
			c6.6,14.4,15.9,28.3,26.6,40c17.8,19.6,41.5,30.8,66.8,36.9c12.6,3.1,51.5,16.5,59.9-0.7c-5.4-13.8-15.6-29.5-23.8-41.6
			c-7.7-11.4-23.7-17.8-27-31c-1.9-7.3-1.1-13.2-4-20.6c-2.5-6.6-5.4-12.8-7.5-19.5c-5.1-16.1,0.6-26.5,11.4-39.6
			c15.2-18.5,35.2-35.4,59.7-36.1c13.7-0.4,25.8-0.5,39.3-3.8c15.8-3.8,29.7-9.7,45-14.3c20.6-6.1,45.5-0.6,66.8-1.6
			c14.6-0.7,28.3-4.4,43.1-4.2c18.8,0.2,37.6,0,56.3,0c72.9,0,145.5-4.2,218.4-3.9c41.4,0.2,82.4-3.5,123.6-6.2
			c53.9-3.5,106.7-3.8,160-13.7c35.7-6.7,71.1-16.5,105.5-27.9c33.9-11.2,71.5-14.7,106.8-20.3c38-6,75.2-9.1,111.2-23.1
			c11.9-4.7,33.2-9,39.7-21.6c10.4-20-13.8-47.6-24.2-59.5c-31.1-35.6-65.3-66.7-102.2-96c-42-33.4-86.9-68.3-133.3-95.7
			c-22.5-13.3-41.7-26.5-68.1-29.2c-80.7-8.2-159.9-23.2-241.4-23C4738-7.9,4592.8-4.7,4447.3,1.9c-105.8,4.8-212.4,10.2-318.3,9.9
			c-42.3-0.1-84.3-0.7-126.5,2.8c-34.1,2.8-58.5,6.7-83.4,31.6c-30.9,30.8-57.3,69.4-75.3,109.3c-7,15.4-11,30.3-15.7,46.3
			c-6.4,22.1-14.8,43.3-18.3,66.2c-4.3,27.6-13.1,75.2,4.3,100.2c18.7,26.8,58.6,31.2,88,35.8c37.9,6,76.5,12.2,115,12
			c9.7-0.1,19.6-0.9,29.4-0.4c10.6,0.5,20.6,3.9,31.3,4.4c19.7,0.9,40,0.5,59.8-0.1c14-0.4,26-5.9,39.7-8.1"/>
		
			<path id="XMLID_962_" d="M4184.1,408.8c-13.9,27.1-19.9,58.4-20.8,88.7c-0.4,14.9-1.1,31,3.4,45.4c4.8,15.2,14.4,29.4,24.3,41.8
				c19.5,24.3,46,38.3,75.8,46c17.2,4.4,40.8,13.8,58,4.9c3.4-1.7,7.2-4.7,8.6-8.4c2.3-5.7-2.9-12.9-5.5-17.9
				c-6.7-12.8-14.5-27.5-25-37.7c-4.6-4.4-9.8-8.1-14.2-12.7c-6-6.4-6.1-13.4-7.5-21.7c-2.6-16.1-16.3-31.1-8.6-47.8
				c6-13,18.5-25.4,29.7-34c13.6-10.4,27.1-13.3,44-13.9c17.9-0.6,34.5-4,51.5-9.7c17.1-5.7,32.6-11.3,51-11
				c16.8,0.3,33.4,2.3,50.2,0.3c8.7-1.1,17.3-2.6,26-3.1c9.9-0.5,19.9-0.1,29.8-0.1c38.1,0,76.2-0.4,114.4-1.4
				c77.1-2,154.3-1.4,231.2-6.8c75.2-5.3,150.7-5.4,224.4-23.1c36-8.6,70.6-22.4,106.8-29.7c35.3-7.1,71.4-11.2,107-16.5
				c32.7-4.8,64.1-12.5,94.9-24.5c10.5-4.1,21.6-9.8,25.9-21c4.2-11,0.8-22.7-4.2-32.7c-5.3-10.7-13.1-20.2-20.9-29.2
				c-10.9-12.6-22.4-24.8-34.3-36.6c-25.5-25.3-53-48.2-81.2-70.4c-28-22.1-56.2-43.8-85.8-63.8c-14.4-9.8-29.2-18.8-44.1-27.8
				c-13.2-7.9-26.6-15.9-41.3-20.9c-16.4-5.6-34.2-6-51.3-8c-18.5-2.2-37-4.6-55.4-7c-37.4-4.8-74.9-9.4-112.5-11.6
				c-38.8-2.2-77.7-1.2-116.5-0.8c-38,0.4-76,0.9-114,1.7c-77.6,1.6-155.2,4-232.8,7.3c-76.9,3.3-153.7,7.3-230.7,9.4
				c-38.4,1-76.9,1.5-115.3,1.3c-38.9-0.1-77.9-0.3-116.7,2.8c-26.6,2.2-53,6-75,22.3c-25.5,19.1-46.2,47.6-63.2,74.2
				c-18.8,29.4-31.9,60.1-41.6,93.5c-4.9,16.7-10.9,33.2-15.1,50.1c-3.4,13.5-5.4,27.5-7.2,41.3c-3.3,24.8-6.4,54,6,76.9
				c12.5,23.1,39.7,32.7,63.9,37.7c32.4,6.7,65.8,11.3,98.7,14.7c18.4,1.9,36.9,3,55.4,2.5c8.3-0.2,16.7-0.8,24.9,0
				c8.6,0.8,16.9,3.2,25.5,4c18.1,1.7,36.7,0.8,54.9,0.3c17.2-0.5,32.4-5.6,49.2-8.5c7.6-1.3,4.4-12.9-3.2-11.6
				c-15.7,2.7-29.9,7.7-46,8.1c-16.3,0.4-32.6,0.7-48.8,0c-15.1-0.7-29.5-4.9-44.7-4.7c-16,0.2-31.9,0.6-48-0.5
				c-31.9-2.1-63.4-7.5-94.9-12.4c-22.6-3.5-48.4-7.3-66.2-22.9c-18.5-16.2-18.5-42.6-16.7-65.2c2-25.9,6.8-51.7,14.6-76.5
				c9.4-30,17-60.5,31.3-88.6c13.4-26.2,29.8-51,48.9-73.3c17.4-20.3,35.6-38,62.2-44.5c28.5-7,59.4-6.9,88.6-7.5
				c67.1-1.4,134.2-0.2,201.3-2.2c133.9-4.2,267.7-12,401.6-15.2c67.3-1.6,134.6-2.6,201.9-2.9c33.3-0.2,66.3,0.6,99.4,3.6
				c32.8,2.9,65.5,7.3,98.1,11.4c16.4,2.1,32.7,4.2,49.1,6c15.6,1.8,30.7,3.1,45.3,9.5c12.6,5.5,24.3,13,36.1,20.1
				c13.4,8,26.6,16.3,39.5,25.1c51.8,35.2,102.5,74.2,148.2,117c19.8,18.5,39.3,38,56.2,59.3c6.8,8.6,14.1,18.8,16.1,29.9
				c2.3,12.9-6.4,19.7-17.2,24.2c-55.5,22.9-115.9,27.6-174.7,36.6c-15.5,2.4-31,5-46.2,8.9c-15.4,3.9-30.3,9.4-45.5,13.9
				c-31.1,9.3-62.7,17.1-94.8,21.9c-33.3,5-67,6.6-100.6,8.3c-32.9,1.7-65.8,4.1-98.8,6.2c-33.7,2.1-67.3,2-101,2.4
				c-33.7,0.4-67.3,1.5-101,2.4c-33.4,0.9-66.8,1.3-100.3,1.4c-16.1,0-32.5-1-48.5,0.5c-15.4,1.4-30.3,4.3-45.9,3.7
				c-14.4-0.6-28.9-2.2-43.2-0.4c-14.5,1.9-28.2,8-42.1,12.4c-15.6,5-31,7.1-47.3,7.6c-12.8,0.4-24.5,2.8-35.7,9.1
				c-11,6.1-20.5,14.8-28.8,24.1c-7.7,8.7-16,18.6-18.4,30.3c-2.7,13.6,3.7,25.7,8.3,38c4.3,11.6,2.6,23.8,10.9,33.9
				c7.2,8.6,17,14.2,23.3,23.7c7.9,11.8,15.7,23.9,21.1,37.1c0.2-1.5,0.4-3.1,0.6-4.6c-4.4,7.9-17.1,5.9-24.4,4.8
				c-9-1.4-17.7-4-26.5-6.3c-26.7-7-50.7-17.8-69-39.1c-9.8-11.4-19.4-25.2-24.4-39.6c-4.8-13.7-3.8-29.3-3.4-43.6
				c0.8-28.1,6.3-57.5,19.2-82.6C4198,407.9,4187.6,401.9,4184.1,408.8L4184.1,408.8z"/>
		
	
	
		
			<path id="XMLID_955_" d="M4427.7,166c-13.1,4.9-28.3,6.3-38.3,17c-9.1,9.8-14.7,25.8-9.6,38.7c5.7,14.4,21.9,18.8,36,16.4
				c7.3-1.2,14.5-4.3,20.2-9.2c5.7-4.8,8.4-11.6,10-18.8c1.8-8.2,3.2-17.6-0.1-25.6c-3.4-8.1-10.6-13.1-17.5-18
				c-6.3-4.5-12.3,5.9-6.1,10.4c5.2,3.7,11.8,7.7,13.3,14.5c1.4,6.7-0.5,15.4-2.9,21.7c-4.5,12.1-22.9,16.8-34.1,11.9
				c-12.6-5.5-9.4-21.3-3.2-30.5c7.8-11.7,23.4-12.5,35.5-17.1C4438,174.9,4434.9,163.3,4427.7,166L4427.7,166z"/>
		
	
	
		
			<path id="XMLID_948_" d="M4489,163.5c-9.5,9-12.2,22.9-13.8,35.3c-1.2,9.6-3.8,24.4,4.4,31.7c8.4,7.5,22.3,10.5,31.9,3.7
				c9.3-6.5,16.4-19.1,15.8-30.6c-0.4-7.7-12.4-7.7-12,0c0.4,7.5-4.3,16.2-10.4,20.5c-2.9,2.1-5.4,2.3-8.7,1.4
				c-2.7-0.7-7.5-2-9.1-4.6c-1.7-2.8-0.9-8.2-0.8-11.3c0.2-3.7,0.5-7.4,1-11.1c1.3-9.2,3.2-20,10.3-26.6
				C4503.2,166.7,4494.7,158.3,4489,163.5L4489,163.5z"/>
		
	
	
		
			<path id="XMLID_941_" d="M4551.5,157.4c1.7,7.5,5.1,14.5,6.9,21.9c1.9,8,0.9,16.3,0.9,24.5c0,7.7,12,7.7,12,0
				c0-8.7,0.8-17.4-1-26c-1.6-8.1-5.4-15.6-7.3-23.6C4561.3,146.7,4549.8,149.8,4551.5,157.4L4551.5,157.4z"/>
		
	
	
		
			<path id="XMLID_934_" d="M4557.3,113.8c7.7,0,7.7-12,0-12C4549.5,101.8,4549.5,113.8,4557.3,113.8L4557.3,113.8z"/>
		
	
	
		
			<path id="XMLID_927_" d="M4517,171.5c-8.8,8.7-12,22.8-13.5,34.6c-0.4,3.2,0.8,6.4,4.2,7.4c2.8,0.8,6.9-1,7.4-4.2
				c1.3-9.6,3.3-22.3,10.5-29.4C4531,174.6,4522.5,166.1,4517,171.5L4517,171.5z"/>
		
	
	
		
			<path id="XMLID_920_" d="M4663.3,207.8c-0.1-8.8-1.3-17.5-1.7-26.2c-0.4-7.4-1.4-17,2.6-23.7c-3.5,0-6.9,0-10.4,0
				c5.5,8.8,7.5,18.2,9.4,28.3c1.6,8.4,6.8,16.2,16.4,15.3c14.9-1.5,17.9-21.7,23.8-32.2c-3.5,0-6.9,0-10.4,0
				c9.5,13.4,6.3,31.1,6.2,46.6c0,7.7,12,7.7,12,0c0.1-17.6,3-37.3-7.9-52.6c-2.5-3.5-8-4.2-10.4,0c-2.6,4.6-4.2,9.7-6.3,14.5
				c-1.3,2.8-4.4,11.6-8.3,11.8c-4,0.3-4.4-10.8-5-13.6c-1.8-8.6-4.7-16.7-9.3-24.1c-2.4-3.8-8-3.9-10.4,0c-4.7,7.9-4.7,18-4.4,27
				c0.4,9.7,1.8,19.3,1.9,29C4651.3,215.5,4663.3,215.5,4663.3,207.8L4663.3,207.8z"/>
		
	
	
		
			<path id="XMLID_913_" d="M4775.1,210.2c-4-18.5-14.2-39.9-8.2-59c2.7-8.5,12.8-17.7,18.1-5.8c5.6,12.7,6.5,28.7,6.3,42.3
				c-0.1,7.7,11.9,7.7,12,0c0.1-9.2-0.6-18.3-2.2-27.3c-1.4-7.9-2.9-17.3-7.5-24.1c-8.9-13.2-24.7-10.4-33.3,1.5
				c-15.9,21.8-1.8,52.4,3.2,75.5C4765.1,220.9,4776.7,217.7,4775.1,210.2L4775.1,210.2z"/>
		
	
	
		
			<path id="XMLID_906_" d="M4757.5,188c9.4-10.7,27.2-6.4,39.8-6.2c7.7,0.1,7.7-11.9,0-12c-16.2-0.1-36.1-4.1-48.2,9.8
				C4744,185.3,4752.4,193.8,4757.5,188L4757.5,188z"/>
		
	
	
		
			<path id="XMLID_899_" d="M4823.3,127.8c-0.4,25.6,7.5,50.4,8,76c0.1,7.7,12.1,7.7,12,0c-0.5-25.6-8.4-50.4-8-76
				C4835.4,120.1,4823.4,120.1,4823.3,127.8L4823.3,127.8z"/>
		
	
	
		
			<path id="XMLID_892_" d="M4821.3,113.8c7.7,0,7.7-12,0-12C4813.5,101.8,4813.5,113.8,4821.3,113.8L4821.3,113.8z"/>
		
	
	
		
			<path id="XMLID_885_" d="M4910.2,118.6c-2.8,1.3-5.6,2.3-8.6,2.9c-3.7,0.7-7.1-0.2-10.8,0.2c-6,0.7-10.3,5-12.8,10.2
				c-4.2,8.8-6.1,22.8-0.5,31.4c2.9,4.5,7.6,6.7,12.5,8.4c2.5,0.9,8.8,2.2,9.4,5.5c0.6,3.4-5.5,7.4-7.7,9.2
				c-3.6,2.9-7.7,5.5-10.8,9.1c-5,5.8,3.4,14.3,8.5,8.5c6.2-7.1,15.8-10.8,20.2-19.6c5.5-10.8-3.3-19.6-13-23.1
				c-3.5-1.3-8.2-2-9.7-5.7c-1.8-4.2-0.7-10.4,0.4-14.7c0.5-2,1.2-4.3,2.5-5.9c2.1-2.3,4.6-1.1,7.4-1.1c6.6,0.1,12.9-2.4,18.9-5
				C4923.3,125.8,4917.2,115.5,4910.2,118.6L4910.2,118.6z"/>
		
	
	
		
			<path id="XMLID_878_" d="M4971.5,137.4c7.4,20,9.3,41.2,12.9,62.1c1.1,6.6,9.6,4.7,11.6,0c4.2-10.1,5.9-21.1,6.9-31.9
				c0.4-4.5,0.8-9.1,0.6-13.5c-0.2-4.1-0.9-8.2-1-12.4c-0.1-2.3-0.3-6.7,1.8-8.2c1.9-1.4,5.3,0.4,7.1,1.3c3.3,1.7,11,7.3,4.6,10
				c-5.9,2.4-17-1.2-20.8,4.7c-3.4,5.2-1.5,12.1,2.9,15.9c4.5,4,10.7,5.9,16.2,7.9c2.4,0.9,4.9,1.7,7.2,2.8c1.1,0.5,2.1,1.2,3.2,1.8
				c-0.1,0,0.1,0.6,0.1-0.2c0.5,4.8-8,8.1-11.9,9.9c-6.8,3.3-14.7,6.1-19.7,12c-5,5.9,3.5,14.4,8.5,8.5
				c9.2-10.8,40.6-13.2,34.7-33.6c-2.2-7.4-11.1-10-17.5-12.3c-3.5-1.3-7.1-2.4-10.3-4.1c-1-0.6-2.6-1.7-2.8-1.8
				c-0.6-0.4-0.4-0.3-0.2-0.7c-1.7,1-3.5,2-5.2,3c8.5-1.1,18.9,0.4,25.7-6c7.9-7.4,4.2-18.1-3.1-24.3c-7.1-5.9-18.9-10.7-26.7-3.5
				c-7.9,7.3-5.4,19-4.8,28.4c1,14.2-1.5,30.2-7,43.3c3.9,0,7.7,0,11.6,0c-3.6-20.9-5.5-42.1-12.9-62.1
				C4980.4,127,4968.8,130.1,4971.5,137.4L4971.5,137.4z"/>
		
	
	
		
			<path id="XMLID_871_" d="M5077.3,133.8c-16.3,0.6-30,14.8-30.1,31.3c-0.1,11.7,6.1,25.5,13,34.7c3.8,5.1,8.9,10,15.5,10.6
				c6.2,0.6,11.6-2.9,15.5-7.4c8.1-9.5,14.4-23.9,13.9-36.6c-0.6-16.6-11.3-31.5-29.3-28.3c-7.6,1.4-4.4,12.9,3.2,11.6
				c9.5-1.7,13.7,8.3,14.1,16.2c0.5,8.6-3.2,17.4-7.6,24.6c-1.6,2.7-4.5,7.7-8,8.1c-2.9,0.3-5.7-3.1-7.2-5.1
				c-5.2-6.8-8.7-15.6-10.5-23.9c-1-4.3-0.3-9.7,2.5-14.4c3.3-5.4,8.7-9.1,15.1-9.3C5085,145.5,5085,133.5,5077.3,133.8
				L5077.3,133.8z"/>
		
	
	
		
			<path id="XMLID_864_" d="M5129.5,187.5c-5.8-6.5-6.3-16.3-5.7-24.6c0.3-4.2,1.5-8.2,2-12.3c0.7-5.7,0.3-11.5,1.9-17
				c-1.9,1.5-3.9,2.9-5.8,4.4c5.5-0.4,9.1,14.2,10.5,18.4c2.5,7.6,4.5,15.4,7.2,23c2.8,7.8,7,18.1,15.9,20.5
				c6.2,1.7,10.6-4.7,14.1-9c4-5,7.4-10.4,10.5-16.1c6.9-12.9,12-26.8,18.5-39.9c3.4-6.9-6.9-13-10.4-6.1
				c-10.2,20.6-16.7,45.3-34.2,61.2c1.9-0.5,3.9-1,5.8-1.5c-5.1-0.7-7.5-9.1-9-13.4c-2.2-6.2-3.7-12.6-5.8-18.8
				c-3.5-10.4-8.5-31.4-23.1-30.2c-2.7,0.2-5,1.7-5.8,4.4c-1.8,6.4-1.3,12.9-2.2,19.4c-0.7,5.3-2,10.5-2.2,15.9
				c-0.4,10.9,2,22,9.3,30.3C5126.1,201.8,5134.6,193.3,5129.5,187.5L5129.5,187.5z"/>
		
	
	
		
			<path id="XMLID_857_" d="M4495.5,314.2c-2.6,15.1-9.6,34.1-23.9,41.9c-11.4,6.2-28.7,4.7-38-4.5c-5.5-5.4-14,3-8.5,8.5
				c12.8,12.7,34.3,14.8,50.4,7.5c18.4-8.4,28.4-31.4,31.6-50.2C4508.3,309.8,4496.8,306.6,4495.5,314.2L4495.5,314.2z"/>
		
	
	
		
			<path id="XMLID_850_" d="M4489,312c8.4,9.5,20.4,10.2,32.2,9.8c7.7-0.3,7.7-12.3,0-12c-8.7,0.3-17.5,0.8-23.8-6.2
				C4492.4,297.7,4483.9,306.2,4489,312L4489,312z"/>
		
	
	
		
			<path id="XMLID_843_" d="M4547.3,307.8c-0.1,13.1-3.1,27,0.3,39.9c1.7,6.4,9,7.1,14.7,6.9c5.8-0.2,11.5-2,15.3-6.5
				c4.9-5.9-3.6-14.4-8.5-8.5c-3.4,4.1-9.2,3.3-13.8,2c1.4,1.4,2.8,2.8,4.2,4.2c-3.2-12.3-0.3-25.5-0.2-38
				C4559.3,300.1,4547.3,300.1,4547.3,307.8L4547.3,307.8z"/>
		
	
	
		
			<path id="XMLID_607_" d="M4541.3,325.8c6.7,0,13.3,0,20,0c7.7,0,7.7-12,0-12c-6.7,0-13.3,0-20,0
				C4533.5,313.8,4533.5,325.8,4541.3,325.8L4541.3,325.8z"/>
		
	
	
		
			<path id="XMLID_599_" d="M4545.3,309.8c7.6,0.1,15.4-0.8,22.9-2c7.3-1.2,15.7-2.6,21.3-7.8c5.7-5.2-2.8-13.7-8.5-8.5
				c-3.7,3.4-12.2,4.1-17.3,4.9c-6.1,0.9-12.3,1.5-18.5,1.4C4537.5,297.6,4537.5,309.6,4545.3,309.8L4545.3,309.8z"/>
		
	
	
		
			<path id="XMLID_591_" d="M4661.3,281.8c-7.7,0-16.1-0.1-23.1,3.5c-7.5,3.9-10.6,11.8-10.4,19.9c0.1,8.8,2.7,17.8,8.9,24.2
				c5.9,6.1,14.2,9.2,21.9,12.5c-0.9-2.3-1.8-4.5-2.8-6.8c-1.6,3.8-10.5,4.2-13.8,4.8c-6.2,1.2-12.4,2.9-16.9,7.5
				c-5.4,5.5,3.1,14,8.5,8.5c4.4-4.5,12.4-4.4,18.2-5.7c7.1-1.7,12.8-4.9,15.6-11.9c0.9-2.2-0.6-5.8-2.8-6.8
				c-5.8-2.5-12.1-4.8-17.1-8.6c-4.8-3.6-6.9-9-7.5-14.9c-0.5-4.7-0.5-10.3,4.4-12.5c5.1-2.3,11.5-1.8,16.9-1.8
				C4669,293.8,4669,281.8,4661.3,281.8L4661.3,281.8z"/>
		
	
	
		
			<path id="XMLID_582_" d="M4675.3,299.8c-0.1,11.2,0,23.6,5.6,33.6c4.8,8.6,15.7,14.5,24.2,7.3c7.1-6,9.8-16.7,11.6-25.4
				c1.9-8.8,3.5-18.5,2.6-27.5c-0.8-7.6-12.8-7.7-12,0c0.7,6.5-0.2,13.3-1.3,19.7c-1.3,7.4-2.8,15.9-7.1,22.2
				c-0.4,0.6-1.7,2.1-1.6,2c-1.1,0.8-1,0.7-1.4,0.4c-1.6-1-4.4-3.7-5.6-6.6c-3.3-7.9-3.1-17.2-3-25.7
				C4687.4,292.1,4675.4,292.1,4675.3,299.8L4675.3,299.8z"/>
		
	
	
		
			<path id="XMLID_575_" d="M4739.3,287.8c0,14.7,0,29.3,0,44c0,7.7,12,7.7,12,0c0-14.7,0-29.3,0-44
				C4751.3,280.1,4739.3,280,4739.3,287.8L4739.3,287.8z"/>
		
	
	
		
			<path id="XMLID_568_" d="M4751.3,267.8c0-2.7,0-5.3,0-8c0-3.1-2.8-6.1-6-6c-3.3,0.1-6,2.6-6,6c0,2.7,0,5.3,0,8c0,3.1,2.8,6.1,6,6
				C4748.5,273.6,4751.3,271.1,4751.3,267.8L4751.3,267.8z"/>
		
	
	
		
			<path id="XMLID_561_" d="M4795.7,270c-13.1,5.1-26.1,10.6-33.9,23c-5.7,8.9-11.5,25.2,2.5,29.8c4.8,1.6,9.9,2.4,14.7,3.8
				c2.2,0.6,4.8,1.3,6.6,2.8c0.6,0.5,1.1,1,1.5,1.8c-0.3-0.6,0.2-0.9-0.1,0.2c-1.2,3.7-4.7,7.6-7.2,10.6c-1.6,1.9-3.3,3.8-5.2,5.5
				c-0.6,0.5-1.2,1.1-1.8,1.6c-0.3,0.3-2.5,1.3-1.2,0.9c-7.2,2.6-4.1,14.2,3.2,11.6c8.4-3,15.3-12.7,20-19.8
				c2.1-3.2,4.4-7.1,4.3-11.1c-0.2-6-5.1-10.7-10.1-13.1c-4.7-2.3-9.9-3.3-14.9-4.7c-4.9-1.3-8.4-0.4-5.9-6.6
				c5.5-13.8,17.6-19.7,30.7-24.7C4806,278.8,4802.9,267.2,4795.7,270L4795.7,270z"/>
		
	
	
		
			<path id="XMLID_554_" d="M4901.3,289.8c-10.8,0-21.6,3.8-24.7,15.4c-2.5,9.4,0.1,21.4,6.3,28.9c3.2,3.9,8.5,7.2,13.7,5.8
				c5.1-1.4,7.6-6.5,8.8-11.2c1.5-6.1,0.6-11.5-0.8-17.5c-1.3-5.7-1-10.9-5-15.6c-5-5.9-13.4,2.6-8.5,8.5c1.4,1.7,1.1,6.2,1.5,8.3
				c0.6,3.5,2,6.8,1.7,10.4c-0.1,1.3-0.4,2.7-0.8,4c-0.6,1.8-1,1.3-0.1,1.6c0.6,0.2-1.5-2.1-1.7-2.4c-0.7-0.9-1.3-2-1.7-3
				c-1.9-4.2-3-10-1.8-14.5c1.7-6.1,7.7-6.6,13.1-6.6C4909,301.8,4909,289.8,4901.3,289.8L4901.3,289.8z"/>
		
	
	
		
			<path id="XMLID_547_" d="M4959.3,279.8c-10.7,0.2-24.1,0.7-32.1,8.9c-6.2,6.5-9.6,17.1-10.6,25.9c-0.9,8.1,3.4,14.8,11.5,16.7
				c5.5,1.3,11.5,1.1,17,0.3c2.6-0.4,5.2-1,7.6-2.2c2.8-1.3,5.1-3.3,8.2-3.8c7.6-1.1,4.4-12.7-3.2-11.6c-4.2,0.6-7.2,3.4-11,4.9
				c-3.5,1.3-7.8,1.3-11.5,1.1c-5.4-0.2-7.5-0.6-6.4-6.1c1.1-5.6,3.1-13.1,7.3-17.1c5.5-5.2,16.1-4.8,23.2-5
				C4967,291.6,4967,279.6,4959.3,279.8L4959.3,279.8z"/>
		
	
	
		
			<path id="XMLID_540_" d="M4997.3,275.8c-8.1-0.7-19.6,0.4-24.4,8c-4.4,6.9-3.2,18.1,0.3,25.2c7.2,14.6,27,11,40.1,10.8
				c7.7-0.1,7.7-12.1,0-12c-5.1,0-10.2,0.6-15.4,0.5c-3.9,0-9.3-0.1-12.5-2.8c-3.1-2.7-4-9.6-3.1-13.4c1.2-5.4,10.8-4.7,15-4.3
				C5005,288.5,5004.9,276.5,4997.3,275.8L4997.3,275.8z"/>
		
	
	
		
			<path id="XMLID_533_" d="M5025.3,273.8c0.1,6.1,0.3,12.1,1.1,18.1c0.9,7,2.1,15.5,7.6,20.4c7.3,6.5,16.1,0.8,20.1-6.2
				c6.1-10.7,9.6-24.3,11.2-36.3c1-7.6-11-7.6-12,0c-1.2,9.2-4.3,18.9-8.1,27.4c-0.7,1.6-1.6,3.5-2.7,4.9c-0.5,0.6-1.3,1.8-0.9,1.2
				c-0.7,0-0.8,0-0.3,0c0.2,0,0.3,0,0.5,0.1c0.3-0.4,0.9,1.5,0.1-0.1c-0.3-0.6-0.7-0.8-1.1-1.9c-3.5-8.5-3.3-18.6-3.4-27.6
				C5037.2,266.1,5025.2,266,5025.3,273.8L5025.3,273.8z"/>
		
	
	
		
			<path id="XMLID_526_" d="M5093.3,321.8c0-11.3-0.8-23,0.1-34.2c0.3-4.4,1.4-8.9,2.1-13.3c0.6-4.2,3.4-6.5,7.9-5.2
				c4.3,1.2,8.5,4.6,12,7.4c0.7,0.5,1.3,1.2,2,1.7c2.5,2-0.1,0.3,1.1-0.2c-1.5,0.7-3,2-4.4,2.8c-7.1,4-14.1,11.7-22.8,11.1
				c-7.7-0.6-7.7,11.4,0,12c7.2,0.5,13.7-2.7,19.5-6.6c4.6-3.1,9.7-5.7,14.1-9.1c13.8-10.4-2.6-22.7-12.2-28
				c-6.7-3.7-14.3-4.8-21-0.7c-5.5,3.4-7.2,8.2-8,14.3c-1,7.1-2.3,13.8-2.3,21.1c0,9,0,18,0,27
				C5081.3,329.5,5093.3,329.5,5093.3,321.8L5093.3,321.8z"/>
		
	
	
		
			<path id="XMLID_519_" d="M5141.3,299.8c10.6,0.2,23.1-3.9,31-11.2c4.2-3.9,7.2-10,5.6-15.9c-1.7-6-7.5-8.8-13-10.3
				c-6.1-1.7-11.3-1.8-15.9,3c-5.1,5.2-6.9,12-5.8,19.1c1.7,11.5,8.7,19.6,18.1,25.7c6.4,4.1,23.7,12.8,25.9-0.7
				c1.2-7.6-10.3-10.8-11.6-3.2c-0.2,1.3,1.9-1.2,2-1.4c0.2-0.4,0.2,0.1,0-0.1c-0.7-0.7-2.8-0.9-3.8-1.4c-3.4-1.5-6.6-3.6-9.6-5.8
				c-5.8-4.2-11.6-13.2-8.9-20.5c1.8-4.9,3.7-4.2,8.1-2.6c3.8,1.4,3.4,3,0.5,5.7c-5.6,5.1-15,7.8-22.5,7.7
				C5133.5,287.7,5133.5,299.7,5141.3,299.8L5141.3,299.8z"/>
		
	
	
		
			<path id="XMLID_512_" d="M5141.3,249.8c6.6,0.3,11.7-2.9,16.9-6.6c5.7-4,11.9-7.1,18.1-10.2c6.9-3.4,0.8-13.8-6.1-10.4
				c-5.3,2.7-10.8,5.3-15.8,8.6c-4.1,2.7-8,6.8-13.2,6.6C5133.5,237.5,5133.6,249.5,5141.3,249.8L5141.3,249.8z"/>
		
	
	
		
			<path id="XMLID_505_" d="M5229.3,233.8c0,12.7,0,25.4,0,38c0,5.8-0.1,11.7,0.5,17.5c0.7,6.2,2.6,12,3.8,18.1
				c1.4,7.6,13,4.4,11.6-3.2c-1.1-5.6-3-10.9-3.5-16.7c-0.5-5.8-0.3-11.7-0.3-17.6c0.1-12,0-24.1,0-36.1
				C5241.3,226.1,5229.3,226,5229.3,233.8L5229.3,233.8z"/>
		
	
	
		
			<path id="XMLID_498_" d="M5281.3,265.8c-7.7-0.2-18.6-2.7-24,4.6c-2.3,3.1-2.4,7.3-3,10.9c-0.8,5.1-2.2,9.7,1,14.2
				c4.6,6.6,16.3,8,23.6,6.2c7.8-1.8,15.8-12.7,12.6-20.7c-2.5-6.3-11.1-5.3-11.8,1.6c-0.6,6.5,3.1,12.4,5,18.5
				c1.8,5.7,4.2,11.5,9.6,14.7c11.9,7,24.3-2.3,33.2-9.8c5.9-5-2.6-13.4-8.5-8.5c-4.2,3.5-13.9,12.6-19.5,7.2c-2.4-2.3-3-6.4-4-9.4
				c-1.4-4.1-4.2-8.2-3.8-12.8c-3.9,0.5-7.9,1.1-11.8,1.6c1,2.6-2.8,5.9-5.7,6.1c-2.2,0.1-4.6-0.1-6.8-0.8c-2.9-0.9-2.4-0.5-1.9-3.6
				c0.3-2,0.6-4,0.9-6c0.2-1,0.3-2.2,0.7-3.1c-0.7,1.6-1.1,0.6,0.7,0.6c4.5,0,8.9,0.2,13.4,0.3C5289,278,5289,266,5281.3,265.8
				L5281.3,265.8z"/>
		
	
	
		
			<path id="XMLID_491_" d="M5292.3,252.6c-6-3-11.7-6.2-17.3-9.8c-4.2-2.7-9.8-4-13.5-7.2c-5.8-5.1-14.3,3.3-8.5,8.5
				c4.3,3.8,9.6,5.2,14.4,8.1c6.2,3.8,12.3,7.6,18.8,10.8C5293.1,266.4,5299.2,256.1,5292.3,252.6L5292.3,252.6z"/>
		
	
</g>
<g id="noclick">
	<polygon id="XMLID_38_" class="st4" points="3931.5,317.6 4027.2,259.4 4182.5,230.2 4219.5,257.5 4249.6,262 4266.6,264.4 
		4310.8,304 4310.8,417.4 3891.8,417.4 	"/>
	<polyline id="XMLID_37_" class="st5" points="4026.2,222.9 4004.6,228 4004.6,124.3 4031.8,61.3 4061.3,39.2 4065.9,39.2 
		4065.9,17.6 4120.3,17.6 4162.3,32.4 4191.7,61.3 4215,92.5 4223.5,152.6 4214.4,224.6 4193.5,254.7 4165.1,243.3 4163.4,238.8 
		4178.7,189.5 4178.7,110.1 4078.3,61.3 4044.9,90.8 4026.2,171.9 4026.2,222.9 	"/>
	<polygon id="XMLID_36_" class="st6" points="4102.4,69.2 4078.3,61.3 4044.9,90.8 4026.2,171.9 4026.2,228 4029.7,232.1 
		4026.2,271.1 3998.9,296.6 4012.6,338.6 4032.4,363.6 4072.7,363.6 4123.1,334.6 4155.5,286.4 4155.5,266 4154.1,264.9 
		4168.5,224.6 4178.7,189.5 4178.7,144.1 4178.7,110.1 	"/>
	<ellipse id="XMLID_34_" class="st5" cx="4072.7" cy="152.9" rx="6.4" ry="6"/>
	<ellipse id="XMLID_33_" class="st5" cx="4143.8" cy="162.8" rx="6.4" ry="6"/>
	<polygon id="XMLID_32_" class="st7" points="4067,159.4 4057.9,152 4067.3,148.1 4086.3,148.1 4092.3,154.9 4083.2,161.7 	"/>
	<polyline id="XMLID_31_" class="st7" points="4128.2,148.1 4150.2,146.9 4165.4,152.9 	"/>
	<polyline id="XMLID_30_" class="st7" points="4092.3,142.1 4068.4,132.8 4055.7,137.4 	"/>
	<polyline id="XMLID_27_" class="st7" points="4079,256.8 4100.2,256.8 4114.1,262 	"/>
	<polyline id="XMLID_26_" class="st7" points="4072.7,235.4 4105.8,235.4 4119.7,240.2 	"/>
	<polygon id="XMLID_25_" class="st7" points="4147.2,173.9 4134.5,166.2 4129.7,161.7 4142.7,156.3 4152.1,156.3 4160.3,165.1 
		4160.3,168.2 4151.8,171.9 	"/>
	<polyline id="XMLID_24_" class="st7" points="4122.4,186.8 4128.2,196.3 4122.4,201.6 4107.3,201.6 4101,200.6 4092.3,199.3 
		4086.1,191 4092.3,181.1 	"/>
	<polygon id="XMLID_23_" points="4097.6,194.6 4093.5,196.3 4094.3,199.6 4101,200.6 4100.2,197.6 	"/>
	<polyline id="XMLID_22_" points="4115.6,201.6 4115.6,198.7 4118.9,197.6 4121.9,198.4 4122.4,201.6 	"/>
	<polyline id="XMLID_20_" class="st7" points="4083.4,97.6 4128.2,101.6 4141.3,105.5 	"/>
	<path id="XMLID_19_" class="st7" d="M4075,265.4c1.7,0.4,3.4,0.8,5.1,1.2"/>
	<path id="XMLID_18_" class="st7" d="M4098.4,273.3c0.4,1.7,1.6,3.2,3.2,3.9"/>
	<path id="XMLID_17_" class="st7" d="M4111.8,272.9c2.6-0.7,5-1.6,7.4-2.8"/>
	<path id="XMLID_16_" class="st7" d="M4129.5,264.4c0.9-1.9,1.8-3.8,2.7-5.7"/>
	<path id="XMLID_15_" class="st7" d="M4147.5,257.5c0.5-1.9,1.1-3.8,1.6-5.7"/>
	<path id="XMLID_14_" class="st7" d="M4136.7,240.5c-0.2-2.5-0.4-4.9-0.6-7.4"/>
	<path id="XMLID_13_" class="st7" d="M4120.3,228c0-1.3,0-2.6,0-4"/>
	<path id="XMLID_12_" class="st7" d="M4103.3,220.1c0-1.1,0-2.3,0-3.4"/>
	<path id="XMLID_11_" class="st7" d="M4081.8,221.8c1-1.6,2.4-2.9,3.9-4"/>
	<path id="XMLID_10_" class="st7" d="M4069.7,226.3c0.4-1.1,0.8-2.2,1.3-3.4"/>
	<path id="XMLID_9_" class="st7" d="M4058.4,242.8c0.2-2.5,0.3-4.9,0.5-7.4"/>
	<path id="XMLID_8_" class="st7" d="M4052.4,257.5c-0.5-2.7-1.7-5.3-3.6-7.3"/>
	<path id="XMLID_7_" class="st7" d="M4036.9,236.5c0.3-2.1,0.2-4.2-0.2-6.3"/>
	<path id="XMLID_6_" class="st7" d="M4045,226.4c0.8-1.6,1.1-3.4,1-5.2"/>
	<path id="XMLID_5_" class="st7" d="M4155.9,237.1c0.9-2.7,2.1-5.4,3.6-7.9"/>
	<path id="XMLID_4_" class="st7" d="M4072.7,234.8c7.7-4.8,17.1-6.5,26-4.7c0.4,0.1,0.9,0.2,1.2,0.5c0.3,0.3,0.4,0.7,0.7,1.1
		c0.8,1.2,2.6,1.2,4,0.8s2.8-1.2,4.3-0.9c1.1,0.2,1.9,0.9,2.8,1.6c2.7,2.2,5.3,4.3,8,6.5"/>
	<path id="XMLID_3_" class="st6" d="M4181.7,173.3c2.4-1.2,4.7-2.4,7.1-3.6c0.9-0.5,1.9-0.9,2.8-0.6c0.8,0.3,1.3,1.1,1.7,1.8
		c4.2,8.4,2.2,19.4-4.7,25.7c-0.7,0.6-1.4,1.2-1.9,1.9c-1,1.4-1.1,3.2-1.3,4.8c-1.3,9.3-7.4,17.8-15.7,22
		c-0.1-6.3,2.9-12.5,7.7-16.5c0.8-0.7,1.7-1.3,2.3-2.2c0.7-1.1,0.8-2.5,0.8-3.9c0.2-10.3-1.1-21.1,2.6-30.7"/>
	<path id="XMLID_2_" class="st6" d="M4022.2,205.3c-2.4,0-4.9-0.6-7-1.8c-6.6-3.7-9-12.1-9.7-19.6c-1.1-12.8,1.1-26,6.2-37.8
		c0.7-1.6,2.1-3.5,3.8-3.1c2.1,0.5,2,3.5,1.5,5.6c-2.3,9.8-1.7,20.2,1.8,29.6c1.7,4.7,4.1,9.1,5.3,13.9s0.9,10.4-2.2,14.2"/>
</g>
</svg>
