<?xml version="1.0" encoding="utf-8"?>
<!-- Generator: Adobe Illustrator 19.0.0, SVG Export Plug-In . SVG Version: 6.00 Build 0)  -->
<svg version="1.1" id="Calque_2" xmlns="http://www.w3.org/2000/svg" xmlns:xlink="http://www.w3.org/1999/xlink" x="0px" y="0px"
	viewBox="0 0 10800 2332" style="enable-background:new 0 0 10800 2332;" xml:space="preserve">
	<g id="viens">
		<path d="M8416,1383c-8.8-0.7-15.4-5-23.5-7.8c-20.7-7.1-41.9-7.6-63.3-10c-54-6.1-108.3-18-161.2-30.4
			c-53.6-12.5-105.3-38.9-160.9-34.2c-42.7,3.6-86.2,10.7-129,9.1c-52.2-1.9-105-14-156.3-23c-41.8-7.3-95.1-18.9-137.6-10.4
			c-24.3,4.9-48.3,11.5-72.7,16.4c-85.3,16.8-172.4-0.6-257.1,16c-77.8,15.3-157.9,28.4-237,10.6c-56.6-12.7-114.2-29.2-171.5-38.8
			c-25.3-4.3-51.1,2.1-76.3-2.7c-43.7-8.3-42.2-43.4-47.6-80.4c-5.8-40.1-9.1-72.4-4.1-112.5c4.9-38.7,0.2-77.6,1.4-116.4
			c2.7-86.2,46.7-162.6,103.4-224.5c24.2-26.5,48.5-52.1,49.4-89.1c0.3-13.3-4.8-34-1.3-46.5c9.3-33.3,73.4-15.1,95.2-10.4
			c104,22.6,204.5,49.9,311.9,49.1c134.6-1,271.7-7.9,405.8,3.8c28,2.5,55.8,4.9,84,4c10.9-0.3,20.5-1.3,31.4,1.4
			c44.3,10.8,84.4,16.4,130.4,22.2c76,9.6,154,16.2,229,32.3c48.9,10.5,89.1,39.9,136.9,51.4c27.3,6.6,66.8-1.7,91,15.8
			c14.6,10.5,26.4,35.8,29.8,53.8c7,37-14.7,77.2-25,111.4c-11.7,38.9-14.2,79.3-16.2,119.6c-2.2,45.5-17.9,92.8-25.8,137.9
			c-4.6,26.4-5.7,49.7-5.6,76.6c0,29.9,0,59.7,0,89.6"/>
		</g>
	</svg>
