<?xml version="1.0" encoding="utf-8"?>
<!-- Generator: Adobe Illustrator 19.0.0, SVG Export Plug-In . SVG Version: 6.00 Build 0)  -->
<svg version="1.1" xmlns="http://www.w3.org/2000/svg" xmlns:xlink="http://www.w3.org/1999/xlink" x="0px" y="0px"
 viewBox="0 0 10800 2332" style="enable-background:new 0 0 10800 2332;" xml:space="preserve">
<style type="text/css">
.st0{fill:#FFFFFF;}
</style>
<g id="viensg">

<path class="st0" d="M1386.1,909.9c10-0.8,19.6,7.9,28,12.1c6.4,3.2,14.5,5,20.3,8.8c11.4,7.3,23.6,20.8,26.8,33.9
	c3.6,14.8,7.2,30.2,8.9,45.3c1.8,16.2,3.5,33.4,7.9,49.1c2.5,9,0.7,11,11.6,7.6c11.5-3.5,21.9-14.2,32.9-19.4
	c9.7-4.6,16-7,19.1,6.2c1.6,6.6,0.7,14.6,0.6,21.4c-0.2,9.9-0.1,14-8.2,20.6c-6.5,5.3-16.6,11.3-24.4,14.5
	c-16.5,6.7-41.6,10.3-59.1,9.3c0.4-2.8,0.9-5.5,1.4-8.3c-8.5,3.2-16.5,8.3-24.9,11.9c-4.8,2.1-11.8,7.6-17.1,6.9
	c-11.5-12.3-0.1-28.8,3.6-41c2.9-9.6,1.7-25.3-0.1-35c-2.5-13.7-8.1-21.3-14.2-32.8c-5.2-9.9-7.3-20.6-14.8-29.2
	c-14.9-17-35.4-34.3-56.2-43.7c-15.5-7-34.9-5.9-51.3-11.3c-12.2-4.1-19.2-11.9-30.3-17.2c-4.7,21.6-0.4,48.3-0.4,70.2
	c0,18.5,3.9,35.6,4,54.1c0,9.7,1.1,18.3-3.6,27.1c-6.8,12.8-13.4,11.8-24.6,4c-15-10.5-24-26.4-36.7-39.2
	c-8.5,11.3-13.1,24.9-18.2,38c-2.3,6-2.7,28.8-8.4,31.1c-16.4-7-26.4-34.8-24.8-51.3c1.5-15,9-27.7,15.4-41
	c4.6-9.6,13.5-28.8,24.9-31c8.9-1.7,26.2,21.5,31.7,7.6c2.1-5.4-3.1-10.6-3.9-15.6c-0.7-3.8,1-8,0.4-11.8
	c-1.7-10.1-7.2-22.3-11-31.9c-4.5-11.4-11.6-20.6-13.3-33c-2.4-17.8-1.7-37.4-15.9-51.2l6,8c7.5,3.3,16.2,4.1,24.2,4.8
	c9.1,0.9,17.8,0.3,26.9,0.2c9-0.1,18-1.1,26.9-2.5c4.9-0.8,9.9-1.4,14.7-2.5c3.5-0.8,6.8-2.1,10.3-2.8c7.3-1.4,14.7-1.9,22-3.1
	c11.9-2,23.9-4,35.8-6.1c6.9-1.2,16.3-1.3,20.2-8"/>
	
		<path d="M1386.1,915.9c6.9-0.3,12.8,4,18.4,7.5c5.6,3.5,11.4,6,17.5,8.3c12.7,4.7,23.5,14.3,30,26.2c3.6,6.6,4.8,14.2,6.4,21.4
			c1.8,7.9,3.4,15.8,4.7,23.7c2.4,15.6,3.3,31.4,6.5,47c1.2,5.7,2.3,11.7,4.1,17.2c1.3,3.9,4.1,6.8,8.4,7
			c11.8,0.7,23.3-8.9,32.4-15.2c4.9-3.4,10.1-6.8,15.8-8.7c1.2-0.4,2.5-0.9,3.6-0.5c-1.1-0.3-0.2-0.2,0.2,0.6
			c0.8,1.5,1.3,3,1.6,4.7c1.5,6.7,0.5,13.8,0.4,20.6c-0.1,4.5,0.2,8.8-2.9,12.4c-4.6,5.3-11.6,9.1-17.6,12.5
			c-6.4,3.5-13.1,6-20.2,7.9c-14.6,3.9-29.9,5.7-44.9,4.9c1.9,2.5,3.9,5.1,5.8,7.6c0.4-2.8,0.9-5.5,1.4-8.3c0.7-4-2.7-9.2-7.4-7.4
			c-8,3.1-15.3,7.4-23,11c-3.1,1.5-6.1,2.9-9.1,4.6c-2.6,1.4-5.2,3.1-8.3,3c1.4,0.6,2.8,1.2,4.2,1.8c-6.3-7.3-1.8-17.3,1.3-25
			c3.4-8.4,5.7-16.2,5.8-25.4c0.1-9.3-0.8-19-3.2-28c-2.5-9.4-7.4-17.8-12.1-26.3c-4.9-8.9-7.5-18.9-12.9-27.4
			c-5.7-9-14.2-16.7-22.1-23.7c-15.8-14-34.4-27.5-55.5-31.8c-11.7-2.4-23.9-2.9-35.4-6.4c-11.3-3.5-20-11.9-30.5-17.1
			c-3.2-1.6-8-0.4-8.8,3.6c-3.2,15.3-2.6,30.9-1.7,46.3c0.9,16,0.9,32,2.6,47.9c1.6,15.3,4.3,31.7,2.3,47.1
			c-0.5,4.2-3.1,13.7-7.9,15.3c-4.1,1.3-10.2-4.1-13.1-6.3c-13.1-10.2-21.9-24.9-33.4-36.8c-2.9-3-7.2-1.8-9.4,1.2
			c-5,6.8-8.7,14.3-12,22.1c-2.6,6.3-5.9,12.9-7.5,19.5c-1.2,4.8-1.5,9.9-2.3,14.7c-0.4,2.5-0.8,5-1.5,7.4
			c-0.2,0.8-0.8,1.9-0.9,2.7c-0.1,1,0.1,0.3-0.3,0.5c2,0,4,0,6.1,0c-9.2-4.2-14.8-13.6-18.1-22.8c-3.6-9.9-5-19.9-2.4-30.1
			c3.1-12.6,9.9-24.3,15.6-35.9c3.8-7.7,8.7-19.1,17-22.9c4.3-2,13.3,6.9,17.8,9.2c7.3,3.7,15.7,3.6,19.5-4.8
			c2.7-5.9,0.4-11.1-2-16.6c-1.4-3.1-1.1-5.4-0.7-8.8c0.3-3.3,0-6.3-0.7-9.6c-2.9-12.9-8.6-26-14.4-37.9
			c-3.1-6.3-6.6-12.4-8.3-19.2c-1.7-6.8-1.8-14-2.7-20.9c-1.8-14.1-5.4-27.4-15.7-37.8c-4.6-4.7-13.6,1.7-9.4,7.3
			c1.8,2.5,3.7,4.9,5.5,7.4c3.4,4.5,9.8,5.6,15.1,6.6c15,2.7,30.3,2.5,45.5,1.9c15.9-0.6,31.7-3.3,47.1-7.3
			c7.4-2,15.2-2.3,22.7-3.5c7.9-1.2,15.7-2.6,23.5-4c7.4-1.3,14.8-2.3,22.2-3.7c6.5-1.2,12-3.9,15.7-9.5c4.2-6.5-6.1-12.5-10.4-6.1
			c-2.7,4.2-9.8,4.2-14.2,4.8c-7.1,1-14.1,2.4-21.2,3.6c-15.5,2.6-31.5,3.8-46.6,8.1c-15.2,4.3-31.7,5.2-47.4,5.6
			c-14.7,0.3-30.8,0.9-44.7-4.9c1.2,0.9,2.4,1.8,3.6,2.8c-2-2.7-4-5.3-6-8c-3.1,2.4-6.3,4.8-9.4,7.3c11.5,11.6,11.9,28.1,13.7,43.3
			c1.9,16.8,10.9,30.8,17.2,46.2c3,7.3,7.3,15.9,7.7,24c0.2,4.2-1.2,8.1-0.2,12.4c0.9,3.7,3.2,6.9,4.1,10.7
			c0.1,0.4-0.4,1.3-0.5,1.3c0.3-0.4,1-0.1-0.1-0.2c-1-0.1-3.4-1.6-4.7-2.3c-4.4-2.7-8.4-6-13.1-8.1c-12.4-5.6-22.5,5.6-28.7,15.1
			c-3.4,5.3-6.2,11-9,16.7c-3.7,7.7-7.8,15.3-11,23.2c-5.8,14.2-7.1,28.5-2.8,43.3c3.6,12.4,10.4,25.5,21.6,32.5
			c15.1,9.5,17.4-13.4,18.8-23.2c1-6.9,3-12.7,5.5-19.1c3.7-9.5,7.9-18.8,14-27.1c-3.1,0.4-6.3,0.8-9.4,1.2
			c11.4,11.7,20.1,25.8,32.7,36.2c9.4,7.7,22.8,16,33,4.9c11.5-12.5,10-31,9-46.7c-0.6-9.3-1.9-18.5-2.7-27.7
			c-0.8-8.9-0.8-17.9-1.1-26.8c-0.8-19.4-3.6-39.5,0.4-58.7c-2.9,1.2-5.9,2.4-8.8,3.6c10.4,5.2,19.1,13.1,30.1,17.2
			c11.8,4.4,24.6,4.8,36.9,7.2c25,4.8,46.7,22.7,63.8,40.6c3.9,4.1,7.6,8.2,10.3,13.2c3,5.8,5,12.1,7.8,18
			c4.9,10.4,11.6,19.6,14.4,30.9c2.4,9.9,3.5,21.4,1.7,31.5c-1.7,9.8-7.7,18.3-9.2,28.3c-0.9,5.9-0.4,12,2.6,17.3
			c1.4,2.5,3.4,5.6,6.3,6.5c2.5,0.8,5.7,0.1,8.1-0.7c5.4-1.8,10.2-5.2,15.3-7.6c7.3-3.4,14.3-7.6,21.8-10.6
			c-2.5-2.5-4.9-4.9-7.4-7.4c-0.5,2.8-1,5.5-1.4,8.3c-0.6,4,1.5,7.4,5.8,7.6c28.6,1.4,59.6-4.8,83-21.9c4.9-3.5,9.8-7.4,12.4-13
			c2.3-5.1,2.2-10.8,2.3-16.3c0.3-10.7,2.7-31.2-10.6-35.7c-4.8-1.6-9.6,0-14.1,1.9c-6.6,2.8-12.4,6.6-18.3,10.7
			c-6,4.2-12.1,8.5-19.3,10.5c-0.7,0.2-2.2,0.3-2.8,0.7c-0.8,0.5-1.6-1.1,0.5,0.5c-1-0.8,1.8,0.8,1.6,0.9c0,0-0.1-0.7-0.3-1.6
			c-0.3-1.4-0.6-2.7-1-4c-4.2-16.5-6-33.2-8-50c-1.1-8.8-2.7-17.6-4.5-26.3c-1.7-8.1-3.1-16.7-6.3-24.4c-6-14.7-19.2-28.7-33.8-35
			c-7.6-3.3-14.9-5.9-22-10.3c-7.1-4.4-14.5-8.6-23.2-8.3C1378.4,904.2,1378.4,916.2,1386.1,915.9L1386.1,915.9z"/>
	


	<path class="st0" d="M1160.1,845.9c2.9,1.5,3.6,3.9,6,6c4.5,4,11.3,5.4,17.1,5.8c13.1,0.9,26.6,1.1,39.6-0.8
		c14.8-2.2,29.5-5,44.3-7.1c14.9-2.1,29.9-4.1,44.2-9c5.5-1.9,10.9-4,16.3-6c3.9-1.4,8.7-2.8,12.2-5c3.4-2.2,3.5-6.1,4-9.9
		c0.9-7.8,1.8-15.6,2.5-23.3c0.5-5.4,0.9-10.7,0.8-16.1c-0.1-9.4-1.9-18.5-3.1-27.8c-1.1-8.1-1.9-16.3-2.9-24.5
		c-1.3-10.3-4.3-20.1-8-29.7c-5-12.8-8.9-27.2-17.5-38.2c-4.4-5.7-9.3-10.4-15.2-14.7c-2.9-2.1-6.1-3.6-9-5.7
		c-4.3-3-11.9-6.5-17.4-5.6c-2,0.3-2.8,1.3-4.2,2.7c-2.1,2.2-4.3,3.6-7.1,4.8c-3.7,1.6-7.8,2.5-11.6,4c-7.1,2.8-13.5,5.1-21.1,6.1
		c-8,1.1-16,1.2-24,1.9c-5.9,0.5-12,1.8-17.9,1c-8.3-1.1-16.5-6.5-23.9-10c-6-2.9-11.8-6.2-17.8-9c-8.2-3.8-16.7-7.8-25.5-10.1
		c-2.3-0.6-6.7-3.1-9.1-2.9c-1.5,1.6,1,3.8,2.1,4.9c3.2,3.1,5.2,6.4,7,10.4c1.7,3.8,3.2,7.6,4.5,11.5c2.1,6.4,1.9,13.5,2.3,20.2
		c1,16.4,3.1,32.7,5.8,48.9c1,5.7,1.8,11.7,3.6,17.2c2.1,6.5,5.2,12.7,7.3,19.3c0.8,2.6,1.8,5.1,2.7,7.6c0.9,2.4,0.2,2.7-2.1,3.6
		c-3.8,1.6-5.8,7.1-7.5,10.8c-5.1,10.8-5.2,25.3,0.9,35.7c2.1,3.7,4.5,7.3,6.8,10.9c3,4.7,7.2,7.8,11.2,11.5c1.9,1.8,4.2,3.3,6,5.1
		c1.6,1.5,2.8,3.1,4.6,4.4c2.5,1.8,5,2.5,8,3c4.1,0.7,7.9,2.3,11.9,3.4c4.6,1.3,9.1,3.1,13.7,4.3c5.4,1.4,11.2,1.6,16.8,1.1
		c5.7-0.5,11.5-1.2,17-2.7c2.1-0.6,4-1,6.2-1.2c3.3-0.3,5.4-2,8.4-3.1c7.2-2.7,15.8-2.4,23.3-3.4c5.1-0.7,9.9-1.5,15-1.5
		c4,0,8.5,0.6,12.4-0.2c5.3-1.1,10.7-1.9,16-2.8"/>


	<path class="st0" d="M1387.8,912.8c-6.3-13.1-5.9-7.1-15.3-17.3c-6.2-6.7-16.4-22.4-18.2-31.6c-1.6-8.2,0.1-17.6-0.1-25.9
		c-0.2-11.6-7.8-59.1-8.1-70.1"/>
	
		<path d="M1393,909.8c-2-4.1-4.2-8.3-7.8-11.2c-3.4-2.7-6.6-5.1-9.4-8.4c-7-8-15-19.6-16-30.4c-0.7-7.4,0.7-14.8,0.5-22.2
			c-0.1-3.5-0.5-7.1-0.9-10.6c-1.2-10.3-2.6-20.6-4-30.8c-1.2-9.3-2.9-18.8-3.2-28.2c-0.2-7.7-12.2-7.7-12,0
			c0.6,19,4.7,38.2,6.9,57.1c0.4,3.8,0.9,7.6,1.1,11.4c0.3,6.9-0.7,13.8-0.5,20.8c0.4,13.1,7.1,24.8,14.7,35.2
			c3.8,5.2,7.9,10.1,13.1,13.9c3.5,2.5,4.8,4.7,7.2,9.6C1386,922.8,1396.3,916.7,1393,909.8L1393,909.8z"/>
	


	<path class="st0" d="M1322.1,681.9c-6.1-19.2-9.8-38.7-14.5-58.2c-1.1-4.6-1.8-9.2-2.9-13.7c-1.2-4.6-4.9-11.2-4.5-16.1"/>
	
		<path d="M1327.9,680.3c-4.8-15.4-8.2-31.2-11.9-46.9c-1.7-7.2-3.3-14.4-4.8-21.6c-1.3-5.9-5.1-11.9-5.1-17.9c0-7.7-12-7.7-12,0
			c0,6.3,3.1,11.7,4.8,17.7c2.1,7.6,3.4,15.5,5.1,23.2c3.8,16.3,7.3,32.7,12.3,48.8C1318.6,690.9,1330.2,687.7,1327.9,680.3
			L1327.9,680.3z"/>
	


	<path class="st0" d="M1280.1,643.9c0,10.3,0,20.7,0,31c0,8.1,2,15,2,23"/>
	
		<path d="M1274.1,643.9c0,9.4,0,18.7,0,28.1c0,8.7,1.9,17.2,2,25.9c0.1,7.7,12.1,7.7,12,0c-0.1-8.7-2-17.2-2-25.9
			c0-9.4,0-18.7,0-28.1C1286.1,636.2,1274.1,636.2,1274.1,643.9L1274.1,643.9z"/>
	


	<path class="st0" d="M1334.1,749.9c-1.1,15.3-3.6,30.9-6,46"/>
	
		<path d="M1328.1,749.9c-1.2,14.9-3.4,29.7-5.8,44.4c-1.2,7.6,10.4,10.8,11.6,3.2c2.5-15.8,5-31.6,6.2-47.6
			C1340.7,742.2,1328.7,742.3,1328.1,749.9L1328.1,749.9z"/>
	


	<path class="st0" d="M1300.1,749.9c0,7.3,0.3,14.7,0.1,22c-0.1,5.2-5.2,13.7-3.7,18.2c7.3,4.6,20,1.8,28.3,1.8
		c5.4,0,10.8,0,16.2,0c-10.4,0-20.8,0.4-31.1,0.1c-7.4-0.2-14.3-2-21.8-2.1"/>
	
		<path d="M1294.1,749.9c0,8.6,1.5,18.2-1.1,26.5c-1.8,5.8-5.9,15.1,0.9,19.2c6.3,3.8,14.4,3.3,21.4,2.8c8.6-0.6,17.1-0.6,25.7-0.6
			c0-4,0-8,0-12c-9.1,0-18.2,0.3-27.2,0.2c-8.6-0.1-17.1-1.9-25.7-2.2c-7.7-0.2-7.7,11.8,0,12c8.6,0.3,17.1,2,25.7,2.2
			c9.1,0.1,18.2-0.1,27.2-0.2c7.7,0,7.7-12,0-12c-7.6,0-15.2-0.2-22.8,0.3c-5.9,0.4-13.3,1.8-18.7-1.3c0.9,1.2,1.8,2.4,2.8,3.6
			c-0.4-2,1.1-5.1,1.7-7c0.9-2.8,1.9-5.6,2.1-8.5c0.7-7.6,0-15.5,0-23.1C1306.1,742.2,1294.1,742.2,1294.1,749.9L1294.1,749.9z"/>
	


	<path class="st0" d="M1164.1,699.9c0.8-6.8-2.7-12.9-5.1-19c-3.2-8.1-3.6-16.6-6.2-24.9c-3.7-11.5-8.7-21.1-16.8-30.1"/>
	
		<path d="M1170.1,699.9c0.5-7.6-2.7-13.7-5.3-20.6c-2.7-7.2-3.4-14.8-5.4-22.2c-3.5-13.2-10.1-25.2-19.1-35.4
			c-5.1-5.8-13.5,2.7-8.5,8.5c8,9.1,13.6,20.1,16.4,31.9c1.6,6.5,2.3,13.2,4.6,19.6c2.2,6.1,5.6,11.6,5.2,18.3
			C1157.6,707.6,1169.6,707.6,1170.1,699.9L1170.1,699.9z"/>
	


	<path class="st0" d="M1142.1,691.9c-2.8-2-2.8-8.5-3.9-11.6c-1.5-4.2-3.2-8.1-4.5-12.5c-1.6-5.1-2.4-10.4-3.9-15.5
		c-1.5-5.1-5.6-8.9-5.6-14.4"/>
	
		<path d="M1146.3,687.7c-1.8-1.6-1.6-6.1-2.3-8.5c-1.5-5.3-4-10.2-5.4-15.5c-1.3-4.7-1.9-9.7-3.6-14.3c-1.4-3.8-4.6-7.4-4.9-11.5
			c-0.6-7.7-12.6-7.7-12,0c0.4,5.2,2.5,9,4.8,13.5c2.6,5.3,3.1,11.6,4.7,17.2c1.6,5.3,4.3,10.4,5.4,15.8c0.9,4.2,1.5,8.6,4.9,11.7
			C1143.5,701.4,1152.1,692.9,1146.3,687.7L1146.3,687.7z"/>
	


	<path class="st0" d="M1364.1,711.9c-0.6-12.3-13.3-15.4-21.6-22c-2.9-2.3-5-4.9-8.3-6.6c-4.6-2.2-9.6-3.1-14.1-5.5
		c-2.7-1.4-12.6-7.2-15.8-5.4c-3.7,2.1-2.6,7.7-1.8,11.2c0.9,3.7,4.6,25.6,10.3,23c4.1-1.8,0.1-5.6-2-7c-4.2-2.8-8-1.5-12.6-1.7
		c-8.2-0.5-15.8-2.5-24.1-2.1c-19.9,0.9-3.2,32.8,7.5,22.5c-4.6-2.3-20.5,4.6-22.9,9.1c3.7,3.2,7.9,3.7,12.4,4.4
		c5.5,0.9,10.8,4.6,16.6,4.1c-4.7-0.2-11.3-1.3-15.3,1.8c-4,3.1-6.2,9.6-0.5,11.9c8.6,3.6,21.7-1.9,30.6-1.8
		c10.5,0.1,23.5-2.1,33.7,0.3c16,3.7,14,22.3,23.9,31.8c4,3.8,9.6,6.5,14.2,9.5c4.5,2.9,7.9,6.1,13.6,6.6c4,0.3,8.2-0.2,11.9-1.6
		c4.7-1.8,11.4-3,15.3-5.6c3.5-2.3,8.3-9.2,10-13.1c2.1-4.7,1.2-9.3,0.1-14c-4.9-21.3-4.4-44.6-16.9-63.7
		c-6.1-9.3-16.1-14.5-24.1-22c-8.7-8.1-15.3-18.1-23.6-26.7c-6.5-6.8-12.9-13.7-18.6-21.1c-4.3-5.6-10.2-10.3-14-16.3
		c-2.6-4.2-5.9-10.5-11.4-11.7c-5-1.1-8.9,2-14.1-0.6c-4.6-2.4-7.8-6.7-8.5,2.2c-0.8,10.3-2.5,20-7.7,29.4
		c-4.3,7.8-13.9,12.3-22,14.9c-9.3,3-18.8,6-28.2,8.5c-7.3,1.9-14.4,1.4-21.9,1.4c-7.3,0-14.6,0.6-21.9-0.1
		c-12-1.3-23.1-6.5-33.7-12c-16.5-8.6-33.4-20-41.3-37.3c-5.6-12.4-6.8-25.8-4.9-39.3c2.9-20.1,17.2-41.5,29.7-56.9
		c3.1-3.9,6.6-7.8,10-11.4c6.5-6.8,12.9-9.8,21.5-13.5c11.8-5.2,24.5-10.6,37.8-9.3c14.5,1.4,27.1,10,37.6,19.6
		c9.2,8.4,12.7,19.8,19.1,30.3c5.9,9.8,8.2,20.1,7.9,31.5c-0.1,4.4,0.6,8.2,1.1,12.4c0.8,6.5-0.8,11.8-1.2,18.2
		c-0.8,12.5,4.2,23.4,4.1,35.8"/>
	
		<path d="M1370.1,711.9c-0.9-11.3-8.4-17.1-17.5-22.5c-4.3-2.5-7.7-5.6-11.5-8.7c-5.4-4.2-12-5.1-17.9-8
			c-6.7-3.3-16.3-10.1-23.4-4.3c-6.7,5.5-3.5,15.4-1.9,22.6c1.4,6.5,3,15.1,8.3,19.7c3.1,2.7,7.3,2.9,10.7,0.5
			c5.2-3.6,4.1-10,0.1-14.1c-4-4-8.9-5.3-14.4-5.2c-7.1,0.1-13.9-1.3-21-1.9c-8.4-0.7-18.8,0-22,9.4c-4.7,14.1,12.3,35.5,26.2,23.1
			c3.7-3.3,1.2-8.5-2.6-10c-5.1-2-11.4,0.3-16.2,2.3c-5,2.1-10.5,4.8-13.5,9.6c-1.3,2-1.1,5.7,0.9,7.3c5,3.9,9.7,4.8,15.8,6.1
			c6,1.3,11.1,4.3,17.5,4.2c7.7-0.2,7.7-11.6,0-12c-7.4-0.3-15.3-1.1-20.9,4.8c-4.9,5.2-6.4,13.6-0.4,18.6c6,5,15.1,3.7,22.2,2.6
			c8.1-1.3,15.7-1.9,23.8-2.4c7.8-0.4,18.7-2.3,25.8,1.8c4.9,2.8,6.7,9,8.7,13.9c2.4,5.9,5.1,11.7,10,16c3.2,2.7,6.8,4.9,10.3,7
			c3.5,2.1,6.7,4.6,10.3,6.6c8.3,4.7,17.1,3.5,25.8,0.7c7.7-2.6,14.9-4.2,20.3-10.7c5.2-6.3,9.3-13.4,8.5-21.8
			c-0.9-9.1-3.4-18.2-4.8-27.2c-2.6-17.4-5.9-36-17.7-49.8c-5.4-6.4-12.6-10.8-19-16.1c-7.4-6.3-13.2-14.1-19.4-21.5
			c-6.5-7.8-13.9-14.8-20.4-22.6c-2.8-3.4-5.5-7-8.5-10.2c-3.2-3.5-6.7-6.7-9.3-10.7c-3.8-5.9-7.6-12.7-15-14.5
			c-3.9-0.9-7.5,0.7-11.3,0.2c-2.7-0.3-4.7-2.6-7.2-3.6c-7.8-2.9-11,4.2-11.7,10.6c-0.9,9.1-2.2,18.3-6.9,26.3
			c-3.9,6.6-11.4,9.8-18.4,12.1c-10.1,3.3-20.5,7.3-31,9.2c-9.7,1.7-20.5,0.8-30.3,0.9c-10,0-19.3-2-28.5-6
			c-15.5-6.8-31.6-15.5-42.8-28.5c-12.3-14.3-15.3-35.1-10.8-53.1c4.5-17.8,15.5-33.9,26.9-48c5.7-7,11.5-14.2,19.4-18.8
			c7.6-4.4,16.1-7.9,24.4-10.7c9.3-3.1,18.8-4.4,28.4-1.5c8.5,2.5,16.1,7.5,22.8,13.2c6.9,5.9,11.4,12.6,15.5,20.6
			c4.1,8.1,9.4,15.7,11.7,24.6c2.3,8.8,1.6,18.1,2.6,27c1.1,9.3-1.8,18.5-0.8,27.8c1,9.1,3.8,17.9,3.8,27.1c0.1,7.7,12.1,7.7,12,0
			c-0.1-9.3-2.8-18-3.8-27.1c-1.1-9.1,1.8-17.9,0.9-26.9c-0.9-9-0.6-18.3-2.3-27.2c-1.6-8.9-5.8-16.2-10-24.1
			c-4.1-7.6-7.6-15.5-13-22.3c-5.3-6.5-12.5-12.1-19.6-16.6c-15.9-10.1-33.5-12.1-51.3-6.1c-8.4,2.8-16.8,6.4-24.7,10.5
			c-7.7,4-13.8,9.7-19.5,16.2c-11.9,13.5-22.9,28.6-30,45.2c-7.3,16.9-9.5,36.1-4.4,54c4.8,16.7,16,29.5,30.1,39.3
			c14.1,9.9,31.6,19.4,48.7,22.3c9.6,1.6,19.2,0.8,28.9,0.9c10.2,0,19.3-0.9,29.2-3.7c15.4-4.5,36.1-8.3,45.5-22.9
			c4.8-7.4,7.2-16.5,8.4-25.2c0.3-2.2,0.5-4.4,0.8-6.7c0.1-0.7,0.4-2.2,0.3-2.9c0,0,0-0.1,0-0.1c-0.1-1.9-1.8-1.4-5.2,1.6
			c1.2,1.6,5.8,3.4,7.5,3.9c4,1.2,7.3-0.1,11.3,0c3.6,0.1,5.4,3.1,7.2,5.8c4.6,7.2,10.4,12.9,15.8,19.4
			c6.4,7.7,12.8,15.1,19.6,22.4c6.5,6.9,12.1,14.7,18.5,21.7c5.9,6.4,13,11.2,19.6,16.8c6.9,5.7,11.6,12.7,14.6,21.1
			c6,16.5,7.3,34.8,10.6,52c1.3,7.1-2.3,15.5-8.9,19.2c-3.4,1.9-7.7,2.6-11.4,3.9c-4.2,1.4-8.8,2.9-13.2,1.5
			c-3.7-1.2-7-4.2-10.2-6.2c-3.5-2.2-7.4-4-10.6-6.7c-4.6-3.8-6.4-9.6-8.6-14.9c-2.3-5.7-5-11.2-9.9-15c-6.3-4.9-14.5-5.7-22.3-5.8
			c-8.5,0-17.6,0.1-26,1.1c-7.7,0.9-14.9,2.7-22.7,2.5c-0.2,0-1.5-0.3-1.9-0.6c1.6,1.1-0.3,1.2,0.6,0.3c1.1-1.1,1.3-1.9,2.9-2.5
			c3-1,7.2-0.1,10.3,0c0-4,0-8,0-12c-4.5,0.1-8.5-2.2-12.8-3.4c-3.9-1.1-8.7-0.8-12-3.4c0.3,2.4,0.6,4.8,0.9,7.3
			c1.9-3,12.6-7.7,16.1-6.4c-0.9-3.3-1.8-6.7-2.6-10c-0.7,0.6-0.2,0.5-0.7,0.3c-0.8-0.3-1.9-1.1-2.9-2.4c-1.8-2.2-3.1-5.3-2.9-7.9
			c0-0.4,0.1-1.1,0.5-1.4c2-1.3,5.2-0.9,7.5-0.8c8.4,0.4,16.7,1.7,25.1,2c1.8,0.1,2.6,1,4.1,1.3c1.9,0.4-1.1,4.1,2.3-1.8
			c0.5-0.8,1-1.7,1.5-2.5c2.3,1.3,3.1,1.5,2.2,0.7c0-0.1-1.7-3.4-2-4.3c-1.5-4.4-2.4-8.9-3.4-13.4c-0.3-1.5-0.5-3.3-0.9-4.7
			c-0.1-0.3,0.2-1.2,0-1.5c-0.3-0.4-1.5,0-1.3,0.3c0.3,0.4,2.1,0.7,2.8,1c5.6,2.2,10.6,5.4,16.4,7.3c4.5,1.5,7.4,3.1,10.9,6.2
			c2.8,2.5,5.8,4.5,9,6.5c5,3,12,6.2,12.6,12.8C1358.7,719.6,1370.8,719.6,1370.1,711.9L1370.1,711.9z"/>
	


	<path class="st0" d="M1192.1,625.9c6.2-6.2,15.6-9.1,23.6-12c5.8-2.1,14.7-4,18.1-9.9c7.3-12.7-16.7-21.9-25.7-24.3
		c-11.8-3.2-27,10-23.7,22.6c1.6,6.3,7.1,12,12.2,15.7c1.8,1.3,3.9,2.8,6,3.5c3,0.9,5.3-0.4,7.5,2.3"/>
	
		<path d="M1196.3,630.2c10.5-9.9,26.4-9.3,37.6-17.7c9.9-7.4,8.5-19.7-0.5-27.1c-7.4-6-19.1-12-28.9-12.1
			c-12.3-0.2-24.4,10.1-26.3,22.2c-1.2,8,2.5,15.3,7.7,21.1c2.8,3.1,6.2,5.9,9.7,8.1c1.8,1.2,3.8,2.2,5.9,2.7
			c1.2,0.3,4,0.4,4.2,0.7c5.5,5.4,14-3.1,8.5-8.5c-2.5-2.5-4.9-3-8.2-3.6c-3.5-0.7-6.2-2.7-8.8-5.1c-4.5-4.1-9.2-9.9-6.4-16.3
			c2.1-4.8,7.3-8.9,12.5-9.4c3.9-0.3,8.5,1.8,12,3.3c5.6,2.4,20.3,9.5,9.7,15.4c-5.6,3.1-12.3,4.5-18.3,6.8
			c-7,2.7-13.5,5.8-18.9,10.9C1182.2,627,1190.7,635.5,1196.3,630.2L1196.3,630.2z"/>
	


	<path class="st0" d="M1246.1,523.9c-6.1-0.2-8.9,0.9-14,4"/>
	
		<path d="M1246.1,517.9c-6.3-0.2-11.6,1.6-17,4.8c-6.6,4-0.6,14.4,6.1,10.4c4-2.4,6.4-3.3,11-3.2
			C1253.8,530.1,1253.8,518.1,1246.1,517.9L1246.1,517.9z"/>
	


	<path class="st0" d="M1190.1,525.9c-2.9,0-5.9-0.2-8.8,0.2c-2.7,0.4-4.1,2-7.2,1.8"/>
	
		<path d="M1190.1,519.9c-3.2-0.1-6.4-0.2-9.6,0.3c-2.2,0.3-4.3,1.7-6.4,1.7c-7.7,0-7.7,12,0,12c2.8,0,4.9-1.1,7.5-1.8
			c2.7-0.7,5.7-0.3,8.5-0.2C1197.8,532,1197.8,520,1190.1,519.9L1190.1,519.9z"/>
	


	<path class="st0" d="M1138.1,811.9c3.9,6.9,8.6,12.9,11.9,20c4,8.6,13.2,13.7,18.1,22l14,56c-4.1,3.5-8.8,6.1-13.1,9.2
		c-4,3-6.6,7.6-10.8,10.5c-6.9,4.8-24.1,0.3-27.8-7.7c-4-8.7-4.3-19.7-7.1-29c-4.3-14-10.9-9.5-16.3-23.2
		c-2.6-6.6-12.9-9.9-12-17.3c-0.3-5.3-19.3-161.1-21.1-166c-2.1-5.9-1.9-11.4-1.9-17.6c0.2-18.3,0.1-36.7-0.1-55.1
		c-0.1-10.7,0.6-21.9,2.5-32.5c1-5.6,2.6-10.6,7.8-13.5c4.7-2.6,10.8-2.4,15.8-3.9c6.8-2,12.7-4.8,20-4.1"/>
	
		<path d="M1132.9,814.9c2.4,4.1,5.1,8.1,7.6,12.2c2.1,3.4,3.6,7.1,5.7,10.4c4,6.5,10.2,11.1,15,16.9c2.8,3.4,3.3,10.2,4.5,14.7
			c3.5,14.1,7.1,28.2,10.6,42.3c0.5-1.9,1-3.9,1.5-5.8c-4.5,3.7-9.8,6.3-14.3,10.2c-3.3,2.9-6,8.2-10.3,9.5
			c-5.6,1.6-14.8-1.3-17.6-6.5c-2.5-4.7-3-11-4-16.2c-1.1-5.9-2.2-11.8-4.9-17.2c-3.5-6.9-10.6-10.1-13.9-17.1
			c-1.9-4.1-4.3-6.9-7.6-10c-2.3-2.1-3.8-3.2-4.3-6.2c-0.3-1.8-0.4-3.7-0.6-5.5c-1-8.7-2-17.4-3.1-26.2
			c-3.2-26.6-6.5-53.2-9.9-79.8c-1.5-11.9-3.1-23.8-4.7-35.6c-0.9-6.3-1.4-12.9-2.8-19.1c-0.5-2.1-1.3-4.2-1.6-6.3
			c-1.1-7-0.2-14.5-0.2-21.6c0.1-15-0.1-30.1-0.1-45.1c0-7,0.3-13.9,1-20.9c0.5-5.2,0.6-12.7,3.9-17c3.4-4.4,10.5-3.8,15.4-4.9
			c6.8-1.6,12.7-4.7,19.8-4.2c7.7,0.5,7.7-11.5,0-12c-6.4-0.4-12.2,1.3-18.2,3.2c-5.4,1.7-11.2,1.9-16.5,3.7
			c-11.7,3.9-14.2,14.8-15.7,25.8c-1.8,13.6-1.6,27.2-1.6,40.9c0.1,14.4,0.1,28.7,0,43.1c-0.1,9.5,2.5,18.6,3.8,28
			c1.5,10.8,2.9,21.1,4.3,32.1c3.7,28.6,7.2,57.3,10.7,85.9c1.2,9.8,2.4,19.5,3.5,29.3c0.2,2,0.5,4.1,0.7,6.1
			c0.2,3.5,0.6,6.3,2.7,9.3c2.5,3.6,6.6,5.8,9,9.3c3,4.4,4.3,9.1,8.4,12.8c3.8,3.5,6.7,5.7,8.4,10.9c3.5,10.9,2.3,26.1,10.9,34.7
			c6.8,6.8,18.7,10.1,28,7.7c5.3-1.4,8.9-5.5,12.5-9.4c5-5.4,11.8-8.7,17.4-13.4c1.6-1.4,2-3.9,1.5-5.8
			c-3.6-14.4-7.2-28.8-10.8-43.2c-1.4-5.6-2.1-12-5.5-16.8c-4.4-6.1-11-10.5-15-16.9c-2.1-3.4-3.6-7-5.7-10.4
			c-2.5-4.1-5.2-8-7.6-12.2C1139.4,802.2,1129.1,808.2,1132.9,814.9L1132.9,814.9z"/>
	


	<path class="st0" d="M1176.1,767.9c0,4.6-0.4,9.3-0.1,13.9c0.2,3.5,2.2,6.6,2.1,10.1"/>
	
		<path d="M1170.1,767.9c0,4.3-0.4,8.7-0.1,13c0.3,3.8,1.9,7.3,2.1,11c0.4,7.7,12.4,7.7,12,0c-0.2-3.8-1.7-7.2-2.1-11
			c-0.4-4.3,0.1-8.7,0.1-13C1182.2,760.2,1170.2,760.2,1170.1,767.9L1170.1,767.9z"/>
	


	<path class="st0" d="M1154.1,769.9c0.3,6.9,4.4,13.7,5.6,20.6c0.9,5.1-2.2,12.3,4.4,12.4c6.1,0.1,15.3-3.8,21-6
		c5.4-2.1,8.1-3,14.3-3c-8.4-0.7-18.2,2.3-26.3,3.8c-5.6,1.1-11.1,3.3-16.9,4.2"/>
	
		<path d="M1148.1,769.9c0.6,7.9,5.3,14.9,5.8,22.7c0.3,5.5-1,11.5,4.7,14.9c5.8,3.4,14.3,0.3,20.1-1.7c6.9-2.5,13.3-5.8,20.8-5.9
			c7.8-0.1,7.7-11.6,0-12c-15.4-0.8-29.9,5.7-44.8,8.3c-7.6,1.3-4.4,12.9,3.2,11.6c13.8-2.3,27.4-8.6,41.6-7.8c0-4,0-8,0-12
			c-11.6,0.2-22.4,5.9-33.4,8.9c-0.6,0.1-1.2,0.1-1.8,0.1c0.6,0.5,1.1,1,1.7,1.4c0.1,0,0-2.1,0-2.4c0.1-2.4,0.1-4.7-0.3-7
			c-1.1-6.5-4.9-12.4-5.4-19C1159.5,762.3,1147.5,762.2,1148.1,769.9L1148.1,769.9z"/>
	


	<path class="st0" d="M1158.1,759.9c-5.8,2.8-16.4,7.1-20.2,12.4c-4.2,5.8-3.9,15-3.8,21.7c0.1,15.8,0.2,28.1-16.1,35
		c-7.8,3.3-13.4,1.9-21.6,0.6c-6.2-1-12.6-1.5-18.3-4.3c-7.4-3.5-14.1-9-14-17.5c0.6-28.3,5.6-56.2,10.4-84
		c1.2-6.8,4.7-11.7,7.6-17.8c3.8-8,7.4-16.2,11-24.3c3.6-8.1,8.1-15,12.2-22.8c4.4-8.3,9.1-17.6,14.8-25.1"/>
	
		<path d="M1155.1,754.7c-7.8,3.7-17.3,7.1-22.4,14.6c-5.3,7.7-4.7,17.8-4.6,26.7c0,6.8,0.6,15.2-3.6,21.1
			c-5.8,8.1-15.9,8.5-24.8,7.1c-9.3-1.5-22.1-2.1-27.9-10.9c-2.8-4.3-1.5-10.2-1.3-15c0.3-6.4,0.9-12.8,1.6-19.2
			c1.4-12.9,3.5-25.7,5.6-38.4c1-5.6,1.6-11.4,3-16.9c1.4-5.6,4.6-10.4,7-15.6c5.9-12.5,11-25.3,17.8-37.3
			c6.5-11.4,11.9-23.4,19.7-34c4.6-6.2-5.8-12.2-10.4-6.1c-7.6,10.3-13,22.1-19.3,33.2c-6.7,11.7-11.8,24.2-17.5,36.4
			c-2.4,5.2-5.4,10.2-7.5,15.5c-2.4,6.2-3,13.1-4.1,19.6c-2.4,13.8-4.6,27.7-6.2,41.6c-0.7,6.4-1.3,12.8-1.7,19.2
			c-0.4,6.1-1.4,12.8,0.7,18.7c3.6,10.4,15.1,16.6,25.3,18.8c10.7,2.3,23.6,5.3,34.1,1.3c8.8-3.3,15.9-9.2,19.1-18.2
			c3.4-9.5,2-19.9,2.3-29.8c0.2-5.4,0.8-10.5,5.4-13.9c4.7-3.5,10.4-5.7,15.7-8.2C1168.1,761.8,1162,751.4,1155.1,754.7
			L1155.1,754.7z"/>
	


	<path class="st0" d="M1304.1,597.9c6.9-4.2,10.2-14.3,12.2-22c1.9-7.4,1.2-12.2-5.7-15.6c-4.1-2-8-3.5-12.5-4.4
		c-5.2-1.1-10.5-4.7-16-4"/>
	
		<path d="M1307.1,603.1c6.4-4.3,10-10.7,12.6-17.9c2.2-6,4.6-13.3,2.9-19.7c-1.9-7.2-8.6-10.5-15-13c-4.1-1.6-8.5-2.3-12.6-3.8
			c-4.3-1.5-8.2-3-12.9-2.7c-7.7,0.4-7.7,12.4,0,12c5.7-0.3,12.2,3,17.7,4.6c3.3,0.9,10.1,2.5,11.3,6.2c1.1,3.5-1.3,8.8-2.4,12
			c-1.5,4.4-3.5,9.3-7.5,12C1294.7,597,1300.7,607.4,1307.1,603.1L1307.1,603.1z"/>
	


	<path class="st0" d="M1094.1,719.9c14.2-14.5,33.8-30.3,53.9-35.6c5.9-1.6,19.6,4.6,19.9,11.6c0.2,5-5.5,10.3-9.7,12.2
		c-3.1,1.4-12.4,5.4-15.7,3.5c3.3-3.2,9.8-1.4,13.9-1.4c6.1-0.1,11.6-2.1,17.4-3.8c7.6-2.2,10.5-1.5,14.5,5.6
		c1.9,3.5,3.8,7,4.9,10.9c1.6,5.9,2.1,11-3.2,15c-3.4,2.6-7.6,4.3-11.9,3.8c-3.6-0.4-10.7-1.1-13.6-3.5c-1.8-6.1,18.9-5.5,21.8-1.9
		c6,7.5-0.5,15-6.2,19.4c-5.9,4.5-10.9,10.7-17.6,14c-6.4,3.2-15.2,3.3-20.4,8.4"/>
	
		<path d="M1098.3,724.2c7.3-7.4,15-14.4,23.5-20.3c4.4-3.1,9.1-6,13.9-8.4c4.1-2.1,9.3-4.9,13.9-5.4c2.7-0.3,5.6,1,7.9,2.3
			c1.3,0.7,2.8,1.6,3.7,2.8c1,1.3,0.9,0.9,0,2.7c-1.6,3-4.9,4.7-7.9,5.9c-2.5,1-6.6,3.1-9.2,2.1c0.9,3.3,1.8,6.7,2.6,10
			c1.7-1.4,7.5,0.3,9.6,0.3c4.1,0,8.2-0.9,12.1-2c3.2-0.9,6.8-2.7,10.2-2.9c2.3-0.1,2.8,1,4,3.1c2.8,4.8,9.1,14.8,3,19.2
			c-4.6,3.3-13.6,2.6-18.1-0.7c0.9,1.2,1.8,2.4,2.8,3.6c0.3,1.7-0.2,2.9-1.3,3.8c-0.5,0.1-0.3,0,0.5-0.2c0.5,0.1,2-0.4,2.7-0.5
			c2.3-0.2,4.7-0.2,7,0.2c0.9,0.1,2.4,0.3,3.1,0.8c-0.4-0.3,0.2,0.8-0.2,0.1c1.9,3.7-2.7,7.5-5.2,9.7c-5.7,4.9-11.5,11.6-18.6,14.5
			c-7.2,3-14.5,3.5-20.6,8.9c-5.8,5.1,2.7,13.6,8.5,8.5c3.1-2.7,7.5-3.4,11.3-4.5c4.9-1.4,9.2-3.4,13.3-6.4c3.7-2.8,6.9-6,10.3-9
			c3.7-3.3,7.7-6,10.4-10.3c4.4-7,4.2-18-4-22.2c-5-2.6-11.7-2.7-17.2-2.1c-5.9,0.7-13.4,4-11.8,11.4c1.6,7.2,13.6,8.1,19.5,8.5
			c9,0.6,19.6-5.1,21.7-14.4c2-8.9-3-19.5-7.8-26.7c-6-8.9-14.1-7.6-23.3-5c-5.4,1.6-10.4,2.8-16.1,2.3c-5.5-0.4-9.9,0-14.4,3.4
			c-4,3.1-0.9,8.5,2.6,10c4.8,2,11-0.3,15.6-2.1c5.2-2,9.8-4.6,13.4-9c8.5-10.7,1.3-21.3-9.6-25.9c-12.2-5.1-24.3,1-35,7.1
			c-13.1,7.5-24.8,17.5-35.4,28.2C1084.4,721.2,1092.9,729.7,1098.3,724.2L1098.3,724.2z"/>
	
</g>


<g id="noclick">

	<path class="st0" d="M4151.3,1211.7c-34.2,1.3-70.3,13.6-104.6,18c-77.4,10-153.6,18.8-231.9,21.4c-50.9,1.7-102.5,3.7-153.1-3.4
		c-34.6-4.8-92.3-15-125.9-1.6c-9.7,38.7,85.7,84.3,107,99.1c56.9,39.3,107.4,105.9,140.2,166.8c17.9,33.4,21,61.8,10.4,98
		c-4,13.5-7.2,39.9-17,50.2c-8.5,8.9-21.6,6.3-32.5,8.1c-16.7,2.8-30.6,9.7-46.3,15.6c-51.6,19.1-112.2,18-166.2,15.9
		c-68.2-2.7-135.1-36-196.2-64.1c-24.1-11.1-51.8-21.6-71.4-40.2c-29-27.4-36.8-75-41.6-111.9c-10.4-80.6-8.5-159.6,3.3-239.8
		c3.1-21,14.2-65.1,6.9-86.7c-9.7-28.7-67.4-38.6-92.2-45.8c-19.7-5.7-38.9-7.5-58.5-11.3c-16.1-3.2-15.8-3.9-22.9-19.1
		c-13.1-28-11.4-61.2-12.1-91.4c-1.1-48.7,1.1-97.7,0.6-146.4c-0.3-30.9-10.4-67.8,26.7-77.9c74.5-20.1,159.5-8.3,236.2-17.3
		c64-7.5,128.4-17.6,193.1-16.2l521.6,41.7L4151.3,1211.7z"/>
	
		<path d="M4151.3,1205.7c-20.3,0.9-40.2,5-59.9,9.4c-20.5,4.5-41,8.2-61.8,10.8c-42.4,5.4-84.8,10.3-127.3,13.9
			c-42.7,3.6-85.5,5.5-128.3,6.5c-41.2,0.9-82-0.3-122.8-6.2c-31.8-4.6-64.6-9.6-96.7-4.9c-6.7,1-13.9,2.3-20.1,5.1
			c-5.2,2.4-5.4,8.8-5,13.9c0.9,10.1,6.3,19,12.6,26.7c15.5,18.9,37.4,32.8,58,45.5c19.2,11.8,38.8,22.1,56.4,36.3
			c28.9,23.3,54.1,51.3,76.2,81.1c11.1,15,21.5,30.5,31.1,46.5c9.4,15.6,19,31.5,24.6,48.9c5.5,17.2,6.5,35.2,3.2,53
			c-1.5,8.1-4,16-5.9,24c-1.6,6.9-3,13.9-4.9,20.8c-1.7,6.2-3.7,13.2-7.8,18.2c-5.2,6.3-13.9,6-21.3,6.4
			c-19.1,1.1-36.1,9.1-53.7,15.8c-36.3,13.7-75.3,17.2-113.8,17.5c-39,0.3-77.6-1.1-115.5-11.5c-39-10.8-76-27.7-112.6-44.6
			c-16.7-7.7-33.7-15-50.3-23.1c-15.5-7.6-31-16.5-42.6-29.5c-21.4-24-28.4-58.3-33-89.1c-6.2-40.9-8.9-82.4-8.7-123.8
			c0.2-42.9,3.5-85.9,9.9-128.3c2.1-14,5.2-27.8,7.2-41.8c2-14.1,3.8-29,0.9-43.1c-5.3-25.3-34.4-36.3-56.2-43.2
			c-29.6-9.4-59.9-15.6-90.5-20.9c-6.3-1.1-14.5-1.5-20.3-4.5c-3.4-1.7-4.9-6.1-6.6-9.6c-8.2-17.3-11.4-35.5-12.3-54.5
			c-2.1-41.7-1.2-83.6-0.6-125.3c0.3-20.7,0.9-41.5,0.3-62.2c-0.4-13.1-2.2-26.2-1.1-39.3c1-11.6,5.6-22,16.6-27.2
			c7.9-3.7,17.4-5.2,25.9-6.9c9.8-1.9,19.6-3.4,29.6-4.5c40.1-4.4,80.5-3.5,120.7-4.3c19.5-0.4,39.1-1.1,58.5-3.1
			c21.4-2.2,42.7-5.2,64.1-7.8c42.9-5.2,86-9.7,129.2-9.3c5.4,0.1,10.6,0.4,15.9,0.8c23.6,1.9,47.1,3.8,70.7,5.7
			c38.4,3.1,76.9,6.1,115.3,9.2c43.2,3.5,86.5,6.9,129.7,10.4c38.5,3.1,77.1,6.2,115.6,9.2c23.7,1.9,47.4,3.8,71,5.7
			c3.3,0.3,6.6,0.5,9.8,0.8c-1.9-1.5-3.9-2.9-5.8-4.4c4.2,14.5,8.4,29,12.6,43.6c10.1,34.9,20.1,69.8,30.2,104.6
			c12.2,42.2,24.3,84.4,36.5,126.6c10.5,36.5,21,73,31.6,109.5c5.1,17.7,9.6,35.8,15.4,53.3c0.1,0.2,0.1,0.5,0.2,0.8
			c2.1,7.4,13.7,4.3,11.6-3.2c-4.2-14.5-8.4-29-12.6-43.6c-10.1-34.9-20.1-69.8-30.2-104.6c-12.2-42.2-24.3-84.4-36.5-126.6
			c-10.5-36.5-21-73-31.6-109.5c-5.1-17.7-9.6-35.8-15.4-53.3c-0.1-0.2-0.1-0.5-0.2-0.8c-0.8-2.7-3.1-4.2-5.8-4.4
			c-10.3-0.8-20.7-1.7-31-2.5c-26.5-2.1-53-4.2-79.5-6.4c-35.8-2.9-71.7-5.7-107.5-8.6c-38.4-3.1-76.7-6.1-115.1-9.2
			c-34.1-2.7-68.1-5.4-102.2-8.2c-22.9-1.8-45.9-3.7-68.8-5.5c-25.8-2.1-51.4-1.6-77.3,0.2c-38.1,2.6-75.9,7.6-113.8,12.3
			c-35.6,4.4-71,6.1-106.9,6.5c-35.2,0.4-70.5,0.4-105.4,4.8c-16.3,2.1-33.7,4.3-49.3,9.9c-10.8,4-19.4,11.2-23.9,21.9
			c-4.3,10.2-4.5,21.7-4.1,32.6c0.5,12.9,1.4,25.7,1.4,38.7c0.1,38.6-1.2,77.2-1,115.8c0.1,17.6,0.2,35.2,0.9,52.8
			c0.6,16.3,2.2,32.9,7.2,48.5c2.3,6.9,5.3,13.7,8.6,20.2c1.9,3.7,4.2,7.2,7.6,9.6c3.7,2.5,8.2,3.5,12.5,4.4
			c8.9,1.9,17.9,3.2,26.9,4.7c25.5,4.1,51.3,10.7,75.9,18.5c18.2,5.8,44.2,14.4,48,36c2.2,12.6,0.3,26.2-1.6,38.7
			c-1.8,12.2-4.4,24.3-6.4,36.5c-5.9,36.7-9.1,73.9-10.3,111c-1.2,37.8,0.1,75.7,4.1,113.4c3.1,29.7,6.7,60.2,16.8,88.4
			c4.8,13.4,11.1,26.1,19.9,37.3c9.1,11.7,21.1,20.7,33.9,28.2c13.8,8,28.4,14.2,42.9,20.8c15.7,7.1,31.3,14.5,47,21.6
			c32,14.4,64.6,28,98.7,36.6c33.6,8.5,67.7,9.8,102.2,9.9c33.9,0.1,68.2-1.8,101.1-10.2c16.7-4.2,32.1-11.2,48.3-17
			c7.6-2.7,15.7-5.3,23.8-6c7-0.6,14.2-0.3,21-2.5c12.9-4.3,18.4-16.1,22.1-28.2c3.7-12.2,6.2-24.9,9.3-37.3
			c4-15.5,5.8-31.6,3.9-47.6c-2-16.1-7.3-31.2-14.6-45.6c-14.7-28.7-32.7-56.1-52.3-81.7c-20-26.2-42.2-50.8-67.4-72.1
			c-15.9-13.4-32.8-24-50.6-34.5c-19-11.2-38.1-22.7-54.8-37.2c-10.4-9-27-23.8-23.4-39.4c-1.4,1.4-2.8,2.8-4.2,4.2
			c14.5-5.7,30.3-6.7,45.7-6.5c17.1,0.2,34.1,2,51,4.3c17,2.3,34,5.1,51.1,6.6c21.9,1.9,43.9,2.4,65.8,2.3
			c87.1-0.6,173.7-7.9,260.1-18.5c23.5-2.9,46.9-5.7,70.1-10.7c23.1-4.9,46.2-10.8,69.9-11.8
			C4159,1217.4,4159,1205.4,4151.3,1205.7z"/>
	


	<path class="st0" d="M5591.3-44.3c11.5,11.5,7.9,26.2,7.8,40.6c-0.3,32.1,6,64.7,10.4,96.4c3,21.1,2.5,42.8,5.3,63.5
		c2.9,22,8.3,27.5,24,41.3c29.3,25.7,67.1,56.9,82.8,93.9c23.9,56.2-4.5,133.3-17.6,188.7c-18.5,78.6-56.6,149.5-75.1,227.7
		c-12.6,53.5-0.6,105.9,6.9,159.6c5.4,38.2,5.1,80.3-15.8,114.6c-25.6,42.1-65,63.6-107.3,86.7c-31,17-63.9,40.9-99.9,46.3
		c-28.5,4.3-56.9,3.4-85.6,8.7l-232-304c28.4,28.4,78.2,47,112.5,67.8c65.9,40,118.6,91.9,160.6,156.2
		c38.3,58.6,74.3,124.7,93.8,192.2c14.8,51,18.6,103.7,25.5,156.1c6.6,50,4.5,101.9-25.8,145.4c-54.2,77.7-138.8,134.4-217.7,182.7
		c-135.4,82.9-282.1,148.3-431.6,201.3c-51.6,18.3-104.5,33.2-156,51.8c-30.3,10.9-69.8,22.4-98.3,39.3
		c74.8,44.6,192.5,54.2,270.8,68.3c207.4,37.3,413.6,76.7,619,124.5c132.7,30.9,266.3,58,399.1,88.5c54.2,12.5,109.8,22.2,163,38.2
		c-20.4,17.5-63.9,17-88.2,19.8c-91.9,10.5-184.3,15-276.7,18.5c-139.7,5.3-279.5,7.8-419.2,4.4c-137.5-3.3-274.8-12.4-412.2-17.4
		c-69-2.5-137.9-5.3-206.9-7.8c-41.8-1.5-86.1,0.9-127.7-5.7c-71.5-11.3-136.7-60.4-197.2-96.6c-58.3-35-119.2-65.3-177.2-100.8
		c-34.7-21.2-68.4-44.3-104.6-63.2c-15.8-8.2-83.2-22.7-80.4-48.9c1.3-12.5,15.8-22,18.5-34c2.5-10.9-4.4-14.2-4.6-25.9
		c-0.4-31.6,47-59.4,70.8-73.5c-79.2,37-160.2,61.6-245.5,79.2c-20.5,4.2-55.3,21.9-77.4,17.9c-23.6-4.2-21.8-38.4-24.5-58
		c-6.1-44.5-10.4-89.4-16-134c-3.1-24.8-16.2-64.8-9.6-90.5c5.6-21.7,20.8-21,38.1-25.8c29.6-8.2,59.6-15.1,89.5-22.1
		c32.1-7.5,65.5-12.9,96.8-23.6c28-9.5,54-23.7,82.2-33c34.9-11.5,75.6-17.1,108.6-34c23.5-12,43.8-37.2,62.8-55.6
		c19.3-18.6,38.9-36.5,58.8-54.3c12.6-11.2,27.6-20.6,21.3-38.9c-9.1-11.6-19.1-22.5-30-32.6c-10.5-13.5-18.7-28.3-24.8-44.2
		c-34.6-76.9-26.3-158.1-54.6-236.1c-44.1-121.3-196.4-156.6-301.1-205c-79.4-36.6-156.3-78.2-235.7-114.7
		c-38.1-17.5-77.3-32.5-112.4-55.7c-32.5-21.6-41.9-44-40-83.9c4.4-89,77.5-165.5,132.2-227.8c53.3-60.8,108.4-115.2,168.8-167.9
		c21.2-18.5,47.8-30.3,72-45c56.9-34.4,116-64.5,174.9-95.4c100.7-52.8,201.7-107.9,300.4-164.4"/>
	
		<path d="M5587.1-40c8.7,10,6.4,22.2,6.1,34.4c-0.3,13.4,0.7,26.8,2.2,40.1c2.9,26,8.3,51.8,10.2,77.9c1.5,20.5,0,43.8,7.7,63.3
			c5.7,14.4,18.8,23.9,30.1,33.7c31.8,27.8,68.5,58.7,78.4,101.8c9.8,42.9-2.9,88.8-13.9,130.3c-11.5,43.7-23,86.7-38.8,129.1
			c-16.9,45.4-35.9,90.7-46.4,138.2c-10.8,49.2-1.7,98.8,5.7,147.7c7.3,48.5,7.9,97.9-24.2,138.2c-30.3,38.1-76.1,57.9-117,82
			c-22.5,13.2-45.6,26.9-71.5,31.9c-29.6,5.7-60.2,4.3-89.9,9.4c2.3,0.9,4.5,1.8,6.8,2.8c-67.7-88.7-135.4-177.5-203.1-266.2
			c-9.6-12.6-19.2-25.2-28.9-37.8c-3.1,2.4-6.3,4.8-9.4,7.3c38.6,37.5,93.4,53.9,137.3,84c48.9,33.5,91.2,75.9,125.1,124.4
			c36.5,52.3,68.7,109.5,91,169.3c23.4,62.6,29.9,128.7,37.7,194.6c3.6,30,4.1,60.7-3.6,90.1c-8,30.5-25.9,55.4-46.2,79
			c-39.2,45.3-87.3,82.1-137,115.1c-106.7,70.7-221.2,129.5-339.1,179c-68.5,28.8-138.3,54.6-209.1,77.3
			c-34.7,11.1-69.1,22.6-103.5,34.5c-30.1,10.4-60.8,20-88.5,35.9c-3.9,2.3-3.9,8.1,0,10.4c67.6,39.6,149.2,49.7,225.3,61.3
			c94.9,14.5,189.3,33.3,283.6,51.5c204.2,39.4,406.5,86.9,609.7,131c57.3,12.4,114.6,25,171.8,38.1c54.4,12.4,109.4,22.3,163,38.2
			c-0.9-3.3-1.8-6.7-2.6-10c-23.5,18.6-60.8,15.5-89.1,18.6c-42.6,4.7-85.2,8.2-127.9,10.9c-84,5.3-168.2,8.2-252.3,10.4
			c-169.8,4.4-339.2,1.4-508.8-6.8c-85.1-4.1-170.2-8-255.3-11.2c-43.1-1.6-86.2-3.3-129.3-4.9c-40-1.5-80-1.1-119.9-2.9
			c-40.9-1.9-78.7-10.3-115.8-27.9c-32.4-15.4-62.6-34.8-92.9-53.9c-67.3-42.4-138.8-77.5-206.6-118.9
			c-35.5-21.7-70.2-48.5-108.6-65c-21.2-9.1-45.7-13.1-64.4-27.4c-16.1-12.3-4-22.7,4.4-36.1c3.7-5.9,6.2-12.3,5.5-19.4
			c-0.8-7.6-5.5-13.7-4.8-21.7c1.3-16.5,16.6-30,28.6-39.6c12.2-9.8,25.7-17.8,39.1-25.8c6.8-4,0.8-13.6-6.1-10.4
			c-59.6,27.7-121.8,49-185.5,65.1c-28.1,7.1-56.6,11.9-84,21.2c-19.9,6.8-55,22.5-63.9-6.1c-2.9-9.5-3.2-19.6-4.2-29.5
			c-1.6-15.9-4.1-31.8-5.9-47.7c-3.8-32.4-6.5-65.1-11.4-97.5c-3.8-25-12.9-50.4-10.5-76c1.4-15,8.5-23.2,22.8-26.9
			c14.1-3.6,28.1-7.3,42.2-10.9c62.1-15.6,127-24.2,186.2-49.5c29.8-12.7,58.9-23.9,90.3-31.9c26.8-6.8,55.5-13.2,79.2-28.1
			c23.4-14.7,41-37.1,60.7-56c22.2-21.4,47.1-40.6,68.5-62.7c6.4-6.6,11.4-14.4,11.2-24c-0.3-12-10-20.1-17.6-28.5
			c-11.2-12.2-21.9-23-29.8-37.7c-8-14.8-14.3-30.9-19.6-46.8c-20.1-61.1-19.7-126.4-37.4-188.1c-12.9-45.2-37.6-83-73.9-112.9
			c-70.1-57.5-160.3-81-241.2-118.5c-61.7-28.6-122.1-60.2-183.3-89.9c-29.9-14.5-60.1-28-90.4-41.6
			c-27.5-12.3-57.1-25.1-80.4-44.5c-41.6-34.6-27.8-98.4-8.4-141.6c23-51.1,60.4-94,97.1-135.5c41.4-46.9,83.8-92.6,129.3-135.6
			c23.1-21.8,46.4-45.8,73.1-63.3c26.5-17.3,55.1-32.3,82.5-48c57.8-33.2,117.5-63.1,176.4-94.3c60.3-31.9,120.3-64.4,179.9-97.6
			c29.7-16.6,59.4-33.3,89-50.2c6.7-3.8,0.7-14.2-6.1-10.4C4114,20.4,3989.7,86,3865.3,151.9c-30.8,16.3-61.4,33-91.5,50.7
			c-26.4,15.6-55,29-79.2,47.9c-50.5,39.5-96.5,87.4-140.2,134.2c-39.8,42.7-80.3,86.5-114.2,134.1c-31.1,43.6-56.1,94-55.5,148.7
			c0.2,20.6,5.1,40.5,18.6,56.6c17.2,20.5,43.5,33.4,67,45c29,14.3,59,26.5,88.2,40.2c31.9,15,63.5,30.8,95.1,46.5
			c53.9,26.9,107.7,54.5,163.5,77.3c44.5,18.2,89.7,34.9,132.2,57.4c41.4,22,81.4,50.1,107.1,90.2c33.2,51.8,36.6,116.4,46.2,175.6
			c5.2,32.1,12.5,63.5,25.1,93.5c5.7,13.7,11.7,26.9,20,39.3c8.3,12.3,19.6,21.8,29.2,33c13.3,15.4,5.9,24.5-7.3,35.9
			c-13.1,11.4-26,23.2-38.8,35c-23,21.3-43.8,45.8-68,65.8c-24.4,20.2-56.3,27.6-86.4,35.2c-29.3,7.5-56.9,17-84.7,29.1
			c-63.5,27.6-132.2,37.1-199,54.2c-13.3,3.4-26.9,6.6-40.1,10.3c-8.5,2.4-16.2,6.1-21.3,13.6c-12.9,18.9-7.3,46.5-3.4,67.3
			c11.7,62,18.6,125.3,24.8,188.2c1.6,16,4.1,36.8,20.4,44.8c19.7,9.6,46.7-2.7,65.5-9.1c28.4-9.7,58.4-14.3,87.5-21.8
			c32.3-8.4,64.2-18,95.6-29.3c29.1-10.4,57.7-22.3,85.8-35.3c-2-3.5-4-6.9-6.1-10.4c-23.1,13.6-48.4,28.4-64.1,50.8
			c-6.7,9.6-11.3,21.6-9.2,33.5c1.5,8.4,6.7,14.9,2.3,23.6c-3.6,7.1-9.7,12.5-13.3,19.5c-21.9,41.9,63.1,56.1,86.3,68.6
			c37.4,20.1,72.3,44.4,108.7,66.2c36.3,21.7,73.6,41.6,110.5,62.2c35.4,19.7,69.9,40.7,104.2,62.1c32,20.1,64.7,39.6,100.1,53.3
			c36.5,14.1,74.4,18,113.3,18.9c43.7,1,87.4,1.8,131.1,3.4c90,3.4,180.1,6.6,270.1,10.9c178.5,8.6,356.6,15.6,535.4,12.3
			c89.4-1.7,178.9-4.5,268.2-9.3c43.6-2.3,87.2-5.2,130.6-9.3c33.7-3.2,69-4.3,102.2-10.9c13.2-2.6,25.6-7,36.2-15.4
			c3.7-2.9,1.3-8.9-2.6-10c-47.3-14-95.7-23.3-143.8-33.9c-50.2-11-100.3-22.7-150.5-33.6c-101.1-22.1-202.2-44.4-303.1-67.4
			c-198.1-45.2-398.1-85.8-598.6-118.9c-85.2-14.1-178.4-20.6-254.5-65.1c0,3.5,0,6.9,0,10.4c26.8-15.5,56.5-24.7,85.6-34.7
			c32-11.1,64.1-22,96.4-32.3c64.7-20.7,128.5-43.7,191.5-69.3c122.4-49.9,241.1-109.3,352.3-181c49.8-32.1,98.4-67.4,139.4-110.5
			c19.5-20.5,39.3-43.2,52-68.6c12.6-25.4,17.9-53.7,18.4-81.9c0.5-32.3-5.2-64.6-9-96.6c-4-33.2-8.5-66.5-17-98.9
			c-16.4-62.2-46-120.7-79.4-175.3c-35.1-57.3-76.6-109.4-129.7-151.1c-24.4-19.1-50.3-35.8-77.9-50c-29.1-15.1-60.3-28.9-84.1-52
			c-4.7-4.5-13.7,1.7-9.4,7.3c67.7,88.7,135.4,177.5,203.1,266.2c9.6,12.6,19.2,25.2,28.9,37.8c1.8,2.3,3.9,3.3,6.8,2.8
			c27.5-4.7,55.5-4.3,83.1-8.3c22.8-3.3,43.7-12.9,63.7-24.1c37.7-21,78.8-40.9,112-68.7c34.1-28.5,54.4-66.3,56.8-110.9
			c2.9-52-14.2-102.8-15-154.7c-0.8-53.4,19.2-104.6,37.8-153.9c17.6-46.8,33.6-93.1,46.1-141.5c10.8-42,24.3-84.8,23.4-128.6
			c-0.9-43.5-21.6-77.2-51.7-107.4c-16.6-16.6-35.8-30.6-52.1-47.4c-17.5-18-13.9-48.6-15.6-71.7c-2.3-31.2-9.3-61.9-11.6-93.2
			c-1.6-22.5,5.7-49.3-10.3-67.7C5590.5-54.3,5582-45.8,5587.1-40L5587.1-40z"/>
	


	<path class="st0" d="M6111.3,507.7c37.9,1.3,78-7,112-24.6c27.8-14.4,49.3-40.3,71-62c13.1-13.1,27.6-25.3,37.2-41.4
		c10.7-17.9,21.3-51.2,7.3-68.6c-10.5-13-43.5-11.7-59.2-13.7c-23.1-2.9-46.4-6.9-69.7-5.9c34.7,2.6,96.3-20.3,95.9-63.4
		c-0.3-36.9-57.3-53.4-83.7-67.2c-13.5-7.1-31.5-25.1-46.8-19.5c-12.4,4.5-20.2,19.6-23.1,32.5c21,18,86.5-34.3,103.8-49.8
		c11.6-10.4,20-15.7,14.1-31.8c-8.2-6.2-16.4-12.4-24.5-18.6c-21-11.4-43.1-20-66.2-25.8c-53.7-16.1-112.5-41.7-163.7-6.7
		c-15.9,10.9-35.7,29.2-32.2,50.5"/>
	
		<path d="M6111.3,513.7c35.6,1.1,71.4-5.7,104-20.2c31.9-14.2,54.7-39.1,78.6-63.6c11.9-12.2,25-23.4,35.5-36.9
			c8.9-11.4,15.3-24.7,19-38.7c3.5-13.1,4.9-28-1-40.7c-5.4-11.4-16.6-16.1-28.4-18.4c-14-2.7-28.3-2.5-42.3-4.3
			c-22.2-2.9-44.4-6.3-66.8-5.5c-7.8,0.3-7.7,11.5,0,12c22.1,1.5,45.5-5,64.7-15.7c19.4-10.8,36.5-28.7,37.2-52.1
			c0.7-23.5-18.5-39.7-37.1-50.4c-19.7-11.3-41.8-18-60.7-30.7c-11.6-7.8-26.2-18.3-40.9-12.8c-14.9,5.6-23.3,21.8-26.7,36.4
			c-0.5,1.9-0.1,4.5,1.5,5.8c8.6,7,19.7,6.2,29.8,3.1c13.1-3.9,25.3-10.9,36.7-18.3c11.6-7.4,22.7-15.7,33.5-24.3
			c3.9-3.1,7.7-6.3,11.4-9.5c5.5-4.9,12-9.7,15.7-16.2c3.7-6.6,4.4-16.9,0.2-23.6c-1.2-1.9-3.5-3.1-5.2-4.5
			c-2.6-1.9-5.1-3.9-7.7-5.8c-4.8-3.6-9.5-7.8-14.6-10.9c-18.9-11.4-41.2-19.1-62.4-24.8c-39.1-10.5-77.9-28.1-119.4-25.3
			c-22.7,1.6-43.3,9.9-61.2,23.9c-16,12.5-30.2,30-27.1,51.5c1.1,7.6,12.7,4.4,11.6-3.2c-2.6-18.2,15-33.6,28.3-43
			c17-11.8,36.5-17.5,57.2-17.5c21,0.1,41.5,5.2,61.5,11.1c10.2,3,20.3,6.3,30.4,9.5c10.3,3.2,20.9,5.9,31.2,9.3
			c12.2,4.1,24.1,9,35.6,14.7c12.2,6.1,22.6,15,33.5,23.3c-0.9-1.2-1.8-2.4-2.8-3.6c1.8,5.3,2.7,10.1-0.8,14.9
			c-3.5,4.6-8.5,8.3-12.8,12c-6,5.3-12.3,10.4-18.7,15.3c-16.5,12.6-34.4,25.6-54.2,32.5c-4.2,1.5-8.6,2.8-13,2.9
			c-3.3,0.1-6.5-0.4-8.4-1.9c0.5,1.9,1,3.9,1.5,5.8c2.5-10.5,8-24.1,18.9-28.3c10.5-4.1,23,6.4,31.1,11.8
			c16.6,11.2,35.6,17.5,53.2,26.7c15.4,8,35.7,19.6,38.4,38.7c2.7,19.3-11.8,35.3-27,44.7c-18.3,11.3-41.2,17.9-62.7,16.4
			c0,4,0,8,0,12c18.2-0.7,36.3,1.4,54.3,3.8c12.9,1.7,25.7,2.7,38.6,3.8c9.6,0.8,22.7,1.6,30.2,8.4c8.7,7.9,7.2,23.2,5,33.4
			c-2.7,12.6-7.9,24.7-15.3,35.3c-9.1,13-21.4,23.4-32.5,34.5c-22,22-42.4,47-70.5,61.5c-33.1,17.1-71,24.6-108.2,23.4
			C6103.6,501.5,6103.6,513.5,6111.3,513.7L6111.3,513.7z"/>
	


	<path class="st0" d="M5272.7-144.4c0.6,44.4,3.6,89.1,11.7,132.9c5.6,30.3,13.3,61.1,36,83.2c33.8,32.9,98.1,36.1,141.5,36.3
		c42.7,0.2,85.4-0.8,128.1-0.3c20,0.2,39.6-2.5,59.5-4.4c70-6.6,139.7-9.8,209.5-19.4c33.2-4.6,79.7-16.5,112.8-5.7
		c11.6,3.8,16.2,12.4,19.5,23.5c5.9,19.8,8.2,36.9,23.5,52.8c19.7,20.4,46.7,30.2,67.6,49l-3.2-23.8c37.5,43.9,44.7,87,52.5,144.7
		c8.1,59.3,13.8,119.4,11,179.3c-1.7,35.8-5.5,63.1-23.7,91.8c-25.1,39.5-54.5,71.5-99.7,84.8c-86.8,25.5-181.4,30.2-271.2,27.3
		c-123.1-4.1-250.2-6.5-372.4-23.2c-31.9-4.4-64.9-8.6-95.9-17.4c-38.7-10.9-77.5-38-113.1-56.1c-104-52.8-205-118.6-302.5-182.7
		c-84.6-55.6-157.8-117.5-225.1-192.4"/>
	
		<path d="M5266.7-144.4c0.5,39.2,3,78.5,9,117.3c5,32.2,11.1,66.6,31.5,92.9c35,45.2,102.4,47.9,154.7,48.2
			c40.7,0.2,81.4-0.7,122.2-0.3c39.6,0.3,79.2-5.8,118.6-8.9c40.3-3.2,80.7-6,120.9-10.5c17.5-1.9,34.9-4.1,52.3-7
			c17.2-2.9,34.5-6,52-7.1c8.8-0.5,17.7-0.6,26.4,0.4c8.3,1,18.6,2.4,24.5,8.9c5.1,5.7,6.8,13.8,8.8,21c2.4,8.6,4.6,17.2,8,25.4
			c15.3,36.2,55.1,47.7,82.6,72c4.8,4.2,10.8,0,10-5.8c-1.1-7.9-2.1-15.9-3.2-23.8c-3.3,1.9-6.7,3.9-10,5.8
			c18.6,22,31.4,47.1,38.9,74.9c8.1,29.9,11.6,61.2,15.3,91.9c4.4,36.1,7.6,72.4,8.2,108.8c0.5,31.8,1,65.6-7.4,96.6
			c-7.5,27.8-25.1,53.1-44.3,74.3c-19.4,21.3-42.8,36.9-70.5,44.9c-67.2,19.5-137.5,26.2-207.3,27c-71.2,0.8-142.8-2.9-214-6
			c-72.8-3.2-145.6-8-217.8-17.9c-34-4.6-69.1-8.6-101.8-19.4c-31.5-10.4-59.8-28.9-88.6-44.8c-30.3-16.7-61.3-32-91.3-49.1
			c-31.4-17.8-62.3-36.4-92.9-55.5c-59.3-37-118.9-74.4-175.7-115.1c-53.1-38-102.9-80.4-148.6-127.1
			c-11.4-11.7-22.6-23.6-33.6-35.8c-5.2-5.8-13.6,2.8-8.5,8.5c45,50,94.3,95.9,147.5,137.1c55.7,43.2,115.6,80.9,174.9,118.8
			c62.3,39.8,125.5,78.2,191.1,112.3c30.1,15.7,59.2,33.5,89.7,48.5c31.7,15.6,65.4,23,100.1,28.3c73,11.1,146.6,17.6,220.3,21.5
			c73.6,3.8,147.5,6.9,221.2,7.7c71.3,0.8,143.3-4,212.8-20.7c29.8-7.2,57.5-16.3,81.6-35.9c21.7-17.6,39.9-41.1,53.6-65.4
			c15-26.4,19.1-56,20.6-85.9c1.9-37.2,0.4-74.5-2.8-111.6c-3.1-34.8-7.3-69.7-13-104.2c-4.6-27.5-11.4-54.6-24.6-79.3
			c-6.8-12.8-15.3-24.6-24.7-35.7c-4.4-5.2-10.7,0.7-10,5.8c1.1,7.9,2.1,15.9,3.2,23.8c3.3-1.9,6.7-3.9,10-5.8
			c-24.5-21.7-62.2-33.1-77.9-63.4c-7-13.6-8.5-29.1-14.3-43.1c-5.2-12.4-14.5-19-27.4-22.1c-30.9-7.2-63.7,0-94.4,5.1
			c-38.7,6.4-77.9,9.7-116.9,12.9c-39.2,3.2-78.5,5.8-117.6,9.8c-39.3,4.1-78.7,3-118.2,3.3c-33.1,0.3-66.5,1.3-99.5-1.4
			c-27.9-2.3-57.4-7.2-81.6-22c-31.4-19.3-41.9-55.1-48.3-89.2c-8.3-44-11.3-88.8-11.9-133.6
			C5278.6-152.1,5266.6-152.1,5266.7-144.4L5266.7-144.4z"/>
	
</g>

<g id="viens">

	<path class="st0" d="M8278.3,921.2c30.1,18.1,52.9,41.9,70.2,72.2c5.7,9.9,9.7,21.7,17.6,30.2c12.2,13.3,19.4,14.1,23.6,33.1
		c4.9,22,0.2,68.3,25.8,73.7c29.4,6.2,47.8-35.2,78.6-32.5c2.2,12.7-15.8,21.2-21.9,30.7c-10.3,16.4-4.7,21.5-25.8,31
		c-11.1,5-28.6,14.4-39.9,12.7c-11-1.7-32.1-17.6-40.6-24.9c-27.7-23.8-48.6-66.3-68.2-97.1c-8.2-13-23.2-60-35.4-61.6
		c-12.4,17.5-13.6,41.9-25.6,60.4c-13.8,21.1-33.4,34.6-44.7,58.2c-18.7,39,12.2,33,31.3,63.8c8.8,14.1,26.5,62.7,21,76.1
		c-45.5-15.4-80.1-47.9-108.5-85.9c-31.5-42.1-8.6-64.5,18.5-100.9c13.7-18.4,21.2-38.1,28.1-59.7c5.6-17.4,16.8-33.1,16.6-51.7
		c-0.2-17.6-8.3-33.3-9-51c-0.8-20.7,3.8-42.9-0.9-63.2c-9-3.4-34.3,18.1-46.2,20.7c-21.7,4.9-51.3,3.5-49.5-24.2
		c0.9-14.5,10.6-24.6,15.2-37.9c3.7-10.6,4.5-22.2,7.6-33c4.9-17.3,20.6-50.3,35.5-59.3c22-13.4,45,3.7,54.4-28.3
		c8.5-28.8-3.4-50.9,31.9-60.6c23.2-6.3,50-5.8,56.3,21.4c2.1,9.1-5,24.8,0.6,32.6c7.1,9.9,24.2,6.2,34.6,8.4
		c-12.6,10.7-40.3,7.6-44.8,24c-3.5,12.7,10.1,19.1,17.4,24.4c25.7,18.9,43,38.9,60.4,65.8c17.7,27.4,33,56.6-11.5,60.8
		c-12.8,1.2-34.6,3.3-47.2-1.8c-15-6-23.1-22-39.2-26.8c15.7,27.6,33.6,67.5,29.8,100"/>
	
		<path d="M8275.3,926.4c24.7,15,45.7,34.9,61.4,59.2c7.8,12,12.7,26,21.2,37.5c6.5,8.8,17.1,14.8,22.3,24.5
			c4.7,8.8,5.1,19.6,6,29.4c0.9,10.6,1.7,21.4,4.4,31.7c2.3,9.1,6.4,18.3,14.4,23.8c8,5.6,19,5.9,28.1,2.8
			c21.5-7.2,36.8-32.9,61.1-31.2c-2-2-4-4-6-6c1.3,10.4-12.9,17.4-18.6,24.4c-3.4,4.2-5.9,9-8,13.9c-1.4,3.2-2.5,6.9-4.8,9.7
			c-3.3,4.1-8.7,6.4-13.3,8.5c-6.1,2.8-12.1,5.9-18.4,8.3c-5.4,2.1-11.8,4.6-17.7,3.7c-5.1-0.8-10-4-14.3-6.6
			c-23.2-14.1-40.7-33.4-55.5-55.9c-8.3-12.7-16-25.8-23.7-38.8c-5.5-9.3-11.6-18.2-16.1-28.1c-5.1-11.2-9.6-22.7-15.3-33.7
			c-3.7-7.2-9.4-18.8-18.4-20.4c-2.8-0.5-5.1,0.4-6.8,2.8c-7.1,10.4-10.7,22.5-14.5,34.3c-3.9,12.4-8.6,23.6-16.7,33.9
			c-15.2,19.4-34.1,35.3-42.9,59.1c-3,8.1-4.4,17.1-0.4,25.1c3.1,6.4,9,10.7,14.5,14.9c7.2,5.5,14.3,11.3,19.5,18.9
			c4.3,6.3,7.4,13.5,10.2,20.7c3.9,9.9,7.4,20.1,9.9,30.5c1.7,6.9,4.3,16.3,1.8,22.8c2.5-1.4,4.9-2.8,7.4-4.2
			c-29.3-10.1-54.8-28-76.5-49.9c-11.1-11.2-21.7-23.4-30.7-36.4c-7.8-11.1-14.2-24.4-11.6-38.3c2.4-12.7,10.2-23.7,17.7-33.9
			c9.7-13.2,20.2-25.8,27.7-40.5c7.6-14.9,11.9-30.8,17.9-46.3c5.8-14.9,14.1-29,14.6-45.4c0.5-19.3-8.9-37.1-9-56.4
			c-0.2-20.5,3.4-40.8-1-61.1c-0.5-2.1-2.3-3.6-4.2-4.2c-6.9-2.1-14.4,2-20.3,5.1c-7.6,4.1-14.8,9-22.5,13
			c-6.4,3.3-13.6,4.3-20.7,4.6c-7.1,0.3-15.4-0.1-21.5-4.3c-17-11.8,2.4-36.5,7.5-49.4c4.7-11.7,5.3-24.4,8.8-36.4
			c2.5-8.7,6.1-17,10.2-25.1c4.5-8.8,9.5-17.7,16.3-24.9c5.5-5.8,12.2-8.8,20.1-10.1c7.3-1.2,15-0.7,22.2-3
			c7.6-2.3,13.6-7.4,17.2-14.5c4.5-8.6,6.1-18.4,7.2-27.9c0.8-7.1,0.9-14.5,3.1-21.4c4.7-15.3,25.2-19.1,39.2-19.7
			c8.3-0.4,17.6,0.7,23.9,6.8c3.4,3.3,5.5,7.5,6.7,12.1c1.3,4.9,0,10.1-0.7,15c-1.5,10.6-1,21.5,9.7,27.1c9.6,5,20.4,2.6,30.7,4.5
			c-0.9-3.3-1.8-6.7-2.6-10c-7.5,6.1-18.8,6.7-27.6,9.9c-9.8,3.5-18.6,9.8-19.4,21c-0.9,12.3,9.8,19.4,18.8,25.5
			c11.5,7.9,22,17.4,31.5,27.5c9.9,10.5,18.5,22,26.4,34c5.9,8.9,12,18.1,16.1,28c2.4,5.8,5.2,14.1,0.9,19.6
			c-6.3,8-20.7,7.8-29.8,8.5c-13.4,1-29.4,2.6-41.3-4.8c-12.2-7.7-20.3-19.7-34.6-24.3c-5.1-1.6-9.3,4.4-6.8,8.8
			c16.3,28.7,32.6,63,29,97c-0.8,7.7,11.2,7.6,12,0c3.8-35.9-13.4-72.6-30.6-103c-2.3,2.9-4.5,5.9-6.8,8.8
			c12.3,3.9,20.1,15.3,30.6,22.3c11.3,7.5,25.1,8.2,38.3,7.8c18.5-0.6,51.4-0.7,54-25.3c1-9.3-3-18.7-7.1-26.8
			c-5.7-11.2-12.8-21.9-20.1-32.1c-16.6-23.3-36.4-42.8-59.9-59.1c-4.2-2.9-9.6-6.9-8.5-12.7c0.9-4.9,5.7-7.3,10-8.9
			c11.4-4.2,23.7-5.2,33.5-13.1c3.4-2.8,1.6-9.3-2.6-10c-8.9-1.6-19.5,0.6-27.8-3.3c-8.9-4.2-3-18.6-2.6-26
			c1-19.7-15.3-34-33.7-36.2c-9.4-1.1-19,0.2-28.1,2.5c-9,2.2-18.5,5.8-24.9,12.8c-11,12.1-8.9,29.6-11.7,44.6
			c-1.5,8-3.8,18.4-11.7,22.6c-6.4,3.3-14.3,2.7-21.3,3.6c-9.1,1.1-17.9,3.8-25,9.8c-7.4,6.1-13,14.7-17.8,22.9
			c-5.2,9-9.6,18.5-13.2,28.3c-4.2,11.2-5.5,23-8.3,34.6c-5.1,20.5-25.2,40.1-14.5,62.4c8.8,18.2,33.6,17.8,50.4,14.7
			c9.3-1.7,17.1-6.7,25.1-11.5c4.5-2.7,8.9-5.4,13.6-7.7c2.6-1.3,6.5-2.8,8-2.3c-1.4-1.4-2.8-2.8-4.2-4.2
			c4.1,18.5,0.7,37.4,0.6,56.1c0,8.8,1.2,17.4,3.3,26c2,8.4,4.7,16.7,5.5,25.3c1.7,17.3-7,32-13.3,47.5
			c-6.4,15.8-10.5,32.1-18.5,47.2c-7.8,14.7-18.6,27.3-28.3,40.7c-7.7,10.6-15.2,22.4-17.4,35.5c-2.4,14.3,1.7,28,9,40.3
			c8.3,13.9,19.5,26.8,30.6,38.6c24.4,26.3,53.7,47.6,87.8,59.3c3.3,1.1,6.3-1.3,7.4-4.2c2.5-6.6,1.1-14.7-0.1-21.4
			c-1.6-9.1-4.3-18-7.3-26.8c-5.7-16.6-12.2-33.6-24.9-46.1c-5.9-5.8-12.9-10.2-19.1-15.7c-4.5-4-7.1-8.2-6.3-14.4
			c1.6-11.5,8.9-22.8,15.9-31.8c7.2-9.4,15.7-17.7,23.3-26.7c9-10.7,15.6-22,20.2-35.2c4.6-13.3,7.7-27.2,15.8-39
			c-2.3,0.9-4.5,1.8-6.8,2.8c1.1,0.2,0.9,0.1,1.8,0.9c1.5,1.2,2.6,2.8,3.7,4.3c3,4.3,5.5,9.1,7.8,13.8c5,10.2,9.1,20.7,13.8,30.9
			c5,10.8,11.8,20.6,17.9,30.8c8,13.5,16,27.1,24.9,40.1c15.8,23.1,35.1,43.1,59.7,56.9c4.8,2.7,9.9,5.3,15.4,6.1
			c6.9,1,13.9-0.8,20.3-3.1c7-2.5,13.8-5.8,20.5-9c5.7-2.6,11.4-5.2,16.1-9.3c8.3-7.1,9.2-18.7,16-26.9c8-9.7,23.3-17.2,21.4-32
			c-0.4-3.4-2.4-5.7-6-6c-22.4-1.6-37.5,16.2-55,27c-7.2,4.5-16.5,8.3-25,4.8c-7.7-3.2-10.6-12.6-12.4-20
			c-4.7-19.8-1.4-42.1-10.4-60.8c-4.7-9.8-14-15.7-21-23.6c-9.5-10.6-14-25.3-21.6-37.3c-17.1-27.1-40-49.6-67.4-66.1
			C8274.7,912,8268.7,922.4,8275.3,926.4L8275.3,926.4z"/>
	


	<path class="st0" d="M8094.9,759c1.4,14.1,5.6,27.9,6.1,42.1c0.4,12.2-1.6,23.1,3,34.8c4.2,10.7,9.1,23.3,19.4,29.4
		c10.8,6.4,23.9,7.8,34.9,13.7c4.2,2.2,7.6,5.3,11.8,7.3c5,2.2,10.5,2.7,15.6,4.6c9.8,3.7,16.7,11.5,26,15.6
		c9.2,4,17.6-1.8,22.8-9.2c6-8.7,11.8-17.2,18-25.7c8.6-11.7,14.2-26.9,20.1-40.2c7.2-16.3,7.3-35.8,2.3-52.7
		c-3.4-11.6-6.9-23-9.7-34.6c-1.2-5-3.6-12.8-5.9-17.3c-3.3-6.4-10.6-9.4-13.5-15.8c3.5-6.3,23.3-11.1,30.7-12
		c12.5-1.5,19.7,17,21.7,27.5c-4,6.1-24.7,2.6-32.2,2.6"/>
	
		<path d="M8088.9,759c1.9,16.9,6.4,33.1,6.2,50.2c-0.1,7.7-0.3,15.5,1.5,23.1c1.6,6.8,4.7,13.6,7.9,19.8
			c2.9,5.7,6.7,11.3,11.7,15.4c5.7,4.6,12.7,7.3,19.6,9.6c7.7,2.5,15.5,4.5,22.4,8.9c3.2,2,6.1,4.2,9.5,5.8c3.9,1.7,7.9,2.5,12,3.6
			c13.8,3.7,24.3,19.5,39.4,18.4c15.7-1.1,23.7-18.1,31.6-29.4c4.5-6.4,9.3-12.6,13.1-19.5c3.8-6.9,6.9-14.2,10-21.4
			c2.9-6.8,6.2-13.6,8-20.8c1.8-7.3,2.6-15,2.4-22.5c-0.5-18.6-7.9-36.2-12.4-54c-1.8-7.2-3.6-14.5-6.9-21.3
			c-3.3-6.9-10.7-10.3-14.1-16.9c0,2,0,4,0,6.1c1.8-2.9,8.2-4.6,11.5-5.6c4.5-1.4,10.1-3.2,14.5-3.4c9.8-0.4,13.9,15.8,15.3,23.1
			c0.2-1.5,0.4-3.1,0.6-4.6c1.1-1.5,0-0.2-0.9,0c-0.8,0.1-1.6,0.4-2.3,0.5c-2.9,0.4-5.9,0.3-8.7,0.1c-5-0.2-10-0.8-15-0.9
			c-7.7-0.1-7.7,11.9,0,12c6.4,0.1,12.8,1,19.2,1c5.9-0.1,14.6-0.5,18-6.3c3.2-5.4-2.2-15.9-4.6-20.9c-3.2-6.4-8.2-12.9-15.2-15.2
			c-6.1-2-13.2,0.1-19.2,1.6c-6.8,1.8-14.2,4-19.8,8.5c-2.7,2.1-5.1,5-4.3,8.7c0.9,4,4.8,7.5,7.7,10.1c3.1,2.8,5.8,5.4,7.5,9.3
			c1.7,4,2.9,8.3,4,12.5c2.9,11.1,5.9,22.1,9.1,33c3,9.9,4.6,19.8,3.9,30.2c-0.7,10.7-4.5,19.9-8.7,29.6c-4,9.3-8,18.6-13.4,27.1
			c-5.8,9.1-12.5,17.8-18.7,26.7c-2.5,3.6-5.1,7.5-9.2,9.5c-4.8,2.3-8.9,0.2-13.1-2.3c-8.4-5.2-15.6-11.6-25.3-14.3
			c-5.4-1.5-10.5-2.4-15.2-5.4c-4.4-2.8-8.5-5.5-13.4-7.5c-10.2-4.2-23-5.6-31.6-12.9c-7.3-6.2-11.5-16.7-14.5-25.5
			c-3.8-11.3-1.4-23.4-2.3-35.1c-1-13-4.5-25.5-5.9-38.4C8100.1,751.4,8088.1,751.3,8088.9,759L8088.9,759z"/>
	


	<path class="st0" d="M8244.9,711c-9-7.4-23.6-12.6-34.2-17.8c-19.7-9.6-40.5-9.8-62-9.6c-19.7,0.2-41.3,2.6-51.2,22.2
		c-7.9,15.6-13.9,35.8-2.7,51.3c8.7,12.1,30.1,23.9,44.9,25.6c15.6,1.8,35.3,2.1,50.8,0.5c10.8-1.1,11-11.5,11.9-21.8
		c0.6-7.4,1.1-27.4-5.5-32.5"/>
	
		<path d="M8249.2,706.7c-11.3-9-25.5-14.5-38.7-20.2c-15-6.6-31.2-8.5-47.5-8.9c-24.9-0.5-56.7-0.9-70.3,24.5
			c-6.7,12.5-11.5,27.3-9.5,41.6c2.1,14.3,11.9,24.4,23.5,32.1c11.5,7.6,24.1,12.2,37.8,13.5c15.5,1.4,32.1,2.2,47.6-0.2
			c14.9-2.3,15.8-18.3,16.5-30.4c0.6-10.3,1.2-26.4-7.5-33.9c-5.8-5-14.3,3.4-8.5,8.5c5.5,4.7,4.3,17.5,4.1,23.9
			c-0.2,3.9-0.4,8-1,11.9c-0.7,4.6-1.7,7.7-6.7,8.4c-12.9,1.7-26.5,1.2-39.5,0.2c-11.7-0.8-22-3.5-32.2-9.4
			c-9.5-5.4-19.2-12.8-21.9-24c-2.7-11.4,1.6-23.9,6.6-34.1c10.6-21.7,36.5-20.8,57.4-20.6c15.2,0.1,30.6,1.3,44.7,7.2
			c6.1,2.6,12.2,5.5,18.2,8.3c6.3,2.9,12.8,5.8,18.2,10.2C8246.7,720,8255.2,711.5,8249.2,706.7L8249.2,706.7z"/>
	
</g>

</svg>
