<?xml version="1.0" encoding="utf-8"?>
<!-- Generator: Adobe Illustrator 19.0.0, SVG Export Plug-In . SVG Version: 6.00 Build 0)  -->
<svg version="1.1" xmlns="http://www.w3.org/2000/svg" xmlns:xlink="http://www.w3.org/1999/xlink" x="0px" y="0px"
	 viewBox="0 0 10856.9 2332" style="enable-background:new 0 0 10856.9 2332;" xml:space="preserve">
<style type="text/css">
	.st0{fill:none;stroke:#FFFFFF;stroke-width:10;stroke-miterlimit:10;}
	.st1{fill:#FFFFFF;stroke:#000000;stroke-width:7;stroke-miterlimit:10;}
	.st2{fill:none;stroke:#000000;stroke-width:4;stroke-miterlimit:10;}
	.st3{fill:#0043FF;}
	.st4{fill:#00FFAA;}
	.st5{fill:#FFFFFF;}
</style>
<g id="noclick">
	<path class="st0" d="M1454.8,109.1c0.2,18.9-1.3,35.3-4.7,53.8c-2.4,13.2-5.6,33.8-2.2,46.3c9.3,33.5,47-3.4,66.8-4.2"/>
	<path class="st0" d="M1568.8,133.1c-8.6,30.3-8.6,63.4,5.7,92.5c12.2,24.9,27.3,18.2,48.3,9.4"/>
	<path class="st0" d="M1556.8,193.1c24.2,3.2,48.1-10.9,72-12"/>
	<path class="st0" d="M1550.8,133.1c37.1-13.5,80.7-12,120-12"/>
	<path class="st0" d="M1772.7,121.1c-22.7-0.5-45.7,0.9-56.8,23.9c-11.4,23.8,18.7,42.8,38.9,49.5c2.6,10.3-50.3,34.5-60.1,34.5"/>
	<path class="st0" d="M1916.7,151.1c4.8,41.4,9.1,80.8,24,120"/>
	<path class="st0" d="M1988.7,151.1c2.5,15.5,8.5,28.2,14.3,42.5c5.8,14.2,4.7,36,15.7,47.5"/>
	<path class="st0" d="M1898.7,217.1c24.8-15.2,51.1-22.2,77.8-33.2c13.5-5.6,27.8-11.8,42.2-14.8"/>
	<path class="st0" d="M1742.7,379c-23,1.7-42.4,12-63.3,21c-9.4,4-38.4,15.3-38.4,30c0,22.6,81.9,36.8,95.8,21"/>
	<path class="st0" d="M1790.7,379c1.9-19.6,15.8-35.2,18-54"/>
	<path class="st0" d="M1814.7,379c14.1,16.1,18.2,35.2,30.3,52c17.8,24.7,39.1-1.4,53.7-16"/>
	<path class="st0" d="M1820.7,415c9.3-8.8,28.6-22.5,42-24"/>
	<path class="st0" d="M1802.7,391c14-19.3,19.9-42.5,36-60"/>
	<path class="st0" d="M1994.7,301c-14.5,7.4-96.3,35.7-92.2,54.1c18.6,10.4,35.5,12.8,56.6,11.9c10.9-0.5,22.8-3.2,30.6,6.9
		c12.7,16.4-5.3,43.7-25,41.1"/>
	<path class="st0" d="M2066.7,283c1.9,28.2,17.6,56.3,18,84"/>
	<path class="st0" d="M2036.7,301c13.4-21.1,37.7-21.6,60-30"/>
	<path class="st0" d="M2896.3,270.5c-6.8-2.8-13.7-3.2-20.4,0.2c-6.3,3.2-16,10.6-17.4,18.3c-1.2,6.3,4.2,12.3,8.9,15.6
		c8.9,6.3,17.7,4,27,7.9"/>
	<path class="st0" d="M2930.3,268.5c0-9.3-0.7-18.9,0.4-28.1c1.1-8.6,3.3-14.6,7.6-21.9"/>
	<path class="st0" d="M2968.3,246.5c0,17.8-3.6,39.3,3.9,55.9c3,6.6,7.3,8.4,13.9,5.3c6.4-3,15.6-7.6,20.1-13.3"/>
	<path class="st0" d="M2976.3,282.5c4.8-9.5,15-9,22-16"/>
	<path class="st0" d="M2980.3,248.5c5.9-5.3,12.9-10.2,20-13.7c5.2-2.5,12.5-3.1,16-8.3"/>
	<path class="st0" d="M3078.3,216.5c-10.6,0.9-22.2,8.6-23.1,20.1c-0.8,10.4,9.3,15.2,17.1,20.1c3.7,2.3,7.4,4.5,11.7,5.6
		c2.7,0.7,8.1,0.4,10.1,3c-4.4,8.5-18.3,14.4-25.7,19.3c-7.7,5.1-13.5,11.6-20.1,18"/>
	<path class="st0" d="M3124.3,194.5c-0.1,15.1,0.8,27.4,5.5,41.9c2.8,8.7,5.3,17.6,8.5,26.1"/>
	<path class="st0" d="M3116.3,198.5c13.4-1.1,27.3-7,40-10.8c6.1-1.9,17-2.9,22-7.2"/>
	<path class="st0" d="M3276.3,170.5c3.4,13.3,2.1,27.4,2,41c-0.1,6.5-1.3,17.2,5.1,21.8c7.5,5.4,18.7-2.8,25.4-6.3
		c5.8-3.1,11.7-5.8,17.7-8.3c3.4-1.4,7.8-2.9,9.9-6.2"/>
	<path class="st0" d="M3346.3,228.5c0.4-15.1-3-29.2-5.6-43.9c-0.9-5.1-5.9-21.2-1-25.2c3.8-3.1,7.2,1.6,9.4,4.5
		c4.6,6,9,11.9,14.2,17.5c6.2,6.7,17.4,14.2,21,23.1"/>
	<path class="st0" d="M3340.3,210.5c9-4.1,22.9-6.7,30-14"/>
	<path class="st0" d="M3362.3,146.5c-8.7,0.4-16.2-7.2-22.8-11.8c-4.9-3.4-13.1-11.8-19.2-12.2"/>
	<path class="st0" d="M3532.3,136.5c-10.2,0.5-22.8,13.4-25.2,22.9c-3.4,13.2,6.7,30.4,19.5,35.1c5.9,2.1,15.3,2,21.1-0.6
		c6.4-2.8,8.1-8.9,8.1-15.4c0-17.3-12.9-38.8-25.6-50"/>
	<path class="st0" d="M3570.3,124.5c0.1,4.7-0.8,9.7,0.1,14.3c1.3,6.9,6,12.4,9.8,18c6,8.8,13.7,23.3,26.6,23.2
		c12.6-0.1,17.7-18,19.7-27.3c1.8-8.1,3.2-19.3,3-27.8c-0.1-3.7-0.6-7.6-3.2-10.4"/>
	<path class="st0" d="M3730.3,112.5c0,20.2-0.3,40,2,60"/>
	<path class="st0" d="M3724.3,70.5c0.7,0,1.3,0,2,0"/>
	<path class="st0" d="M3770.3,92.5c3.7,20.3-4.3,40.9,6.9,59.9c3.7,6.2,8.6,7.2,15.4,4.4c6.9-2.8,16.5-6.8,21.7-12.3"/>
	<path class="st0" d="M3916.3,86.5c-2.9,7.1-2.8,14.5-0.2,21.8c3.6,10.3,8.6,22.6,15.3,31.2c6.5,8.3,11.8,2,14.8-6.5
		c3.3-9.3,4.5-19.1,6.2-28.7c0.8-4.3,0.8-11.2,3.6-14.6c0.3,11.5-5.5,23.4-8.3,34.4c-3.9,15.2-4.7,31.6-9.4,46.6
		c-2,6.2-5.3,11.4-10.2,15.7c-4.6,4.1-14.3,11.8-21,9.7c0.1-6,2.5-11.7,3-17.7c0.4-4,0.1-8,0.1-12.1"/>
	<path class="st0" d="M4018.3,168.5c-0.8-6.7,1.6-15.2,2.4-21.7c1.3-10.2,3.9-20.2,5.2-30.4c0.6-6.1,1.3-12.2,2-18.3
		c0.1-3.1,0.3-6.3,0.5-9.4c1.8-5.4,5.1-6.1,8,0.2c3.2,6.9,4.5,15.2,7.5,22.4c2.5,6.1,5.2,12.4,7,18.8c1.9,6.8,1.4,13.5,1.4,20.5"/>
	<path class="st0" d="M4022.3,140.5c5.6-4.7,11.3-6.4,18-9.1c3.2-1.3,7.6-2.3,10-4.9"/>
	<path class="st0" d="M2882.3,372.5c0.7,4.9-1.1,9-1.7,13.8c-0.6,5.5,1,10.9,1.5,16.4c0.9,11,0.3,22.5,0.2,33.6
		c-0.1,5.9-0.9,10.3,6.6,10.1c11.9-0.2,21.5-12.3,33.4-11.9"/>
	<path class="st0" d="M2928.3,394.5c2.8-5.5,5-11.2,6.9-17.1c2.6-7.8,7.3-18.5,7.1-26.9"/>
	<path class="st0" d="M3028.3,366.5c-5.8-7-13.4,3.5-15.9,8c-7.3,13.1-18,27.9-16,43.8c1.4,11.4,13,17.9,23,21.2
		c6.2,2,12.9,4.2,17.1-2.1c5.2-7.9-1.6-22.4-2.2-31.1c-0.5-6.8-2.5-13.2-3.9-19.6c-1.2-5.3-3-9.5-5.6-14.2
		c-2.6-4.8-2.4-8.5-2.5-13.9"/>
	<path class="st0" d="M3048.3,338.5c4.6,13.6,6.7,27.5,11,41.2c3.9,12.6,4.1,26.7,9,38.8"/>
	<path class="st0" d="M3042.3,352.5c3.5-3.5,9.8-4.5,14.2-5.9c8.4-2.7,16.3-6.2,25.1-7.8c8.2-1.5,20.2-5.4,25.9,2.8
		c5,7.2,6.2,24.8,2.4,32.7c-3.1,6.3-11.6,9.2-17.2,12.3c-4.8,2.7-9.4,5.5-14.3,7.9"/>
	<path class="st0" d="M3186.3,328.5c-0.2,24.7,2,49.3,2,74"/>
	<path class="st0" d="M3132.3,356.5c5.4-5.8,16.2-9.5,23.1-12.9c12.8-6.4,25.7-12.4,39.2-17.2c7.3-2.6,14.2-5.6,21.7-7.4
		c8.4-1.9,14.7-6.4,22.1-10.5"/>
	<path class="st0" d="M3272.3,332.5c-5.2,9.6-6.6,22.1-7.8,32.8c-0.7,6.7-1,13.3-2.2,19.9c-0.8,4.3-2.5,8.8-2,13.2"/>
	<path class="st0" d="M3278.3,310.5c0-5.3,0-10.7,0-16"/>
	<path class="st0" d="M3314.3,298.5c0.3,3.1-1,5.5-2.3,8.2c-2.9,5.8-4.7,10.3-5.8,16.6c-1.5,8-2.9,16.1-0.8,24.1
		c1.5,5.7,4.7,14.5,10.8,16.9c5.1,2,12.2,2.5,15.1-2.9c3.2-6,2.9-15.3,4.1-22c1.3-7.3,3-13.7,0.6-20.9c-1.3-3.9-3.6-9-6.5-12
		c-4.3-4.5-11.6-1.8-15.1-5.9"/>
	<path class="st0" d="M3364.3,364.5c0-15.7-2-32.1,4.1-46.8c2.4-5.9,5.9-11.3,8.1-17.3c1.6-4.3,1.5-10.4,4.7-13.6
		c4.8,7,5,15.2,7.9,23.1c3.1,8.6,7.4,16.8,12.3,24.5c3.5,5.5,7.2,10.7,11.1,15.9c2.4,3.3,4.8,8.4,9.4,8.6c4.5-4.2,7.8-15.4,9.5-20.4
		c3.3-10.1,5.6-20.4,7.9-30.8c2.9-12.7,6.2-26.2,7.1-39.2"/>
	<path class="st0" d="M3530.3,358.5c-0.3-10.2,6.3-21.2,8.2-31.2c2-10.1,3.6-21,3.9-31.3c0.2-7.5-4.1-29.9,7.8-31.6
		c8-1.1,16.5,11,20.2,16.2c8,11.2,14.6,24.2,21.6,36.1c4.9,8.3,8.1,16.2,8.4,25.9c0.1,3.7,1.9,13.4-2.1,15.9"/>
	<path class="st0" d="M3536.3,326.5c10.5-3.9,20-9.7,30.8-12.7c8.8-2.5,18-4.5,27.2-5.3"/>
	<path class="st0" d="M3630.3,264.5c0.3,17-3.8,33.6-4.1,50.5c-0.2,10.5,0.1,21,0.1,31.5"/>
	<path class="st0" d="M3624.3,280.5c10.3-5.1,19.7-10.2,31.7-10.2c12.2,0,18.4,11.2,21,21.8c2.4,10.1-3.5,18.4-14.5,18.6
		c-12.3,0.3-21.6-2.1-32.7-7.6c9.6,2.5,18.3,5.5,25.6,12.5c7.8,7.5,16.5,13.6,24.7,20.6c6.4,5.4,15.7,13,24.3,14.3"/>
	<path class="st0" d="M3742.3,266.5c10.4,30.5,6,66.3,6,98"/>
	<path class="st0" d="M3680.3,282.5c18-8.3,38.4-12.6,57.7-16.8c12.8-2.8,25.7-4.6,38.5-7.2c9.2-1.8,18.4-5.2,27.7-6"/>
	<path class="st0" d="M2236.5,286.7c0.8,32.9-3,66-3,99"/>
	<path class="st0" d="M2224.5,211.7"/>
	<path class="st0" d="M2311.5,247.7c-38.6-10.3-16.2,49.5-4.4,63.1c25.3,29.2,37.7-13.4,49.4-42.1"/>
	<path class="st0" d="M2383.5,196.7c0,33,4.2,66.1,3,99"/>
	<path class="st0" d="M2383.5,136.7c0-7,0-14,0-21"/>
	<path class="st0" d="M2238,237c-0.6,2.9,0.1,5.7,2,8"/>
	<path class="st1" d="M10523.6,1026.1c-35.9-4.1-71.7-38.8-96.8-62c-22.5-20.8-28.4-41.6-27.4-72c1.2-34.8,26.4-44.1,49.4-63.7
		c23.8-20.2,49.6-53.3,53.7-85.2c1.9-14.7,0.1-29.2,6.4-42.9c4.5-9.8,17.9-30.2,27.4-33.7c3.2,23.8-5,51.5,3.4,74.5
		c5.2,14.3,18.9,24.1,31.7,30.9c5.8,3.1,11.4,6.2,18,6.5c5.5,0.3,15-6.3,19.8-4.2c9.6,4.2,2,39-1.1,48.4c-5.9,17.5-18,31-30.5,44
		c-21.3,22-22.4,52.4-25,81.7c-1.6,17.9-2.1,42.1-16,55.8c-8.7,8.6-21.1,10.6-29.8,19.9"/>
	<path class="st1" d="M10540.6,770.4c18.3-32.6,33-66.5,53.2-98.2c17.4-27.3,35.5-54.2,48.1-84c3.5-8.4,9.8-18.9,10.7-27.7
		c1.6-15.3-7.5-33.9-7.2-48.8c0.2-9.1,0.9-6.6,6.9-10.1c5.8-3.4,17.4-4.5,25-5.9c12.4-2.2,52.1-15,59-3.9c8.5,13.7-15,40.6-21,51.4
		c-7.2,13.1-17.2,22.4-26.5,33.9c-24.2,29.9-41.8,64.4-59.9,98.6c-24.4,46.2-45.4,93.8-69.8,140.1"/>
	<path class="st2" d="M10536.9,790.4c-27.8,55.3-65.1,105.5-94.1,160.2"/>
	<path class="st2" d="M10547.1,797.2c-23.7,42-42.5,86.3-69.5,126.5"/>
	<path class="st2" d="M10561.5,806.2c-19,36-36.8,78.3-64.2,108.7"/>
	<path class="st0" d="M10432,303c0.7,56.8,22.5,115.5,28.3,172.6c5.8,56.4,9.1,116.5,23.7,171.4"/>
	<path class="st0" d="M10508,395c31.1,80,42.8,165.6,64,248"/>
</g>
<g id="noclick">
	
		
			<path class="st3" d="M717,703.1c23.7-22.7,43.5-48.9,63.2-75c19.8-26.4,39.9-52,62.7-75.9c11.1-11.6,22.3-23.6,30.4-37.6
				c2.7-4.7,4.4-10.3,7.6-14.7c2.6-3.6,7.3-2.4,11.1-1.2c11.3,3.6,18,16.9,23.9,26.2c8.6,13.5,18.7,26.1,27.8,39.3
				c22.5,32.4,49.2,62,69.8,95.6c4,6.6,14.4,0.6,10.4-6.1c-19.3-31.5-44.3-59.2-65.5-89.4c-9.9-14.1-20.5-27.9-30-42.3
				c-7.2-10.9-13.7-23.2-24.8-30.9c-8.9-6.1-23.6-9-31.3,0.3c-3.6,4.3-5.4,9.9-8.1,14.8c-4.1,7.5-9.2,14.4-14.7,21
				c-11.1,13-23.6,24.8-34.8,37.7c-11.1,12.8-21.6,26.2-31.8,39.7c-23.5,31-46.1,62.9-74.3,90C703,700,711.4,708.5,717,703.1
				L717,703.1z"/>
		
	
	
		
			<path class="st3" d="M858.4,248.7c9.9-1.4,17.5,1.1,25.5,6.8c9.5,6.8,18.6,14.2,27.7,21.6c18.1,14.8,36.9,28.9,54.4,44.5
				c16.4,14.6,32.3,29.2,49.9,42.3c8.3,6.2,14.1,13,19.2,22c4.4,7.7,9,16,10.2,24.9c2.8,19.8-20.2,31.9-37.4,28.1
				c-9.3-2.1-17.8-6.5-26.1-10.9c-9.9-5.2-19.7-10.7-29.2-16.5c-9.9-6.1-19.7-12.6-28.6-20.1c-7.4-6.2-15.3-12.5-21.7-19.9
				c-5.5-6.3-10.6-13.7-17.9-18.1c-6.8-4.1-15.3-4.1-23-3.4c-9,0.9-18.4,3.5-27.5,2.2c-6.8-0.9-15-6.8-14.3-14.5
				c0.6-6.7,6.9-12.2,11.6-16.3c5.7-5,12.1-9.2,17.9-14.1c5.8-5.1-2.7-13.5-8.5-8.5c-11.2,9.8-26.8,17.6-31.8,32.6
				c-2.7,8.1-0.3,16.2,5,22.7c5.9,7.1,14.2,10.1,23.2,10.4c9.1,0.3,18-2,27-2.6c3.9-0.3,8-0.4,11.7,0.8c4.2,1.4,7.2,4.9,10.1,8.1
				c3.2,3.5,6.1,7.2,9.3,10.8c3.7,4.1,8.1,7.5,12.2,11.2c9.5,8.4,19.3,16.1,29.9,23.1c10.7,7.1,21.9,13.6,33.2,19.7
				c9.5,5.1,19.1,10.4,29.4,13.7c9.4,3,19.6,3.7,29,0.5c10.2-3.5,20.7-11,25.5-20.9c9.1-18.6-3.2-41.5-13.7-56.9
				c-6.1-9-14.6-15.3-23.2-21.6c-9.9-7.2-19-15.4-28.1-23.6c-21.6-19.7-44.5-37.7-67.1-56.3c-11-9-22-18.2-33.7-26.2
				c-10.4-7.2-21.1-8.7-33.4-7C847.5,238.2,850.8,249.8,858.4,248.7L858.4,248.7z"/>
		
	
	
		
			<path class="st3" d="M718.8,237c-3.2-32.9,19.2-66.9,50.7-77c8.1-2.6,16.4-4.1,24.7-6c8.2-1.9,16-4.4,23.8-7.4
				c14-5.3,30.4-11.5,42.9,0.1c10.9,10.1,16.3,24.8,27.7,34.5c5.9,5,14.4-3.5,8.5-8.5c-11.2-9.6-16.6-24-27.2-34.1
				c-13.5-12.8-30.6-12.2-47.2-6.5c-8.6,3-17,6.6-25.9,8.9c-9.6,2.4-19.4,4-28.8,6.9c-18.1,5.5-32.6,16.7-43.9,31.7
				c-12.3,16.3-19.1,36.8-17.1,57.3C707.5,244.6,719.5,244.7,718.8,237L718.8,237z"/>
		
	
	
		
			<path class="st3" d="M708.5,247.2c9,8.9,22.7,10.1,34.7,9.8c13.4-0.3,27.2-2,40.4-4.3c18.3-3.1,36.2-8.3,53.9-13.8
				c13-4.1,24.5-9.8,32.7-21c4.8-6.5,7.7-13.8,9.9-21.5c2.3-8,4.3-15.5,10.8-21.2c5.8-5.1-2.7-13.6-8.5-8.5
				c-10.8,9.5-11.5,22.8-16.8,35.3c-4.7,11.2-13.7,19-24.9,23.2c-28.1,10.3-57.8,16.6-87.5,19.2c-11.1,1-27.5,2.9-36.3-5.7
				C711.5,233.3,703,241.8,708.5,247.2L708.5,247.2z"/>
		
	
	
		
			<path class="st3" d="M1233.1,825.1c-90.7,34-188.9,29.1-284,33.8c-47.8,2.4-95.6,9.6-143.5,6.9c-47.8-2.7-94.4-18.4-137.3-39.2
				c-22-10.7-43.4-22.8-64.9-34.5c-22.6-12.3-45.2-24.7-67.1-38.2c-18.2-11.2-37.9-22-52.6-37.7c-15.4-16.4-21.9-37.7-28.1-58.9
				c-7.2-24.4-13.7-49.2-16.9-74.5c-2.8-22.3-3.7-45.7,0.9-67.9c4.6-22.3,14.6-43,25.8-62.7c11.9-21,24.8-41.4,35.9-62.9
				c21.3-41.4,38.5-87,70.1-121.9c14.8-16.4,31.4-31.3,45.4-48.5c7.1-8.7,13.4-17.9,20.4-26.7c7.4-9.4,15.8-17.9,23.6-26.9
				c13.7-15.8,22-36,38.5-49.4c14.7-12,33-19.4,50.3-26.7c8.3-3.5,16.6-6.9,24.8-10.7c10-4.7,19.6-10.1,29.7-14.7
				c11.5-5.2,23.3-9.8,34.9-14.7c10.1-4.2,19.9-9.2,30.4-12.3c9.4-2.8,19.1-3.7,28.9-3.9c12.6-0.3,25.2-0.3,37.8-0.3
				c11.6,0,22.7,0,34,3.3c11.1,3.2,21.9,7.2,33.1,10c11.3,2.8,22.8,5.1,33.8,9.1c10.7,3.8,20.4,9.5,29.5,16.3
				c9.3,7,17.8,15.1,26.3,23.1c8.4,7.9,17.5,15.1,27,21.6c8.5,5.8,17.9,10.7,25.2,18c7.3,7.2,12.9,15.9,18.7,24.3
				c12.3,17.7,27.2,33.2,38.8,51.6c6.1,9.8,11.7,19.9,16.7,30.3c5.2,10.7,9.5,21.7,14.8,32.3c5.2,10.5,11,20.7,15.9,31.4
				c5.1,11.2,8.3,23.1,11.4,35c3.1,11.8,6,23.6,10.5,35c3.7,9.4,9.2,17.3,15.8,24.8c7,7.9,14,15.5,19.6,24.5
				c6,9.8,10.7,20.4,14.3,31.3c7.5,22.9,10,47.5,13.5,71.2c3.7,25.2,7.1,50.1,7.8,75.7c0.7,25.8-0.2,51.5-0.1,77.3
				c0.1,17.2,2.1,34.3,1.5,51.5c-0.6,15.3-4.1,30.7-15.3,41.9c-6.7,6.7-15.5,11.9-24.5,14.6c-11.1,3.3-22.8,3.9-33.6,8.1
				c-17.6,6.8-30.3,21.5-49.6,24.2c-7.6,1.1-4.4,12.6,3.2,11.6c10.1-1.4,19-5.5,27.5-11c8.7-5.6,17-11.9,27-14.9
				c11-3.3,22.7-3.9,33.6-8.1c9-3.5,17.5-8.8,24.5-15.5c25.9-25.3,18.7-64.4,17.9-96.9c-0.6-25.6,0.6-51.3,0.1-76.9
				c-0.5-26-3.5-51.3-7.3-77c-3.7-25.2-6.1-51.3-13.6-75.7c-6.6-21.3-16.9-41.1-31.9-57.7c-7.3-8.1-14.6-15.9-18.8-26.2
				c-4.6-11.3-7.5-23.2-10.5-35c-3.1-11.7-6.3-23.3-11.1-34.4c-4.9-11.4-11-22.1-16.5-33.1c-5.6-11.1-10.2-22.7-15.6-34
				c-5.1-10.4-10.6-20.5-16.7-30.3c-6.1-9.7-12.8-19.1-20-28c-6.7-8.3-13.6-16.1-19.7-24.9c-6.1-8.8-12.1-17.9-19.7-25.4
				c-7.7-7.6-17.3-12.9-26.3-18.9c-19.6-13.3-35.2-30.9-54-45.2c-9.6-7.3-20-13.2-31.4-17.4c-10.9-4.1-22.4-6.5-33.7-9.2
				c-11.3-2.7-22.2-6.5-33.3-9.9c-11.9-3.6-23.5-4.2-35.8-4.2c-13,0-26,0.1-39,0.3c-9.9,0.1-19.9,0.8-29.6,3.2
				c-10.7,2.7-20.7,7.5-30.8,11.8c-11.8,5-23.7,9.7-35.5,14.9c-19.5,8.5-38.1,18.6-57.7,26.8c-17.9,7.5-36.2,15-51.7,26.7
				c-7.9,6-14.4,12.8-20.2,20.9c-6.8,9.5-12.6,19.7-19.9,28.8c-7.5,9.3-16.2,17.5-23.7,26.8c-7.6,9.4-14.5,19.4-22.1,28.8
				c-14.1,17.4-30.9,32.5-45.9,49.1c-16,17.7-28,37.6-39.1,58.7c-11.7,22.2-22.2,45-33.7,67.3c-11.2,21.7-24.4,42.3-36.3,63.5
				c-11.4,20.3-21.5,41.8-26,64.8c-4.5,23.1-3.9,47.2-0.9,70.4c3.2,25.5,9.5,50.5,16.7,75.1c6.4,21.8,13,43.7,27.9,61.4
				c14.2,17,33.8,28.2,52.3,39.8c22.1,13.9,44.9,26.6,67.8,39.1c44,23.9,87.6,48.7,135.6,63.7c23.2,7.3,47.2,12.4,71.4,14.4
				c25,2,50.1,0.9,75-0.8c24.7-1.7,49.3-4.2,73.9-5.4c24.8-1.3,49.7-1.9,74.5-2.6c49-1.5,98.2-3.7,146.5-12.9
				c23.1-4.4,45.9-10.5,68-18.8C1243.4,833.9,1240.3,822.3,1233.1,825.1L1233.1,825.1z"/>
		
	
	
		
			<path class="st3" d="M813.3,234.3c-0.1-7.5-1.1-14.9-1.2-22.4c0-4.2-0.7-10.9,3.8-13c6.9-3.3,16.7,0,23.8,1.3
				c3.4,0.6,18,2.5,16,7.6c-2.8,7-15.8,0.1-18.1-4.3c-3.6-7-13.4-0.9-10.4,6.1c3.5,7.9-7.8,3-6.1-1.5c0.8-2,3.4-1.4,4.4-0.2
				c0,0-0.9,3.3,0.1,1.6c1.1-2,0.3,1,0.2-0.5c-0.1-1.2-2.2-2.3-1.9-3.9c-0.9,1.2-1.8,2.4-2.8,3.6c0.2-0.1-2.9-1.6-2.7-1.7
				c0.2-0.1,0,2.6,0.1,2.5c-0.2,1.5-0.9,3.7-2.2,4.5c-6.4,4.2-0.4,14.6,6.1,10.4c7.7-5.1,13.5-23.5,1.4-27.3
				c-2.6-0.8-5.4-0.4-7.8,0.9c-3.7,1.9-4.4,5.6-3.8,9.5c0.9,6.2,5.5,12.6,12,13.7c7.6,1.3,13.4-6.1,13.4-13.2
				c0.1-7.5-6.6-13.1-13.8-13.1c-14.5,0-19,17.1-9.1,26.3c5.2,4.9,14.4,6.7,20.3,2c6.1-4.9,5.5-13.1,2.6-19.6c-3.5,2-6.9,4-10.4,6.1
				c4.8,9.2,17.9,14.5,27.8,12.4c10.7-2.2,17.4-15.8,9.4-24.5c-6.2-6.7-16.4-7.9-24.9-9.6c-9.8-1.9-21.9-4.6-31,1.2
				c-13.9,8.9-7.5,31.6-7.3,45.1C801.4,242.1,813.4,242.1,813.3,234.3L813.3,234.3z"/>
		
	
	
		
			<path class="st3" d="M1095.4,243.3c-21.7-0.7-40.1-15.7-60.9-20.6c-19.7-4.6-42.9-10.3-56.8-26.2c-7.5-8.6-8-19.1-10.7-29.7
				c-2.3-9.2-4-19.7,5.1-25.8c8.4-5.7,20.8-1,29.6,1.6c11.6,3.5,22.7,8.3,33.8,12.9c11.5,4.8,23,9.4,34.5,14.2
				c11.4,4.8,22.8,9.6,34.8,12.7c5.6,1.5,11.3,2.7,16.9,4.7c5.8,2,11,5.2,16.1,8.4c9.7,6,20,11.4,29.4,18.1
				c3.2,2.3,20.1,15,16.1,19.3c-2.1,2.3-6.3,3.6-9,5.1c-5,2.9-9.9,5.9-15.2,8.1c-9.2,3.8-19.8,5.7-29.7,4.5
				c-10-1.2-17.8-7.8-27.1-11c-5.4-1.9-11.2-2.2-16.9-2.3c-4.8-0.1-9.6-0.8-12.9-4.9c-2.3-2.8-3.5-7.8-0.3-10.4
				c3-2.5,8.6-3.5,12.4-2.6c4.4,1,8.2,4.2,12.3,6.1c3.3,1.5,6.7,2.8,9.9,4.4c4.5,2.1,14.7,6,12.6,12.4c1.4-1.4,2.8-2.8,4.2-4.2
				c-2.2,0.9-5,0.7-8.4,0.5c-4.1-0.3-8.1-1.1-12-2.2c-3.9-1.1-7.8-2.4-11.2-4.6c-1.1-0.7-2.5-1.8-3.1-2.6c-0.8-1.1-0.7-1.6-0.7-1.9
				c-0.9,1.2-1.8,2.4-2.8,3.6c5.9-3.1,13.4-4.4,20-3.4c2.2,0.3,4.3,1.1,6.5,1.6c0.4,0.2,0.9,0.4,1.3,0.6c0.4,0.3,0.4,0.2,0.1-0.3
				c1.8-1.1-0.3-1.2,0.1-1.1c-0.7-0.2-4,0.9-5,1c-2.6,0.2-5.2,0.1-7.9-0.1c-4.5-0.3-8.9-0.9-13.4-1c0,4,0,8,0,12
				c14.9-0.1,30.2-2.2,44.4,3.5c-0.5-3.7-1-7.3-1.4-11c-1.8,1-3.3,2.2-5.2,1.1c-1.6-0.9-3-3.4-3.8-4.9c-0.4-0.8-1.2-3.1-1.4-3.1
				c-0.4,0.1,1.2,2.2,1.5,2.7c1.8,3.6,1.8,7.4,2.4,11.3c0.9,5.2,3.8,8.6,7.9,11.7c6.3,4.5,12.2-5.9,6.1-10.4c-3-2.2-2.4-5.9-2.9-9.2
				c-0.6-3.8-2-7.7-4-11c-4.4-7-13.9-9.7-20-2.9c-5.4,6-1.8,14.8,2.4,20.4c6.2,8.3,14.2,9.8,23.1,4.7c4.9-2.8,3.1-9.1-1.4-11
				c-15.2-6.1-31.7-4-47.6-3.9c-7.7,0-7.7,11.9,0,12c10.2,0.2,22.5,3.8,32-1.4c5.2-2.8,7.9-9.5,4.9-14.9c-2.7-4.9-8.7-6.7-13.9-7.8
				c-10.2-2.1-38-1.4-33.3,15.2c2.8,10,15.2,14.5,24.2,16.9c5.2,1.4,10.6,2.2,15.9,2.5c3.8,0.2,9.6,0.4,12.5-2.6
				c4.1-4.2,2.6-12.1-0.2-16.5c-3.1-4.8-8.4-8.1-13.4-10.7c-4.7-2.4-9.6-4.2-14.3-6.5c-7-3.5-13.1-7.9-21.3-7.3
				c-6.4,0.5-13.5,2.8-17.9,7.7c-4.9,5.5-5,14.2-1.9,20.7c3,6.3,9.1,11,15.8,12.8c7.8,2.1,15.9,0.1,23.6,3.1
				c7.3,2.8,13.7,7.6,21.3,9.7c8.2,2.3,17,2,25.3,0.8c8-1.2,15.5-3.8,22.7-7.3c6.5-3.2,13.4-6.8,19.5-10.9
				c6.3-4.2,9.4-10.6,6.2-17.9c-2.9-6.9-9.5-12.9-15.1-17.6c-6.8-5.7-14.4-10.2-22-14.7c-8.3-4.9-16.3-10.6-25-14.8
				c-8.4-4-17.4-5.9-26.4-8.3c-9.5-2.6-18.7-6.3-27.9-10.1c-18.4-7.6-36.7-15.4-55.2-22.8c-9.2-3.6-18.5-7-28.1-9.1
				c-7.8-1.7-16-3.2-23.8-0.4c-16.2,6-20.8,23-16.9,38.5c2.3,9,3.1,18.4,7.1,26.8c3.1,6.6,7.8,12.5,13.5,17.1
				c13.4,10.9,29.9,17,46.4,21.4c8.5,2.2,17,3.9,25.1,7.3c8,3.3,15.8,7.4,23.9,10.6c8,3.2,16.3,5.3,25,5.6
				C1103.1,255.6,1103.1,243.6,1095.4,243.3L1095.4,243.3z"/>
		
	
	
		
			<path class="st3" d="M596.1,308.1c-8.2,6.8-13.2,16.4-17.9,25.8c-4.8,9.8-10,19-16.1,28.1c-6.4,9.7-15.5,17.1-21.6,27
				c-2.8,4.6-5,9.3-8.4,13.6c-3.7,4.7-7.9,8.9-12,13.1c-4,4-7.7,8.2-11.5,12.3c-4,4.3-9.7,6.6-13.9,10.9c-3.5,3.7-5.6,8.3-7.6,12.9
				c-2.3,5.5-5,10.8-7.1,16.4c-7,19.4-25.6,34.7-23.9,57.1c0.8,10.1,6.9,16.5,15,21.7c7.3,4.7,16,9,24.5,10.5
				c9.1,1.6,18.1-0.5,24.6-7.3c6.5-6.8,9.9-15.9,14.4-24c6.5-11.6,14.2-22.6,19.5-34.8c4.8-11,6.5-22,7.2-33.8
				c0.6-11.6,3.4-23.8,9.5-33.8c6.1-10,14.8-17.7,21.8-27c4-5.3,7-11.2,9.9-17.1c2.9-5.8,5.6-11.4,7-17.8c2.8-12.5,0.7-26,5.8-37.9
				c5.2-12.2,13.4-22.5,16.9-35.4c1.5-5.6,2.7-10.9,5.3-16.2c2.1-4.2,4.7-8.8,4.6-13.6c-0.1-5.4-6.3-7.6-10.2-4.2
				c-4.6,4-6.6,9.7-9.3,14.9c-3.6,6.9-7.6,13.7-11.6,20.4c-3.3,5.4-7.2,9.8-11.3,14.5c-4.4,5-7.3,11.1-12.5,15.5
				c-5.9,5,2.6,13.4,8.5,8.5c5-4.2,7.9-9.9,12-14.9c4.1-5,8.4-9.4,12-14.9c4-6.2,7.6-12.7,11.1-19.1c3-5.3,5-12.4,9.6-16.4
				c-3.4-1.4-6.8-2.8-10.2-4.2c0.1,3.3-2.7,6.9-4.1,9.8c-2.1,4.3-3.3,8.8-4.5,13.4c-2.9,11.1-8.4,20-13.7,30
				c-2.2,4.3-4.3,8.7-5.8,13.3c-1.7,5.6-1.8,11.3-2.1,17.1c-0.6,10.9-2.5,20.6-7.4,30.4c-2.4,4.7-4.7,9.4-7.5,13.8
				c-3,4.6-6.9,8.4-10.4,12.5c-7.2,8.2-14.2,16.8-18.5,27c-4.3,10.4-6.3,21.7-6.8,33c-0.5,10.8-2.8,21-7.6,30.7
				c-5.4,11-12.4,21.1-18.2,31.8c-3.8,7-6.8,16.3-13.2,21.4c-6.2,5-14.5,2.3-21.1-0.4c-6.4-2.7-16.2-6.9-19.6-13.4
				c-3.9-7.3,0.3-18,3.7-24.7c4.4-8.9,11.5-16.3,15.5-25.4c4.2-9.7,7.1-20.8,12.9-29.8c2.7-4.1,7.1-6.3,10.9-9.1
				c4.5-3.4,7.8-7.8,11.7-11.8c8.1-8.4,17-16.5,23-26.7c2.9-5,5.5-9.9,9.3-14.3c4-4.6,8.4-8.9,12.1-13.9c7-9.4,13-19.5,18.2-30
				c4.8-9.8,9.4-20.2,18-27.4C610.5,311.6,602,303.2,596.1,308.1L596.1,308.1z"/>
		
	
</g>
<g id="noclick">
	<path class="st0" d="M3883.4,440.5c-0.7,16-8.3,31.4-9.1,47.5c-0.5,9.5-1.4,23.4,6.1,30.5"/>
	<path class="st0" d="M3874.4,446.5c10.7-4.4,21.4-2.8,32.8-3c12-0.2,17.9,0,22.3,12.9c4,11.7-4.1,13.3-14.7,16.5
		c-8.8,2.7-16.3,3.5-25.4,3.6"/>
	<path class="st0" d="M4045.4,461.5c-14-1.4-38.1-14-44.6,5.2c-5.7,16.8,10.3,22.1,23.2,24.9c12.4,2.6,24.9,7.8,31.3-6
		c5.5-11.9,1.5-18.7-6.9-27.1"/>
	<path class="st0" d="M4135.4,449.5c0,21.5-1.9,46.7,27.1,45.2c24.6-1.3,18-38.7,14.9-54.2"/>
	<path class="st0" d="M4231.4,419.5c1.8,20,4.6,40.5,9,60"/>
	<path class="st0" d="M4228.4,428.5c14.3,2.1,48.1-14.8,52.1,7.1c1.9,10.6-3.3,13.5-13.1,15.5c-7.1,1.4-14.1,1.6-21.2,1.5
		c-4.9-0.1-13.7-2.4-17.4,1.2c3.4,7.3,14.3,4.6,20.6,4.6c10.2-0.1,19.6,3.1,29.8,3.2c14.1,0.2,28.2-0.1,42.2-0.1"/>
	<path class="st0" d="M4504.4,359.5c7.2,18.2,11.2,40.2,12,59.7c0.7,16.5,25.8,1.8,36.1,0.3"/>
	<path class="st0" d="M4618.4,353.5c-1.6-11.6,5.7-21.8,6-33"/>
	<path class="st0" d="M4669.4,347.5c10.7-0.6,17.9-4,27.2-9c3.4-1.8,10.3-9.5,14.2-9c9.1,16,4.2,52.3,30.6,54"/>
	<path class="st0" d="M4708.4,311.5c-0.2-4.5,2-7.8,3-12"/>
	<path class="st0" d="M4783.5,314.5c-0.3,25.7,9.3,49.6,9,75"/>
	<path class="st0" d="M4789.5,323.5c7.3,11.6,20.9,13.6,32.3,20.2c5.8,3.4,21.3,18,27.9,13.5c5.2-3.6,5.7-17.7,5.9-23.3
		c0.3-7.4-0.1-14.9-0.1-22.4"/>
	<path class="st0" d="M4966.5,299.5c-8.8,0-18.3-1-27.1-0.1c-6.3,0.6-21.2,5.2-23.4,11.3c2.8,7.8,16.7,12.2,23.5,15.9
		c6.2,3.4,17.8,5.7,22.7,10.6c13,13-33.6,27-40.8,34.3"/>
	<path class="st0" d="M5086.5,278.5c8.9,7.5,10.9,27.4,13.2,37.4c2.5,10.8,4.9,20.5,4.8,31.6"/>
	<path class="st0" d="M5047.5,302.5c4.8-6.9,10.5-13.8,17.8-18.1c7.4-4.5,16.1-6.3,23.7-10.4c9.7-5.2,19.4-11.5,30.5-13.5"/>
	<path class="st0" d="M5209.5,290.5c9-17.9,19.3-34.8,28.5-52.5c4.1-7.9,6.8-13.1,14.6-4.7c8.3,8.9,13.8,22.8,19.9,33.2"/>
	<path class="st0" d="M5218.5,272.5c12.7-6.3,33.2-12.2,42-24"/>
	<path class="st0" d="M5413.5,239.5c-8.3-13.8-19.5-23-24.2-39.1c-1.5-5.1-8-25,3-25.5c9.8,11.4,16.2,24.7,27.6,35
		c8.3,7.5,26.5,18.3,38.5,19.2c12.9,0.9,13.6-10.6,14.7-21.3c1.2-10.9,3-37-5.8-46.3"/>
	<path class="st0" d="M5548.5,59.5c9.2,8,14.9,19,23.2,27.8c6.3,6.7,12.3,13.6,18.8,20.2"/>
	<path class="st0" d="M5521.5,83.5c0.5-12.7,8.4-17.1,17.7-24.7c8.9-7.3,17.8-14.3,27.5-20.6c12.4-8,25.3-13.1,35.8-23.7"/>
</g>
<g id="viensg">
	
		<path class="st4" d="M7012.7,1767.4c-3.9,2.3-4.9,8-6.8,11.9c-4,8.5-4.2,19-5,28.2c-1.1,12.2-2.1,30.3,7.7,40
			c3.8,3.7,10.1,4.4,15.2,4.8c4.6,0.4,10.8-0.7,14.8-3c3.4-2,7.1-3.6,10.5-5.8c4.4-2.9,6.8-7.2,9.7-11.5c3.4-5.1,6.1-9.3,7-15.5
			c0.8-5.1,1.5-10.4,1-15.6c-0.6-6.2-4.6-10.9-8-16c-2.8-4.1-5.6-8.7-8.9-12.4c-4.8-5.4-9.8-8.5-17.1-8.1c-2.4,0.1-5.1,1-7.4,2
			c-2.1,0.9-4.3,2.7-6.6,3"/>
	
	
		<path class="st4" d="M7059.7,1836.4c1.1,2.1,2.2,3.3,4,4.7c2.7,2.1,4.1,4.5,5.4,7.7c3,7.2,4,15,5.3,22.6
			c1.1,6.4,1.2,12.3,1.3,18.8c0,2.3-0.3,4.9-0.1,7.3c0.2,1.7,0.9,3.2,1.1,4.9c0.7,6.2-3.1,11.1-3.1,17c0,2.1,0.4,4.8,0.1,6.9
			c-0.6,4.3-3.2,4.6-7.1,3.9c-4.7-0.9-9.5-2.2-14-3.8c-2.9-1-6-1.8-8.9-3c-2.1-0.9-4-2.1-6.2-2.8c-5.1-1.5-9.7-3-14.9-4.2
			c-6-1.4-12.1-2.5-18.1-3.8c-3-0.6-6.1-0.8-9.2-1.4c-4.1-0.8-8-2.7-12-3.9c-4.6-1.4-9.3-2.2-13.9-3.7c-2.4-0.8-4.6-2.4-7-3.1
			c-1.2-0.3-2.3-0.3-3.5-0.7c-1.6-0.4-2.9-1.3-4.5-1.5l-4-1c-3.5-8.5,0-18.1,6.2-24.2c2-2,3.5-4.2,5.2-6.4c1.9-2.4,4.4-3.9,6.2-6.2
			c3.7-4.6,7.3-9.2,11.9-13.1c4.2-3.7,9.5-6.3,14.5-9L7059.7,1836.4z"/>
	
	
		
			<path d="M7018.2,1796.4c7.7,0,7.7-12,0-12C7010.5,1784.4,7010.5,1796.4,7018.2,1796.4L7018.2,1796.4z"/>
		
	
	
		
			<path d="M7045.2,1802.4c7.7,0,7.7-12,0-12C7037.5,1790.4,7037.5,1802.4,7045.2,1802.4L7045.2,1802.4z"/>
		
	
</g>
<g id="viens">
	
		<path class="st5" d="M2141.4,571c51.1-38.7,110.7-54.4,167.2-82.3c54.9-27.1,114.7-58.9,156.7-104.4
			c22.5-24.3,41.8-51.4,63.3-76.6c13.6-16,31.6-27.1,45.2-42.8c9.2-10.6,9.7-21.8,23.5-12.6c11.6,7.8,19.7,24.8,28.5,35.3
			c10.1,12.1,19.2,24.9,28.2,37.9c11.8,17.1,26.3,31.8,38,48.9c15.7,23,30.9,46.4,43,71.5c16.7,34.5,39.1,63.6,58.6,96.4
			c31.8,53.3,75,97.3,109.9,148.3c31.9,46.6,48.1,97.4,65.7,150.3c14.6,43.9,27.6,88.4,42.1,132.3c17.8,53.8,23.5,114.3,28.7,170.6
			c10.2,112.1,7.2,225.2,7.2,337.9c0,54.5,3.8,106.4-19.4,157.3c-10.3,22.6-20,46.1-32.8,67.3c-13,21.5-29,39.8-44,59.9
			c-31.2,41.9-59.5,86.8-95.5,124.8c-24.4,25.7-51.3,45.9-79,67.6c-19.8,15.5-37,33.8-57.9,48c-28.9,19.7-61.2,30.9-90.6,49.1
			c-13.2,8.2-25.7,13.2-40.2,18.5c-20.7,7.6-39.2,19.9-60.9,25.3c-32.1,7.9-63.5,7.2-96.2,7.2c-14.4,0-29.4,1.1-43.8,0.2
			c-9.7-0.6-20.8-9.8-28.2-4.1c5.2,12.4,19.8,19.2,28.5,29.1c10.3,11.7,19,23.9,30.3,35.1c11,10.9,50.6,39.7,47.8,54.6
			c-18.6,13.5-51.7-14.7-66.2-23.7c-7.4-4.6-16.2-7.3-23.9-11.5c-9.9-5.4-15.8-13.3-25-19.6c-12.5-8.7-27.1-14.1-39.3-23.5
			c-11.4-8.8-20.3-20.1-31.6-29.1c-27.1-21.7-49.8-48.5-78-69c-12.1-8.8-35.1-17.5-31.6-34.3c1.3-6.4,26.6-26.5,33.1-30.5
			c19.9-12.2,42.7-18.8,63.2-29.2c14.5-7.4,26.2-17.7,41.5-24.3c19.5-8.5,37.5-16.6,55.3-28.2c21.3-13.8,44.5-24.3,65.8-38.2
			c6.1-4,21.3-19,27.9-19.2c-25.4,29.6-48.4,56.3-64.9,91.9c-8.8,19.1-21.9,39.1-26.9,59.2c4.7,10.6,53-14.3,64.2-17.5
			c14.1-4.1,28.7-5.7,42.3-11.7c18.6-8.1,34.8-17.9,54.2-24.3c25.4-8.3,44.3-28.1,69.3-36.5c26.7-9,48.2-36.3,70-53.8
			c9.8-7.9,19.8-15.7,29.7-23.5c6.4-5.1,12-6.2,17.3-13.5c3.6-4.8,4-11.9,6.8-17c8.7-15.5,21.4-30,27.2-47.4
			c8.8-26.4,15.5-53.1,25.5-79.5c17.5-46.2,22.5-97.9,29.8-146.4c8.5-55.8,14.6-111.6,21.1-167.5c2.5-21.9,1.9-42.5,2.6-64.4
			c0.8-24.2,7.8-47,6.6-71.4c-2.3-45.1-16.3-91-26.1-134.8c-5.4-24.3-12.5-46.8-23.5-69.4c-13-26.9-24.8-50.2-45.3-72.3
			c-9.5-10.2-16.6-22.8-26.4-32.7c-14.3-14.4-31.2-27-46.2-40.7c-14-12.8-27.8-22.2-43.1-33.2c-21.3-15.4-39.7-33.6-62.3-47.2
			c-21.9-13.1-45.5-21.9-69-31.8c-40.6-17.1-79.6-38.1-120.5-54.5c-30.9-12.4-60.8-18.8-93-25.6c-35.3-7.5-69.9-18.5-105-26.8
			c-64.9-15.3-132.9-16.3-198.3-29.6c-85.3-17.3-171.3-23.6-257.6-33c-54.1-5.9-107.4-14.6-161.7-15.2"/>
	
</g>
</svg>
