<?xml version="1.0" encoding="utf-8"?>
<!-- Generator: Adobe Illustrator 19.0.0, SVG Export Plug-In . SVG Version: 6.00 Build 0)  -->
<svg version="1.1" xmlns="http://www.w3.org/2000/svg" xmlns:xlink="http://www.w3.org/1999/xlink" x="0px" y="0px"
	 viewBox="0 0 10800 2332" style="enable-background:new 0 0 10800 2332;" xml:space="preserve">
<style type="text/css">
	.st0{fill:none;stroke:#0019FF;stroke-width:16;stroke-miterlimit:10;}
	.st1{fill:#CED667;}
</style>
<g id="noclick">
	<path class="st0" d="M1881.1,233.5c-0.5,47.6,6.5,94.5,6.1,142.1c-0.1,15.7,9.2,63.1-6.1,73.8"/>
	<path class="st0" d="M1659.1,257.5c47.9,15.2,100.2,11.2,149.5,7.5c35.1-2.7,68.9,0.5,103-9.1c30-8.4,85.2,8.7,107.4-16.4"/>
	<path class="st0" d="M2121,203.6c-11.6,11-13.8,26.2-16.4,41.3c-4.6,27.8-10.6,51.5-25.4,76c-14.6,24-44.1,51.6-48.2,80.7"/>
	<path class="st0" d="M2091,239.5c15-15,27-31.5,47.6-37.9c29-9,77.5,3.2,92.8,31.9c3.5,6.5,8.8,23.7,7.8,31.3
		c-2.7,20.6-29.4,28.7-45.7,35.2c-23.5,9.4-46.9,12.9-71.9,16.3c-10,1.3-33.9-3.4-41.3,2.9c37.6,32.4,88.4,50.3,130.7,76.3"/>
	<path class="st0" d="M2522.9,179.6c-49.5-1.5-122.4,32.1-152.8,72.2c-14.3,18.9-23.7,56.6-9.2,78c27.6,40.8,108,42.6,151.2,35.4
		c47.1-7.9,80.2-33.7,91.9-80.1c7.9-31.5,7.9-53.8-8.9-81.9c-24.4-40.7-72.8-41.6-114.2-41.6"/>
	<path class="st0" d="M2774.9,131.6c-14.6,13-18.8,37.2-24.1,55c-7,23-10.9,45.4-13.5,69.4c-4.5,40.7-9,81.5-16.4,121.6"/>
	<path class="st0" d="M2720.9,155.6c23.8-1.4,43.1-11.8,66.3-16.8c12.7-2.7,29.4-9.2,42.2-6.6c24.3,5,34.8,37.9,34.8,59.1
		c0,41.8-43.3,62.7-75.9,77.3c-18.2,8.1-35.8,12.7-55.5,13.3c-14.1,0.4-43.1,5.6-53.9-6.4"/>
	<path class="st0" d="M2079,509.5c-22.3,54.6-31,109.8-38.5,168.2c-5.2,39.8-10,79.6-9.5,119.8"/>
	<path class="st0" d="M2067,503.5c24,1.3,43.7,7.7,67.3,12.2c20.1,3.8,41.8,3.4,61.2,9.6c19.5,6.2,35.2,14.7,25.6,38.3
		c-10.9,26.8-46.3,40-71.3,48.4c-31.3,10.5-73.5,20.6-106.7,17.6"/>
	<path class="st0" d="M2391,497.5c-22.2,0-58.4-7.7-76.4,6.3c-16.2,12.6-24.8,36.2-27.9,55.6c-4.1,26,7.5,36.4,32.8,42.7
		c23.3,5.9,48.8,2.1,68.7,18c16.6,13.3,12.2,25.7-2.4,39.1c-31.1,28.5-81.7,23.8-120.8,24.2"/>
	<path class="st0" d="M2486.9,491.5c19.2,28,48.8,66.1,48,102"/>
	<path class="st0" d="M2588.9,485.5c-11.6,26.5-29,43.6-48.7,65.2c-26,28.7-51.6,57.5-78.3,85.6c-20.8,21.9-58,55.8-59,89.1"/>
	<path class="st0" d="M2816.9,389.5c-20,4.5-37.8,18.4-55.3,28.4c-17,9.7-34.9,18.1-50.6,30c-23,17.6-45.9,61-38.1,91.1
		c3.6,14.1,16.8,25.4,25.7,36.9c10.2,13.2,13.4,15,28.1,18.7c24.1,6.1,62.8-11.7,78.2-31.1"/>
	<path class="st0" d="M2948.9,377.5c-3,39.2-17.9,77.3-32.3,113.5c-13.2,33.3-31.5,72.4-33.7,108.5"/>
	<path class="st0" d="M3038.8,353.5c0.4,45.4-0.1,89.6-8.8,134.5c-3.7,19.3-8.3,38.3-11.7,57.7c-1.9,10.8-1.8,27.1-9.5,35.8"/>
	<path class="st0" d="M2918.9,521.5c35.8-0.1,71.5,1.1,107.2-1.2c28.7-1.8,56.3-8.4,84.7-10.8"/>
	<path class="st0" d="M3146.8,353.5c5.1,27.3,9.9,55.4,9.4,83.3c-0.2,14.5-1.9,29.2-3.3,43.7c-1.1,11.7-6.6,24.5-5.7,35.8
		c2.4,30.1,26.2,13.4,38.7-1.3c20.5-23.9,40.4-40.2,68.7-53.6"/>
	<path class="st0" d="M3164.8,425.5c20.9-13.4,48.2-24.3,66-42"/>
	<path class="st0" d="M3122.8,359.5c13.6-16.2,52.2-19.5,72-24"/>
	<path class="st0" d="M3158.8,317.5c21.2-42.7,66.3-67.2,90-108"/>
	<path class="st0" d="M3464.7,485.5c6.8-9.7,9.4-21.1,16.5-30.8c17.9-24.2,44.4-43.5,67.8-62c24.4-19.2,47.5-40.1,71.7-59.5
		c14.1-11.3,31.1-30.6,48.7-35.5c14,28,9.6,69.3,10.7,99.9c1.2,31.1-0.8,62.1,0.4,93.2c14.2,4,44.2-43.1,47.1-46.5
		c20.6-24.2,42.1-46.8,67-66.8c15.6-12.5,32.4-20.9,48.9-31.9c10.2-6.9,18.4-16.6,30-21.3c24.9,17.3-22.8,99-31,116
		c-9.1,19-20.7,36.9-29.1,56.3c-7,16.1-11.6,33-18.9,49"/>
	<path class="st0" d="M3920.7,473.5c22.5-26.8,56.3-45.1,83.9-65.9c36.4-27.3,73.5-63.1,114.5-83.6c23.6-11.8,49.9-15.5,75.1-22
		c27.3-7,52.3-18,80-23.9c20.5-4.3,37.5-4.3,38,21.3c0.7,41-34.5,79.1-60.2,106.8c-23.6,25.4-44.5,51.7-62.8,81
		c-13.2,21.1-31.9,44.4-52.5,58.2"/>
	<path class="st0" d="M4052.6,377.5c40.1,0,81-2.9,120.8,1.3c16.5,1.8,37.2,0.8,52.8,4.5c6.4,1.5,11.9,5.4,18.4,6.2"/>
	<path class="st0" d="M4442.6,371.5c-17.8,13.6-30.9,36.7-42.9,54.3c-20.3,29.8-40.5,59.4-60.1,89.6c-15.1,23.2-28.2,51.6-47,72.1"
		/>
	<path class="st0" d="M4598.5,185.6c-4,0-8,0-12,0"/>
	<path class="st0" d="M4772.5,623.5c5.6-35.1-39.1-63.5-59.9-85.2c-26.9-28.2-53.6-73-97.4-74.3c-20.4-0.6-64.2,15.6-71.7,37.9
		c-7.5,22.1,14.7,26.6,31,37.3c18.9,12.4,38.5,28.9,54.6,44.9c20.3,20.1,17.4,42.8,19.2,69.4c1.5,23.5,3.1,47.4-7.5,69.4
		c-14.4,30-29,48.9-65.8,39.3c-29.3-7.6-75.9-18.6-83.2-52.9c-3.7-17.3,8.7-62.3-7.2-73.7"/>
	<path class="st0" d="M5090.4,881.4c-23.6-13.9-37.1-34.6-55.8-53.4c-22.7-22.8-56.5-48.7-86.1-61.4c-18.2-7.8-32.8-14-51.6-4.3
		c-20.4,10.4-39.9,41.2-52.8,59.2c-14.5,20.2-22.3,42.4-24,67.5c-1,13.9-0.9,24.4,7.2,36c6.9,9.8,15.8,19.4,23.7,28.5
		c35.5,41.2,80.9,75.4,119.5,114"/>
	<path class="st0" d="M5162.4,983.4c24.9-20.8,59.5-35.3,90.2-44.7c26.8-8.2,55.8-19.1,83.8-21.3"/>
	<path class="st0" d="M5282.4,1103.4c-42.1,23-109.4,54.3-119.5,108.1c-6,32,39.4,52.2,65.5,47.9"/>
	<path class="st0" d="M5192.4,1145.4c32.4,5,63,12.8,96,12"/>
	<path class="st0" d="M5252.4,1085.4c41-4.2,85.8,16.3,126,24"/>
	<path class="st0" d="M5624.3,1247.3c-25.7-28.2-73.6-69.5-114.9-70c-30.4-0.4-67.3,35-89.5,51c-22.3,16-45.1,26.9-65.4,46.1
		c-11,10.4-27,25.1-22.9,41.5c6.4,25.5,52.6,41.9,70.9,53.6c35.1,22.3,79.4,41.8,81,88.1c-21.2,20.9-64.3,8.8-90.7,15
		c-15.8,3.7-44.9,8.1-56.5,20.6"/>
	<path class="st0" d="M5624.3,1349.3c-3.7,33.7-23.9,59.7-42.3,87.4c-14.9,22.4-27.1,46-41.7,68.5"/>
	<path class="st0" d="M5510.3,1349.3c34.5,0.4,67.5,6.1,102.1,6c16.5-0.1,36.7-3.2,52.8,1.2c10.8,2.9,19.5,9.5,31.1,10.8"/>
	<path class="st0" d="M5912.3,1511.3c-24.8,20.4-33.8,61.2-42.3,90.1c-4.1,14-11.8,33.9-10,48.3c1.6,13.4,18.7,28,27.9,36
		c23.2,20.3,60.6,34.1,90.6,39.1c27,4.5,42.2-10.9,52.4-34.9c8.2-19.3,23.9-42.9,23.2-64.3c-0.6-17.3-12.8-33-18.4-48.8
		c-4.4-12.4-6.1-20.1-15.4-29.8c-13-13.6-30.4-15.8-46.8-23.7c-18.4-8.9-40.1-20.5-61.3-18"/>
	<path class="st0" d="M6122.2,1535.3c0.5,40.2-5.8,79.6-6.1,120c-0.2,23.3-2.7,88.3,29.5,92.7c35,4.7,62.1-75.3,73-100.7
		c5.6-13.1,10-26.3,13.4-40.1c2.6-10.3,0.8-33.2,9.2-40.1c1.3,16-3.8,34.8-5,50.6c-1,14.3-3,28.2-4.6,42.5
		c-3.1,26.8-7.2,65.1,1.1,91.2c5.7,17.9,27.1,30.8,42.4,17.6c17.1-14.8,10.1-37,21.2-53.6"/>
	<path class="st0" d="M6248.2,1511.3c-19.6-18-44.4-32.5-67.2-46.5c-20.4-12.5-48.2-20-64.8-37.5"/>
	<path class="st0" d="M6536.1,1625.3c0.3,37-5.1,70.2-12.2,106.6c-4.1,21.1-6.4,42.5-9.1,63.9c-1.5,12.1-5.9,28.3-3.7,40.4
		c5,26.5,42.8,20.8,63.7,19.6c19.4-1.1,39.1-1.4,58.4-4.1c11.6-1.6,23-5.9,34.9-4.5"/>
	<path class="st0" d="M6770.1,1943.2c-0.7-18.8-5.9-27.9-2.2-48.2c5.8-31.6,15.5-62.4,26.6-92.5c9.6-26.1,24.7-49.1,36.1-74.4
		c4.1-9.2,8.4-37.5,18-40.7c40.2,29.9,51.3,73.7,56.5,121.1c5,45.5,12.6,89.8,20.9,134.7"/>
	<path class="st0" d="M6776.1,1859.2c20.6-10.4,40.4-20.9,63-26.5c15.7-3.9,38.9-2.7,50.9-15.5"/>
	<path class="st0" d="M7346,1769.2c-8.5,37.2-10.7,73-14.8,111c-2.5,22.9-4.4,46-9.2,68.6c-2.6,12-7.4,23.9-5.9,36.4"/>
	<path class="st0" d="M7220,1835.2c22.8-26.4,74.5-34,104.4-45c23.4-8.6,46.6-17.5,69.7-27c11.7-4.8,26.4-9.1,35.8-18"/>
	<path class="st0" d="M7543.9,1817.2c-11.7,9.5-12,33-13.8,45.7c-3.5,25.7-4.5,49.9-4.4,75.9c0.1,20.4,0.2,40.8,0.1,61.2
		c-0.1,11.7-2.3,25,2.5,36c11.9,27.5,36.4,16.7,57.4,8.1c27.4-11.2,56.1-15.1,84.4-23c12.8-3.6,26.6-7.6,35.7-17.9"/>
	<path class="st0" d="M7543.9,1955.2c6.6-24.4,42-38.8,60-54"/>
	<path class="st0" d="M7537.9,1841.2c21,4.3,42.1-8.5,60-17.7c19.2-9.9,43.4-16.3,60-30.3"/>
	<path class="st0" d="M7705.9,1757.2c8.8,28,22,54.1,33.7,81c9,20.7,17.7,48,32.9,64.8c22,24.3,62.4,25.6,92.3,28.6
		c28.3,2.9,72,10,98.3-5.8c37.8-22.7,50.2-91.3,55.2-130.1c6.9-53.7-2.6-127.6-48.5-164.6"/>
	<path class="st0" d="M8131.8,1913.2c-32.4-54.9-43.1-115-61.8-175.2c-15.8-51-28.3-101.5-34.5-154.8c-4.4-38-11.6-72.7,6.9-108.3
		c10.1-19.6,40.2-53.8,65.4-53.6"/>
	<path class="st0" d="M8047.8,1727.2c36.8,1,63.5-16.6,96-29.9c19.8-8.2,31.9-23.6,49.6-35c15.5-10,30.7-13.6,40.6-30.4
		c22.4-38.3,35-89.1,27-132.8c-4.2-22.9-7.5-48.3-15-70.4c-7.4-22-18.4-43-27.2-64.4c-20.8-50.3-54.7-99.3-94.2-136.6
		c-19.9-18.7-41.8-34.9-61-54.4c-9.8-10-19.3-21.9-30.6-30.2c-11.3-8.4-22.5-16.8-33.7-25.4c-8.8-6.7-35.4-31.2-48-31.9
		c-26.9-1.7-26.8,63.5-37.2,79.5c-14.5-17.9-1.5-56,3-75c6.3-26.7,10.8-37.3,40.5-35.5c18.6,1.1,47.7,13.4,60.2,27.6
		c-1.7,16-65.1,8.9-78.1,8.9"/>
	
		
			<path d="M6461,972.6c0.5,4.1,1.7,7.5,3.5,11.3c1.8,3.8,3.4,7,2.2,11.3c-2.3,8.5-9.9,15.2-16,21.2c-5.5,5.4,3,13.9,8.5,8.5
				c7.4-7.3,15.2-15,18.6-25.1c1.6-4.6,1.8-9.7,0.3-14.4c-1.4-4.3-4.6-8.2-5.2-12.7C6472.1,965,6460,965,6461,972.6L6461,972.6z"/>
		
	
	
		
			<path d="M6399.5,972.6c-7.3,0-14,1.6-20,6c-4.5,3.4-9.3,8.6-7.3,14.8c1.8,5.7,8.3,7.4,13.5,8.6c6.8,1.5,13.2,3.2,19.9,0.4
				c7-2.9,4-14.5-3.2-11.6c-3.7,1.5-6.2,1-10,0.3c-1.6-0.3-3.1-0.6-4.7-1c-1-0.2-3.2-1.4-4.1-1.2c-1.5-1-1.4-0.3,0.1,2.2
				c0.3-0.6,0.8-1,1.3-1.5c1.1-0.8,2.1-1.7,3.3-2.4c3.6-2.1,7.2-2.6,11.3-2.6C6407.3,984.6,6407.3,972.6,6399.5,972.6L6399.5,972.6z
				"/>
		
	
	
		<path class="st1" d="M6309.5,1056.6c10.8,6.6,20.3,17.5,28.3,27.2c1,1.2,7.3,7.1,7.7,9.2c0.6,3.1-2.3,5.4-4.5,7.1
			c-10.8,7.9-25.5,8.2-37.8,4.4c-15.4-4.8-30.4-12.1-44.7-19.4l10.5,4.5c-7.6-4.2-16.3-8.8-22.6-14.9c-2.7-2.7-4.7-4.3-4.5-8.2
			c0.6-14.6,13.8-24.3,25.5-30.6c8.6-4.6,18.1-8.7,27.2-12.3c3.6-1.4,7.8-3.7,11.5-4.4c16.8-2.8,31.1-12.4,46.8-18"/>
		
			<path d="M6306.5,1061.8c10,6.4,18,15.3,25.5,24.4c1.1,1.3,2.1,2.5,3.3,3.7c1,1.1,2.6,3.6,3.9,4.2c1.9,0.9-0.8,0.2,0.5-0.7
				c-1.1,0.7-1.9,1.7-3,2.5c-2.2,1.5-4.6,2.6-7.1,3.4c-10.8,3.5-21.5,0.8-31.8-3c-12.5-4.5-24.4-10.4-36.2-16.4
				c-2,3.5-4,6.9-6.1,10.4c3.5,1.5,7,3,10.5,4.5c6.9,3,13-6.6,6.1-10.4c-6.2-3.4-12.7-6.7-18.2-11.2c-1.6-1.3-4.8-3.5-5.7-5.5
				c-0.8-1.9,0.4-5.3,1.1-7.1c4.3-10.9,16.3-17.2,26.2-22.1c6.8-3.4,13.8-6.3,20.8-9.2c2.9-1.2,5.7-2.6,8.7-3.6
				c3.1-1,6.5-1.4,9.7-2.3c14-3.9,26.5-11.5,40-16.5c7.2-2.6,4.1-14.3-3.2-11.6c-15.9,5.8-30.2,14.2-46.8,18
				c-7.9,1.8-15.8,6-23.3,9.2c-7.4,3.2-14.7,6.6-21.6,10.8c-11.5,7-22.5,17.4-23.7,31.6c-0.6,7.1,3.5,11.8,8.6,16.2
				c6.5,5.5,13.9,9.6,21.3,13.7c2-3.5,4-6.9,6.1-10.4c-3.5-1.5-7-3-10.5-4.5c-6.9-3-13.1,6.8-6.1,10.4c14.9,7.6,30.1,15.2,46.2,20
				c12.9,3.9,27.8,3.9,39.7-3.2c5.1-3,10.7-7.5,10.2-14c-0.4-4.9-4.9-8.7-8-12c-10-10.5-18.5-21.7-30.9-29.6
				C6306,1047.3,6300,1057.6,6306.5,1061.8L6306.5,1061.8z"/>
		
	
	
		<path class="st1" d="M6467,1017.6c8.2-2.1,16.7-1.7,25.1-2.9c17.1-2.5,34.2-5.5,51.3-8.1c9.1-1.4,18.6-2.4,27.9-2.6
			c12.2-0.2,21.3,4.2,30.9,11.9c8.7,7,17.9,15.1,22.5,25.5c3.9,8.9-1.1,13.8-8.6,18.3c-10.7,6.4-23.7,11.1-35.7,14.2
			c-9.1,2.3-19,0.6-27.7,3.7"/>
		
			<path d="M6468.6,1023.4c8.2-1.9,16.7-1.7,25.1-2.9c8.9-1.3,17.7-2.8,26.6-4.2c17.1-2.8,34.4-6.4,51.8-6.3
				c15.1,0,27.4,10.2,37.4,20.5c3.7,3.7,11.6,11.7,10.3,17.6c-1.2,5.3-11.1,9-15.3,11c-8.2,3.9-17,7-25.9,9.1
				c-9.1,2.2-18.7,0.8-27.7,3.7c-7.3,2.4-4.2,13.9,3.2,11.6c9.2-3,19.2-1.6,28.5-4c9-2.3,17.9-5.4,26.3-9.3
				c7.1-3.3,15.6-7.3,20.2-14c4.5-6.6,2.8-14.1-0.8-20.7c-4.3-7.9-10.8-14.4-17.6-20.2c-6.4-5.4-13-10.6-20.7-13.8
				c-17.3-7.1-38-2.3-55.8,0.5c-11.4,1.8-22.8,3.7-34.2,5.5c-11.4,1.8-23.3,1.7-34.6,4.3C6457.9,1013.6,6461.1,1025.2,6468.6,1023.4
				L6468.6,1023.4z"/>
		
	
	
		
			<path d="M6560,1035.6c-8.8,0.9-16.6,5-24.9,7.7c-7.8,2.6-15.8,5-22.8,9.5c-2,1.3-3.7,4.2-2.8,6.8c1.7,4.5,5.2,7.1,9.3,9.6
				c4.8,2.9,9.5,5.9,14.1,9c6.4,4.3,12.4-6.1,6.1-10.4c-3.8-2.5-7.6-5-11.5-7.5c-1.5-0.9-6-3-6.4-4c-0.9,2.3-1.8,4.5-2.8,6.8
				c6.1-4,13-6,19.9-8.3c7.1-2.4,14.2-6.5,21.7-7.3C6567.6,1046.8,6567.7,1034.8,6560,1035.6L6560,1035.6z"/>
		
	
	
		
			<path d="M6516.6,1052.9c-12.2-7.3-25.7,1.1-37.7,4.4c-7.2,2-14.8,3-21.9,5.2c-6.6,2-11.8,7.9-11.1,15.1
				c0.6,6.3,5.9,10.8,11.7,12.7c5.8,1.9,15.1,1.6,15.4-6.3c0.2-6.6-6.8-9.3-12.3-9.5c-7.4-0.3-12.7,4.8-17.2,9.9
				c-6.9,7.6-13.7,15.2-20.9,22.6c-3.1,3.2-5.7,6.9-9.3,9.6c-3.2,2.5-5.8,4.5-7,8.7c-0.5,1.9,0,4.5,1.5,5.8
				c7.8,6.8,23.4,4.7,32.1,0.8c6.1-2.7,12.5-6.4,17.4-11c4.8-4.6,7.2-11.5,12.7-15.3c-3-1.7-6-3.5-9-5.2c-0.1,1.9-5,7.6-6.5,10.5
				c-2.3,4.5-3.3,10,0.7,14c4.8,4.9,13.5,4.1,19.8,3.7c6.7-0.5,9.5-4.4,11.8-10.3c-1.9,1.5-3.9,2.9-5.8,4.4c-0.2,0-2.5-1.2-1.7-1.5
				c-0.4,0.1-1.1,2.1-1.2,2.5c-0.6,1.9-0.9,3.9-0.3,5.8c1.1,3.7,4.6,6.2,8.1,7.4c8.4,2.9,15.4-1.8,17.8-10c2-6.9-7.2-9.9-11-4.6
				c-7.3,10.3-11.4,22.2-11,34.9c0.1,4.6,1.1,9.3,4.8,12.4c4.3,3.5,10,2.9,14.6,0.5c4.9-2.6,9.2-6.2,11.5-11.3
				c1.4-3.1,3-6.4,3.9-9.6c1-3.4,0.9-5.6,3.4-8.4c2.2-2.6,2.9-5.5,4.6-8.3c1.6-2.6,4.5-3.9,6.5-6.3c2.2-2.7,3.7-6,4.9-9.2
				c1.3-3.4,1.1-7.2,2.4-10.5c1.2-2.9,3.7-5.2,5.7-7.6c2-2.4,3.5-5.6,5.8-7.6c2.4-2.2,6-2.9,8.7-4.6c3.1-2,5-4.9,7.3-7.7
				c4.9-5.9-3.6-14.4-8.5-8.5c-2.2,2.6-3.7,5.3-6.8,6.9c-2.8,1.4-5.6,2.5-8,4.5c-2.8,2.3-4.3,5.4-6.5,8.1c-2,2.5-4.3,4.7-6.1,7.4
				c-4.3,6-3.4,13.4-7.1,19.5c-1.8,3-4.8,4.5-7,7.2c-2.2,2.7-2.8,6.1-4.9,8.9c-2.2,3-4.2,4.7-5.1,8.5c-0.9,3.6-1.5,6.6-3,10.1
				c-1.2,2.7-2.1,4.5-4.5,6.3c-1,0.8-3.1,2.6-4.6,2.5c1.1,0.1,0.1,0.7,0-1.2c0-0.7-0.1-1.5-0.1-2.2c0-2.1,0.1-4.3,0.3-6.4
				c0.6-8.2,4.4-15.4,9-22c-3.7-1.5-7.3-3.1-11-4.6c-1.1,3.8-0.6,0.9-3.2,1.5c-1.3-0.9-1.2,0.1,0.2,2.9c0.4-0.6,0.7-1.2,1-1.8
				c0.6-1.3,1-2.6,1.2-4c0.5-6.2-4.3-11.2-10.3-11.6c-2.8-0.2-4.9,2-5.8,4.4c-0.5,1.4-1.1,1.9-0.1,1.5c-1.5,0.6-4.5,0.2-6.1,0.2
				c-1.3,0-2.8-0.2-4-0.1c-0.4,0-0.8-0.1-1.2-0.3c-0.9-0.4-0.7,0,0.6,1.3c0.4,0,0.1-0.3,0.7-1.1c1.9-2.1,3.4-5.3,4.8-7.7
				c1.6-2.6,2.8-5.3,3-8.4c0.3-4.4-5.4-7.6-9-5.2c-4.8,3.2-7.9,7.5-11.1,12.2c-3,4.5-6.9,7.4-11.5,10.1c-4.7,2.7-9,4.9-14.4,5.3
				c-2.3,0.2-8.7,1.4-10.6-0.3c0.5,1.9,1,3.9,1.5,5.8c0.4-1.3,2.9-2.4,4-3.3c2.3-1.9,4.2-4.2,6.2-6.4c4.5-5,9.3-9.7,13.8-14.7
				c4.1-4.6,8.1-9.4,12.5-13.9c1.4-1.4,3.1-3.4,5.2-3.8c0.5-0.1,1.2,0.2,1.7,0.1c0.3,0.1,0.6,0.1,0.9,0.2c1.5,0.4,1-0.8-1.3-3.5
				c1.4-1.4,2.8-2.8,4.2-4.2c-2.5,0.6-9.7-1.2-6.4-4.3c1.8-1.6,6.2-1.6,8.4-2.2c3.8-1,7.6-2,11.5-2.8c5.6-1.2,10.8-3.4,16.2-5.3
				c4.8-1.6,11-4,15.7-1.2C6517.1,1067.3,6523.2,1056.9,6516.6,1052.9L6516.6,1052.9z"/>
		
	
	
		
			<path d="M6368.9,1013.1c3.4,5.8,2.7,13.8,7.7,18.6c5.1,4.8,12.4,5.6,19.1,5.6c8.1,0,16.2-0.2,24.2-0.2c4.4,0,8.8,0.3,13.2,0.1
				c4.2-0.2,7.6-2.2,11.6-3.3c7.5-2,4.3-13.6-3.2-11.6c-2.8,0.8-5.5,2.5-8.4,2.9c-3.6,0.5-7.5-0.1-11.2-0.1
				c-7.3,0-14.6-0.1-21.9,0.1c-4.1,0.1-12.9,1.4-15.5-2.8c-1.1-1.8-0.9-4.8-1.5-6.9c-0.8-3-2.2-5.8-3.8-8.5
				C6375.4,1000.4,6365,1006.4,6368.9,1013.1L6368.9,1013.1z"/>
		
	
	
		
			<path d="M6293.3,1101.5c-0.6,2.1-1.5,3.8-1.8,6c-0.3,2.1,0.1,4,0.1,6.1c0,3.7-0.8,7.4-0.6,11.2c0.5,7.7,6,12.2,12.1,16
				c7,4.4,13.4,9.9,21.6,11.7c8.2,1.8,16.5,2.3,24.9,1c5.9-1,13.2-2.8,14.7-9.5c1.3-5.5-2.2-10.2-5.9-13.9
				c-4.8-4.7-16.5-18-23.7-11.3c-3,2.8-1.8,7.3,1.2,9.4c5.9,4.2,14.1,8,21.6,7.1c6.7-0.8,8.1-7.7,6.1-13.1
				c-4-10.7-15.1-20.6-26.7-20.6c-7.8,0-7.7,11.6,0,12c3.5,0.2,6.9,1.5,10.5,0.6c4.1-1.1,6.7-4.5,7.1-8.7c0.2-2.2-0.2-4.4-0.8-6.5
				c-0.7-2.9-0.4-4.3,1-7.1c2-4.3,4.4-8.4,5.5-13.1c0.4-1.6,0.9-6.3,1.9-6.7c1.5-0.5,4.9,2.3,6.2,2.9c1.9,0.9,3.7,1.7,5.8,2
				c1.5,0.3,3.7,0.7,5.1,0.7c0-0.2,0.1-0.1,0.2,0.4c0.3,0.7,0.5,0.5,0.7-0.7c-0.4,0-1,0.4-1.4,0.3c-2.2-0.8-4.3-1.1-6.5-2.1
				c-2.3-1-4.5-1.9-7-2.3c-7.6-1.3-10.8,10.2-3.2,11.6c6.3,1.1,11.3,5.3,17.9,4.8c5.4-0.4,10.6-3.6,11.5-9.3
				c0.9-5.7-2.7-11.8-8.1-13.8c-2.4-0.9-4.9-0.7-7.3-1.3c-2.9-0.8-5.4-2.8-8.2-3.9c-5.3-2.1-11.3-1.4-15.1,3.1
				c-3.2,3.8-3.3,8.7-4.7,13.2c-2,6.6-7.3,12.2-6.9,19.4c0.1,1.5,0.5,3,0.8,4.4c0.2,0.6,0.4,1.3,0.5,2c0.1,1.3,0.7,1,1.9-0.9
				c-0.2-0.5-7-0.9-7.4-0.9c0,4,0,8,0,12c4.9,0,7.5,2.4,10.6,5.9c1.3,1.5,2.6,3,3.7,4.7c0.3,0.5,0.7,1.5,1.1,1.9
				c1.4,1.3-1.6,1.5,1-1c1.4-0.6,2.8-1.2,4.2-1.8c-6-0.1-10.7-2-15.5-5.5c0.4,3.1,0.8,6.3,1.2,9.4c-3.5,3.2-7.1,0-3.6,2.4
				c1.1,0.7,2.1,1.5,3.1,2.4c2.5,2.1,4.9,4.2,7.3,6.5c0.8,0.8,1.7,1.6,2.4,2.5c-1.1-1.5,0.4,0.6,0.2,0.9c0.5-0.8,0.4-1.3,0.2-1.5
				c-0.4-0.4-5.5,1.3-6.3,1.5c-3.2,0.5-6.5,0.6-9.7,0.4c-5.1-0.3-10.9-1.1-15.3-3.8c-4.4-2.6-8.5-5.7-12.8-8.4
				c-1.7-1.1-4.3-2.5-5.2-4.4c-0.8-1.7-0.3-4.2-0.2-6c0.2-2.3,0.5-4.6,0.4-6.8c-0.1-3.4,0.4-4.9,1.3-8.1
				C6307,1097.3,6295.4,1094.1,6293.3,1101.5L6293.3,1101.5z"/>
		
	
	
		
			<path d="M6377.3,1087.8c1.8,1.8,1.4,6.7,1.7,9.1c0.6,5.5,3.3,10.6,4,16.1c0.7,5.8,0,11.9,0.1,17.8c0.2,5.8-1.4,11.2-1.6,17
				c-0.1,4.1,0.6,6.5-4.3,6.5c-6.1,0.1-11.8,0.2-17.8,1c-3.2,0.4-9.7,2.2-12.6,0.5c-3.3-1.9,1.2-6.2,1.6-9.1
				c0.4-3.2-0.8-6.4-4.2-7.4c-2.8-0.8-6.9,1-7.4,4.2c-0.4,3.1-2.9,5.4-3.3,8.6c-0.4,3.1,0.5,6.3,2.1,9c3.5,6,10,7.3,16.5,6.9
				c7.4-0.4,14.6-2.2,22.1-1.9c6.6,0.2,13.5-0.2,17.2-6.6c3-5.2,1.9-12.1,3-17.8c1.5-7.9,0.8-16.3,0.8-24.3c0-4.1-0.4-8-1.6-12
				c-0.9-3.2-2.2-6.2-2.6-9.5c-0.8-5.8-0.6-12.3-5.1-16.6C6380.2,1074,6371.7,1082.5,6377.3,1087.8L6377.3,1087.8z"/>
		
	
	
		
			<path d="M6342.5,1149.6c7.7,0,7.7-12,0-12C6334.8,1137.6,6334.8,1149.6,6342.5,1149.6L6342.5,1149.6z"/>
		
	
	
		
			<path d="M6549.5,1079.1c0.3,5-1.4,10-2.3,14.9c-0.8,4.5-1.5,8.9-2.4,13.4c-1.7,9-4.1,17.7-6.9,26.4c-1.8,5.5-3.1,14-8.6,17.1
				c-3,1.7-11.3,4.5-14.2,2.5c-6.4-4.3-12.4,6-6.1,10.4c5.9,4,15.4,1.6,21.6-0.5c8.5-2.9,13-9,15.9-17.2c3.5-10,6.8-20.3,8.9-30.7
				c1.3-6,2.2-12.1,3.3-18.2c1.1-6,3.1-12,2.8-18.1C6561.1,1071.4,6549.1,1071.4,6549.5,1079.1L6549.5,1079.1z"/>
		
	
	
		
			<path d="M5954,1157c7.3,0.7,14.8,3.5,20.6,8c5.9,4.6,9,11.8,13.6,17.6c10,12.8,23.2,20.9,36.8,29.3c6.4,4,13.4,7.6,14.7,15.6
				c0.3,2.2,0.7,4.9-1.1,6.5c-2.5,2.2-7.9,1.7-10.9,1.1c-8.8-1.6-16-7.4-21.4-14.3c-4.6-5.9-9.3-10.6-17.5-8.8
				c-3.2,0.7-5.9,2.4-8.7,4c-0.3,0.2-2.1,1.1-2.1,1.1c-0.6-0.1-3.3-3.1-3.3-4.1c-0.1-1.8,1.3-2.4,2.9-3.5c3-2.1,6-3.9,8.7-6.3
				c5.9-5-2.6-13.5-8.5-8.5c-5.3,4.5-13.4,7.3-15.1,14.9c-1.9,8.1,6,18.7,14.3,19.4c3.4,0.3,6.3-1,9.2-2.7c3.2-1.8,5.8-4.3,8.8-1
				c3.2,3.6,5.8,7.6,9.5,10.9c4.1,3.6,8.6,6.5,13.7,8.5c8.7,3.4,21.6,4.8,29-2.3c6.4-6.2,5.7-16.3,2.5-23.9
				c-3.8-9.1-14-14.3-22-19.1c-8.4-5.1-16.7-10.2-23.7-17.2c-3.8-3.8-7.1-7.9-10.1-12.4c-2.9-4.5-5.5-8.9-9.6-12.5
				c-8.4-7.3-19.1-11.4-30.1-12.4C5946.3,1144.3,5946.4,1156.3,5954,1157L5954,1157z"/>
		
	
	
		
			<path d="M5965.8,1148.6c0.6-3.4,5.8-5.1,8.5-6.4c1.5-0.7,4.1-2.3,5.9-2.3c-0.2,0-1-0.6-0.6-0.3c0.6,0.4,0.9,1.6,1.2,2.3
				c0.7,1.8,2.9,7.5,2.3,8.5c-0.3,0.5-4.3,1-5.6,1c-3.1,0.1-5.2-0.3-7.3-2.7c-5.2-5.7-13.7,2.8-8.5,8.5c6.5,7.2,19.3,8.3,27.5,3.3
				c8.1-4.9,5.8-14.8,3-22.1c-3.6-9.4-10.3-12.4-19.7-8.5c-7.1,3-16.9,6.8-18.4,15.4C5952.9,1153,5964.4,1156.2,5965.8,1148.6
				L5965.8,1148.6z"/>
		
	
	
		
			<path d="M6001.6,1171.2c0.5,0.1,0.1-0.5,0.2-1.6c0.1-0.9-1.2,0.7-0.1-0.1c0.4-0.3,1-0.5,1.5-0.7c2.8-1.4,6.5-3.7,9.6-3.9
				c1.8-0.1,4.5,0.7,5,2.8c0.4,1.8-1.2,2.8-2.6,3.8c-3.8,2.6-7.9,4.1-11.4,7.2c-5.8,5.2,2.8,13.6,8.5,8.5c6.5-5.8,17-7.3,17.6-18
				c0.6-10.8-10.5-17.9-20.3-16c-5.3,1.1-14.7,4.7-17.8,9.5c-4.5,7.1-1.8,17.6,6.6,20C6005.8,1184.9,6009,1173.3,6001.6,1171.2
				L6001.6,1171.2z"/>
		
	
	
		
			<path d="M6028,1157c0.9-8.4-4.8-13-8.8-19.4c-4.8-7.7-6.2-17-9.8-25.3c-3.3-7.5-6.9-15.4-12.7-21.4c-2.8-2.9-6.2-5.5-9.9-7.3
				c-3.4-1.7-7.7-2.2-10.5-4.9c-5.6-5.3-14.1,3.1-8.5,8.5c5.2,5,12.6,5.5,18,10c6,5,9.3,12.5,12.5,19.5c3.4,7.4,4.9,15.5,8.4,22.9
				c2.6,5.4,10,11.1,9.3,17.4C6015.2,1164.7,6027.2,1164.6,6028,1157L6028,1157z"/>
		
	
	
		
			<path d="M5964,1237c6.2-0.5,13.3,2,18.4,5.4c5.6,3.8,7.4,11.9,10,17.9c3.4,7.7,5.4,16,6,24.4c0.6,7.7,0.4,16.3-4.7,22.5
				c-4.6,5.7-11.5,8.6-18.2,11c-7.3,2.7-14.3,6.1-21.6,8.8c-8.2,3.1-17.4,4.5-26.2,4c-6.5-0.4-5.5-6.2-4.4-11.3
				c0.6-2.7,0.5-3.6,2.8-4.9c4.2-2.4,8.5-3.9,13.1-5c10.8-2.7,21.6-5.9,32.8-6.8c7.6-0.6,7.7-12.6,0-12c-12.8,1-25.3,4.4-37.7,7.7
				c-7.5,2-18.1,5.4-21.2,13.4c-2.7,7-4.1,16.7-0.1,23.5c5.4,9.2,17.7,8,26.7,7c4.8-0.5,9.6-1.4,14.3-2.8c5.6-1.8,10.6-4.6,16-6.7
				c8.7-3.4,18.1-5.9,25.8-11.5c18-13.1,17.1-37.8,11-57.2c-1.8-5.6-4.4-10.8-6.6-16.2c-2.1-5.1-4.1-10.1-8.5-13.7
				c-7.2-5.9-18.2-10.1-27.6-9.4C5956.4,1225.6,5956.3,1237.6,5964,1237L5964,1237z"/>
		
	
	
		
			<path d="M5930,1299c-3-0.4-8.2-1.9-8.5-5.6c-0.3-4,5.1-7.8,8.2-9.2c8.7-3.8,19-1.9,27.9-5.4c7.1-2.8,4-14.4-3.2-11.6
				c-7.3,2.9-15,2.4-22.6,3.9c-7.4,1.5-14.3,5.4-18.7,11.7c-3.8,5.4-4.9,12.4-1.5,18.2c3.9,6.6,11.2,9.1,18.4,10
				C5937.6,1312,5937.6,1299.9,5930,1299L5930,1299z"/>
		
	
	
		
			<path d="M5928.2,1276.8c-3.8-3.3-1.3-7.8-0.7-12.2c0.8-5.3,0.2-11.5,4.1-15.7c3.7-3.9,9.8-4.9,14.6-7c5.8-2.6,11.2-5.4,17.7-4.9
				c7.7,0.6,7.7-11.4,0-12c-9.1-0.7-16.3,3.5-24.4,6.7c-7.6,3-14.6,5.2-19.3,12.4c-4.2,6.5-3.5,14.2-5,21.5
				c-1.6,7.6-1.8,14.1,4.5,19.6C5925.6,1290.3,5934.1,1281.8,5928.2,1276.8L5928.2,1276.8z"/>
		
	
	
		
			<path d="M5996.8,1214c-2.3,4.4-2.7,9.1-4.1,13.8c-1.4,4.7-3.8,8.8-4.5,13.7c-0.4,3.2,0.8,6.4,4.2,7.4c2.8,0.8,6.9-1,7.4-4.2
				c0.6-4.4,2.5-8.1,4-12.2c1.4-4,1.4-8.6,3.4-12.4C6010.7,1213.2,6000.4,1207.1,5996.8,1214L5996.8,1214z"/>
		
	
	
		
			<path d="M6504.5,1014.6c0.1-6,0.3-11.9-0.7-17.9c-1.1-6.4-3.3-12.6-4.9-18.8c-2.9-11.7-5.9-23.3-9.9-34.7
				c-7.9-22.2-22.6-40.6-42.1-53.9c-10.1-6.9-20-8.4-32-8.3c-11.6,0.1-23.1,1.5-33.8,6.4c-4.7,2.2-8.6,5.4-12.5,8.8
				c-4.2,3.7-8.5,7.1-12,11.5c-6.4,8-13.3,17-17.6,26.3c-5.5,11.7-4.4,23.9-1.2,36.1c1.6,6.1,3.9,12.1,6.6,17.8
				c2.4,5,4.6,10.5,4.2,16.1c-0.6,7.7,11.4,7.7,12,0c0.8-9.5-4.1-17.6-7.5-26c-3.7-9-6.7-19.5-6-29.3c0.7-9.5,7.5-17.6,12.8-25
				c2.5-3.4,4.7-7.1,7.5-10.2c3.3-3.6,7.2-6.7,10.9-9.9c7.9-6.8,17.9-9.6,28.1-10.3c10.3-0.8,21-1.5,30.2,3.7
				c17.5,9.9,32.5,27.4,39.6,46.1c4.2,11.2,7.5,22.6,10.3,34.3c1.4,5.8,3.1,11.5,4.6,17.3c1.7,6.7,1.6,13,1.5,19.8
				C6492.4,1022.3,6504.4,1022.3,6504.5,1014.6L6504.5,1014.6z"/>
		
	
	
		
			<path d="M6371,977.1c-0.1-5.9-2.1-14.5,0.6-19.9c2.2-4.4,7.4-7.6,10.4-11.6c5.1-6.7,9.2-17.9,19.5-16.6c6,0.7,11.4,5.1,16.8,7.6
				c6.4,3,12.9,5.6,19.2,8.7c2.1,1.1,4.5,2,6,3.8c1.7,2,2.5,4.9,3.7,7.3c3.1,6.1,7.1,11.6,10.2,17.7c3.5,6.9,13.8,0.8,10.4-6.1
				c-3.5-7-8.1-13.3-11.4-20.3c-3.1-6.7-7.3-10.1-13.9-13.3c-7.9-3.9-16.3-7-24.1-11.2c-6.3-3.4-12.5-6.9-20-6.3
				c-13.8,1.1-18.5,11.9-26,21.6c-3.9,5-9.4,8.4-12,14.4c-3.2,7.3-1.4,16.4-1.4,24.1C6359.1,984.8,6371.1,984.8,6371,977.1
				L6371,977.1z"/>
		
	
	
		
			<path d="M6438.6,946.4c-10.6-6.1-21.4-14.8-34.3-12.5c-5.2,0.9-5.7,8.6-1.4,11c10.6,5.8,21,11.8,31.6,17.8c2-3.5,4-6.9,6.1-10.4
				c-8.2-3.7-16.4-7.3-24.3-11.6c-4.8-2.6-11.3-6.4-16.7-3.5c-2.9,1.6-4.6,4.8-4.8,8.1c0,0.1,0.1,2.6,0.2,2.6
				c1.4-1.6,1.3-2.3-0.3-2.1c-0.9-0.2-1.9-0.4-2.8-0.7c-5.1-1.3-10.5-5.2-15.9-3.3c-3.9,1.3-5.3,5.2-3.6,8.8
				c-0.9-2.1,0.8-3.2,5.2-3.1c0.9,2.3,1.8,4.5,2.8,6.8c0.2-0.7,3.9-3,4.9-4c2.3-2.3,4.6-4.4,7.1-6.5c3.8-3.3,4.8-8.4,8.8-11.4
				c-2.9-1.2-5.9-2.4-8.8-3.6c-0.4-1.8,0.2-0.6-0.4,0.5c-0.2,0.4-0.4,0.9-0.6,1.3c-0.8,1.7-1.8,3.3-2.6,4.9c-1.6,3.3-2.7,6.1-1,9.6
				c1,2.1,4.5,3.7,6.8,2.8c4.1-1.7,6.4-4.2,8.4-8.1c0.2-0.4,1-2.2,0.9-2.2c1.5-0.7,4.3,2.4,5.1,3.1c4.9,4,11.1,6.3,16.6,9.1
				c3,1.6,6.1,3.2,9.4,4.3c0.9,0.3,4,1.8,4.8,1.5c0.7-2.1,1.4-4.3,2.1-6.4c-0.6,0-1.3,0-1.9-0.1c-0.6-0.2-1.5-0.2-2.2-0.3
				c-2.2-0.3-4.1-0.4-6.3-0.5c-7-0.3-13.9-1.6-21-1.3c-7.1,0.3-13.3-0.9-20.3-1.8c-7.3-1-14.5-1.2-21.9-1.3c-7.7,0-7.7,12,0,12
				c9.2,0,18.3,0.5,27.4,2.3c8.5,1.7,16.9,0.4,25.5,1.2c6.8,0.7,13.2,1.7,19.7,1.8c5.7,0,11.4-3.7,9.6-10.2
				c-1.6-5.8-7.5-6.8-12.4-8.5c-4.5-1.6-8.5-4.3-12.8-6.3c-3.4-1.7-6.7-3-9.6-5.4c-5-4-11.8-7.3-18-3.5c-2,1.2-3.4,3-4.5,5
				c-0.5,0.9-1,1.9-1.4,2.9c-0.3,0.6-1.4,1.5-0.5,1.1c2.3,0.9,4.5,1.8,6.8,2.8c1.6,3.4-0.2,4.9,1.7,1.2c0.8-1.5,1.7-3.1,2.4-4.6
				c1.6-3.3,2.7-6.5,1.8-10.2c-0.8-3.5-5.8-5.9-8.8-3.6c-2.9,2.2-5.5,4.4-7.4,7.6c-1.6,2.7-2.5,4.5-4.9,6.6c-2.7,2.2-5,5-7.7,7.2
				c-3,2.3-5,4-6.2,7.7c-0.7,2.3,0.4,5.7,2.8,6.8c9.3,4.2,15.2-5.1,11.3-13.3c-1.2,2.9-2.4,5.9-3.6,8.8c0.7-0.2,3.9,1.4,5.2,1.9
				c2.3,0.9,4.6,1.6,7.1,2.1c6,1.1,13.7-0.1,15.3-7c0.1-0.5,0.6-2.6,0.2-3.3c0.1-2-1.1-1.7-3.4,1.1c0.7,0.1,1.4,0.3,2,0.6
				c2.2,0.8,4.2,2.1,6.2,3.2c7.4,4,15.1,7.3,22.7,10.8c6.9,3.1,12.9-6.5,6.1-10.4c-10.5-5.9-21-12-31.6-17.8c-0.5,3.7-1,7.3-1.4,11
				c8.5-1.5,18.3,7.4,25.1,11.3C6439.2,960.7,6445.2,950.3,6438.6,946.4L6438.6,946.4z"/>
		
	
	
		
			<path d="M6422,1038.6c0,10.9,0,21.7,0,32.6c0,10.7-1.4,21.2-1.5,31.9c-0.1,7.7,11.9,7.7,12,0c0.1-10.7,1.5-21.2,1.5-31.9
				c0-10.9,0-21.7,0-32.6C6434,1030.9,6422,1030.9,6422,1038.6L6422,1038.6z"/>
		
	
	
		
			<path d="M6363.5,1034.1c0,10,0,20,0,30c0,7.7,12,7.7,12,0c0-10,0-20,0-30C6375.5,1026.4,6363.5,1026.4,6363.5,1034.1
				L6363.5,1034.1z"/>
		
	
	
		
			<path d="M6386,1124.1c8.9,0.1,16.9,8.7,23.9,13.4c9.1,6.2,17,14.3,26.8,19.4c8.9,4.7,19.5,9.8,29.5,11.5
				c7.8,1.3,18.1,2.7,24.5-2.6c6-4.9-2.6-13.4-8.5-8.5c-1.4,1.1-7-0.1-8.9-0.2c-5-0.3-9.4-1.4-14-3.3c-9.4-3.9-18.7-7.7-26.8-14
				c-7.6-5.9-15.4-11.5-23.1-17.2c-7.2-5.3-14.1-10.5-23.4-10.6C6378.3,1112,6378.3,1124,6386,1124.1L6386,1124.1z"/>
		
	
</g>
<g id="viens">
	
		<path d="M7673,652.8c-6.4-6.8-12.7-10.1-20.3-15.8c-11.6-8.8-22.2-18.9-33.8-27.7c-12.1-9.1-30.4-19.4-30.3-37.1
			c0.1-11,17.3-16.8,26.3-20.1c18.7-6.9,37.3-12.3,55.8-20.1c17.6-7.5,33.9-16.1,50.1-26.2c20.4-12.8,42.5-22.6,64.3-32.8
			c22.3-10.4,42.5-17.1,67.1-19.1c32.1-2.6,64.6-3.2,96.8-2.1c13.2,0.5,24.7,4.1,37,8.3c10.2,3.4,22.3,4.9,32,9.9
			c16.3,8.4,28.1,27.7,39.7,41.5c10,11.9,12.5,21.2,17.9,35.6c3.9,10.4,9.6,20,12.3,30.8c5.2,20.5,6.1,42.4,2.7,63.3
			c-2.7,16.6-6.1,27.8-21.4,36.5c-23.2,13.2-48.5,24.1-74.8,29.5c-21.8,4.5-40.7,4.1-60.1-7.6c-8.8-5.3-18.1-12.3-24.2-20.7
			c-3.7-5.2-5.9-11.8-12.8-13.6c-5,3.2-4.1,18.6-5,24.2c-1.6,10.4-0.7,21.2-0.7,31.7c0,17.2,0,34.4,0,51.7c0,9.6,2.4,28-8.3,32.5
			c-9.4,4-24.9-2.1-33.3-5.6c-7.8-3.3-17-5.6-21.3-13.3c-6.7-12-3.1-30.6-3.1-43.6c0-19.8,2.1-38.9,2.9-58.6
			c0.6-14.3,4.4-30.4,13.5-41.7c10.5-13,24.9-15.5,40.7-17c10.5-1,23.1-0.9,32.9,3c14.2,5.6,27.6,9.4,42.3,12.9
			c11.7,2.8,23.4,2.1,35.3,2.2c5.5,0,12.3,1.7,17-1.5c14.2-9.4,17.9-40.6,15.8-55.5c-2.7-19.2-4.8-36-16.6-51.9
			c-10.2-13.8-25.7-20.5-40.4-28.4c-10.8-5.8-23.4-8.8-34.9-12.8c-6.6-2.3-14.5-5.1-21.5-6c-16-2-30.8,4.1-44.9,10.5
			c-14.1,6.4-28.3,12.4-41.5,20.5c-9.6,5.9-18.4,12.9-27.9,18.8c-18.6,11.4-35.6,24.2-53.9,35.9c-17.6,11.3-33.7,24.1-50.7,36
			c-5.9,4.1-10.5,9.1-15.6,14.1c-3,2.9-6.1,5.6-8.5,9.1c-2.6,3.9-3.4,10.5-8.8,11.3"/>
	
	
		<path d="M7880.1,895.8c-22.5-11-57.5-42.4-75.3-7.7c-8,15.5-5.7,36.1-5.7,52.9c0,7.1-1,14.5,1.6,21.2c3.5,9.1,9.3,12.2,17,17.5
			c15.2,10.4,30.6,21.8,50.2,21.4c19.5-0.5,24.4-16.2,24.3-33.2c-0.1-8.5,0.9-17.3-0.7-25.7c-1.2-6.3-2.4-11.4-2.3-17.8
			c0-4.1,1.1-9.5,0.2-13.4c-1.8-8.2-8.5-16.5-12.2-24.1"/>
	</g>

</svg>
